<svg width="24" height="25" viewBox="0 0 24 25" fill="none" xmlns="http://www.w3.org/2000/svg">
<path d="M17.7073 12.7932C17.6145 12.7003 17.5043 12.6265 17.383 12.5762C17.2617 12.5259 17.1317 12.5 17.0003 12.5C16.869 12.5 16.739 12.5259 16.6176 12.5762C16.4963 12.6265 16.3861 12.7003 16.2933 12.7932L14.6993 14.3872C13.9603 14.1672 12.5813 13.6672 11.7073 12.7932C10.8333 11.9192 10.3333 10.5402 10.1133 9.8012L11.7073 8.2072C11.8003 8.11441 11.874 8.00421 11.9243 7.88289C11.9746 7.76158 12.0005 7.63153 12.0005 7.5002C12.0005 7.36887 11.9746 7.23882 11.9243 7.11751C11.874 6.99619 11.8003 6.88599 11.7073 6.7932L7.70733 2.7932C7.61455 2.70026 7.50434 2.62652 7.38303 2.57621C7.26171 2.5259 7.13167 2.5 7.00033 2.5C6.869 2.5 6.73896 2.5259 6.61764 2.57621C6.49633 2.62652 6.38612 2.70026 6.29333 2.7932L3.58133 5.5052C3.20133 5.8852 2.98733 6.4072 2.99533 6.9402C3.01833 8.3642 3.39533 13.3102 7.29333 17.2082C11.1913 21.1062 16.1373 21.4822 17.5623 21.5062H17.5903C18.1183 21.5062 18.6173 21.2982 18.9953 20.9202L21.7073 18.2082C21.8003 18.1154 21.874 18.0052 21.9243 17.8839C21.9746 17.7626 22.0005 17.6325 22.0005 17.5012C22.0005 17.3699 21.9746 17.2398 21.9243 17.1185C21.874 16.9972 21.8003 16.887 21.7073 16.7942L17.7073 12.7932ZM17.5803 19.5052C16.3323 19.4842 12.0623 19.1492 8.70733 15.7932C5.34133 12.4272 5.01533 8.1422 4.99533 6.9192L7.00033 4.9142L9.58633 7.5002L8.29333 8.7932C8.1758 8.91065 8.08938 9.05554 8.04189 9.21477C7.9944 9.374 7.98733 9.54256 8.02133 9.7052C8.04533 9.8202 8.63233 12.5472 10.2923 14.2072C11.9523 15.8672 14.6793 16.4542 14.7943 16.4782C14.9569 16.5132 15.1256 16.5067 15.285 16.4593C15.4444 16.4119 15.5893 16.3252 15.7063 16.2072L17.0003 14.9142L19.5863 17.5002L17.5803 19.5052Z" fill="black"/>
</svg>
