<svg width="49" height="49" viewBox="0 0 49 49" fill="none" xmlns="http://www.w3.org/2000/svg">
<path fill-rule="evenodd" clip-rule="evenodd" d="M41.6267 14.74L41.3467 14.24C40.9855 13.6354 40.4761 13.1329 39.8667 12.78L26.4467 5.04C25.8391 4.6875 25.1493 4.50124 24.4467 4.5H23.8667C23.1641 4.50124 22.4743 4.6875 21.8667 5.04L8.44669 12.8C7.84063 13.1505 7.33721 13.6539 6.98669 14.26L6.70669 14.76C6.35419 15.3677 6.16793 16.0575 6.16669 16.76V32.26C6.16793 32.9626 6.35419 33.6524 6.70669 34.26L6.98669 34.76C7.34627 35.359 7.84767 35.8604 8.44669 36.22L21.8867 43.96C22.4913 44.3198 23.1831 44.5066 23.8867 44.5H24.4467C25.1493 44.4988 25.8391 44.3126 26.4467 43.96L39.8667 36.2C40.4787 35.8574 40.9841 35.352 41.3267 34.74L41.6267 34.24C41.9749 33.6306 42.1609 32.942 42.1667 32.24V16.74C42.1655 16.0375 41.9793 15.3477 41.6267 14.74ZM23.8667 8.5H24.4467L36.1667 15.26L24.1667 22.18L12.1667 15.26L23.8667 8.5ZM26.1667 39.5L37.8667 32.74L38.1667 32.24V18.72L26.1667 25.66V39.5Z" fill="black"/>
</svg>
