<svg width="24" height="25" viewBox="0 0 24 25" fill="none" xmlns="http://www.w3.org/2000/svg">
<path fill-rule="evenodd" clip-rule="evenodd" d="M12 3.5C7.03145 3.5 3 7.53145 3 12.5C3 17.4686 7.03145 21.5 12 21.5C16.9588 21.5 21 17.4686 21 12.5C21 7.53145 16.9588 3.5 12 3.5ZM17.9447 7.64859C19.0184 8.95662 19.6627 10.6258 19.6822 12.4317C19.4284 12.3829 16.8904 11.8655 14.333 12.1876C14.2744 12.0607 14.2256 11.9241 14.167 11.7874C14.0108 11.4165 13.8352 11.0358 13.6594 10.6746C16.4902 9.5228 17.7787 7.86334 17.9447 7.64859ZM12 4.82755C13.9523 4.82755 15.7386 5.55966 17.0955 6.76031C16.9588 6.95553 15.7972 8.50759 13.064 9.53253C11.8048 7.21909 10.4089 5.32538 10.1942 5.03254C10.77 4.89588 11.3753 4.82755 12 4.82755ZM8.72996 5.54989C8.93494 5.82321 10.3015 7.72668 11.5803 9.99131C7.98807 10.948 4.81562 10.9284 4.47397 10.9284C4.9718 8.54664 6.58243 6.56507 8.72996 5.54989ZM4.30803 12.5098C4.30803 12.4317 4.30803 12.3536 4.30803 12.2755C4.63991 12.2852 8.36876 12.3341 12.205 11.1822C12.4295 11.6117 12.6345 12.051 12.8297 12.4902C12.7321 12.5195 12.6247 12.5488 12.5271 12.5781C8.56399 13.8568 6.45553 17.3514 6.27983 17.6442C5.05965 16.2874 4.30803 14.4816 4.30803 12.5098ZM12 20.192C10.2234 20.192 8.58352 19.5868 7.28525 18.5716C7.42191 18.2885 8.98371 15.282 13.3178 13.769C13.3373 13.7592 13.3471 13.7592 13.3666 13.7495C14.4501 16.551 14.8894 18.9034 15.0065 19.577C14.0792 19.9772 13.064 20.192 12 20.192ZM16.2852 18.8742C16.2072 18.4056 15.7972 16.1605 14.7917 13.398C17.2028 13.0173 19.3113 13.6421 19.5749 13.73C19.243 15.8677 18.013 17.7126 16.2852 18.8742Z" fill="black"/>
</svg>
