<svg width="49" height="49" viewBox="0 0 49 49" fill="none" xmlns="http://www.w3.org/2000/svg">
<path fill-rule="evenodd" clip-rule="evenodd" d="M42.1266 14.74L41.8466 14.24C41.4854 13.6354 40.976 13.1329 40.3666 12.78L26.9466 5.04C26.339 4.6875 25.6492 4.50124 24.9466 4.5H24.3666C23.664 4.50124 22.9742 4.6875 22.3666 5.04L8.94662 12.8C8.34056 13.1505 7.83715 13.6539 7.48663 14.26L7.20663 14.76C6.85413 15.3677 6.66787 16.0575 6.66663 16.76V32.26C6.66787 32.9626 6.85413 33.6524 7.20663 34.26L7.48663 34.76C7.84621 35.359 8.3476 35.8604 8.94662 36.22L22.3866 43.96C22.9912 44.3198 23.683 44.5066 24.3866 44.5H24.9466C25.6492 44.4988 26.339 44.3126 26.9466 43.96L40.3666 36.2C40.9786 35.8574 41.484 35.352 41.8266 34.74L42.1266 34.24C42.4748 33.6306 42.6608 32.942 42.6666 32.24V16.74C42.6654 16.0375 42.4792 15.3477 42.1266 14.74ZM24.3666 8.5H24.9466L36.6666 15.26L24.6666 22.18L12.6666 15.26L24.3666 8.5ZM26.6666 39.5L38.3666 32.74L38.6666 32.24V18.72L26.6666 25.66V39.5Z" fill="black"/>
</svg>
