<svg width="25" height="25" viewBox="0 0 25 25" fill="none" xmlns="http://www.w3.org/2000/svg">
<path d="M20.5 4.49902H4.5C3.397 4.49902 2.5 5.39602 2.5 6.49902V18.499C2.5 19.602 3.397 20.499 4.5 20.499H20.5C21.603 20.499 22.5 19.602 22.5 18.499V6.49902C22.5 5.39602 21.603 4.49902 20.5 4.49902ZM20.5 6.49902V7.01002L12.5 13.233L4.5 7.01102V6.49902H20.5ZM4.5 18.499V9.54302L11.886 15.288C12.0611 15.4256 12.2773 15.5003 12.5 15.5003C12.7227 15.5003 12.9389 15.4256 13.114 15.288L20.5 9.54302L20.502 18.499H4.5Z" fill="black"/>
</svg>
