<svg width="25" height="25" viewBox="0 0 25 25" fill="none" xmlns="http://www.w3.org/2000/svg">
<path fill-rule="evenodd" clip-rule="evenodd" d="M5 3.63135C4.17157 3.63135 3.5 4.30292 3.5 5.13135V20.1313C3.5 20.9597 4.17157 21.6313 5 21.6313H20C20.8284 21.6313 21.5 20.9597 21.5 20.1313V5.13135C21.5 4.30292 20.8284 3.63135 20 3.63135H5ZM9.02076 7.63407C9.02639 8.59032 8.31061 9.17954 7.46123 9.17532C6.66107 9.1711 5.96357 8.53407 5.96779 7.63548C5.97201 6.79032 6.63998 6.1111 7.50764 6.13079C8.38795 6.15048 9.02639 6.79595 9.02076 7.63407ZM12.7797 10.3931H10.2597H10.2583V18.9529H12.9217V18.7532C12.9217 18.3733 12.9214 17.9933 12.9211 17.6132C12.9203 16.5994 12.9194 15.5845 12.9246 14.571C12.926 14.3249 12.9372 14.069 13.0005 13.8341C13.2381 12.9566 14.0271 12.3899 14.9074 12.5292C15.4727 12.6177 15.8467 12.9454 16.0042 13.4784C16.1013 13.8116 16.1449 14.1702 16.1491 14.5176C16.1605 15.5652 16.1589 16.6128 16.1573 17.6605C16.1567 18.0303 16.1561 18.4003 16.1561 18.7701V18.9515H18.828V18.7462C18.828 18.2942 18.8278 17.8423 18.8275 17.3904C18.827 16.2609 18.8264 15.1314 18.8294 14.0015C18.8308 13.491 18.776 12.9876 18.6508 12.494C18.4638 11.7599 18.0771 11.1524 17.4485 10.7137C17.0027 10.4015 16.5133 10.2004 15.9663 10.1779C15.904 10.1754 15.8412 10.172 15.7781 10.1686C15.4984 10.1534 15.2141 10.1381 14.9467 10.192C14.1817 10.3453 13.5096 10.6954 13.0019 11.3127C12.9429 11.3835 12.8852 11.4554 12.7991 11.5627L12.7797 11.587V10.3931ZM6.18164 18.9557H8.83242V10.3987H6.18164V18.9557Z" fill="black"/>
</svg>
