<svg width="25" height="25" viewBox="0 0 25 25" fill="none" xmlns="http://www.w3.org/2000/svg">
<path d="M18.2073 12.7922C18.1145 12.6993 18.0043 12.6255 17.883 12.5752C17.7617 12.5249 17.6317 12.499 17.5003 12.499C17.369 12.499 17.239 12.5249 17.1176 12.5752C16.9963 12.6255 16.8861 12.6993 16.7933 12.7922L15.1993 14.3862C14.4603 14.1662 13.0813 13.6662 12.2073 12.7922C11.3333 11.9182 10.8333 10.5392 10.6133 9.80022L12.2073 8.20622C12.3003 8.11344 12.374 8.00323 12.4243 7.88192C12.4746 7.7606 12.5005 7.63056 12.5005 7.49922C12.5005 7.36789 12.4746 7.23785 12.4243 7.11653C12.374 6.99522 12.3003 6.88501 12.2073 6.79222L8.20733 2.79222C8.11455 2.69928 8.00434 2.62554 7.88303 2.57523C7.76171 2.52492 7.63167 2.49902 7.50033 2.49902C7.369 2.49902 7.23896 2.52492 7.11764 2.57523C6.99633 2.62554 6.88612 2.69928 6.79333 2.79222L4.08133 5.50422C3.70133 5.88422 3.48733 6.40622 3.49533 6.93922C3.51833 8.36322 3.89533 13.3092 7.79333 17.2072C11.6913 21.1052 16.6373 21.4812 18.0623 21.5052H18.0903C18.6183 21.5052 19.1173 21.2972 19.4953 20.9192L22.2073 18.2072C22.3003 18.1144 22.374 18.0042 22.4243 17.8829C22.4746 17.7616 22.5005 17.6316 22.5005 17.5002C22.5005 17.3689 22.4746 17.2388 22.4243 17.1175C22.374 16.9962 22.3003 16.886 22.2073 16.7932L18.2073 12.7922ZM18.0803 19.5042C16.8323 19.4832 12.5623 19.1482 9.20733 15.7922C5.84133 12.4262 5.51533 8.14122 5.49533 6.91822L7.50033 4.91322L10.0863 7.49922L8.79333 8.79222C8.6758 8.90967 8.58938 9.05456 8.54189 9.21379C8.4944 9.37302 8.48733 9.54158 8.52133 9.70422C8.54533 9.81922 9.13233 12.5462 10.7923 14.2062C12.4523 15.8662 15.1793 16.4532 15.2943 16.4772C15.4569 16.5122 15.6256 16.5057 15.785 16.4583C15.9444 16.411 16.0893 16.3243 16.2063 16.2062L17.5003 14.9132L20.0863 17.4992L18.0803 19.5042Z" fill="black"/>
</svg>
