<svg width="25" height="25" viewBox="0 0 25 25" fill="none" xmlns="http://www.w3.org/2000/svg">
<path fill-rule="evenodd" clip-rule="evenodd" d="M21.23 7.62L21.09 7.37C20.9094 7.06769 20.6547 6.81643 20.35 6.64L13.64 2.77C13.3362 2.59375 12.9913 2.50062 12.64 2.5H12.35C11.9987 2.50062 11.6538 2.59375 11.35 2.77L4.64 6.65C4.33697 6.82526 4.08526 7.07697 3.91 7.38L3.77 7.63C3.59375 7.93384 3.50062 8.27874 3.5 8.63V16.38C3.50062 16.7313 3.59375 17.0762 3.77 17.38L3.91 17.63C4.08979 17.9295 4.34049 18.1802 4.64 18.36L11.36 22.23C11.6623 22.4099 12.0082 22.5033 12.36 22.5H12.64C12.9913 22.4994 13.3362 22.4063 13.64 22.23L20.35 18.35C20.656 18.1787 20.9087 17.926 21.08 17.62L21.23 17.37C21.4041 17.0653 21.4971 16.721 21.5 16.37V8.62C21.4994 8.26874 21.4063 7.92384 21.23 7.62ZM12.35 4.5H12.64L18.5 7.88L12.5 11.34L6.5 7.88L12.35 4.5ZM13.5 20L19.35 16.62L19.5 16.37V9.61L13.5 13.08V20Z" fill="black"/>
</svg>
