<svg width="32" height="33" viewBox="0 0 32 33" fill="none" xmlns="http://www.w3.org/2000/svg">
<path d="M8.17674 13.4193L8.17676 13.4192L8.5303 13.0657C8.53031 13.0656 8.53031 13.0656 8.53032 13.0656C8.62794 12.968 8.78621 12.968 8.88385 13.0657C8.88385 13.0657 8.88385 13.0657 8.88385 13.0657L15.6464 19.8283L16 20.1818L16.3535 19.8283L23.1161 13.0657C23.2138 12.968 23.372 12.968 23.4696 13.0657L23.8232 13.4193C23.9208 13.5169 23.9208 13.6751 23.8232 13.7728L16.1767 21.4193C16.0791 21.5169 15.9209 21.5169 15.8232 21.4193L8.17674 13.7728C8.17674 13.7728 8.17674 13.7728 8.17674 13.7728C8.07911 13.6751 8.07911 13.5169 8.17674 13.4193Z" fill="black" stroke="black"/>
</svg>
