<svg width="25" height="25" viewBox="0 0 25 25" fill="none" xmlns="http://www.w3.org/2000/svg">
<path d="M12.5001 14.499C14.7061 14.499 16.5001 12.705 16.5001 10.499C16.5001 8.29302 14.7061 6.49902 12.5001 6.49902C10.2941 6.49902 8.50006 8.29302 8.50006 10.499C8.50006 12.705 10.2941 14.499 12.5001 14.499ZM12.5001 8.49902C13.6031 8.49902 14.5001 9.39602 14.5001 10.499C14.5001 11.602 13.6031 12.499 12.5001 12.499C11.3971 12.499 10.5001 11.602 10.5001 10.499C10.5001 9.39602 11.3971 8.49902 12.5001 8.49902ZM11.9201 22.313C12.0893 22.4339 12.2921 22.4989 12.5001 22.4989C12.7081 22.4989 12.9108 22.4339 13.0801 22.313C13.3841 22.098 20.5291 16.939 20.5001 10.499C20.5001 6.08802 16.9111 2.49902 12.5001 2.49902C8.08909 2.49902 4.50009 6.08802 4.50009 10.494C4.47109 16.939 11.6161 22.098 11.9201 22.313ZM12.5001 4.49902C15.8091 4.49902 18.5001 7.19002 18.5001 10.504C18.5211 14.942 14.1121 18.927 12.5001 20.234C10.8891 18.926 6.47909 14.94 6.50009 10.499C6.50009 7.19002 9.19109 4.49902 12.5001 4.49902Z" fill="black"/>
<path d="M12.5001 14.499C14.7061 14.499 16.5001 12.705 16.5001 10.499C16.5001 8.29302 14.7061 6.49902 12.5001 6.49902C10.2941 6.49902 8.50006 8.29302 8.50006 10.499C8.50006 12.705 10.2941 14.499 12.5001 14.499ZM12.5001 8.49902C13.6031 8.49902 14.5001 9.39602 14.5001 10.499C14.5001 11.602 13.6031 12.499 12.5001 12.499C11.3971 12.499 10.5001 11.602 10.5001 10.499C10.5001 9.39602 11.3971 8.49902 12.5001 8.49902ZM11.9201 22.313C12.0893 22.4339 12.2921 22.4989 12.5001 22.4989C12.7081 22.4989 12.9108 22.4339 13.0801 22.313C13.3841 22.098 20.5291 16.939 20.5001 10.499C20.5001 6.08802 16.9111 2.49902 12.5001 2.49902C8.08909 2.49902 4.50009 6.08802 4.50009 10.494C4.47109 16.939 11.6161 22.098 11.9201 22.313ZM12.5001 4.49902C15.8091 4.49902 18.5001 7.19002 18.5001 10.504C18.5211 14.942 14.1121 18.927 12.5001 20.234C10.8891 18.926 6.47909 14.94 6.50009 10.499C6.50009 7.19002 9.19109 4.49902 12.5001 4.49902Z" fill="black"/>
</svg>
