<svg width="200" height="57" viewBox="0 0 200 57" fill="none" xmlns="http://www.w3.org/2000/svg">
<path fill-rule="evenodd" clip-rule="evenodd" d="M65.5517 20.1242L65.8029 20.5726C66.1191 21.1176 66.2861 21.7363 66.2872 22.3663V36.2678C66.282 36.8972 66.1152 37.5149 65.8029 38.0615L65.5338 38.51C65.2266 39.0589 64.7733 39.5121 64.2245 39.8194L52.1884 46.779C51.6434 47.0951 51.0248 47.2622 50.3947 47.2633H49.8925C49.2615 47.2693 48.641 47.1017 48.0987 46.779L36.0449 39.8373C35.5076 39.5148 35.0579 39.0651 34.7354 38.5279L34.4843 38.0795C34.1682 37.5344 34.0011 36.9158 34 36.2857V22.3842C34.0011 21.7542 34.1682 21.1355 34.4843 20.5906L34.7354 20.1421C35.0498 19.5986 35.5013 19.147 36.0449 18.8327L48.0808 11.873C48.6258 11.5568 49.2444 11.3898 49.8745 11.3887H50.3947C51.0248 11.3898 51.6434 11.5568 52.1884 11.873L64.2245 18.8148C64.7711 19.1312 65.2279 19.5819 65.5517 20.1242ZM50.3947 14.9761H49.8745L39.3812 21.0389L50.1436 27.2452L60.906 21.0389L50.3947 14.9761ZM62.4306 36.7163L51.9373 42.7791V30.3665L62.6997 24.1423V36.2679L62.4306 36.7163ZM113.063 37.9362H109.344V18.3055H113.063V37.9362ZM79.5 38.3569H83.6586V31.2279H85.4667L89.8836 38.3569H94.3263L89.4445 30.5047C91.6142 29.859 93.2415 28.3866 93.2415 25.5971V25.4937C93.2415 21.671 90.4777 19.8887 86.1124 19.8887H79.5V38.3569ZM83.6586 28.3866V23.0916H86.0091C88.0239 23.0916 89.1604 23.7373 89.1604 25.6229V25.7262C89.1604 27.5085 88.1014 28.3866 86.0091 28.3866H83.6586ZM101.081 38.2196C104.774 38.2196 107.099 36.5924 107.538 33.6735H103.999C103.767 34.8101 102.914 35.5592 101.184 35.5592C99.1433 35.5592 97.9294 34.2677 97.826 32.0205H107.564V30.9873C107.564 26.1571 104.464 24.1166 100.977 24.1166C97.0511 24.1166 94.029 26.8803 94.029 31.1423V31.3489C94.029 35.6625 96.9994 38.2196 101.081 38.2196ZM97.8777 29.7216C98.1618 27.8102 99.2983 26.6996 100.977 26.6996C102.76 26.6996 103.793 27.681 103.922 29.7216H97.8777ZM120.198 38.2207C122.42 38.2207 123.789 37.1875 124.486 35.8186V37.9366H128.206V24.4276H124.486V32.3573C124.486 34.3463 123.246 35.3278 121.671 35.3278C120.07 35.3278 119.32 34.4495 119.32 32.6156V24.4276H115.601V33.1322C115.601 36.6709 117.564 38.2207 120.198 38.2207ZM134.491 37.9355H130.745V24.4265H134.491V26.4929C135.162 25.2272 136.608 24.1166 138.623 24.1166C140.406 24.1166 141.749 24.8657 142.395 26.4671C143.479 24.8398 145.236 24.1166 146.94 24.1166C149.446 24.1166 151.383 25.6922 151.383 29.2826V37.9355H147.664V29.6958C147.664 27.9652 146.888 27.1903 145.545 27.1903C144.099 27.1903 142.937 28.1202 142.937 29.9541V37.9355H139.217V29.6958C139.217 27.9652 138.417 27.1903 137.099 27.1903C135.653 27.1903 134.491 28.1202 134.491 29.9541V37.9355ZM160.031 38.2196C163.726 38.2196 166.051 36.5924 166.489 33.6735H162.95C162.718 34.8101 161.865 35.5592 160.135 35.5592C158.094 35.5592 156.881 34.2677 156.777 32.0205H166.515V30.9873C166.515 26.1571 163.415 24.1166 159.928 24.1166C156.002 24.1166 152.98 26.8803 152.98 31.1423V31.3489C152.98 35.6625 155.95 38.2196 160.031 38.2196ZM156.829 29.7216C157.113 27.8102 158.25 26.6996 159.928 26.6996C161.711 26.6996 162.744 27.681 162.873 29.7216H156.829Z" fill="black"/>
</svg>
