<svg width="140" height="57" viewBox="0 0 140 57" fill="none" xmlns="http://www.w3.org/2000/svg">
<path fill-rule="evenodd" clip-rule="evenodd" d="M35.5522 19.735L35.8033 20.1835C36.1196 20.7284 36.2866 21.3471 36.2877 21.9771V35.8786C36.2825 36.5081 36.1157 37.1257 35.8033 37.6724L35.5343 38.1208C35.2271 38.6698 34.7738 39.1229 34.2249 39.4302L22.1889 46.3899C21.6439 46.706 21.0253 46.873 20.3952 46.8742H19.8929C19.262 46.8801 18.6415 46.7126 18.0992 46.3899L6.04534 39.4482C5.5081 39.1256 5.05841 38.676 4.73592 38.1387L4.4848 37.6903C4.16865 37.1453 4.00161 36.5266 4.00049 35.8966V21.9951C4.00161 21.3651 4.16865 20.7464 4.4848 20.2014L4.73592 19.753C5.05028 19.2094 5.5018 18.7578 6.04534 18.4435L18.0813 11.4838C18.6263 11.1677 19.2449 11.0006 19.875 10.9995H20.3952C21.0253 11.0006 21.6439 11.1677 22.1889 11.4838L34.2249 18.4256C34.7716 18.742 35.2284 19.1927 35.5522 19.735ZM20.3952 14.5869H19.875L9.38171 20.6498L20.1441 26.856L30.9065 20.6498L20.3952 14.5869ZM32.4311 36.3271L21.9378 42.39V29.9773L32.7002 23.7531V35.8787L32.4311 36.3271ZM83.0638 37.547H79.3442V17.9164H83.0638V37.547ZM49.5005 37.9678H53.6591V30.8388H55.4672L59.8841 37.9678H64.3268L59.445 30.1156C61.6147 29.4698 63.2419 27.9975 63.2419 25.2079V25.1046C63.2419 21.2818 60.4782 19.4995 56.1129 19.4995H49.5005V37.9678ZM53.6591 27.9975V22.7024H56.0096C58.0243 22.7024 59.1609 23.3482 59.1609 25.2337V25.337C59.1609 27.1193 58.1019 27.9975 56.0096 27.9975H53.6591ZM71.0811 37.8304C74.7747 37.8304 77.0994 36.2032 77.5384 33.2844H73.9998C73.7673 34.4209 72.915 35.17 71.1844 35.17C69.1438 35.17 67.9299 33.8785 67.8265 31.6313H77.5643V30.5981C77.5643 25.7679 74.4648 23.7274 70.9777 23.7274C67.0516 23.7274 64.0295 26.4912 64.0295 30.7531V30.9597C64.0295 35.2733 66.9999 37.8304 71.0811 37.8304ZM67.8782 29.3325C68.1623 27.421 69.2988 26.3104 70.9777 26.3104C72.76 26.3104 73.7932 27.2919 73.9224 29.3325H67.8782ZM90.199 37.8315C92.4206 37.8315 93.7891 36.7983 94.4864 35.4294V37.5474H98.206V24.0385H94.4864V31.9682C94.4864 33.9571 93.2466 34.9386 91.6716 34.9386C90.0703 34.9386 89.3205 34.0604 89.3205 32.2265V24.0385H85.6014V32.7431C85.6014 36.2817 87.5643 37.8315 90.199 37.8315ZM104.491 37.5463H100.745V24.0373H104.491V26.1037C105.162 24.838 106.609 23.7274 108.624 23.7274C110.406 23.7274 111.749 24.4765 112.395 26.0779C113.48 24.4506 115.236 23.7274 116.941 23.7274C119.447 23.7274 121.384 25.303 121.384 28.8934V37.5463H117.664V29.3067C117.664 27.576 116.889 26.8011 115.546 26.8011C114.099 26.8011 112.937 27.731 112.937 29.565V37.5463H109.218V29.3067C109.218 27.576 108.417 26.8011 107.1 26.8011C105.653 26.8011 104.491 27.731 104.491 29.565V37.5463ZM130.032 37.8304C133.726 37.8304 136.051 36.2032 136.489 33.2844H132.951C132.718 34.4209 131.866 35.17 130.135 35.17C128.095 35.17 126.881 33.8785 126.778 31.6313H136.516V30.5981C136.516 25.7679 133.416 23.7274 129.929 23.7274C126.003 23.7274 122.98 26.4912 122.98 30.7531V30.9597C122.98 35.2733 125.951 37.8304 130.032 37.8304ZM126.829 29.3325C127.114 27.421 128.25 26.3104 129.929 26.3104C131.711 26.3104 132.744 27.2919 132.874 29.3325H126.829Z" fill="black"/>
</svg>
