<svg width="200" height="57" viewBox="0 0 200 57" fill="none" xmlns="http://www.w3.org/2000/svg">
<path fill-rule="evenodd" clip-rule="evenodd" d="M68.5693 17.6387L57.0598 40.1387H46.249L51.0658 30.8137H50.8496C46.8759 35.9722 40.9469 39.368 32.499 40.1387V30.9428C32.499 30.9428 37.9033 30.6235 41.0804 27.2834H32.499V17.6388H42.1435V25.5713L42.36 25.5704L46.3011 17.6388H53.595V25.521L53.8114 25.5207L57.9004 17.6387H68.5693ZM131.332 37.6552H134.438V19.8262H131.332V37.6552ZM114.208 37.4731C114.883 37.7537 115.57 37.8941 116.268 37.8941C117.42 37.8941 118.452 37.6135 119.362 37.0521C120.272 36.4909 120.978 35.7172 121.479 34.7311C121.979 33.7375 122.229 32.611 122.229 31.3519C122.229 30.0927 121.972 28.9664 121.456 27.9727C120.94 26.9791 120.223 26.2092 119.305 25.663C118.388 25.1093 117.345 24.8363 116.176 24.8438C115.433 24.8438 114.72 24.988 114.037 25.2762C113.355 25.5644 112.786 25.974 112.331 26.505C112.296 26.5454 112.262 26.5862 112.228 26.6275V19.8376H109.111V37.6552H112.206L112.199 35.9907C112.279 36.0889 112.365 36.1847 112.456 36.2785C112.949 36.7867 113.533 37.1849 114.208 37.4731ZM117.394 34.5946C116.886 34.9056 116.305 35.0611 115.653 35.0611C115.008 35.0611 114.417 34.9017 113.878 34.5832C113.34 34.257 112.911 33.8134 112.592 33.252C112.281 32.6907 112.126 32.0535 112.126 31.3405C112.118 30.6275 112.27 29.9904 112.581 29.4291C112.9 28.8602 113.328 28.4202 113.867 28.1093C114.405 27.7907 115.001 27.6352 115.653 27.6428C116.305 27.6352 116.886 27.7869 117.394 28.0979C117.91 28.4013 118.304 28.8374 118.577 29.4063C118.858 29.9676 118.998 30.6124 118.998 31.3405C118.998 32.0687 118.858 32.7135 118.577 33.2747C118.304 33.8361 117.91 34.276 117.394 34.5946ZM73.0691 20.9071H76.619L79.7945 32.5041L83.1726 20.9071H86.1308L89.7945 32.2713L92.8437 20.9071H96.0977L91.2963 37.6552H88.2357L84.5102 26.5532L81.0905 37.6552H77.9957L73.0691 20.9071ZM101.34 37.9509C100.104 37.9586 98.9888 37.6854 97.9952 37.1318C97.0091 36.5704 96.2317 35.7929 95.6627 34.7993C95.1014 33.8057 94.8208 32.6717 94.8208 31.3973C94.8208 30.1609 95.1091 29.0422 95.6856 28.0409C96.2619 27.0397 97.0432 26.2584 98.0293 25.6971C99.0154 25.1358 100.115 24.8552 101.329 24.8552C102.694 24.8552 103.889 25.1586 104.913 25.7654C105.944 26.3722 106.714 27.2331 107.223 28.3481C107.738 29.4556 107.924 30.7261 107.78 32.1597H98.0342C98.0614 32.7308 98.2039 33.2504 98.4617 33.7184C98.7499 34.2342 99.1519 34.6362 99.6677 34.9244C100.184 35.2127 100.76 35.3568 101.397 35.3568C101.883 35.3492 102.334 35.2658 102.751 35.1066C103.168 34.9397 103.521 34.7159 103.809 34.4352C104.105 34.1546 104.314 33.8361 104.435 33.4796H107.689C107.492 34.3518 107.097 35.1293 106.506 35.8119C105.914 36.4871 105.171 37.0142 104.276 37.3934C103.381 37.7727 102.402 37.9586 101.34 37.9509ZM98.4731 29.0308C98.2913 29.3478 98.1653 29.6891 98.0952 30.0548H104.556C104.509 29.5928 104.366 29.1718 104.128 28.7919C103.855 28.3443 103.483 27.9992 103.013 27.7565C102.543 27.5062 102.012 27.381 101.42 27.381C100.79 27.381 100.218 27.5251 99.7018 27.8134C99.1861 28.1016 98.7764 28.5074 98.4731 29.0308ZM124.517 25.1169C124.517 24.1005 124.748 23.1978 125.211 22.409C125.673 21.6125 126.322 20.9943 127.156 20.5544C127.998 20.1069 128.981 19.8755 130.103 19.8604V22.6251C129.58 22.6327 129.132 22.7427 128.761 22.9551C128.397 23.1599 128.116 23.4595 127.919 23.8539C127.737 24.2171 127.639 24.638 127.625 25.1169H130.035V27.7451H127.623V37.6552H124.517V27.7451H122.514V25.1169H124.517ZM142.334 37.9281C141.067 37.9281 139.933 37.6513 138.932 37.0976C137.938 36.5363 137.157 35.7626 136.588 34.7765C136.027 33.7829 135.746 32.6565 135.746 31.3973C135.746 30.1306 136.027 29.0004 136.588 28.0067C137.157 27.0055 137.938 26.228 138.932 25.6743C139.933 25.1206 141.067 24.8437 142.334 24.8437C143.608 24.8437 144.746 25.1206 145.747 25.6743C146.756 26.228 147.541 27.0017 148.102 27.9954C148.664 28.989 148.948 30.123 148.956 31.3973C148.948 32.6565 148.664 33.7829 148.102 34.7765C147.549 35.7626 146.767 36.5363 145.758 37.0976C144.75 37.6513 143.608 37.9281 142.334 37.9281ZM142.334 35.0724C143.001 35.0724 143.593 34.9206 144.109 34.6173C144.625 34.3063 145.023 33.8739 145.303 33.3201C145.584 32.7589 145.724 32.1179 145.724 31.3973C145.724 30.6691 145.584 30.0244 145.303 29.4631C145.023 28.9018 144.625 28.4694 144.109 28.166C143.593 27.855 143.001 27.6995 142.334 27.6995C141.674 27.6995 141.086 27.855 140.57 28.166C140.062 28.4694 139.668 28.9018 139.387 29.4631C139.106 30.0244 138.97 30.6691 138.977 31.3973C138.977 32.1179 139.118 32.7589 139.398 33.3201C139.687 33.8739 140.081 34.3063 140.582 34.6173C141.09 34.9206 141.674 35.0724 142.334 35.0724ZM152.312 25.1169H148.853L152.597 37.6552H155.623L158.085 29.6469L160.743 37.6552H163.724L167.479 25.1169H164.35L162.22 32.9212L159.866 25.1169H156.841L154.498 33.0931L152.312 25.1169Z" fill="black"/>
<path d="M68.5693 17.6387L57.0598 40.1387H46.249L51.0658 30.8137H50.8496C46.8759 35.9722 40.9469 39.368 32.499 40.1387V30.9428C32.499 30.9428 37.9033 30.6235 41.0804 27.2834H32.499V17.6388H42.1435V25.5713L42.36 25.5704L46.3011 17.6388H53.595V25.521L53.8114 25.5207L57.9004 17.6387H68.5693ZM131.332 37.6552H134.438V19.8262H131.332V37.6552ZM114.208 37.4731C114.883 37.7537 115.57 37.8941 116.268 37.8941C117.42 37.8941 118.452 37.6135 119.362 37.0521C120.272 36.4909 120.978 35.7172 121.479 34.7311C121.979 33.7375 122.229 32.611 122.229 31.3519C122.229 30.0927 121.972 28.9664 121.456 27.9727C120.94 26.9791 120.223 26.2092 119.305 25.663C118.388 25.1093 117.345 24.8363 116.176 24.8438C115.433 24.8438 114.72 24.988 114.037 25.2762C113.355 25.5644 112.786 25.974 112.331 26.505C112.296 26.5454 112.262 26.5862 112.228 26.6275V19.8376H109.111V37.6552H112.206L112.199 35.9907C112.279 36.0889 112.365 36.1847 112.456 36.2785C112.949 36.7867 113.533 37.1849 114.208 37.4731ZM117.394 34.5946C116.886 34.9056 116.305 35.0611 115.653 35.0611C115.008 35.0611 114.417 34.9017 113.878 34.5832C113.34 34.257 112.911 33.8134 112.592 33.252C112.281 32.6907 112.126 32.0535 112.126 31.3405C112.118 30.6275 112.27 29.9904 112.581 29.4291C112.9 28.8602 113.328 28.4202 113.867 28.1093C114.405 27.7907 115.001 27.6352 115.653 27.6428C116.305 27.6352 116.886 27.7869 117.394 28.0979C117.91 28.4013 118.304 28.8374 118.577 29.4063C118.858 29.9676 118.998 30.6124 118.998 31.3405C118.998 32.0687 118.858 32.7135 118.577 33.2747C118.304 33.8361 117.91 34.276 117.394 34.5946ZM73.0691 20.9071H76.619L79.7945 32.5041L83.1726 20.9071H86.1308L89.7945 32.2713L92.8437 20.9071H96.0977L91.2963 37.6552H88.2357L84.5102 26.5532L81.0905 37.6552H77.9957L73.0691 20.9071ZM101.34 37.9509C100.104 37.9586 98.9888 37.6854 97.9952 37.1318C97.0091 36.5704 96.2317 35.7929 95.6627 34.7993C95.1014 33.8057 94.8208 32.6717 94.8208 31.3973C94.8208 30.1609 95.1091 29.0422 95.6856 28.0409C96.2619 27.0397 97.0432 26.2584 98.0293 25.6971C99.0154 25.1358 100.115 24.8552 101.329 24.8552C102.694 24.8552 103.889 25.1586 104.913 25.7654C105.944 26.3722 106.714 27.2331 107.223 28.3481C107.738 29.4556 107.924 30.7261 107.78 32.1597H98.0342C98.0614 32.7308 98.2039 33.2504 98.4617 33.7184C98.7499 34.2342 99.1519 34.6362 99.6677 34.9244C100.184 35.2127 100.76 35.3568 101.397 35.3568C101.883 35.3492 102.334 35.2658 102.751 35.1066C103.168 34.9397 103.521 34.7159 103.809 34.4352C104.105 34.1546 104.314 33.8361 104.435 33.4796H107.689C107.492 34.3518 107.097 35.1293 106.506 35.8119C105.914 36.4871 105.171 37.0142 104.276 37.3934C103.381 37.7727 102.402 37.9586 101.34 37.9509ZM98.4731 29.0308C98.2913 29.3478 98.1653 29.6891 98.0952 30.0548H104.556C104.509 29.5928 104.366 29.1718 104.128 28.7919C103.855 28.3443 103.483 27.9992 103.013 27.7565C102.543 27.5062 102.012 27.381 101.42 27.381C100.79 27.381 100.218 27.5251 99.7018 27.8134C99.1861 28.1016 98.7764 28.5074 98.4731 29.0308ZM124.517 25.1169C124.517 24.1005 124.748 23.1978 125.211 22.409C125.673 21.6125 126.322 20.9943 127.156 20.5544C127.998 20.1069 128.981 19.8755 130.103 19.8604V22.6251C129.58 22.6327 129.132 22.7427 128.761 22.9551C128.397 23.1599 128.116 23.4595 127.919 23.8539C127.737 24.2171 127.639 24.638 127.625 25.1169H130.035V27.7451H127.623V37.6552H124.517V27.7451H122.514V25.1169H124.517ZM142.334 37.9281C141.067 37.9281 139.933 37.6513 138.932 37.0976C137.938 36.5363 137.157 35.7626 136.588 34.7765C136.027 33.7829 135.746 32.6565 135.746 31.3973C135.746 30.1306 136.027 29.0004 136.588 28.0067C137.157 27.0055 137.938 26.228 138.932 25.6743C139.933 25.1206 141.067 24.8437 142.334 24.8437C143.608 24.8437 144.746 25.1206 145.747 25.6743C146.756 26.228 147.541 27.0017 148.102 27.9954C148.664 28.989 148.948 30.123 148.956 31.3973C148.948 32.6565 148.664 33.7829 148.102 34.7765C147.549 35.7626 146.767 36.5363 145.758 37.0976C144.75 37.6513 143.608 37.9281 142.334 37.9281ZM142.334 35.0724C143.001 35.0724 143.593 34.9206 144.109 34.6173C144.625 34.3063 145.023 33.8739 145.303 33.3201C145.584 32.7589 145.724 32.1179 145.724 31.3973C145.724 30.6691 145.584 30.0244 145.303 29.4631C145.023 28.9018 144.625 28.4694 144.109 28.166C143.593 27.855 143.001 27.6995 142.334 27.6995C141.674 27.6995 141.086 27.855 140.57 28.166C140.062 28.4694 139.668 28.9018 139.387 29.4631C139.106 30.0244 138.97 30.6691 138.977 31.3973C138.977 32.1179 139.118 32.7589 139.398 33.3201C139.687 33.8739 140.081 34.3063 140.582 34.6173C141.09 34.9206 141.674 35.0724 142.334 35.0724ZM152.312 25.1169H148.853L152.597 37.6552H155.623L158.085 29.6469L160.743 37.6552H163.724L167.479 25.1169H164.35L162.22 32.9212L159.866 25.1169H156.841L154.498 33.0931L152.312 25.1169Z" fill="black"/>
<path fill-rule="evenodd" clip-rule="evenodd" d="M68.5693 17.6387L57.0598 40.1387H46.249L51.0658 30.8137H50.8496C46.8759 35.9722 40.9469 39.368 32.499 40.1387V30.9428C32.499 30.9428 37.9033 30.6235 41.0804 27.2834H32.499V17.6388H42.1435V25.5713L42.36 25.5704L46.3011 17.6388H53.595V25.521L53.8114 25.5207L57.9004 17.6387H68.5693ZM131.332 37.6552H134.438V19.8262H131.332V37.6552ZM114.208 37.4731C114.883 37.7537 115.57 37.8941 116.268 37.8941C117.42 37.8941 118.452 37.6135 119.362 37.0521C120.272 36.4909 120.978 35.7172 121.479 34.7311C121.979 33.7375 122.229 32.611 122.229 31.3519C122.229 30.0927 121.972 28.9664 121.456 27.9727C120.94 26.9791 120.223 26.2092 119.305 25.663C118.388 25.1093 117.345 24.8363 116.176 24.8438C115.433 24.8438 114.72 24.988 114.037 25.2762C113.355 25.5644 112.786 25.974 112.331 26.505C112.296 26.5454 112.262 26.5862 112.228 26.6275V19.8376H109.111V37.6552H112.206L112.199 35.9907C112.279 36.0889 112.365 36.1847 112.456 36.2785C112.949 36.7867 113.533 37.1849 114.208 37.4731ZM117.394 34.5946C116.886 34.9056 116.305 35.0611 115.653 35.0611C115.008 35.0611 114.417 34.9017 113.878 34.5832C113.34 34.257 112.911 33.8134 112.592 33.252C112.281 32.6907 112.126 32.0535 112.126 31.3405C112.118 30.6275 112.27 29.9904 112.581 29.4291C112.9 28.8602 113.328 28.4202 113.867 28.1093C114.405 27.7907 115.001 27.6352 115.653 27.6428C116.305 27.6352 116.886 27.7869 117.394 28.0979C117.91 28.4013 118.304 28.8374 118.577 29.4063C118.858 29.9676 118.998 30.6124 118.998 31.3405C118.998 32.0687 118.858 32.7135 118.577 33.2747C118.304 33.8361 117.91 34.276 117.394 34.5946ZM73.0691 20.9071H76.619L79.7945 32.5041L83.1726 20.9071H86.1308L89.7945 32.2713L92.8437 20.9071H96.0977L91.2963 37.6552H88.2357L84.5102 26.5532L81.0905 37.6552H77.9957L73.0691 20.9071ZM101.34 37.9509C100.104 37.9586 98.9888 37.6854 97.9952 37.1318C97.0091 36.5704 96.2317 35.7929 95.6627 34.7993C95.1014 33.8057 94.8208 32.6717 94.8208 31.3973C94.8208 30.1609 95.1091 29.0422 95.6856 28.0409C96.2619 27.0397 97.0432 26.2584 98.0293 25.6971C99.0154 25.1358 100.115 24.8552 101.329 24.8552C102.694 24.8552 103.889 25.1586 104.913 25.7654C105.944 26.3722 106.714 27.2331 107.223 28.3481C107.738 29.4556 107.924 30.7261 107.78 32.1597H98.0342C98.0614 32.7308 98.2039 33.2504 98.4617 33.7184C98.7499 34.2342 99.1519 34.6362 99.6677 34.9244C100.184 35.2127 100.76 35.3568 101.397 35.3568C101.883 35.3492 102.334 35.2658 102.751 35.1066C103.168 34.9397 103.521 34.7159 103.809 34.4352C104.105 34.1546 104.314 33.8361 104.435 33.4796H107.689C107.492 34.3518 107.097 35.1293 106.506 35.8119C105.914 36.4871 105.171 37.0142 104.276 37.3934C103.381 37.7727 102.402 37.9586 101.34 37.9509ZM98.4731 29.0308C98.2913 29.3478 98.1653 29.6891 98.0952 30.0548H104.556C104.509 29.5928 104.366 29.1718 104.128 28.7919C103.855 28.3443 103.483 27.9992 103.013 27.7565C102.543 27.5062 102.012 27.381 101.42 27.381C100.79 27.381 100.218 27.5251 99.7018 27.8134C99.1861 28.1016 98.7764 28.5074 98.4731 29.0308ZM124.517 25.1169C124.517 24.1005 124.748 23.1978 125.211 22.409C125.673 21.6125 126.322 20.9943 127.156 20.5544C127.998 20.1069 128.981 19.8755 130.103 19.8604V22.6251C129.58 22.6327 129.132 22.7427 128.761 22.9551C128.397 23.1599 128.116 23.4595 127.919 23.8539C127.737 24.2171 127.639 24.638 127.625 25.1169H130.035V27.7451H127.623V37.6552H124.517V27.7451H122.514V25.1169H124.517ZM142.334 37.9281C141.067 37.9281 139.933 37.6513 138.932 37.0976C137.938 36.5363 137.157 35.7626 136.588 34.7765C136.027 33.7829 135.746 32.6565 135.746 31.3973C135.746 30.1306 136.027 29.0004 136.588 28.0067C137.157 27.0055 137.938 26.228 138.932 25.6743C139.933 25.1206 141.067 24.8437 142.334 24.8437C143.608 24.8437 144.746 25.1206 145.747 25.6743C146.756 26.228 147.541 27.0017 148.102 27.9954C148.664 28.989 148.948 30.123 148.956 31.3973C148.948 32.6565 148.664 33.7829 148.102 34.7765C147.549 35.7626 146.767 36.5363 145.758 37.0976C144.75 37.6513 143.608 37.9281 142.334 37.9281ZM142.334 35.0724C143.001 35.0724 143.593 34.9206 144.109 34.6173C144.625 34.3063 145.023 33.8739 145.303 33.3201C145.584 32.7589 145.724 32.1179 145.724 31.3973C145.724 30.6691 145.584 30.0244 145.303 29.4631C145.023 28.9018 144.625 28.4694 144.109 28.166C143.593 27.855 143.001 27.6995 142.334 27.6995C141.674 27.6995 141.086 27.855 140.57 28.166C140.062 28.4694 139.668 28.9018 139.387 29.4631C139.106 30.0244 138.97 30.6691 138.977 31.3973C138.977 32.1179 139.118 32.7589 139.398 33.3201C139.687 33.8739 140.081 34.3063 140.582 34.6173C141.09 34.9206 141.674 35.0724 142.334 35.0724ZM152.312 25.1169H148.853L152.597 37.6552H155.623L158.085 29.6469L160.743 37.6552H163.724L167.479 25.1169H164.35L162.22 32.9212L159.866 25.1169H156.841L154.498 33.0931L152.312 25.1169Z" fill="black"/>
<path d="M68.5693 17.6387L57.0598 40.1387H46.249L51.0658 30.8137H50.8496C46.8759 35.9722 40.9469 39.368 32.499 40.1387V30.9428C32.499 30.9428 37.9033 30.6235 41.0804 27.2834H32.499V17.6388H42.1435V25.5713L42.36 25.5704L46.3011 17.6388H53.595V25.521L53.8114 25.5207L57.9004 17.6387H68.5693ZM131.332 37.6552H134.438V19.8262H131.332V37.6552ZM114.208 37.4731C114.883 37.7537 115.57 37.8941 116.268 37.8941C117.42 37.8941 118.452 37.6135 119.362 37.0521C120.272 36.4909 120.978 35.7172 121.479 34.7311C121.979 33.7375 122.229 32.611 122.229 31.3519C122.229 30.0927 121.972 28.9664 121.456 27.9727C120.94 26.9791 120.223 26.2092 119.305 25.663C118.388 25.1093 117.345 24.8363 116.176 24.8438C115.433 24.8438 114.72 24.988 114.037 25.2762C113.355 25.5644 112.786 25.974 112.331 26.505C112.296 26.5454 112.262 26.5862 112.228 26.6275V19.8376H109.111V37.6552H112.206L112.199 35.9907C112.279 36.0889 112.365 36.1847 112.456 36.2785C112.949 36.7867 113.533 37.1849 114.208 37.4731ZM117.394 34.5946C116.886 34.9056 116.305 35.0611 115.653 35.0611C115.008 35.0611 114.417 34.9017 113.878 34.5832C113.34 34.257 112.911 33.8134 112.592 33.252C112.281 32.6907 112.126 32.0535 112.126 31.3405C112.118 30.6275 112.27 29.9904 112.581 29.4291C112.9 28.8602 113.328 28.4202 113.867 28.1093C114.405 27.7907 115.001 27.6352 115.653 27.6428C116.305 27.6352 116.886 27.7869 117.394 28.0979C117.91 28.4013 118.304 28.8374 118.577 29.4063C118.858 29.9676 118.998 30.6124 118.998 31.3405C118.998 32.0687 118.858 32.7135 118.577 33.2747C118.304 33.8361 117.91 34.276 117.394 34.5946ZM73.0691 20.9071H76.619L79.7945 32.5041L83.1726 20.9071H86.1308L89.7945 32.2713L92.8437 20.9071H96.0977L91.2963 37.6552H88.2357L84.5102 26.5532L81.0905 37.6552H77.9957L73.0691 20.9071ZM101.34 37.9509C100.104 37.9586 98.9888 37.6854 97.9952 37.1318C97.0091 36.5704 96.2317 35.7929 95.6627 34.7993C95.1014 33.8057 94.8208 32.6717 94.8208 31.3973C94.8208 30.1609 95.1091 29.0422 95.6856 28.0409C96.2619 27.0397 97.0432 26.2584 98.0293 25.6971C99.0154 25.1358 100.115 24.8552 101.329 24.8552C102.694 24.8552 103.889 25.1586 104.913 25.7654C105.944 26.3722 106.714 27.2331 107.223 28.3481C107.738 29.4556 107.924 30.7261 107.78 32.1597H98.0342C98.0614 32.7308 98.2039 33.2504 98.4617 33.7184C98.7499 34.2342 99.1519 34.6362 99.6677 34.9244C100.184 35.2127 100.76 35.3568 101.397 35.3568C101.883 35.3492 102.334 35.2658 102.751 35.1066C103.168 34.9397 103.521 34.7159 103.809 34.4352C104.105 34.1546 104.314 33.8361 104.435 33.4796H107.689C107.492 34.3518 107.097 35.1293 106.506 35.8119C105.914 36.4871 105.171 37.0142 104.276 37.3934C103.381 37.7727 102.402 37.9586 101.34 37.9509ZM98.4731 29.0308C98.2913 29.3478 98.1653 29.6891 98.0952 30.0548H104.556C104.509 29.5928 104.366 29.1718 104.128 28.7919C103.855 28.3443 103.483 27.9992 103.013 27.7565C102.543 27.5062 102.012 27.381 101.42 27.381C100.79 27.381 100.218 27.5251 99.7018 27.8134C99.1861 28.1016 98.7764 28.5074 98.4731 29.0308ZM124.517 25.1169C124.517 24.1005 124.748 23.1978 125.211 22.409C125.673 21.6125 126.322 20.9943 127.156 20.5544C127.998 20.1069 128.981 19.8755 130.103 19.8604V22.6251C129.58 22.6327 129.132 22.7427 128.761 22.9551C128.397 23.1599 128.116 23.4595 127.919 23.8539C127.737 24.2171 127.639 24.638 127.625 25.1169H130.035V27.7451H127.623V37.6552H124.517V27.7451H122.514V25.1169H124.517ZM142.334 37.9281C141.067 37.9281 139.933 37.6513 138.932 37.0976C137.938 36.5363 137.157 35.7626 136.588 34.7765C136.027 33.7829 135.746 32.6565 135.746 31.3973C135.746 30.1306 136.027 29.0004 136.588 28.0067C137.157 27.0055 137.938 26.228 138.932 25.6743C139.933 25.1206 141.067 24.8437 142.334 24.8437C143.608 24.8437 144.746 25.1206 145.747 25.6743C146.756 26.228 147.541 27.0017 148.102 27.9954C148.664 28.989 148.948 30.123 148.956 31.3973C148.948 32.6565 148.664 33.7829 148.102 34.7765C147.549 35.7626 146.767 36.5363 145.758 37.0976C144.75 37.6513 143.608 37.9281 142.334 37.9281ZM142.334 35.0724C143.001 35.0724 143.593 34.9206 144.109 34.6173C144.625 34.3063 145.023 33.8739 145.303 33.3201C145.584 32.7589 145.724 32.1179 145.724 31.3973C145.724 30.6691 145.584 30.0244 145.303 29.4631C145.023 28.9018 144.625 28.4694 144.109 28.166C143.593 27.855 143.001 27.6995 142.334 27.6995C141.674 27.6995 141.086 27.855 140.57 28.166C140.062 28.4694 139.668 28.9018 139.387 29.4631C139.106 30.0244 138.97 30.6691 138.977 31.3973C138.977 32.1179 139.118 32.7589 139.398 33.3201C139.687 33.8739 140.081 34.3063 140.582 34.6173C141.09 34.9206 141.674 35.0724 142.334 35.0724ZM152.312 25.1169H148.853L152.597 37.6552H155.623L158.085 29.6469L160.743 37.6552H163.724L167.479 25.1169H164.35L162.22 32.9212L159.866 25.1169H156.841L154.498 33.0931L152.312 25.1169Z" fill="black"/>
<path fill-rule="evenodd" clip-rule="evenodd" d="M68.5693 17.6387L57.0598 40.1387H46.249L51.0658 30.8137H50.8496C46.8759 35.9722 40.9469 39.368 32.499 40.1387V30.9428C32.499 30.9428 37.9033 30.6235 41.0804 27.2834H32.499V17.6388H42.1435V25.5713L42.36 25.5704L46.3011 17.6388H53.595V25.521L53.8114 25.5207L57.9004 17.6387H68.5693ZM131.332 37.6552H134.438V19.8262H131.332V37.6552ZM114.208 37.4731C114.883 37.7537 115.57 37.8941 116.268 37.8941C117.42 37.8941 118.452 37.6135 119.362 37.0521C120.272 36.4909 120.978 35.7172 121.479 34.7311C121.979 33.7375 122.229 32.611 122.229 31.3519C122.229 30.0927 121.972 28.9664 121.456 27.9727C120.94 26.9791 120.223 26.2092 119.305 25.663C118.388 25.1093 117.345 24.8363 116.176 24.8438C115.433 24.8438 114.72 24.988 114.037 25.2762C113.355 25.5644 112.786 25.974 112.331 26.505C112.296 26.5454 112.262 26.5862 112.228 26.6275V19.8376H109.111V37.6552H112.206L112.199 35.9907C112.279 36.0889 112.365 36.1847 112.456 36.2785C112.949 36.7867 113.533 37.1849 114.208 37.4731ZM117.394 34.5946C116.886 34.9056 116.305 35.0611 115.653 35.0611C115.008 35.0611 114.417 34.9017 113.878 34.5832C113.34 34.257 112.911 33.8134 112.592 33.252C112.281 32.6907 112.126 32.0535 112.126 31.3405C112.118 30.6275 112.27 29.9904 112.581 29.4291C112.9 28.8602 113.328 28.4202 113.867 28.1093C114.405 27.7907 115.001 27.6352 115.653 27.6428C116.305 27.6352 116.886 27.7869 117.394 28.0979C117.91 28.4013 118.304 28.8374 118.577 29.4063C118.858 29.9676 118.998 30.6124 118.998 31.3405C118.998 32.0687 118.858 32.7135 118.577 33.2747C118.304 33.8361 117.91 34.276 117.394 34.5946ZM73.0691 20.9071H76.619L79.7945 32.5041L83.1726 20.9071H86.1308L89.7945 32.2713L92.8437 20.9071H96.0977L91.2963 37.6552H88.2357L84.5102 26.5532L81.0905 37.6552H77.9957L73.0691 20.9071ZM101.34 37.9509C100.104 37.9586 98.9888 37.6854 97.9952 37.1318C97.0091 36.5704 96.2317 35.7929 95.6627 34.7993C95.1014 33.8057 94.8208 32.6717 94.8208 31.3973C94.8208 30.1609 95.1091 29.0422 95.6856 28.0409C96.2619 27.0397 97.0432 26.2584 98.0293 25.6971C99.0154 25.1358 100.115 24.8552 101.329 24.8552C102.694 24.8552 103.889 25.1586 104.913 25.7654C105.944 26.3722 106.714 27.2331 107.223 28.3481C107.738 29.4556 107.924 30.7261 107.78 32.1597H98.0342C98.0614 32.7308 98.2039 33.2504 98.4617 33.7184C98.7499 34.2342 99.1519 34.6362 99.6677 34.9244C100.184 35.2127 100.76 35.3568 101.397 35.3568C101.883 35.3492 102.334 35.2658 102.751 35.1066C103.168 34.9397 103.521 34.7159 103.809 34.4352C104.105 34.1546 104.314 33.8361 104.435 33.4796H107.689C107.492 34.3518 107.097 35.1293 106.506 35.8119C105.914 36.4871 105.171 37.0142 104.276 37.3934C103.381 37.7727 102.402 37.9586 101.34 37.9509ZM98.4731 29.0308C98.2913 29.3478 98.1653 29.6891 98.0952 30.0548H104.556C104.509 29.5928 104.366 29.1718 104.128 28.7919C103.855 28.3443 103.483 27.9992 103.013 27.7565C102.543 27.5062 102.012 27.381 101.42 27.381C100.79 27.381 100.218 27.5251 99.7018 27.8134C99.1861 28.1016 98.7764 28.5074 98.4731 29.0308ZM124.517 25.1169C124.517 24.1005 124.748 23.1978 125.211 22.409C125.673 21.6125 126.322 20.9943 127.156 20.5544C127.998 20.1069 128.981 19.8755 130.103 19.8604V22.6251C129.58 22.6327 129.132 22.7427 128.761 22.9551C128.397 23.1599 128.116 23.4595 127.919 23.8539C127.737 24.2171 127.639 24.638 127.625 25.1169H130.035V27.7451H127.623V37.6552H124.517V27.7451H122.514V25.1169H124.517ZM142.334 37.9281C141.067 37.9281 139.933 37.6513 138.932 37.0976C137.938 36.5363 137.157 35.7626 136.588 34.7765C136.027 33.7829 135.746 32.6565 135.746 31.3973C135.746 30.1306 136.027 29.0004 136.588 28.0067C137.157 27.0055 137.938 26.228 138.932 25.6743C139.933 25.1206 141.067 24.8437 142.334 24.8437C143.608 24.8437 144.746 25.1206 145.747 25.6743C146.756 26.228 147.541 27.0017 148.102 27.9954C148.664 28.989 148.948 30.123 148.956 31.3973C148.948 32.6565 148.664 33.7829 148.102 34.7765C147.549 35.7626 146.767 36.5363 145.758 37.0976C144.75 37.6513 143.608 37.9281 142.334 37.9281ZM142.334 35.0724C143.001 35.0724 143.593 34.9206 144.109 34.6173C144.625 34.3063 145.023 33.8739 145.303 33.3201C145.584 32.7589 145.724 32.1179 145.724 31.3973C145.724 30.6691 145.584 30.0244 145.303 29.4631C145.023 28.9018 144.625 28.4694 144.109 28.166C143.593 27.855 143.001 27.6995 142.334 27.6995C141.674 27.6995 141.086 27.855 140.57 28.166C140.062 28.4694 139.668 28.9018 139.387 29.4631C139.106 30.0244 138.97 30.6691 138.977 31.3973C138.977 32.1179 139.118 32.7589 139.398 33.3201C139.687 33.8739 140.081 34.3063 140.582 34.6173C141.09 34.9206 141.674 35.0724 142.334 35.0724ZM152.312 25.1169H148.853L152.597 37.6552H155.623L158.085 29.6469L160.743 37.6552H163.724L167.479 25.1169H164.35L162.22 32.9212L159.866 25.1169H156.841L154.498 33.0931L152.312 25.1169Z" fill="black"/>
<path d="M68.5693 17.6387L57.0598 40.1387H46.249L51.0658 30.8137H50.8496C46.8759 35.9722 40.9469 39.368 32.499 40.1387V30.9428C32.499 30.9428 37.9033 30.6235 41.0804 27.2834H32.499V17.6388H42.1435V25.5713L42.36 25.5704L46.3011 17.6388H53.595V25.521L53.8114 25.5207L57.9004 17.6387H68.5693ZM131.332 37.6552H134.438V19.8262H131.332V37.6552ZM114.208 37.4731C114.883 37.7537 115.57 37.8941 116.268 37.8941C117.42 37.8941 118.452 37.6135 119.362 37.0521C120.272 36.4909 120.978 35.7172 121.479 34.7311C121.979 33.7375 122.229 32.611 122.229 31.3519C122.229 30.0927 121.972 28.9664 121.456 27.9727C120.94 26.9791 120.223 26.2092 119.305 25.663C118.388 25.1093 117.345 24.8363 116.176 24.8438C115.433 24.8438 114.72 24.988 114.037 25.2762C113.355 25.5644 112.786 25.974 112.331 26.505C112.296 26.5454 112.262 26.5862 112.228 26.6275V19.8376H109.111V37.6552H112.206L112.199 35.9907C112.279 36.0889 112.365 36.1847 112.456 36.2785C112.949 36.7867 113.533 37.1849 114.208 37.4731ZM117.394 34.5946C116.886 34.9056 116.305 35.0611 115.653 35.0611C115.008 35.0611 114.417 34.9017 113.878 34.5832C113.34 34.257 112.911 33.8134 112.592 33.252C112.281 32.6907 112.126 32.0535 112.126 31.3405C112.118 30.6275 112.27 29.9904 112.581 29.4291C112.9 28.8602 113.328 28.4202 113.867 28.1093C114.405 27.7907 115.001 27.6352 115.653 27.6428C116.305 27.6352 116.886 27.7869 117.394 28.0979C117.91 28.4013 118.304 28.8374 118.577 29.4063C118.858 29.9676 118.998 30.6124 118.998 31.3405C118.998 32.0687 118.858 32.7135 118.577 33.2747C118.304 33.8361 117.91 34.276 117.394 34.5946ZM73.0691 20.9071H76.619L79.7945 32.5041L83.1726 20.9071H86.1308L89.7945 32.2713L92.8437 20.9071H96.0977L91.2963 37.6552H88.2357L84.5102 26.5532L81.0905 37.6552H77.9957L73.0691 20.9071ZM101.34 37.9509C100.104 37.9586 98.9888 37.6854 97.9952 37.1318C97.0091 36.5704 96.2317 35.7929 95.6627 34.7993C95.1014 33.8057 94.8208 32.6717 94.8208 31.3973C94.8208 30.1609 95.1091 29.0422 95.6856 28.0409C96.2619 27.0397 97.0432 26.2584 98.0293 25.6971C99.0154 25.1358 100.115 24.8552 101.329 24.8552C102.694 24.8552 103.889 25.1586 104.913 25.7654C105.944 26.3722 106.714 27.2331 107.223 28.3481C107.738 29.4556 107.924 30.7261 107.78 32.1597H98.0342C98.0614 32.7308 98.2039 33.2504 98.4617 33.7184C98.7499 34.2342 99.1519 34.6362 99.6677 34.9244C100.184 35.2127 100.76 35.3568 101.397 35.3568C101.883 35.3492 102.334 35.2658 102.751 35.1066C103.168 34.9397 103.521 34.7159 103.809 34.4352C104.105 34.1546 104.314 33.8361 104.435 33.4796H107.689C107.492 34.3518 107.097 35.1293 106.506 35.8119C105.914 36.4871 105.171 37.0142 104.276 37.3934C103.381 37.7727 102.402 37.9586 101.34 37.9509ZM98.4731 29.0308C98.2913 29.3478 98.1653 29.6891 98.0952 30.0548H104.556C104.509 29.5928 104.366 29.1718 104.128 28.7919C103.855 28.3443 103.483 27.9992 103.013 27.7565C102.543 27.5062 102.012 27.381 101.42 27.381C100.79 27.381 100.218 27.5251 99.7018 27.8134C99.1861 28.1016 98.7764 28.5074 98.4731 29.0308ZM124.517 25.1169C124.517 24.1005 124.748 23.1978 125.211 22.409C125.673 21.6125 126.322 20.9943 127.156 20.5544C127.998 20.1069 128.981 19.8755 130.103 19.8604V22.6251C129.58 22.6327 129.132 22.7427 128.761 22.9551C128.397 23.1599 128.116 23.4595 127.919 23.8539C127.737 24.2171 127.639 24.638 127.625 25.1169H130.035V27.7451H127.623V37.6552H124.517V27.7451H122.514V25.1169H124.517ZM142.334 37.9281C141.067 37.9281 139.933 37.6513 138.932 37.0976C137.938 36.5363 137.157 35.7626 136.588 34.7765C136.027 33.7829 135.746 32.6565 135.746 31.3973C135.746 30.1306 136.027 29.0004 136.588 28.0067C137.157 27.0055 137.938 26.228 138.932 25.6743C139.933 25.1206 141.067 24.8437 142.334 24.8437C143.608 24.8437 144.746 25.1206 145.747 25.6743C146.756 26.228 147.541 27.0017 148.102 27.9954C148.664 28.989 148.948 30.123 148.956 31.3973C148.948 32.6565 148.664 33.7829 148.102 34.7765C147.549 35.7626 146.767 36.5363 145.758 37.0976C144.75 37.6513 143.608 37.9281 142.334 37.9281ZM142.334 35.0724C143.001 35.0724 143.593 34.9206 144.109 34.6173C144.625 34.3063 145.023 33.8739 145.303 33.3201C145.584 32.7589 145.724 32.1179 145.724 31.3973C145.724 30.6691 145.584 30.0244 145.303 29.4631C145.023 28.9018 144.625 28.4694 144.109 28.166C143.593 27.855 143.001 27.6995 142.334 27.6995C141.674 27.6995 141.086 27.855 140.57 28.166C140.062 28.4694 139.668 28.9018 139.387 29.4631C139.106 30.0244 138.97 30.6691 138.977 31.3973C138.977 32.1179 139.118 32.7589 139.398 33.3201C139.687 33.8739 140.081 34.3063 140.582 34.6173C141.09 34.9206 141.674 35.0724 142.334 35.0724ZM152.312 25.1169H148.853L152.597 37.6552H155.623L158.085 29.6469L160.743 37.6552H163.724L167.479 25.1169H164.35L162.22 32.9212L159.866 25.1169H156.841L154.498 33.0931L152.312 25.1169Z" fill="black"/>
<path fill-rule="evenodd" clip-rule="evenodd" d="M68.5693 17.6387L57.0598 40.1387H46.249L51.0658 30.8137H50.8496C46.8759 35.9722 40.9469 39.368 32.499 40.1387V30.9428C32.499 30.9428 37.9033 30.6235 41.0804 27.2834H32.499V17.6388H42.1435V25.5713L42.36 25.5704L46.3011 17.6388H53.595V25.521L53.8114 25.5207L57.9004 17.6387H68.5693ZM131.332 37.6552H134.438V19.8262H131.332V37.6552ZM114.208 37.4731C114.883 37.7537 115.57 37.8941 116.268 37.8941C117.42 37.8941 118.452 37.6135 119.362 37.0521C120.272 36.4909 120.978 35.7172 121.479 34.7311C121.979 33.7375 122.229 32.611 122.229 31.3519C122.229 30.0927 121.972 28.9664 121.456 27.9727C120.94 26.9791 120.223 26.2092 119.305 25.663C118.388 25.1093 117.345 24.8363 116.176 24.8438C115.433 24.8438 114.72 24.988 114.037 25.2762C113.355 25.5644 112.786 25.974 112.331 26.505C112.296 26.5454 112.262 26.5862 112.228 26.6275V19.8376H109.111V37.6552H112.206L112.199 35.9907C112.279 36.0889 112.365 36.1847 112.456 36.2785C112.949 36.7867 113.533 37.1849 114.208 37.4731ZM117.394 34.5946C116.886 34.9056 116.305 35.0611 115.653 35.0611C115.008 35.0611 114.417 34.9017 113.878 34.5832C113.34 34.257 112.911 33.8134 112.592 33.252C112.281 32.6907 112.126 32.0535 112.126 31.3405C112.118 30.6275 112.27 29.9904 112.581 29.4291C112.9 28.8602 113.328 28.4202 113.867 28.1093C114.405 27.7907 115.001 27.6352 115.653 27.6428C116.305 27.6352 116.886 27.7869 117.394 28.0979C117.91 28.4013 118.304 28.8374 118.577 29.4063C118.858 29.9676 118.998 30.6124 118.998 31.3405C118.998 32.0687 118.858 32.7135 118.577 33.2747C118.304 33.8361 117.91 34.276 117.394 34.5946ZM73.0691 20.9071H76.619L79.7945 32.5041L83.1726 20.9071H86.1308L89.7945 32.2713L92.8437 20.9071H96.0977L91.2963 37.6552H88.2357L84.5102 26.5532L81.0905 37.6552H77.9957L73.0691 20.9071ZM101.34 37.9509C100.104 37.9586 98.9888 37.6854 97.9952 37.1318C97.0091 36.5704 96.2317 35.7929 95.6627 34.7993C95.1014 33.8057 94.8208 32.6717 94.8208 31.3973C94.8208 30.1609 95.1091 29.0422 95.6856 28.0409C96.2619 27.0397 97.0432 26.2584 98.0293 25.6971C99.0154 25.1358 100.115 24.8552 101.329 24.8552C102.694 24.8552 103.889 25.1586 104.913 25.7654C105.944 26.3722 106.714 27.2331 107.223 28.3481C107.738 29.4556 107.924 30.7261 107.78 32.1597H98.0342C98.0614 32.7308 98.2039 33.2504 98.4617 33.7184C98.7499 34.2342 99.1519 34.6362 99.6677 34.9244C100.184 35.2127 100.76 35.3568 101.397 35.3568C101.883 35.3492 102.334 35.2658 102.751 35.1066C103.168 34.9397 103.521 34.7159 103.809 34.4352C104.105 34.1546 104.314 33.8361 104.435 33.4796H107.689C107.492 34.3518 107.097 35.1293 106.506 35.8119C105.914 36.4871 105.171 37.0142 104.276 37.3934C103.381 37.7727 102.402 37.9586 101.34 37.9509ZM98.4731 29.0308C98.2913 29.3478 98.1653 29.6891 98.0952 30.0548H104.556C104.509 29.5928 104.366 29.1718 104.128 28.7919C103.855 28.3443 103.483 27.9992 103.013 27.7565C102.543 27.5062 102.012 27.381 101.42 27.381C100.79 27.381 100.218 27.5251 99.7018 27.8134C99.1861 28.1016 98.7764 28.5074 98.4731 29.0308ZM124.517 25.1169C124.517 24.1005 124.748 23.1978 125.211 22.409C125.673 21.6125 126.322 20.9943 127.156 20.5544C127.998 20.1069 128.981 19.8755 130.103 19.8604V22.6251C129.58 22.6327 129.132 22.7427 128.761 22.9551C128.397 23.1599 128.116 23.4595 127.919 23.8539C127.737 24.2171 127.639 24.638 127.625 25.1169H130.035V27.7451H127.623V37.6552H124.517V27.7451H122.514V25.1169H124.517ZM142.334 37.9281C141.067 37.9281 139.933 37.6513 138.932 37.0976C137.938 36.5363 137.157 35.7626 136.588 34.7765C136.027 33.7829 135.746 32.6565 135.746 31.3973C135.746 30.1306 136.027 29.0004 136.588 28.0067C137.157 27.0055 137.938 26.228 138.932 25.6743C139.933 25.1206 141.067 24.8437 142.334 24.8437C143.608 24.8437 144.746 25.1206 145.747 25.6743C146.756 26.228 147.541 27.0017 148.102 27.9954C148.664 28.989 148.948 30.123 148.956 31.3973C148.948 32.6565 148.664 33.7829 148.102 34.7765C147.549 35.7626 146.767 36.5363 145.758 37.0976C144.75 37.6513 143.608 37.9281 142.334 37.9281ZM142.334 35.0724C143.001 35.0724 143.593 34.9206 144.109 34.6173C144.625 34.3063 145.023 33.8739 145.303 33.3201C145.584 32.7589 145.724 32.1179 145.724 31.3973C145.724 30.6691 145.584 30.0244 145.303 29.4631C145.023 28.9018 144.625 28.4694 144.109 28.166C143.593 27.855 143.001 27.6995 142.334 27.6995C141.674 27.6995 141.086 27.855 140.57 28.166C140.062 28.4694 139.668 28.9018 139.387 29.4631C139.106 30.0244 138.97 30.6691 138.977 31.3973C138.977 32.1179 139.118 32.7589 139.398 33.3201C139.687 33.8739 140.081 34.3063 140.582 34.6173C141.09 34.9206 141.674 35.0724 142.334 35.0724ZM152.312 25.1169H148.853L152.597 37.6552H155.623L158.085 29.6469L160.743 37.6552H163.724L167.479 25.1169H164.35L162.22 32.9212L159.866 25.1169H156.841L154.498 33.0931L152.312 25.1169Z" fill="black"/>
<path d="M68.5693 17.6387L57.0598 40.1387H46.249L51.0658 30.8137H50.8496C46.8759 35.9722 40.9469 39.368 32.499 40.1387V30.9428C32.499 30.9428 37.9033 30.6235 41.0804 27.2834H32.499V17.6388H42.1435V25.5713L42.36 25.5704L46.3011 17.6388H53.595V25.521L53.8114 25.5207L57.9004 17.6387H68.5693ZM131.332 37.6552H134.438V19.8262H131.332V37.6552ZM114.208 37.4731C114.883 37.7537 115.57 37.8941 116.268 37.8941C117.42 37.8941 118.452 37.6135 119.362 37.0521C120.272 36.4909 120.978 35.7172 121.479 34.7311C121.979 33.7375 122.229 32.611 122.229 31.3519C122.229 30.0927 121.972 28.9664 121.456 27.9727C120.94 26.9791 120.223 26.2092 119.305 25.663C118.388 25.1093 117.345 24.8363 116.176 24.8438C115.433 24.8438 114.72 24.988 114.037 25.2762C113.355 25.5644 112.786 25.974 112.331 26.505C112.296 26.5454 112.262 26.5862 112.228 26.6275V19.8376H109.111V37.6552H112.206L112.199 35.9907C112.279 36.0889 112.365 36.1847 112.456 36.2785C112.949 36.7867 113.533 37.1849 114.208 37.4731ZM117.394 34.5946C116.886 34.9056 116.305 35.0611 115.653 35.0611C115.008 35.0611 114.417 34.9017 113.878 34.5832C113.34 34.257 112.911 33.8134 112.592 33.252C112.281 32.6907 112.126 32.0535 112.126 31.3405C112.118 30.6275 112.27 29.9904 112.581 29.4291C112.9 28.8602 113.328 28.4202 113.867 28.1093C114.405 27.7907 115.001 27.6352 115.653 27.6428C116.305 27.6352 116.886 27.7869 117.394 28.0979C117.91 28.4013 118.304 28.8374 118.577 29.4063C118.858 29.9676 118.998 30.6124 118.998 31.3405C118.998 32.0687 118.858 32.7135 118.577 33.2747C118.304 33.8361 117.91 34.276 117.394 34.5946ZM73.0691 20.9071H76.619L79.7945 32.5041L83.1726 20.9071H86.1308L89.7945 32.2713L92.8437 20.9071H96.0977L91.2963 37.6552H88.2357L84.5102 26.5532L81.0905 37.6552H77.9957L73.0691 20.9071ZM101.34 37.9509C100.104 37.9586 98.9888 37.6854 97.9952 37.1318C97.0091 36.5704 96.2317 35.7929 95.6627 34.7993C95.1014 33.8057 94.8208 32.6717 94.8208 31.3973C94.8208 30.1609 95.1091 29.0422 95.6856 28.0409C96.2619 27.0397 97.0432 26.2584 98.0293 25.6971C99.0154 25.1358 100.115 24.8552 101.329 24.8552C102.694 24.8552 103.889 25.1586 104.913 25.7654C105.944 26.3722 106.714 27.2331 107.223 28.3481C107.738 29.4556 107.924 30.7261 107.78 32.1597H98.0342C98.0614 32.7308 98.2039 33.2504 98.4617 33.7184C98.7499 34.2342 99.1519 34.6362 99.6677 34.9244C100.184 35.2127 100.76 35.3568 101.397 35.3568C101.883 35.3492 102.334 35.2658 102.751 35.1066C103.168 34.9397 103.521 34.7159 103.809 34.4352C104.105 34.1546 104.314 33.8361 104.435 33.4796H107.689C107.492 34.3518 107.097 35.1293 106.506 35.8119C105.914 36.4871 105.171 37.0142 104.276 37.3934C103.381 37.7727 102.402 37.9586 101.34 37.9509ZM98.4731 29.0308C98.2913 29.3478 98.1653 29.6891 98.0952 30.0548H104.556C104.509 29.5928 104.366 29.1718 104.128 28.7919C103.855 28.3443 103.483 27.9992 103.013 27.7565C102.543 27.5062 102.012 27.381 101.42 27.381C100.79 27.381 100.218 27.5251 99.7018 27.8134C99.1861 28.1016 98.7764 28.5074 98.4731 29.0308ZM124.517 25.1169C124.517 24.1005 124.748 23.1978 125.211 22.409C125.673 21.6125 126.322 20.9943 127.156 20.5544C127.998 20.1069 128.981 19.8755 130.103 19.8604V22.6251C129.58 22.6327 129.132 22.7427 128.761 22.9551C128.397 23.1599 128.116 23.4595 127.919 23.8539C127.737 24.2171 127.639 24.638 127.625 25.1169H130.035V27.7451H127.623V37.6552H124.517V27.7451H122.514V25.1169H124.517ZM142.334 37.9281C141.067 37.9281 139.933 37.6513 138.932 37.0976C137.938 36.5363 137.157 35.7626 136.588 34.7765C136.027 33.7829 135.746 32.6565 135.746 31.3973C135.746 30.1306 136.027 29.0004 136.588 28.0067C137.157 27.0055 137.938 26.228 138.932 25.6743C139.933 25.1206 141.067 24.8437 142.334 24.8437C143.608 24.8437 144.746 25.1206 145.747 25.6743C146.756 26.228 147.541 27.0017 148.102 27.9954C148.664 28.989 148.948 30.123 148.956 31.3973C148.948 32.6565 148.664 33.7829 148.102 34.7765C147.549 35.7626 146.767 36.5363 145.758 37.0976C144.75 37.6513 143.608 37.9281 142.334 37.9281ZM142.334 35.0724C143.001 35.0724 143.593 34.9206 144.109 34.6173C144.625 34.3063 145.023 33.8739 145.303 33.3201C145.584 32.7589 145.724 32.1179 145.724 31.3973C145.724 30.6691 145.584 30.0244 145.303 29.4631C145.023 28.9018 144.625 28.4694 144.109 28.166C143.593 27.855 143.001 27.6995 142.334 27.6995C141.674 27.6995 141.086 27.855 140.57 28.166C140.062 28.4694 139.668 28.9018 139.387 29.4631C139.106 30.0244 138.97 30.6691 138.977 31.3973C138.977 32.1179 139.118 32.7589 139.398 33.3201C139.687 33.8739 140.081 34.3063 140.582 34.6173C141.09 34.9206 141.674 35.0724 142.334 35.0724ZM152.312 25.1169H148.853L152.597 37.6552H155.623L158.085 29.6469L160.743 37.6552H163.724L167.479 25.1169H164.35L162.22 32.9212L159.866 25.1169H156.841L154.498 33.0931L152.312 25.1169Z" fill="black"/>
</svg>
