<svg width="140" height="57" viewBox="0 0 140 57" fill="none" xmlns="http://www.w3.org/2000/svg">
<path fill-rule="evenodd" clip-rule="evenodd" d="M38.5712 17.249L27.0617 39.749H16.251L21.0677 30.424H20.8516C16.8779 35.5825 10.9489 38.9784 2.50098 39.749V30.5531C2.50098 30.5531 7.90529 30.2339 11.0823 26.8937H2.50098V17.2492H12.1455V25.1817L12.362 25.1808L16.3031 17.2492H23.597V25.1314L23.8134 25.131L27.9024 17.249H38.5712ZM101.334 37.2655H104.44V19.4365H101.334V37.2655ZM84.2102 37.0835C84.8852 37.3641 85.5717 37.5045 86.2695 37.5045C87.4224 37.5045 88.454 37.2238 89.3643 36.6625C90.2744 36.1012 90.9799 35.3276 91.4805 34.3415C91.9812 33.3478 92.2314 32.2213 92.2314 30.9622C92.2314 29.7031 91.9735 28.5767 91.4578 27.5831C90.9419 26.5894 90.2252 25.8195 89.3073 25.2734C88.3895 24.7197 87.3465 24.4466 86.1784 24.4542C85.4352 24.4542 84.7222 24.5983 84.0394 24.8865C83.3568 25.1748 82.7879 25.5844 82.3328 26.1153C82.2977 26.1558 82.2635 26.1966 82.2304 26.2378V19.448H79.1129V37.2656H82.2077L82.2014 35.6011C82.2814 35.6992 82.367 35.7951 82.4579 35.8888C82.9509 36.3971 83.535 36.7952 84.2102 37.0835ZM87.3959 34.205C86.8877 34.516 86.3074 34.6715 85.655 34.6715C85.0103 34.6715 84.4187 34.5121 83.8802 34.1936C83.3415 33.8673 82.913 33.4237 82.5944 32.8623C82.2834 32.3011 82.1279 31.6638 82.1279 30.9508C82.1204 30.2378 82.272 29.6007 82.583 29.0394C82.9017 28.4705 83.3302 28.0306 83.8688 27.7196C84.4073 27.401 85.0028 27.2455 85.655 27.2531C86.3074 27.2455 86.8877 27.3972 87.3959 27.7082C87.9117 28.0116 88.306 28.4478 88.5792 29.0167C88.8598 29.578 89.0002 30.2227 89.0002 30.9508C89.0002 31.6791 88.8598 32.3238 88.5792 32.8851C88.306 33.4465 87.9117 33.8863 87.3959 34.205ZM43.071 20.5175H46.6209L49.7964 32.1144L53.1745 20.5175H56.1328L59.7964 31.8817L62.8457 20.5175H66.0997L61.2983 37.2656H58.2377L54.5122 26.1636L51.0924 37.2656H47.9977L43.071 20.5175ZM71.3423 37.5613C70.1058 37.5689 68.9908 37.2958 67.9971 36.7422C67.011 36.1808 66.2336 35.4033 65.6646 34.4097C65.1034 33.416 64.8228 32.282 64.8228 31.0077C64.8228 29.7713 65.111 28.6525 65.6875 27.6513C66.2639 26.65 67.0451 25.8688 68.0312 25.3075C69.0174 24.7462 70.1171 24.4655 71.3308 24.4655C72.6961 24.4655 73.8908 24.7689 74.9148 25.3757C75.9464 25.9825 76.7163 26.8435 77.2245 27.9585C77.7402 29.0659 77.9261 30.3364 77.782 31.77H68.0361C68.0634 32.3412 68.2059 32.8608 68.4636 33.3288C68.7519 33.8445 69.1539 34.2465 69.6696 34.5348C70.1855 34.823 70.7619 34.9672 71.3991 34.9672C71.8845 34.9595 72.3359 34.8762 72.753 34.7169C73.1703 34.55 73.5229 34.3263 73.8111 34.0455C74.107 33.7649 74.3156 33.4464 74.437 33.0899H77.691C77.4938 33.9622 77.0994 34.7397 76.5078 35.4223C75.916 36.0974 75.1728 36.6245 74.2776 37.0038C73.3826 37.383 72.4041 37.5689 71.3423 37.5613ZM68.475 28.6412C68.2933 28.9581 68.1673 29.2994 68.0971 29.6652H74.5575C74.5106 29.2032 74.368 28.7822 74.1298 28.4022C73.8566 27.9547 73.485 27.6096 73.0148 27.3668C72.5445 27.1165 72.0135 26.9914 71.4219 26.9914C70.7923 26.9914 70.2196 27.1355 69.7038 27.4237C69.188 27.712 68.7784 28.1178 68.475 28.6412ZM94.5187 24.7272C94.5187 23.7108 94.75 22.8082 95.2127 22.0193C95.6754 21.2229 96.324 20.6047 97.1584 20.1647C98.0002 19.7172 98.9826 19.4859 100.105 19.4707V22.2355C99.5817 22.2431 99.1342 22.3531 98.7626 22.5655C98.3985 22.7703 98.1179 23.0699 97.9206 23.4643C97.7391 23.8274 97.6411 24.2484 97.6267 24.7272H100.037V27.3555H97.6249V37.2656H94.5187V27.3555H92.5162V24.7272H94.5187ZM112.336 37.5385C111.069 37.5385 109.935 37.2616 108.934 36.708C107.94 36.1466 107.159 35.373 106.59 34.3869C106.029 33.3932 105.748 32.2669 105.748 31.0076C105.748 29.741 106.029 28.6108 106.59 27.6171C107.159 26.6158 107.94 25.8384 108.934 25.2847C109.935 24.7309 111.069 24.4541 112.336 24.4541C113.61 24.4541 114.748 24.7309 115.749 25.2847C116.758 25.8384 117.543 26.6121 118.104 27.6057C118.666 28.5994 118.95 29.7334 118.958 31.0076C118.95 32.2669 118.666 33.3932 118.104 34.3869C117.551 35.373 116.769 36.1466 115.76 36.708C114.752 37.2616 113.61 37.5385 112.336 37.5385ZM112.336 34.6827C113.003 34.6827 113.595 34.531 114.111 34.2276C114.627 33.9166 115.025 33.4842 115.305 32.9305C115.586 32.3692 115.726 31.7282 115.726 31.0076C115.726 30.2795 115.586 29.6347 115.305 29.0734C115.025 28.5121 114.627 28.0798 114.111 27.7764C113.595 27.4654 113.003 27.3099 112.336 27.3099C111.676 27.3099 111.088 27.4654 110.572 27.7764C110.064 28.0798 109.67 28.5121 109.389 29.0734C109.108 29.6347 108.972 30.2795 108.979 31.0076C108.979 31.7282 109.12 32.3692 109.4 32.9305C109.689 33.4842 110.083 33.9166 110.584 34.2276C111.092 34.531 111.676 34.6827 112.336 34.6827ZM122.314 24.7272H118.855L122.599 37.2655H125.625L128.087 29.2573L130.745 37.2655H133.726L137.481 24.7272H134.352L132.222 32.5315L129.868 24.7272H126.842L124.5 32.7034L122.314 24.7272Z" fill="black"/>
<path d="M38.5712 17.249L27.0617 39.749H16.251L21.0677 30.424H20.8516C16.8779 35.5825 10.9489 38.9784 2.50098 39.749V30.5531C2.50098 30.5531 7.90529 30.2339 11.0823 26.8937H2.50098V17.2492H12.1455V25.1817L12.362 25.1808L16.3031 17.2492H23.597V25.1314L23.8134 25.131L27.9024 17.249H38.5712ZM101.334 37.2655H104.44V19.4365H101.334V37.2655ZM84.2102 37.0835C84.8852 37.3641 85.5717 37.5045 86.2695 37.5045C87.4224 37.5045 88.454 37.2238 89.3643 36.6625C90.2744 36.1012 90.9799 35.3276 91.4805 34.3415C91.9812 33.3478 92.2314 32.2213 92.2314 30.9622C92.2314 29.7031 91.9735 28.5767 91.4578 27.5831C90.9419 26.5894 90.2252 25.8195 89.3073 25.2734C88.3895 24.7197 87.3465 24.4466 86.1784 24.4542C85.4352 24.4542 84.7222 24.5983 84.0394 24.8865C83.3568 25.1748 82.7879 25.5844 82.3328 26.1153C82.2977 26.1558 82.2635 26.1966 82.2304 26.2378V19.448H79.1129V37.2656H82.2077L82.2014 35.6011C82.2814 35.6992 82.367 35.7951 82.4579 35.8888C82.9509 36.3971 83.535 36.7952 84.2102 37.0835ZM87.3959 34.205C86.8877 34.516 86.3074 34.6715 85.655 34.6715C85.0103 34.6715 84.4187 34.5121 83.8802 34.1936C83.3415 33.8673 82.913 33.4237 82.5944 32.8623C82.2834 32.3011 82.1279 31.6638 82.1279 30.9508C82.1204 30.2378 82.272 29.6007 82.583 29.0394C82.9017 28.4705 83.3302 28.0306 83.8688 27.7196C84.4073 27.401 85.0028 27.2455 85.655 27.2531C86.3074 27.2455 86.8877 27.3972 87.3959 27.7082C87.9117 28.0116 88.306 28.4478 88.5792 29.0167C88.8598 29.578 89.0002 30.2227 89.0002 30.9508C89.0002 31.6791 88.8598 32.3238 88.5792 32.8851C88.306 33.4465 87.9117 33.8863 87.3959 34.205ZM43.071 20.5175H46.6209L49.7964 32.1144L53.1745 20.5175H56.1328L59.7964 31.8817L62.8457 20.5175H66.0997L61.2983 37.2656H58.2377L54.5122 26.1636L51.0924 37.2656H47.9977L43.071 20.5175ZM71.3423 37.5613C70.1058 37.5689 68.9908 37.2958 67.9971 36.7422C67.011 36.1808 66.2336 35.4033 65.6646 34.4097C65.1034 33.416 64.8228 32.282 64.8228 31.0077C64.8228 29.7713 65.111 28.6525 65.6875 27.6513C66.2639 26.65 67.0451 25.8688 68.0312 25.3075C69.0174 24.7462 70.1171 24.4655 71.3308 24.4655C72.6961 24.4655 73.8908 24.7689 74.9148 25.3757C75.9464 25.9825 76.7163 26.8435 77.2245 27.9585C77.7402 29.0659 77.9261 30.3364 77.782 31.77H68.0361C68.0634 32.3412 68.2059 32.8608 68.4636 33.3288C68.7519 33.8445 69.1539 34.2465 69.6696 34.5348C70.1855 34.823 70.7619 34.9672 71.3991 34.9672C71.8845 34.9595 72.3359 34.8762 72.753 34.7169C73.1703 34.55 73.5229 34.3263 73.8111 34.0455C74.107 33.7649 74.3156 33.4464 74.437 33.0899H77.691C77.4938 33.9622 77.0994 34.7397 76.5078 35.4223C75.916 36.0974 75.1728 36.6245 74.2776 37.0038C73.3826 37.383 72.4041 37.5689 71.3423 37.5613ZM68.475 28.6412C68.2933 28.9581 68.1673 29.2994 68.0971 29.6652H74.5575C74.5106 29.2032 74.368 28.7822 74.1298 28.4022C73.8566 27.9547 73.485 27.6096 73.0148 27.3668C72.5445 27.1165 72.0135 26.9914 71.4219 26.9914C70.7923 26.9914 70.2196 27.1355 69.7038 27.4237C69.188 27.712 68.7784 28.1178 68.475 28.6412ZM94.5187 24.7272C94.5187 23.7108 94.75 22.8082 95.2127 22.0193C95.6754 21.2229 96.324 20.6047 97.1584 20.1647C98.0002 19.7172 98.9826 19.4859 100.105 19.4707V22.2355C99.5817 22.2431 99.1342 22.3531 98.7626 22.5655C98.3985 22.7703 98.1179 23.0699 97.9206 23.4643C97.7391 23.8274 97.6411 24.2484 97.6267 24.7272H100.037V27.3555H97.6249V37.2656H94.5187V27.3555H92.5162V24.7272H94.5187ZM112.336 37.5385C111.069 37.5385 109.935 37.2616 108.934 36.708C107.94 36.1466 107.159 35.373 106.59 34.3869C106.029 33.3932 105.748 32.2669 105.748 31.0076C105.748 29.741 106.029 28.6108 106.59 27.6171C107.159 26.6158 107.94 25.8384 108.934 25.2847C109.935 24.7309 111.069 24.4541 112.336 24.4541C113.61 24.4541 114.748 24.7309 115.749 25.2847C116.758 25.8384 117.543 26.6121 118.104 27.6057C118.666 28.5994 118.95 29.7334 118.958 31.0076C118.95 32.2669 118.666 33.3932 118.104 34.3869C117.551 35.373 116.769 36.1466 115.76 36.708C114.752 37.2616 113.61 37.5385 112.336 37.5385ZM112.336 34.6827C113.003 34.6827 113.595 34.531 114.111 34.2276C114.627 33.9166 115.025 33.4842 115.305 32.9305C115.586 32.3692 115.726 31.7282 115.726 31.0076C115.726 30.2795 115.586 29.6347 115.305 29.0734C115.025 28.5121 114.627 28.0798 114.111 27.7764C113.595 27.4654 113.003 27.3099 112.336 27.3099C111.676 27.3099 111.088 27.4654 110.572 27.7764C110.064 28.0798 109.67 28.5121 109.389 29.0734C109.108 29.6347 108.972 30.2795 108.979 31.0076C108.979 31.7282 109.12 32.3692 109.4 32.9305C109.689 33.4842 110.083 33.9166 110.584 34.2276C111.092 34.531 111.676 34.6827 112.336 34.6827ZM122.314 24.7272H118.855L122.599 37.2655H125.625L128.087 29.2573L130.745 37.2655H133.726L137.481 24.7272H134.352L132.222 32.5315L129.868 24.7272H126.842L124.5 32.7034L122.314 24.7272Z" fill="black"/>
<path fill-rule="evenodd" clip-rule="evenodd" d="M38.5712 17.249L27.0617 39.749H16.251L21.0677 30.424H20.8516C16.8779 35.5825 10.9489 38.9784 2.50098 39.749V30.5531C2.50098 30.5531 7.90529 30.2339 11.0823 26.8937H2.50098V17.2492H12.1455V25.1817L12.362 25.1808L16.3031 17.2492H23.597V25.1314L23.8134 25.131L27.9024 17.249H38.5712ZM101.334 37.2655H104.44V19.4365H101.334V37.2655ZM84.2102 37.0835C84.8852 37.3641 85.5717 37.5045 86.2695 37.5045C87.4224 37.5045 88.454 37.2238 89.3643 36.6625C90.2744 36.1012 90.9799 35.3276 91.4805 34.3415C91.9812 33.3478 92.2314 32.2213 92.2314 30.9622C92.2314 29.7031 91.9735 28.5767 91.4578 27.5831C90.9419 26.5894 90.2252 25.8195 89.3073 25.2734C88.3895 24.7197 87.3465 24.4466 86.1784 24.4542C85.4352 24.4542 84.7222 24.5983 84.0394 24.8865C83.3568 25.1748 82.7879 25.5844 82.3328 26.1153C82.2977 26.1558 82.2635 26.1966 82.2304 26.2378V19.448H79.1129V37.2656H82.2077L82.2014 35.6011C82.2814 35.6992 82.367 35.7951 82.4579 35.8888C82.9509 36.3971 83.535 36.7952 84.2102 37.0835ZM87.3959 34.205C86.8877 34.516 86.3074 34.6715 85.655 34.6715C85.0103 34.6715 84.4187 34.5121 83.8802 34.1936C83.3415 33.8673 82.913 33.4237 82.5944 32.8623C82.2834 32.3011 82.1279 31.6638 82.1279 30.9508C82.1204 30.2378 82.272 29.6007 82.583 29.0394C82.9017 28.4705 83.3302 28.0306 83.8688 27.7196C84.4073 27.401 85.0028 27.2455 85.655 27.2531C86.3074 27.2455 86.8877 27.3972 87.3959 27.7082C87.9117 28.0116 88.306 28.4478 88.5792 29.0167C88.8598 29.578 89.0002 30.2227 89.0002 30.9508C89.0002 31.6791 88.8598 32.3238 88.5792 32.8851C88.306 33.4465 87.9117 33.8863 87.3959 34.205ZM43.071 20.5175H46.6209L49.7964 32.1144L53.1745 20.5175H56.1328L59.7964 31.8817L62.8457 20.5175H66.0997L61.2983 37.2656H58.2377L54.5122 26.1636L51.0924 37.2656H47.9977L43.071 20.5175ZM71.3423 37.5613C70.1058 37.5689 68.9908 37.2958 67.9971 36.7422C67.011 36.1808 66.2336 35.4033 65.6646 34.4097C65.1034 33.416 64.8228 32.282 64.8228 31.0077C64.8228 29.7713 65.111 28.6525 65.6875 27.6513C66.2639 26.65 67.0451 25.8688 68.0312 25.3075C69.0174 24.7462 70.1171 24.4655 71.3308 24.4655C72.6961 24.4655 73.8908 24.7689 74.9148 25.3757C75.9464 25.9825 76.7163 26.8435 77.2245 27.9585C77.7402 29.0659 77.9261 30.3364 77.782 31.77H68.0361C68.0634 32.3412 68.2059 32.8608 68.4636 33.3288C68.7519 33.8445 69.1539 34.2465 69.6696 34.5348C70.1855 34.823 70.7619 34.9672 71.3991 34.9672C71.8845 34.9595 72.3359 34.8762 72.753 34.7169C73.1703 34.55 73.5229 34.3263 73.8111 34.0455C74.107 33.7649 74.3156 33.4464 74.437 33.0899H77.691C77.4938 33.9622 77.0994 34.7397 76.5078 35.4223C75.916 36.0974 75.1728 36.6245 74.2776 37.0038C73.3826 37.383 72.4041 37.5689 71.3423 37.5613ZM68.475 28.6412C68.2933 28.9581 68.1673 29.2994 68.0971 29.6652H74.5575C74.5106 29.2032 74.368 28.7822 74.1298 28.4022C73.8566 27.9547 73.485 27.6096 73.0148 27.3668C72.5445 27.1165 72.0135 26.9914 71.4219 26.9914C70.7923 26.9914 70.2196 27.1355 69.7038 27.4237C69.188 27.712 68.7784 28.1178 68.475 28.6412ZM94.5187 24.7272C94.5187 23.7108 94.75 22.8082 95.2127 22.0193C95.6754 21.2229 96.324 20.6047 97.1584 20.1647C98.0002 19.7172 98.9826 19.4859 100.105 19.4707V22.2355C99.5817 22.2431 99.1342 22.3531 98.7626 22.5655C98.3985 22.7703 98.1179 23.0699 97.9206 23.4643C97.7391 23.8274 97.6411 24.2484 97.6267 24.7272H100.037V27.3555H97.6249V37.2656H94.5187V27.3555H92.5162V24.7272H94.5187ZM112.336 37.5385C111.069 37.5385 109.935 37.2616 108.934 36.708C107.94 36.1466 107.159 35.373 106.59 34.3869C106.029 33.3932 105.748 32.2669 105.748 31.0076C105.748 29.741 106.029 28.6108 106.59 27.6171C107.159 26.6158 107.94 25.8384 108.934 25.2847C109.935 24.7309 111.069 24.4541 112.336 24.4541C113.61 24.4541 114.748 24.7309 115.749 25.2847C116.758 25.8384 117.543 26.6121 118.104 27.6057C118.666 28.5994 118.95 29.7334 118.958 31.0076C118.95 32.2669 118.666 33.3932 118.104 34.3869C117.551 35.373 116.769 36.1466 115.76 36.708C114.752 37.2616 113.61 37.5385 112.336 37.5385ZM112.336 34.6827C113.003 34.6827 113.595 34.531 114.111 34.2276C114.627 33.9166 115.025 33.4842 115.305 32.9305C115.586 32.3692 115.726 31.7282 115.726 31.0076C115.726 30.2795 115.586 29.6347 115.305 29.0734C115.025 28.5121 114.627 28.0798 114.111 27.7764C113.595 27.4654 113.003 27.3099 112.336 27.3099C111.676 27.3099 111.088 27.4654 110.572 27.7764C110.064 28.0798 109.67 28.5121 109.389 29.0734C109.108 29.6347 108.972 30.2795 108.979 31.0076C108.979 31.7282 109.12 32.3692 109.4 32.9305C109.689 33.4842 110.083 33.9166 110.584 34.2276C111.092 34.531 111.676 34.6827 112.336 34.6827ZM122.314 24.7272H118.855L122.599 37.2655H125.625L128.087 29.2573L130.745 37.2655H133.726L137.481 24.7272H134.352L132.222 32.5315L129.868 24.7272H126.842L124.5 32.7034L122.314 24.7272Z" fill="black"/>
<path d="M38.5712 17.249L27.0617 39.749H16.251L21.0677 30.424H20.8516C16.8779 35.5825 10.9489 38.9784 2.50098 39.749V30.5531C2.50098 30.5531 7.90529 30.2339 11.0823 26.8937H2.50098V17.2492H12.1455V25.1817L12.362 25.1808L16.3031 17.2492H23.597V25.1314L23.8134 25.131L27.9024 17.249H38.5712ZM101.334 37.2655H104.44V19.4365H101.334V37.2655ZM84.2102 37.0835C84.8852 37.3641 85.5717 37.5045 86.2695 37.5045C87.4224 37.5045 88.454 37.2238 89.3643 36.6625C90.2744 36.1012 90.9799 35.3276 91.4805 34.3415C91.9812 33.3478 92.2314 32.2213 92.2314 30.9622C92.2314 29.7031 91.9735 28.5767 91.4578 27.5831C90.9419 26.5894 90.2252 25.8195 89.3073 25.2734C88.3895 24.7197 87.3465 24.4466 86.1784 24.4542C85.4352 24.4542 84.7222 24.5983 84.0394 24.8865C83.3568 25.1748 82.7879 25.5844 82.3328 26.1153C82.2977 26.1558 82.2635 26.1966 82.2304 26.2378V19.448H79.1129V37.2656H82.2077L82.2014 35.6011C82.2814 35.6992 82.367 35.7951 82.4579 35.8888C82.9509 36.3971 83.535 36.7952 84.2102 37.0835ZM87.3959 34.205C86.8877 34.516 86.3074 34.6715 85.655 34.6715C85.0103 34.6715 84.4187 34.5121 83.8802 34.1936C83.3415 33.8673 82.913 33.4237 82.5944 32.8623C82.2834 32.3011 82.1279 31.6638 82.1279 30.9508C82.1204 30.2378 82.272 29.6007 82.583 29.0394C82.9017 28.4705 83.3302 28.0306 83.8688 27.7196C84.4073 27.401 85.0028 27.2455 85.655 27.2531C86.3074 27.2455 86.8877 27.3972 87.3959 27.7082C87.9117 28.0116 88.306 28.4478 88.5792 29.0167C88.8598 29.578 89.0002 30.2227 89.0002 30.9508C89.0002 31.6791 88.8598 32.3238 88.5792 32.8851C88.306 33.4465 87.9117 33.8863 87.3959 34.205ZM43.071 20.5175H46.6209L49.7964 32.1144L53.1745 20.5175H56.1328L59.7964 31.8817L62.8457 20.5175H66.0997L61.2983 37.2656H58.2377L54.5122 26.1636L51.0924 37.2656H47.9977L43.071 20.5175ZM71.3423 37.5613C70.1058 37.5689 68.9908 37.2958 67.9971 36.7422C67.011 36.1808 66.2336 35.4033 65.6646 34.4097C65.1034 33.416 64.8228 32.282 64.8228 31.0077C64.8228 29.7713 65.111 28.6525 65.6875 27.6513C66.2639 26.65 67.0451 25.8688 68.0312 25.3075C69.0174 24.7462 70.1171 24.4655 71.3308 24.4655C72.6961 24.4655 73.8908 24.7689 74.9148 25.3757C75.9464 25.9825 76.7163 26.8435 77.2245 27.9585C77.7402 29.0659 77.9261 30.3364 77.782 31.77H68.0361C68.0634 32.3412 68.2059 32.8608 68.4636 33.3288C68.7519 33.8445 69.1539 34.2465 69.6696 34.5348C70.1855 34.823 70.7619 34.9672 71.3991 34.9672C71.8845 34.9595 72.3359 34.8762 72.753 34.7169C73.1703 34.55 73.5229 34.3263 73.8111 34.0455C74.107 33.7649 74.3156 33.4464 74.437 33.0899H77.691C77.4938 33.9622 77.0994 34.7397 76.5078 35.4223C75.916 36.0974 75.1728 36.6245 74.2776 37.0038C73.3826 37.383 72.4041 37.5689 71.3423 37.5613ZM68.475 28.6412C68.2933 28.9581 68.1673 29.2994 68.0971 29.6652H74.5575C74.5106 29.2032 74.368 28.7822 74.1298 28.4022C73.8566 27.9547 73.485 27.6096 73.0148 27.3668C72.5445 27.1165 72.0135 26.9914 71.4219 26.9914C70.7923 26.9914 70.2196 27.1355 69.7038 27.4237C69.188 27.712 68.7784 28.1178 68.475 28.6412ZM94.5187 24.7272C94.5187 23.7108 94.75 22.8082 95.2127 22.0193C95.6754 21.2229 96.324 20.6047 97.1584 20.1647C98.0002 19.7172 98.9826 19.4859 100.105 19.4707V22.2355C99.5817 22.2431 99.1342 22.3531 98.7626 22.5655C98.3985 22.7703 98.1179 23.0699 97.9206 23.4643C97.7391 23.8274 97.6411 24.2484 97.6267 24.7272H100.037V27.3555H97.6249V37.2656H94.5187V27.3555H92.5162V24.7272H94.5187ZM112.336 37.5385C111.069 37.5385 109.935 37.2616 108.934 36.708C107.94 36.1466 107.159 35.373 106.59 34.3869C106.029 33.3932 105.748 32.2669 105.748 31.0076C105.748 29.741 106.029 28.6108 106.59 27.6171C107.159 26.6158 107.94 25.8384 108.934 25.2847C109.935 24.7309 111.069 24.4541 112.336 24.4541C113.61 24.4541 114.748 24.7309 115.749 25.2847C116.758 25.8384 117.543 26.6121 118.104 27.6057C118.666 28.5994 118.95 29.7334 118.958 31.0076C118.95 32.2669 118.666 33.3932 118.104 34.3869C117.551 35.373 116.769 36.1466 115.76 36.708C114.752 37.2616 113.61 37.5385 112.336 37.5385ZM112.336 34.6827C113.003 34.6827 113.595 34.531 114.111 34.2276C114.627 33.9166 115.025 33.4842 115.305 32.9305C115.586 32.3692 115.726 31.7282 115.726 31.0076C115.726 30.2795 115.586 29.6347 115.305 29.0734C115.025 28.5121 114.627 28.0798 114.111 27.7764C113.595 27.4654 113.003 27.3099 112.336 27.3099C111.676 27.3099 111.088 27.4654 110.572 27.7764C110.064 28.0798 109.67 28.5121 109.389 29.0734C109.108 29.6347 108.972 30.2795 108.979 31.0076C108.979 31.7282 109.12 32.3692 109.4 32.9305C109.689 33.4842 110.083 33.9166 110.584 34.2276C111.092 34.531 111.676 34.6827 112.336 34.6827ZM122.314 24.7272H118.855L122.599 37.2655H125.625L128.087 29.2573L130.745 37.2655H133.726L137.481 24.7272H134.352L132.222 32.5315L129.868 24.7272H126.842L124.5 32.7034L122.314 24.7272Z" fill="black"/>
<path fill-rule="evenodd" clip-rule="evenodd" d="M38.5712 17.249L27.0617 39.749H16.251L21.0677 30.424H20.8516C16.8779 35.5825 10.9489 38.9784 2.50098 39.749V30.5531C2.50098 30.5531 7.90529 30.2339 11.0823 26.8937H2.50098V17.2492H12.1455V25.1817L12.362 25.1808L16.3031 17.2492H23.597V25.1314L23.8134 25.131L27.9024 17.249H38.5712ZM101.334 37.2655H104.44V19.4365H101.334V37.2655ZM84.2102 37.0835C84.8852 37.3641 85.5717 37.5045 86.2695 37.5045C87.4224 37.5045 88.454 37.2238 89.3643 36.6625C90.2744 36.1012 90.9799 35.3276 91.4805 34.3415C91.9812 33.3478 92.2314 32.2213 92.2314 30.9622C92.2314 29.7031 91.9735 28.5767 91.4578 27.5831C90.9419 26.5894 90.2252 25.8195 89.3073 25.2734C88.3895 24.7197 87.3465 24.4466 86.1784 24.4542C85.4352 24.4542 84.7222 24.5983 84.0394 24.8865C83.3568 25.1748 82.7879 25.5844 82.3328 26.1153C82.2977 26.1558 82.2635 26.1966 82.2304 26.2378V19.448H79.1129V37.2656H82.2077L82.2014 35.6011C82.2814 35.6992 82.367 35.7951 82.4579 35.8888C82.9509 36.3971 83.535 36.7952 84.2102 37.0835ZM87.3959 34.205C86.8877 34.516 86.3074 34.6715 85.655 34.6715C85.0103 34.6715 84.4187 34.5121 83.8802 34.1936C83.3415 33.8673 82.913 33.4237 82.5944 32.8623C82.2834 32.3011 82.1279 31.6638 82.1279 30.9508C82.1204 30.2378 82.272 29.6007 82.583 29.0394C82.9017 28.4705 83.3302 28.0306 83.8688 27.7196C84.4073 27.401 85.0028 27.2455 85.655 27.2531C86.3074 27.2455 86.8877 27.3972 87.3959 27.7082C87.9117 28.0116 88.306 28.4478 88.5792 29.0167C88.8598 29.578 89.0002 30.2227 89.0002 30.9508C89.0002 31.6791 88.8598 32.3238 88.5792 32.8851C88.306 33.4465 87.9117 33.8863 87.3959 34.205ZM43.071 20.5175H46.6209L49.7964 32.1144L53.1745 20.5175H56.1328L59.7964 31.8817L62.8457 20.5175H66.0997L61.2983 37.2656H58.2377L54.5122 26.1636L51.0924 37.2656H47.9977L43.071 20.5175ZM71.3423 37.5613C70.1058 37.5689 68.9908 37.2958 67.9971 36.7422C67.011 36.1808 66.2336 35.4033 65.6646 34.4097C65.1034 33.416 64.8228 32.282 64.8228 31.0077C64.8228 29.7713 65.111 28.6525 65.6875 27.6513C66.2639 26.65 67.0451 25.8688 68.0312 25.3075C69.0174 24.7462 70.1171 24.4655 71.3308 24.4655C72.6961 24.4655 73.8908 24.7689 74.9148 25.3757C75.9464 25.9825 76.7163 26.8435 77.2245 27.9585C77.7402 29.0659 77.9261 30.3364 77.782 31.77H68.0361C68.0634 32.3412 68.2059 32.8608 68.4636 33.3288C68.7519 33.8445 69.1539 34.2465 69.6696 34.5348C70.1855 34.823 70.7619 34.9672 71.3991 34.9672C71.8845 34.9595 72.3359 34.8762 72.753 34.7169C73.1703 34.55 73.5229 34.3263 73.8111 34.0455C74.107 33.7649 74.3156 33.4464 74.437 33.0899H77.691C77.4938 33.9622 77.0994 34.7397 76.5078 35.4223C75.916 36.0974 75.1728 36.6245 74.2776 37.0038C73.3826 37.383 72.4041 37.5689 71.3423 37.5613ZM68.475 28.6412C68.2933 28.9581 68.1673 29.2994 68.0971 29.6652H74.5575C74.5106 29.2032 74.368 28.7822 74.1298 28.4022C73.8566 27.9547 73.485 27.6096 73.0148 27.3668C72.5445 27.1165 72.0135 26.9914 71.4219 26.9914C70.7923 26.9914 70.2196 27.1355 69.7038 27.4237C69.188 27.712 68.7784 28.1178 68.475 28.6412ZM94.5187 24.7272C94.5187 23.7108 94.75 22.8082 95.2127 22.0193C95.6754 21.2229 96.324 20.6047 97.1584 20.1647C98.0002 19.7172 98.9826 19.4859 100.105 19.4707V22.2355C99.5817 22.2431 99.1342 22.3531 98.7626 22.5655C98.3985 22.7703 98.1179 23.0699 97.9206 23.4643C97.7391 23.8274 97.6411 24.2484 97.6267 24.7272H100.037V27.3555H97.6249V37.2656H94.5187V27.3555H92.5162V24.7272H94.5187ZM112.336 37.5385C111.069 37.5385 109.935 37.2616 108.934 36.708C107.94 36.1466 107.159 35.373 106.59 34.3869C106.029 33.3932 105.748 32.2669 105.748 31.0076C105.748 29.741 106.029 28.6108 106.59 27.6171C107.159 26.6158 107.94 25.8384 108.934 25.2847C109.935 24.7309 111.069 24.4541 112.336 24.4541C113.61 24.4541 114.748 24.7309 115.749 25.2847C116.758 25.8384 117.543 26.6121 118.104 27.6057C118.666 28.5994 118.95 29.7334 118.958 31.0076C118.95 32.2669 118.666 33.3932 118.104 34.3869C117.551 35.373 116.769 36.1466 115.76 36.708C114.752 37.2616 113.61 37.5385 112.336 37.5385ZM112.336 34.6827C113.003 34.6827 113.595 34.531 114.111 34.2276C114.627 33.9166 115.025 33.4842 115.305 32.9305C115.586 32.3692 115.726 31.7282 115.726 31.0076C115.726 30.2795 115.586 29.6347 115.305 29.0734C115.025 28.5121 114.627 28.0798 114.111 27.7764C113.595 27.4654 113.003 27.3099 112.336 27.3099C111.676 27.3099 111.088 27.4654 110.572 27.7764C110.064 28.0798 109.67 28.5121 109.389 29.0734C109.108 29.6347 108.972 30.2795 108.979 31.0076C108.979 31.7282 109.12 32.3692 109.4 32.9305C109.689 33.4842 110.083 33.9166 110.584 34.2276C111.092 34.531 111.676 34.6827 112.336 34.6827ZM122.314 24.7272H118.855L122.599 37.2655H125.625L128.087 29.2573L130.745 37.2655H133.726L137.481 24.7272H134.352L132.222 32.5315L129.868 24.7272H126.842L124.5 32.7034L122.314 24.7272Z" fill="black"/>
<path d="M38.5712 17.249L27.0617 39.749H16.251L21.0677 30.424H20.8516C16.8779 35.5825 10.9489 38.9784 2.50098 39.749V30.5531C2.50098 30.5531 7.90529 30.2339 11.0823 26.8937H2.50098V17.2492H12.1455V25.1817L12.362 25.1808L16.3031 17.2492H23.597V25.1314L23.8134 25.131L27.9024 17.249H38.5712ZM101.334 37.2655H104.44V19.4365H101.334V37.2655ZM84.2102 37.0835C84.8852 37.3641 85.5717 37.5045 86.2695 37.5045C87.4224 37.5045 88.454 37.2238 89.3643 36.6625C90.2744 36.1012 90.9799 35.3276 91.4805 34.3415C91.9812 33.3478 92.2314 32.2213 92.2314 30.9622C92.2314 29.7031 91.9735 28.5767 91.4578 27.5831C90.9419 26.5894 90.2252 25.8195 89.3073 25.2734C88.3895 24.7197 87.3465 24.4466 86.1784 24.4542C85.4352 24.4542 84.7222 24.5983 84.0394 24.8865C83.3568 25.1748 82.7879 25.5844 82.3328 26.1153C82.2977 26.1558 82.2635 26.1966 82.2304 26.2378V19.448H79.1129V37.2656H82.2077L82.2014 35.6011C82.2814 35.6992 82.367 35.7951 82.4579 35.8888C82.9509 36.3971 83.535 36.7952 84.2102 37.0835ZM87.3959 34.205C86.8877 34.516 86.3074 34.6715 85.655 34.6715C85.0103 34.6715 84.4187 34.5121 83.8802 34.1936C83.3415 33.8673 82.913 33.4237 82.5944 32.8623C82.2834 32.3011 82.1279 31.6638 82.1279 30.9508C82.1204 30.2378 82.272 29.6007 82.583 29.0394C82.9017 28.4705 83.3302 28.0306 83.8688 27.7196C84.4073 27.401 85.0028 27.2455 85.655 27.2531C86.3074 27.2455 86.8877 27.3972 87.3959 27.7082C87.9117 28.0116 88.306 28.4478 88.5792 29.0167C88.8598 29.578 89.0002 30.2227 89.0002 30.9508C89.0002 31.6791 88.8598 32.3238 88.5792 32.8851C88.306 33.4465 87.9117 33.8863 87.3959 34.205ZM43.071 20.5175H46.6209L49.7964 32.1144L53.1745 20.5175H56.1328L59.7964 31.8817L62.8457 20.5175H66.0997L61.2983 37.2656H58.2377L54.5122 26.1636L51.0924 37.2656H47.9977L43.071 20.5175ZM71.3423 37.5613C70.1058 37.5689 68.9908 37.2958 67.9971 36.7422C67.011 36.1808 66.2336 35.4033 65.6646 34.4097C65.1034 33.416 64.8228 32.282 64.8228 31.0077C64.8228 29.7713 65.111 28.6525 65.6875 27.6513C66.2639 26.65 67.0451 25.8688 68.0312 25.3075C69.0174 24.7462 70.1171 24.4655 71.3308 24.4655C72.6961 24.4655 73.8908 24.7689 74.9148 25.3757C75.9464 25.9825 76.7163 26.8435 77.2245 27.9585C77.7402 29.0659 77.9261 30.3364 77.782 31.77H68.0361C68.0634 32.3412 68.2059 32.8608 68.4636 33.3288C68.7519 33.8445 69.1539 34.2465 69.6696 34.5348C70.1855 34.823 70.7619 34.9672 71.3991 34.9672C71.8845 34.9595 72.3359 34.8762 72.753 34.7169C73.1703 34.55 73.5229 34.3263 73.8111 34.0455C74.107 33.7649 74.3156 33.4464 74.437 33.0899H77.691C77.4938 33.9622 77.0994 34.7397 76.5078 35.4223C75.916 36.0974 75.1728 36.6245 74.2776 37.0038C73.3826 37.383 72.4041 37.5689 71.3423 37.5613ZM68.475 28.6412C68.2933 28.9581 68.1673 29.2994 68.0971 29.6652H74.5575C74.5106 29.2032 74.368 28.7822 74.1298 28.4022C73.8566 27.9547 73.485 27.6096 73.0148 27.3668C72.5445 27.1165 72.0135 26.9914 71.4219 26.9914C70.7923 26.9914 70.2196 27.1355 69.7038 27.4237C69.188 27.712 68.7784 28.1178 68.475 28.6412ZM94.5187 24.7272C94.5187 23.7108 94.75 22.8082 95.2127 22.0193C95.6754 21.2229 96.324 20.6047 97.1584 20.1647C98.0002 19.7172 98.9826 19.4859 100.105 19.4707V22.2355C99.5817 22.2431 99.1342 22.3531 98.7626 22.5655C98.3985 22.7703 98.1179 23.0699 97.9206 23.4643C97.7391 23.8274 97.6411 24.2484 97.6267 24.7272H100.037V27.3555H97.6249V37.2656H94.5187V27.3555H92.5162V24.7272H94.5187ZM112.336 37.5385C111.069 37.5385 109.935 37.2616 108.934 36.708C107.94 36.1466 107.159 35.373 106.59 34.3869C106.029 33.3932 105.748 32.2669 105.748 31.0076C105.748 29.741 106.029 28.6108 106.59 27.6171C107.159 26.6158 107.94 25.8384 108.934 25.2847C109.935 24.7309 111.069 24.4541 112.336 24.4541C113.61 24.4541 114.748 24.7309 115.749 25.2847C116.758 25.8384 117.543 26.6121 118.104 27.6057C118.666 28.5994 118.95 29.7334 118.958 31.0076C118.95 32.2669 118.666 33.3932 118.104 34.3869C117.551 35.373 116.769 36.1466 115.76 36.708C114.752 37.2616 113.61 37.5385 112.336 37.5385ZM112.336 34.6827C113.003 34.6827 113.595 34.531 114.111 34.2276C114.627 33.9166 115.025 33.4842 115.305 32.9305C115.586 32.3692 115.726 31.7282 115.726 31.0076C115.726 30.2795 115.586 29.6347 115.305 29.0734C115.025 28.5121 114.627 28.0798 114.111 27.7764C113.595 27.4654 113.003 27.3099 112.336 27.3099C111.676 27.3099 111.088 27.4654 110.572 27.7764C110.064 28.0798 109.67 28.5121 109.389 29.0734C109.108 29.6347 108.972 30.2795 108.979 31.0076C108.979 31.7282 109.12 32.3692 109.4 32.9305C109.689 33.4842 110.083 33.9166 110.584 34.2276C111.092 34.531 111.676 34.6827 112.336 34.6827ZM122.314 24.7272H118.855L122.599 37.2655H125.625L128.087 29.2573L130.745 37.2655H133.726L137.481 24.7272H134.352L132.222 32.5315L129.868 24.7272H126.842L124.5 32.7034L122.314 24.7272Z" fill="black"/>
<path fill-rule="evenodd" clip-rule="evenodd" d="M38.5712 17.249L27.0617 39.749H16.251L21.0677 30.424H20.8516C16.8779 35.5825 10.9489 38.9784 2.50098 39.749V30.5531C2.50098 30.5531 7.90529 30.2339 11.0823 26.8937H2.50098V17.2492H12.1455V25.1817L12.362 25.1808L16.3031 17.2492H23.597V25.1314L23.8134 25.131L27.9024 17.249H38.5712ZM101.334 37.2655H104.44V19.4365H101.334V37.2655ZM84.2102 37.0835C84.8852 37.3641 85.5717 37.5045 86.2695 37.5045C87.4224 37.5045 88.454 37.2238 89.3643 36.6625C90.2744 36.1012 90.9799 35.3276 91.4805 34.3415C91.9812 33.3478 92.2314 32.2213 92.2314 30.9622C92.2314 29.7031 91.9735 28.5767 91.4578 27.5831C90.9419 26.5894 90.2252 25.8195 89.3073 25.2734C88.3895 24.7197 87.3465 24.4466 86.1784 24.4542C85.4352 24.4542 84.7222 24.5983 84.0394 24.8865C83.3568 25.1748 82.7879 25.5844 82.3328 26.1153C82.2977 26.1558 82.2635 26.1966 82.2304 26.2378V19.448H79.1129V37.2656H82.2077L82.2014 35.6011C82.2814 35.6992 82.367 35.7951 82.4579 35.8888C82.9509 36.3971 83.535 36.7952 84.2102 37.0835ZM87.3959 34.205C86.8877 34.516 86.3074 34.6715 85.655 34.6715C85.0103 34.6715 84.4187 34.5121 83.8802 34.1936C83.3415 33.8673 82.913 33.4237 82.5944 32.8623C82.2834 32.3011 82.1279 31.6638 82.1279 30.9508C82.1204 30.2378 82.272 29.6007 82.583 29.0394C82.9017 28.4705 83.3302 28.0306 83.8688 27.7196C84.4073 27.401 85.0028 27.2455 85.655 27.2531C86.3074 27.2455 86.8877 27.3972 87.3959 27.7082C87.9117 28.0116 88.306 28.4478 88.5792 29.0167C88.8598 29.578 89.0002 30.2227 89.0002 30.9508C89.0002 31.6791 88.8598 32.3238 88.5792 32.8851C88.306 33.4465 87.9117 33.8863 87.3959 34.205ZM43.071 20.5175H46.6209L49.7964 32.1144L53.1745 20.5175H56.1328L59.7964 31.8817L62.8457 20.5175H66.0997L61.2983 37.2656H58.2377L54.5122 26.1636L51.0924 37.2656H47.9977L43.071 20.5175ZM71.3423 37.5613C70.1058 37.5689 68.9908 37.2958 67.9971 36.7422C67.011 36.1808 66.2336 35.4033 65.6646 34.4097C65.1034 33.416 64.8228 32.282 64.8228 31.0077C64.8228 29.7713 65.111 28.6525 65.6875 27.6513C66.2639 26.65 67.0451 25.8688 68.0312 25.3075C69.0174 24.7462 70.1171 24.4655 71.3308 24.4655C72.6961 24.4655 73.8908 24.7689 74.9148 25.3757C75.9464 25.9825 76.7163 26.8435 77.2245 27.9585C77.7402 29.0659 77.9261 30.3364 77.782 31.77H68.0361C68.0634 32.3412 68.2059 32.8608 68.4636 33.3288C68.7519 33.8445 69.1539 34.2465 69.6696 34.5348C70.1855 34.823 70.7619 34.9672 71.3991 34.9672C71.8845 34.9595 72.3359 34.8762 72.753 34.7169C73.1703 34.55 73.5229 34.3263 73.8111 34.0455C74.107 33.7649 74.3156 33.4464 74.437 33.0899H77.691C77.4938 33.9622 77.0994 34.7397 76.5078 35.4223C75.916 36.0974 75.1728 36.6245 74.2776 37.0038C73.3826 37.383 72.4041 37.5689 71.3423 37.5613ZM68.475 28.6412C68.2933 28.9581 68.1673 29.2994 68.0971 29.6652H74.5575C74.5106 29.2032 74.368 28.7822 74.1298 28.4022C73.8566 27.9547 73.485 27.6096 73.0148 27.3668C72.5445 27.1165 72.0135 26.9914 71.4219 26.9914C70.7923 26.9914 70.2196 27.1355 69.7038 27.4237C69.188 27.712 68.7784 28.1178 68.475 28.6412ZM94.5187 24.7272C94.5187 23.7108 94.75 22.8082 95.2127 22.0193C95.6754 21.2229 96.324 20.6047 97.1584 20.1647C98.0002 19.7172 98.9826 19.4859 100.105 19.4707V22.2355C99.5817 22.2431 99.1342 22.3531 98.7626 22.5655C98.3985 22.7703 98.1179 23.0699 97.9206 23.4643C97.7391 23.8274 97.6411 24.2484 97.6267 24.7272H100.037V27.3555H97.6249V37.2656H94.5187V27.3555H92.5162V24.7272H94.5187ZM112.336 37.5385C111.069 37.5385 109.935 37.2616 108.934 36.708C107.94 36.1466 107.159 35.373 106.59 34.3869C106.029 33.3932 105.748 32.2669 105.748 31.0076C105.748 29.741 106.029 28.6108 106.59 27.6171C107.159 26.6158 107.94 25.8384 108.934 25.2847C109.935 24.7309 111.069 24.4541 112.336 24.4541C113.61 24.4541 114.748 24.7309 115.749 25.2847C116.758 25.8384 117.543 26.6121 118.104 27.6057C118.666 28.5994 118.95 29.7334 118.958 31.0076C118.95 32.2669 118.666 33.3932 118.104 34.3869C117.551 35.373 116.769 36.1466 115.76 36.708C114.752 37.2616 113.61 37.5385 112.336 37.5385ZM112.336 34.6827C113.003 34.6827 113.595 34.531 114.111 34.2276C114.627 33.9166 115.025 33.4842 115.305 32.9305C115.586 32.3692 115.726 31.7282 115.726 31.0076C115.726 30.2795 115.586 29.6347 115.305 29.0734C115.025 28.5121 114.627 28.0798 114.111 27.7764C113.595 27.4654 113.003 27.3099 112.336 27.3099C111.676 27.3099 111.088 27.4654 110.572 27.7764C110.064 28.0798 109.67 28.5121 109.389 29.0734C109.108 29.6347 108.972 30.2795 108.979 31.0076C108.979 31.7282 109.12 32.3692 109.4 32.9305C109.689 33.4842 110.083 33.9166 110.584 34.2276C111.092 34.531 111.676 34.6827 112.336 34.6827ZM122.314 24.7272H118.855L122.599 37.2655H125.625L128.087 29.2573L130.745 37.2655H133.726L137.481 24.7272H134.352L132.222 32.5315L129.868 24.7272H126.842L124.5 32.7034L122.314 24.7272Z" fill="black"/>
<path d="M38.5712 17.249L27.0617 39.749H16.251L21.0677 30.424H20.8516C16.8779 35.5825 10.9489 38.9784 2.50098 39.749V30.5531C2.50098 30.5531 7.90529 30.2339 11.0823 26.8937H2.50098V17.2492H12.1455V25.1817L12.362 25.1808L16.3031 17.2492H23.597V25.1314L23.8134 25.131L27.9024 17.249H38.5712ZM101.334 37.2655H104.44V19.4365H101.334V37.2655ZM84.2102 37.0835C84.8852 37.3641 85.5717 37.5045 86.2695 37.5045C87.4224 37.5045 88.454 37.2238 89.3643 36.6625C90.2744 36.1012 90.9799 35.3276 91.4805 34.3415C91.9812 33.3478 92.2314 32.2213 92.2314 30.9622C92.2314 29.7031 91.9735 28.5767 91.4578 27.5831C90.9419 26.5894 90.2252 25.8195 89.3073 25.2734C88.3895 24.7197 87.3465 24.4466 86.1784 24.4542C85.4352 24.4542 84.7222 24.5983 84.0394 24.8865C83.3568 25.1748 82.7879 25.5844 82.3328 26.1153C82.2977 26.1558 82.2635 26.1966 82.2304 26.2378V19.448H79.1129V37.2656H82.2077L82.2014 35.6011C82.2814 35.6992 82.367 35.7951 82.4579 35.8888C82.9509 36.3971 83.535 36.7952 84.2102 37.0835ZM87.3959 34.205C86.8877 34.516 86.3074 34.6715 85.655 34.6715C85.0103 34.6715 84.4187 34.5121 83.8802 34.1936C83.3415 33.8673 82.913 33.4237 82.5944 32.8623C82.2834 32.3011 82.1279 31.6638 82.1279 30.9508C82.1204 30.2378 82.272 29.6007 82.583 29.0394C82.9017 28.4705 83.3302 28.0306 83.8688 27.7196C84.4073 27.401 85.0028 27.2455 85.655 27.2531C86.3074 27.2455 86.8877 27.3972 87.3959 27.7082C87.9117 28.0116 88.306 28.4478 88.5792 29.0167C88.8598 29.578 89.0002 30.2227 89.0002 30.9508C89.0002 31.6791 88.8598 32.3238 88.5792 32.8851C88.306 33.4465 87.9117 33.8863 87.3959 34.205ZM43.071 20.5175H46.6209L49.7964 32.1144L53.1745 20.5175H56.1328L59.7964 31.8817L62.8457 20.5175H66.0997L61.2983 37.2656H58.2377L54.5122 26.1636L51.0924 37.2656H47.9977L43.071 20.5175ZM71.3423 37.5613C70.1058 37.5689 68.9908 37.2958 67.9971 36.7422C67.011 36.1808 66.2336 35.4033 65.6646 34.4097C65.1034 33.416 64.8228 32.282 64.8228 31.0077C64.8228 29.7713 65.111 28.6525 65.6875 27.6513C66.2639 26.65 67.0451 25.8688 68.0312 25.3075C69.0174 24.7462 70.1171 24.4655 71.3308 24.4655C72.6961 24.4655 73.8908 24.7689 74.9148 25.3757C75.9464 25.9825 76.7163 26.8435 77.2245 27.9585C77.7402 29.0659 77.9261 30.3364 77.782 31.77H68.0361C68.0634 32.3412 68.2059 32.8608 68.4636 33.3288C68.7519 33.8445 69.1539 34.2465 69.6696 34.5348C70.1855 34.823 70.7619 34.9672 71.3991 34.9672C71.8845 34.9595 72.3359 34.8762 72.753 34.7169C73.1703 34.55 73.5229 34.3263 73.8111 34.0455C74.107 33.7649 74.3156 33.4464 74.437 33.0899H77.691C77.4938 33.9622 77.0994 34.7397 76.5078 35.4223C75.916 36.0974 75.1728 36.6245 74.2776 37.0038C73.3826 37.383 72.4041 37.5689 71.3423 37.5613ZM68.475 28.6412C68.2933 28.9581 68.1673 29.2994 68.0971 29.6652H74.5575C74.5106 29.2032 74.368 28.7822 74.1298 28.4022C73.8566 27.9547 73.485 27.6096 73.0148 27.3668C72.5445 27.1165 72.0135 26.9914 71.4219 26.9914C70.7923 26.9914 70.2196 27.1355 69.7038 27.4237C69.188 27.712 68.7784 28.1178 68.475 28.6412ZM94.5187 24.7272C94.5187 23.7108 94.75 22.8082 95.2127 22.0193C95.6754 21.2229 96.324 20.6047 97.1584 20.1647C98.0002 19.7172 98.9826 19.4859 100.105 19.4707V22.2355C99.5817 22.2431 99.1342 22.3531 98.7626 22.5655C98.3985 22.7703 98.1179 23.0699 97.9206 23.4643C97.7391 23.8274 97.6411 24.2484 97.6267 24.7272H100.037V27.3555H97.6249V37.2656H94.5187V27.3555H92.5162V24.7272H94.5187ZM112.336 37.5385C111.069 37.5385 109.935 37.2616 108.934 36.708C107.94 36.1466 107.159 35.373 106.59 34.3869C106.029 33.3932 105.748 32.2669 105.748 31.0076C105.748 29.741 106.029 28.6108 106.59 27.6171C107.159 26.6158 107.94 25.8384 108.934 25.2847C109.935 24.7309 111.069 24.4541 112.336 24.4541C113.61 24.4541 114.748 24.7309 115.749 25.2847C116.758 25.8384 117.543 26.6121 118.104 27.6057C118.666 28.5994 118.95 29.7334 118.958 31.0076C118.95 32.2669 118.666 33.3932 118.104 34.3869C117.551 35.373 116.769 36.1466 115.76 36.708C114.752 37.2616 113.61 37.5385 112.336 37.5385ZM112.336 34.6827C113.003 34.6827 113.595 34.531 114.111 34.2276C114.627 33.9166 115.025 33.4842 115.305 32.9305C115.586 32.3692 115.726 31.7282 115.726 31.0076C115.726 30.2795 115.586 29.6347 115.305 29.0734C115.025 28.5121 114.627 28.0798 114.111 27.7764C113.595 27.4654 113.003 27.3099 112.336 27.3099C111.676 27.3099 111.088 27.4654 110.572 27.7764C110.064 28.0798 109.67 28.5121 109.389 29.0734C109.108 29.6347 108.972 30.2795 108.979 31.0076C108.979 31.7282 109.12 32.3692 109.4 32.9305C109.689 33.4842 110.083 33.9166 110.584 34.2276C111.092 34.531 111.676 34.6827 112.336 34.6827ZM122.314 24.7272H118.855L122.599 37.2655H125.625L128.087 29.2573L130.745 37.2655H133.726L137.481 24.7272H134.352L132.222 32.5315L129.868 24.7272H126.842L124.5 32.7034L122.314 24.7272Z" fill="black"/>
</svg>
