<svg width="141" height="57" viewBox="0 0 141 57" fill="none" xmlns="http://www.w3.org/2000/svg">
<path fill-rule="evenodd" clip-rule="evenodd" d="M39.0729 17.249L27.5634 39.749H16.7527L21.5694 30.424H21.3533C17.3796 35.5825 11.4506 38.9784 3.00269 39.749V30.5531C3.00269 30.5531 8.407 30.2339 11.584 26.8937H3.00269V17.2492H12.6472V25.1817L12.8637 25.1808L16.8048 17.2492H24.0987V25.1314L24.3151 25.131L28.4041 17.249H39.0729ZM101.836 37.2655H104.942V19.4365H101.836V37.2655ZM84.7119 37.0835C85.3869 37.3641 86.0734 37.5045 86.7712 37.5045C87.9241 37.5045 88.9557 37.2238 89.866 36.6625C90.7761 36.1012 91.4816 35.3276 91.9822 34.3415C92.4829 33.3478 92.7331 32.2213 92.7331 30.9622C92.7331 29.7031 92.4753 28.5767 91.9595 27.5831C91.4436 26.5894 90.7269 25.8195 89.809 25.2734C88.8913 24.7197 87.8482 24.4466 86.6801 24.4542C85.9369 24.4542 85.2239 24.5983 84.5411 24.8865C83.8585 25.1748 83.2896 25.5844 82.8345 26.1153C82.7994 26.1558 82.7653 26.1966 82.7321 26.2378V19.448H79.6146V37.2656H82.7094L82.7031 35.6011C82.7831 35.6992 82.8688 35.7951 82.9596 35.8888C83.4526 36.3971 84.0368 36.7952 84.7119 37.0835ZM87.8976 34.205C87.3894 34.516 86.8091 34.6715 86.1567 34.6715C85.512 34.6715 84.9204 34.5121 84.3819 34.1936C83.8432 33.8673 83.4147 33.4237 83.0961 32.8623C82.7851 32.3011 82.6296 31.6638 82.6296 30.9508C82.6221 30.2378 82.7738 29.6007 83.0848 29.0394C83.4034 28.4705 83.8319 28.0306 84.3705 27.7196C84.909 27.401 85.5045 27.2455 86.1567 27.2531C86.8091 27.2455 87.3894 27.3972 87.8976 27.7082C88.4134 28.0116 88.8078 28.4478 89.0809 29.0167C89.3615 29.578 89.5019 30.2227 89.5019 30.9508C89.5019 31.6791 89.3615 32.3238 89.0809 32.8851C88.8078 33.4465 88.4134 33.8863 87.8976 34.205ZM43.5728 20.5175H47.1226L50.2981 32.1144L53.6763 20.5175H56.6345L60.2981 31.8817L63.3474 20.5175H66.6014L61.8 37.2656H58.7394L55.0139 26.1636L51.5941 37.2656H48.4994L43.5728 20.5175ZM71.844 37.5613C70.6075 37.5689 69.4925 37.2958 68.4988 36.7422C67.5127 36.1808 66.7353 35.4033 66.1663 34.4097C65.6051 33.416 65.3245 32.282 65.3245 31.0077C65.3245 29.7713 65.6127 28.6525 66.1892 27.6513C66.7656 26.65 67.5468 25.8688 68.533 25.3075C69.5191 24.7462 70.6188 24.4655 71.8325 24.4655C73.1978 24.4655 74.3925 24.7689 75.4165 25.3757C76.4481 25.9825 77.218 26.8435 77.7262 27.9585C78.242 29.0659 78.4278 30.3364 78.2837 31.77H68.5378C68.5651 32.3412 68.7076 32.8608 68.9653 33.3288C69.2536 33.8445 69.6556 34.2465 70.1713 34.5348C70.6872 34.823 71.2636 34.9672 71.9008 34.9672C72.3862 34.9595 72.8376 34.8762 73.2547 34.7169C73.672 34.55 74.0246 34.3263 74.3128 34.0455C74.6087 33.7649 74.8173 33.4464 74.9387 33.0899H78.1927C77.9955 33.9622 77.6011 34.7397 77.0095 35.4223C76.4177 36.0974 75.6745 36.6245 74.7793 37.0038C73.8843 37.383 72.9058 37.5689 71.844 37.5613ZM68.9767 28.6412C68.795 28.9581 68.669 29.2994 68.5988 29.6652H75.0592C75.0123 29.2032 74.8697 28.7822 74.6315 28.4022C74.3583 27.9547 73.9867 27.6096 73.5165 27.3668C73.0462 27.1165 72.5152 26.9914 71.9236 26.9914C71.294 26.9914 70.7213 27.1355 70.2055 27.4237C69.6897 27.712 69.2801 28.1178 68.9767 28.6412ZM95.0204 24.7272C95.0204 23.7108 95.2517 22.8082 95.7144 22.0193C96.1771 21.2229 96.8257 20.6047 97.6601 20.1647C98.5019 19.7172 99.4843 19.4859 100.607 19.4707V22.2355C100.083 22.2431 99.6359 22.3531 99.2643 22.5655C98.9002 22.7703 98.6196 23.0699 98.4223 23.4643C98.2408 23.8274 98.1428 24.2484 98.1284 24.7272H100.539V27.3555H98.1266V37.2656H95.0204V27.3555H93.0179V24.7272H95.0204ZM112.838 37.5385C111.571 37.5385 110.437 37.2616 109.436 36.708C108.442 36.1466 107.661 35.373 107.092 34.3869C106.53 33.3932 106.25 32.2669 106.25 31.0076C106.25 29.741 106.53 28.6108 107.092 27.6171C107.661 26.6158 108.442 25.8384 109.436 25.2847C110.437 24.7309 111.571 24.4541 112.838 24.4541C114.112 24.4541 115.25 24.7309 116.251 25.2847C117.26 25.8384 118.045 26.6121 118.606 27.6057C119.167 28.5994 119.452 29.7334 119.459 31.0076C119.452 32.2669 119.167 33.3932 118.606 34.3869C118.052 35.373 117.271 36.1466 116.262 36.708C115.253 37.2616 114.112 37.5385 112.838 37.5385ZM112.838 34.6827C113.505 34.6827 114.097 34.531 114.612 34.2276C115.128 33.9166 115.526 33.4842 115.807 32.9305C116.088 32.3692 116.228 31.7282 116.228 31.0076C116.228 30.2795 116.088 29.6347 115.807 29.0734C115.526 28.5121 115.128 28.0798 114.612 27.7764C114.097 27.4654 113.505 27.3099 112.838 27.3099C112.178 27.3099 111.59 27.4654 111.074 27.7764C110.566 28.0798 110.171 28.5121 109.891 29.0734C109.61 29.6347 109.474 30.2795 109.481 31.0076C109.481 31.7282 109.621 32.3692 109.902 32.9305C110.19 33.4842 110.585 33.9166 111.085 34.2276C111.594 34.531 112.178 34.6827 112.838 34.6827ZM122.816 24.7272H119.357L123.1 37.2655H126.127L128.589 29.2573L131.246 37.2655H134.228L137.983 24.7272H134.854L132.724 32.5315L130.37 24.7272H127.344L125.002 32.7034L122.816 24.7272Z" fill="black"/>
<path d="M39.0729 17.249L27.5634 39.749H16.7527L21.5694 30.424H21.3533C17.3796 35.5825 11.4506 38.9784 3.00269 39.749V30.5531C3.00269 30.5531 8.407 30.2339 11.584 26.8937H3.00269V17.2492H12.6472V25.1817L12.8637 25.1808L16.8048 17.2492H24.0987V25.1314L24.3151 25.131L28.4041 17.249H39.0729ZM101.836 37.2655H104.942V19.4365H101.836V37.2655ZM84.7119 37.0835C85.3869 37.3641 86.0734 37.5045 86.7712 37.5045C87.9241 37.5045 88.9557 37.2238 89.866 36.6625C90.7761 36.1012 91.4816 35.3276 91.9822 34.3415C92.4829 33.3478 92.7331 32.2213 92.7331 30.9622C92.7331 29.7031 92.4753 28.5767 91.9595 27.5831C91.4436 26.5894 90.7269 25.8195 89.809 25.2734C88.8913 24.7197 87.8482 24.4466 86.6801 24.4542C85.9369 24.4542 85.2239 24.5983 84.5411 24.8865C83.8585 25.1748 83.2896 25.5844 82.8345 26.1153C82.7994 26.1558 82.7653 26.1966 82.7321 26.2378V19.448H79.6146V37.2656H82.7094L82.7031 35.6011C82.7831 35.6992 82.8688 35.7951 82.9596 35.8888C83.4526 36.3971 84.0368 36.7952 84.7119 37.0835ZM87.8976 34.205C87.3894 34.516 86.8091 34.6715 86.1567 34.6715C85.512 34.6715 84.9204 34.5121 84.3819 34.1936C83.8432 33.8673 83.4147 33.4237 83.0961 32.8623C82.7851 32.3011 82.6296 31.6638 82.6296 30.9508C82.6221 30.2378 82.7738 29.6007 83.0848 29.0394C83.4034 28.4705 83.8319 28.0306 84.3705 27.7196C84.909 27.401 85.5045 27.2455 86.1567 27.2531C86.8091 27.2455 87.3894 27.3972 87.8976 27.7082C88.4134 28.0116 88.8078 28.4478 89.0809 29.0167C89.3615 29.578 89.5019 30.2227 89.5019 30.9508C89.5019 31.6791 89.3615 32.3238 89.0809 32.8851C88.8078 33.4465 88.4134 33.8863 87.8976 34.205ZM43.5728 20.5175H47.1226L50.2981 32.1144L53.6763 20.5175H56.6345L60.2981 31.8817L63.3474 20.5175H66.6014L61.8 37.2656H58.7394L55.0139 26.1636L51.5941 37.2656H48.4994L43.5728 20.5175ZM71.844 37.5613C70.6075 37.5689 69.4925 37.2958 68.4988 36.7422C67.5127 36.1808 66.7353 35.4033 66.1663 34.4097C65.6051 33.416 65.3245 32.282 65.3245 31.0077C65.3245 29.7713 65.6127 28.6525 66.1892 27.6513C66.7656 26.65 67.5468 25.8688 68.533 25.3075C69.5191 24.7462 70.6188 24.4655 71.8325 24.4655C73.1978 24.4655 74.3925 24.7689 75.4165 25.3757C76.4481 25.9825 77.218 26.8435 77.7262 27.9585C78.242 29.0659 78.4278 30.3364 78.2837 31.77H68.5378C68.5651 32.3412 68.7076 32.8608 68.9653 33.3288C69.2536 33.8445 69.6556 34.2465 70.1713 34.5348C70.6872 34.823 71.2636 34.9672 71.9008 34.9672C72.3862 34.9595 72.8376 34.8762 73.2547 34.7169C73.672 34.55 74.0246 34.3263 74.3128 34.0455C74.6087 33.7649 74.8173 33.4464 74.9387 33.0899H78.1927C77.9955 33.9622 77.6011 34.7397 77.0095 35.4223C76.4177 36.0974 75.6745 36.6245 74.7793 37.0038C73.8843 37.383 72.9058 37.5689 71.844 37.5613ZM68.9767 28.6412C68.795 28.9581 68.669 29.2994 68.5988 29.6652H75.0592C75.0123 29.2032 74.8697 28.7822 74.6315 28.4022C74.3583 27.9547 73.9867 27.6096 73.5165 27.3668C73.0462 27.1165 72.5152 26.9914 71.9236 26.9914C71.294 26.9914 70.7213 27.1355 70.2055 27.4237C69.6897 27.712 69.2801 28.1178 68.9767 28.6412ZM95.0204 24.7272C95.0204 23.7108 95.2517 22.8082 95.7144 22.0193C96.1771 21.2229 96.8257 20.6047 97.6601 20.1647C98.5019 19.7172 99.4843 19.4859 100.607 19.4707V22.2355C100.083 22.2431 99.6359 22.3531 99.2643 22.5655C98.9002 22.7703 98.6196 23.0699 98.4223 23.4643C98.2408 23.8274 98.1428 24.2484 98.1284 24.7272H100.539V27.3555H98.1266V37.2656H95.0204V27.3555H93.0179V24.7272H95.0204ZM112.838 37.5385C111.571 37.5385 110.437 37.2616 109.436 36.708C108.442 36.1466 107.661 35.373 107.092 34.3869C106.53 33.3932 106.25 32.2669 106.25 31.0076C106.25 29.741 106.53 28.6108 107.092 27.6171C107.661 26.6158 108.442 25.8384 109.436 25.2847C110.437 24.7309 111.571 24.4541 112.838 24.4541C114.112 24.4541 115.25 24.7309 116.251 25.2847C117.26 25.8384 118.045 26.6121 118.606 27.6057C119.167 28.5994 119.452 29.7334 119.459 31.0076C119.452 32.2669 119.167 33.3932 118.606 34.3869C118.052 35.373 117.271 36.1466 116.262 36.708C115.253 37.2616 114.112 37.5385 112.838 37.5385ZM112.838 34.6827C113.505 34.6827 114.097 34.531 114.612 34.2276C115.128 33.9166 115.526 33.4842 115.807 32.9305C116.088 32.3692 116.228 31.7282 116.228 31.0076C116.228 30.2795 116.088 29.6347 115.807 29.0734C115.526 28.5121 115.128 28.0798 114.612 27.7764C114.097 27.4654 113.505 27.3099 112.838 27.3099C112.178 27.3099 111.59 27.4654 111.074 27.7764C110.566 28.0798 110.171 28.5121 109.891 29.0734C109.61 29.6347 109.474 30.2795 109.481 31.0076C109.481 31.7282 109.621 32.3692 109.902 32.9305C110.19 33.4842 110.585 33.9166 111.085 34.2276C111.594 34.531 112.178 34.6827 112.838 34.6827ZM122.816 24.7272H119.357L123.1 37.2655H126.127L128.589 29.2573L131.246 37.2655H134.228L137.983 24.7272H134.854L132.724 32.5315L130.37 24.7272H127.344L125.002 32.7034L122.816 24.7272Z" fill="black"/>
<path fill-rule="evenodd" clip-rule="evenodd" d="M39.0729 17.249L27.5634 39.749H16.7527L21.5694 30.424H21.3533C17.3796 35.5825 11.4506 38.9784 3.00269 39.749V30.5531C3.00269 30.5531 8.407 30.2339 11.584 26.8937H3.00269V17.2492H12.6472V25.1817L12.8637 25.1808L16.8048 17.2492H24.0987V25.1314L24.3151 25.131L28.4041 17.249H39.0729ZM101.836 37.2655H104.942V19.4365H101.836V37.2655ZM84.7119 37.0835C85.3869 37.3641 86.0734 37.5045 86.7712 37.5045C87.9241 37.5045 88.9557 37.2238 89.866 36.6625C90.7761 36.1012 91.4816 35.3276 91.9822 34.3415C92.4829 33.3478 92.7331 32.2213 92.7331 30.9622C92.7331 29.7031 92.4753 28.5767 91.9595 27.5831C91.4436 26.5894 90.7269 25.8195 89.809 25.2734C88.8913 24.7197 87.8482 24.4466 86.6801 24.4542C85.9369 24.4542 85.2239 24.5983 84.5411 24.8865C83.8585 25.1748 83.2896 25.5844 82.8345 26.1153C82.7994 26.1558 82.7653 26.1966 82.7321 26.2378V19.448H79.6146V37.2656H82.7094L82.7031 35.6011C82.7831 35.6992 82.8688 35.7951 82.9596 35.8888C83.4526 36.3971 84.0368 36.7952 84.7119 37.0835ZM87.8976 34.205C87.3894 34.516 86.8091 34.6715 86.1567 34.6715C85.512 34.6715 84.9204 34.5121 84.3819 34.1936C83.8432 33.8673 83.4147 33.4237 83.0961 32.8623C82.7851 32.3011 82.6296 31.6638 82.6296 30.9508C82.6221 30.2378 82.7738 29.6007 83.0848 29.0394C83.4034 28.4705 83.8319 28.0306 84.3705 27.7196C84.909 27.401 85.5045 27.2455 86.1567 27.2531C86.8091 27.2455 87.3894 27.3972 87.8976 27.7082C88.4134 28.0116 88.8078 28.4478 89.0809 29.0167C89.3615 29.578 89.5019 30.2227 89.5019 30.9508C89.5019 31.6791 89.3615 32.3238 89.0809 32.8851C88.8078 33.4465 88.4134 33.8863 87.8976 34.205ZM43.5728 20.5175H47.1226L50.2981 32.1144L53.6763 20.5175H56.6345L60.2981 31.8817L63.3474 20.5175H66.6014L61.8 37.2656H58.7394L55.0139 26.1636L51.5941 37.2656H48.4994L43.5728 20.5175ZM71.844 37.5613C70.6075 37.5689 69.4925 37.2958 68.4988 36.7422C67.5127 36.1808 66.7353 35.4033 66.1663 34.4097C65.6051 33.416 65.3245 32.282 65.3245 31.0077C65.3245 29.7713 65.6127 28.6525 66.1892 27.6513C66.7656 26.65 67.5468 25.8688 68.533 25.3075C69.5191 24.7462 70.6188 24.4655 71.8325 24.4655C73.1978 24.4655 74.3925 24.7689 75.4165 25.3757C76.4481 25.9825 77.218 26.8435 77.7262 27.9585C78.242 29.0659 78.4278 30.3364 78.2837 31.77H68.5378C68.5651 32.3412 68.7076 32.8608 68.9653 33.3288C69.2536 33.8445 69.6556 34.2465 70.1713 34.5348C70.6872 34.823 71.2636 34.9672 71.9008 34.9672C72.3862 34.9595 72.8376 34.8762 73.2547 34.7169C73.672 34.55 74.0246 34.3263 74.3128 34.0455C74.6087 33.7649 74.8173 33.4464 74.9387 33.0899H78.1927C77.9955 33.9622 77.6011 34.7397 77.0095 35.4223C76.4177 36.0974 75.6745 36.6245 74.7793 37.0038C73.8843 37.383 72.9058 37.5689 71.844 37.5613ZM68.9767 28.6412C68.795 28.9581 68.669 29.2994 68.5988 29.6652H75.0592C75.0123 29.2032 74.8697 28.7822 74.6315 28.4022C74.3583 27.9547 73.9867 27.6096 73.5165 27.3668C73.0462 27.1165 72.5152 26.9914 71.9236 26.9914C71.294 26.9914 70.7213 27.1355 70.2055 27.4237C69.6897 27.712 69.2801 28.1178 68.9767 28.6412ZM95.0204 24.7272C95.0204 23.7108 95.2517 22.8082 95.7144 22.0193C96.1771 21.2229 96.8257 20.6047 97.6601 20.1647C98.5019 19.7172 99.4843 19.4859 100.607 19.4707V22.2355C100.083 22.2431 99.6359 22.3531 99.2643 22.5655C98.9002 22.7703 98.6196 23.0699 98.4223 23.4643C98.2408 23.8274 98.1428 24.2484 98.1284 24.7272H100.539V27.3555H98.1266V37.2656H95.0204V27.3555H93.0179V24.7272H95.0204ZM112.838 37.5385C111.571 37.5385 110.437 37.2616 109.436 36.708C108.442 36.1466 107.661 35.373 107.092 34.3869C106.53 33.3932 106.25 32.2669 106.25 31.0076C106.25 29.741 106.53 28.6108 107.092 27.6171C107.661 26.6158 108.442 25.8384 109.436 25.2847C110.437 24.7309 111.571 24.4541 112.838 24.4541C114.112 24.4541 115.25 24.7309 116.251 25.2847C117.26 25.8384 118.045 26.6121 118.606 27.6057C119.167 28.5994 119.452 29.7334 119.459 31.0076C119.452 32.2669 119.167 33.3932 118.606 34.3869C118.052 35.373 117.271 36.1466 116.262 36.708C115.253 37.2616 114.112 37.5385 112.838 37.5385ZM112.838 34.6827C113.505 34.6827 114.097 34.531 114.612 34.2276C115.128 33.9166 115.526 33.4842 115.807 32.9305C116.088 32.3692 116.228 31.7282 116.228 31.0076C116.228 30.2795 116.088 29.6347 115.807 29.0734C115.526 28.5121 115.128 28.0798 114.612 27.7764C114.097 27.4654 113.505 27.3099 112.838 27.3099C112.178 27.3099 111.59 27.4654 111.074 27.7764C110.566 28.0798 110.171 28.5121 109.891 29.0734C109.61 29.6347 109.474 30.2795 109.481 31.0076C109.481 31.7282 109.621 32.3692 109.902 32.9305C110.19 33.4842 110.585 33.9166 111.085 34.2276C111.594 34.531 112.178 34.6827 112.838 34.6827ZM122.816 24.7272H119.357L123.1 37.2655H126.127L128.589 29.2573L131.246 37.2655H134.228L137.983 24.7272H134.854L132.724 32.5315L130.37 24.7272H127.344L125.002 32.7034L122.816 24.7272Z" fill="black"/>
<path d="M39.0729 17.249L27.5634 39.749H16.7527L21.5694 30.424H21.3533C17.3796 35.5825 11.4506 38.9784 3.00269 39.749V30.5531C3.00269 30.5531 8.407 30.2339 11.584 26.8937H3.00269V17.2492H12.6472V25.1817L12.8637 25.1808L16.8048 17.2492H24.0987V25.1314L24.3151 25.131L28.4041 17.249H39.0729ZM101.836 37.2655H104.942V19.4365H101.836V37.2655ZM84.7119 37.0835C85.3869 37.3641 86.0734 37.5045 86.7712 37.5045C87.9241 37.5045 88.9557 37.2238 89.866 36.6625C90.7761 36.1012 91.4816 35.3276 91.9822 34.3415C92.4829 33.3478 92.7331 32.2213 92.7331 30.9622C92.7331 29.7031 92.4753 28.5767 91.9595 27.5831C91.4436 26.5894 90.7269 25.8195 89.809 25.2734C88.8913 24.7197 87.8482 24.4466 86.6801 24.4542C85.9369 24.4542 85.2239 24.5983 84.5411 24.8865C83.8585 25.1748 83.2896 25.5844 82.8345 26.1153C82.7994 26.1558 82.7653 26.1966 82.7321 26.2378V19.448H79.6146V37.2656H82.7094L82.7031 35.6011C82.7831 35.6992 82.8688 35.7951 82.9596 35.8888C83.4526 36.3971 84.0368 36.7952 84.7119 37.0835ZM87.8976 34.205C87.3894 34.516 86.8091 34.6715 86.1567 34.6715C85.512 34.6715 84.9204 34.5121 84.3819 34.1936C83.8432 33.8673 83.4147 33.4237 83.0961 32.8623C82.7851 32.3011 82.6296 31.6638 82.6296 30.9508C82.6221 30.2378 82.7738 29.6007 83.0848 29.0394C83.4034 28.4705 83.8319 28.0306 84.3705 27.7196C84.909 27.401 85.5045 27.2455 86.1567 27.2531C86.8091 27.2455 87.3894 27.3972 87.8976 27.7082C88.4134 28.0116 88.8078 28.4478 89.0809 29.0167C89.3615 29.578 89.5019 30.2227 89.5019 30.9508C89.5019 31.6791 89.3615 32.3238 89.0809 32.8851C88.8078 33.4465 88.4134 33.8863 87.8976 34.205ZM43.5728 20.5175H47.1226L50.2981 32.1144L53.6763 20.5175H56.6345L60.2981 31.8817L63.3474 20.5175H66.6014L61.8 37.2656H58.7394L55.0139 26.1636L51.5941 37.2656H48.4994L43.5728 20.5175ZM71.844 37.5613C70.6075 37.5689 69.4925 37.2958 68.4988 36.7422C67.5127 36.1808 66.7353 35.4033 66.1663 34.4097C65.6051 33.416 65.3245 32.282 65.3245 31.0077C65.3245 29.7713 65.6127 28.6525 66.1892 27.6513C66.7656 26.65 67.5468 25.8688 68.533 25.3075C69.5191 24.7462 70.6188 24.4655 71.8325 24.4655C73.1978 24.4655 74.3925 24.7689 75.4165 25.3757C76.4481 25.9825 77.218 26.8435 77.7262 27.9585C78.242 29.0659 78.4278 30.3364 78.2837 31.77H68.5378C68.5651 32.3412 68.7076 32.8608 68.9653 33.3288C69.2536 33.8445 69.6556 34.2465 70.1713 34.5348C70.6872 34.823 71.2636 34.9672 71.9008 34.9672C72.3862 34.9595 72.8376 34.8762 73.2547 34.7169C73.672 34.55 74.0246 34.3263 74.3128 34.0455C74.6087 33.7649 74.8173 33.4464 74.9387 33.0899H78.1927C77.9955 33.9622 77.6011 34.7397 77.0095 35.4223C76.4177 36.0974 75.6745 36.6245 74.7793 37.0038C73.8843 37.383 72.9058 37.5689 71.844 37.5613ZM68.9767 28.6412C68.795 28.9581 68.669 29.2994 68.5988 29.6652H75.0592C75.0123 29.2032 74.8697 28.7822 74.6315 28.4022C74.3583 27.9547 73.9867 27.6096 73.5165 27.3668C73.0462 27.1165 72.5152 26.9914 71.9236 26.9914C71.294 26.9914 70.7213 27.1355 70.2055 27.4237C69.6897 27.712 69.2801 28.1178 68.9767 28.6412ZM95.0204 24.7272C95.0204 23.7108 95.2517 22.8082 95.7144 22.0193C96.1771 21.2229 96.8257 20.6047 97.6601 20.1647C98.5019 19.7172 99.4843 19.4859 100.607 19.4707V22.2355C100.083 22.2431 99.6359 22.3531 99.2643 22.5655C98.9002 22.7703 98.6196 23.0699 98.4223 23.4643C98.2408 23.8274 98.1428 24.2484 98.1284 24.7272H100.539V27.3555H98.1266V37.2656H95.0204V27.3555H93.0179V24.7272H95.0204ZM112.838 37.5385C111.571 37.5385 110.437 37.2616 109.436 36.708C108.442 36.1466 107.661 35.373 107.092 34.3869C106.53 33.3932 106.25 32.2669 106.25 31.0076C106.25 29.741 106.53 28.6108 107.092 27.6171C107.661 26.6158 108.442 25.8384 109.436 25.2847C110.437 24.7309 111.571 24.4541 112.838 24.4541C114.112 24.4541 115.25 24.7309 116.251 25.2847C117.26 25.8384 118.045 26.6121 118.606 27.6057C119.167 28.5994 119.452 29.7334 119.459 31.0076C119.452 32.2669 119.167 33.3932 118.606 34.3869C118.052 35.373 117.271 36.1466 116.262 36.708C115.253 37.2616 114.112 37.5385 112.838 37.5385ZM112.838 34.6827C113.505 34.6827 114.097 34.531 114.612 34.2276C115.128 33.9166 115.526 33.4842 115.807 32.9305C116.088 32.3692 116.228 31.7282 116.228 31.0076C116.228 30.2795 116.088 29.6347 115.807 29.0734C115.526 28.5121 115.128 28.0798 114.612 27.7764C114.097 27.4654 113.505 27.3099 112.838 27.3099C112.178 27.3099 111.59 27.4654 111.074 27.7764C110.566 28.0798 110.171 28.5121 109.891 29.0734C109.61 29.6347 109.474 30.2795 109.481 31.0076C109.481 31.7282 109.621 32.3692 109.902 32.9305C110.19 33.4842 110.585 33.9166 111.085 34.2276C111.594 34.531 112.178 34.6827 112.838 34.6827ZM122.816 24.7272H119.357L123.1 37.2655H126.127L128.589 29.2573L131.246 37.2655H134.228L137.983 24.7272H134.854L132.724 32.5315L130.37 24.7272H127.344L125.002 32.7034L122.816 24.7272Z" fill="black"/>
<path fill-rule="evenodd" clip-rule="evenodd" d="M39.0729 17.249L27.5634 39.749H16.7527L21.5694 30.424H21.3533C17.3796 35.5825 11.4506 38.9784 3.00269 39.749V30.5531C3.00269 30.5531 8.407 30.2339 11.584 26.8937H3.00269V17.2492H12.6472V25.1817L12.8637 25.1808L16.8048 17.2492H24.0987V25.1314L24.3151 25.131L28.4041 17.249H39.0729ZM101.836 37.2655H104.942V19.4365H101.836V37.2655ZM84.7119 37.0835C85.3869 37.3641 86.0734 37.5045 86.7712 37.5045C87.9241 37.5045 88.9557 37.2238 89.866 36.6625C90.7761 36.1012 91.4816 35.3276 91.9822 34.3415C92.4829 33.3478 92.7331 32.2213 92.7331 30.9622C92.7331 29.7031 92.4753 28.5767 91.9595 27.5831C91.4436 26.5894 90.7269 25.8195 89.809 25.2734C88.8913 24.7197 87.8482 24.4466 86.6801 24.4542C85.9369 24.4542 85.2239 24.5983 84.5411 24.8865C83.8585 25.1748 83.2896 25.5844 82.8345 26.1153C82.7994 26.1558 82.7653 26.1966 82.7321 26.2378V19.448H79.6146V37.2656H82.7094L82.7031 35.6011C82.7831 35.6992 82.8688 35.7951 82.9596 35.8888C83.4526 36.3971 84.0368 36.7952 84.7119 37.0835ZM87.8976 34.205C87.3894 34.516 86.8091 34.6715 86.1567 34.6715C85.512 34.6715 84.9204 34.5121 84.3819 34.1936C83.8432 33.8673 83.4147 33.4237 83.0961 32.8623C82.7851 32.3011 82.6296 31.6638 82.6296 30.9508C82.6221 30.2378 82.7738 29.6007 83.0848 29.0394C83.4034 28.4705 83.8319 28.0306 84.3705 27.7196C84.909 27.401 85.5045 27.2455 86.1567 27.2531C86.8091 27.2455 87.3894 27.3972 87.8976 27.7082C88.4134 28.0116 88.8078 28.4478 89.0809 29.0167C89.3615 29.578 89.5019 30.2227 89.5019 30.9508C89.5019 31.6791 89.3615 32.3238 89.0809 32.8851C88.8078 33.4465 88.4134 33.8863 87.8976 34.205ZM43.5728 20.5175H47.1226L50.2981 32.1144L53.6763 20.5175H56.6345L60.2981 31.8817L63.3474 20.5175H66.6014L61.8 37.2656H58.7394L55.0139 26.1636L51.5941 37.2656H48.4994L43.5728 20.5175ZM71.844 37.5613C70.6075 37.5689 69.4925 37.2958 68.4988 36.7422C67.5127 36.1808 66.7353 35.4033 66.1663 34.4097C65.6051 33.416 65.3245 32.282 65.3245 31.0077C65.3245 29.7713 65.6127 28.6525 66.1892 27.6513C66.7656 26.65 67.5468 25.8688 68.533 25.3075C69.5191 24.7462 70.6188 24.4655 71.8325 24.4655C73.1978 24.4655 74.3925 24.7689 75.4165 25.3757C76.4481 25.9825 77.218 26.8435 77.7262 27.9585C78.242 29.0659 78.4278 30.3364 78.2837 31.77H68.5378C68.5651 32.3412 68.7076 32.8608 68.9653 33.3288C69.2536 33.8445 69.6556 34.2465 70.1713 34.5348C70.6872 34.823 71.2636 34.9672 71.9008 34.9672C72.3862 34.9595 72.8376 34.8762 73.2547 34.7169C73.672 34.55 74.0246 34.3263 74.3128 34.0455C74.6087 33.7649 74.8173 33.4464 74.9387 33.0899H78.1927C77.9955 33.9622 77.6011 34.7397 77.0095 35.4223C76.4177 36.0974 75.6745 36.6245 74.7793 37.0038C73.8843 37.383 72.9058 37.5689 71.844 37.5613ZM68.9767 28.6412C68.795 28.9581 68.669 29.2994 68.5988 29.6652H75.0592C75.0123 29.2032 74.8697 28.7822 74.6315 28.4022C74.3583 27.9547 73.9867 27.6096 73.5165 27.3668C73.0462 27.1165 72.5152 26.9914 71.9236 26.9914C71.294 26.9914 70.7213 27.1355 70.2055 27.4237C69.6897 27.712 69.2801 28.1178 68.9767 28.6412ZM95.0204 24.7272C95.0204 23.7108 95.2517 22.8082 95.7144 22.0193C96.1771 21.2229 96.8257 20.6047 97.6601 20.1647C98.5019 19.7172 99.4843 19.4859 100.607 19.4707V22.2355C100.083 22.2431 99.6359 22.3531 99.2643 22.5655C98.9002 22.7703 98.6196 23.0699 98.4223 23.4643C98.2408 23.8274 98.1428 24.2484 98.1284 24.7272H100.539V27.3555H98.1266V37.2656H95.0204V27.3555H93.0179V24.7272H95.0204ZM112.838 37.5385C111.571 37.5385 110.437 37.2616 109.436 36.708C108.442 36.1466 107.661 35.373 107.092 34.3869C106.53 33.3932 106.25 32.2669 106.25 31.0076C106.25 29.741 106.53 28.6108 107.092 27.6171C107.661 26.6158 108.442 25.8384 109.436 25.2847C110.437 24.7309 111.571 24.4541 112.838 24.4541C114.112 24.4541 115.25 24.7309 116.251 25.2847C117.26 25.8384 118.045 26.6121 118.606 27.6057C119.167 28.5994 119.452 29.7334 119.459 31.0076C119.452 32.2669 119.167 33.3932 118.606 34.3869C118.052 35.373 117.271 36.1466 116.262 36.708C115.253 37.2616 114.112 37.5385 112.838 37.5385ZM112.838 34.6827C113.505 34.6827 114.097 34.531 114.612 34.2276C115.128 33.9166 115.526 33.4842 115.807 32.9305C116.088 32.3692 116.228 31.7282 116.228 31.0076C116.228 30.2795 116.088 29.6347 115.807 29.0734C115.526 28.5121 115.128 28.0798 114.612 27.7764C114.097 27.4654 113.505 27.3099 112.838 27.3099C112.178 27.3099 111.59 27.4654 111.074 27.7764C110.566 28.0798 110.171 28.5121 109.891 29.0734C109.61 29.6347 109.474 30.2795 109.481 31.0076C109.481 31.7282 109.621 32.3692 109.902 32.9305C110.19 33.4842 110.585 33.9166 111.085 34.2276C111.594 34.531 112.178 34.6827 112.838 34.6827ZM122.816 24.7272H119.357L123.1 37.2655H126.127L128.589 29.2573L131.246 37.2655H134.228L137.983 24.7272H134.854L132.724 32.5315L130.37 24.7272H127.344L125.002 32.7034L122.816 24.7272Z" fill="black"/>
<path d="M39.0729 17.249L27.5634 39.749H16.7527L21.5694 30.424H21.3533C17.3796 35.5825 11.4506 38.9784 3.00269 39.749V30.5531C3.00269 30.5531 8.407 30.2339 11.584 26.8937H3.00269V17.2492H12.6472V25.1817L12.8637 25.1808L16.8048 17.2492H24.0987V25.1314L24.3151 25.131L28.4041 17.249H39.0729ZM101.836 37.2655H104.942V19.4365H101.836V37.2655ZM84.7119 37.0835C85.3869 37.3641 86.0734 37.5045 86.7712 37.5045C87.9241 37.5045 88.9557 37.2238 89.866 36.6625C90.7761 36.1012 91.4816 35.3276 91.9822 34.3415C92.4829 33.3478 92.7331 32.2213 92.7331 30.9622C92.7331 29.7031 92.4753 28.5767 91.9595 27.5831C91.4436 26.5894 90.7269 25.8195 89.809 25.2734C88.8913 24.7197 87.8482 24.4466 86.6801 24.4542C85.9369 24.4542 85.2239 24.5983 84.5411 24.8865C83.8585 25.1748 83.2896 25.5844 82.8345 26.1153C82.7994 26.1558 82.7653 26.1966 82.7321 26.2378V19.448H79.6146V37.2656H82.7094L82.7031 35.6011C82.7831 35.6992 82.8688 35.7951 82.9596 35.8888C83.4526 36.3971 84.0368 36.7952 84.7119 37.0835ZM87.8976 34.205C87.3894 34.516 86.8091 34.6715 86.1567 34.6715C85.512 34.6715 84.9204 34.5121 84.3819 34.1936C83.8432 33.8673 83.4147 33.4237 83.0961 32.8623C82.7851 32.3011 82.6296 31.6638 82.6296 30.9508C82.6221 30.2378 82.7738 29.6007 83.0848 29.0394C83.4034 28.4705 83.8319 28.0306 84.3705 27.7196C84.909 27.401 85.5045 27.2455 86.1567 27.2531C86.8091 27.2455 87.3894 27.3972 87.8976 27.7082C88.4134 28.0116 88.8078 28.4478 89.0809 29.0167C89.3615 29.578 89.5019 30.2227 89.5019 30.9508C89.5019 31.6791 89.3615 32.3238 89.0809 32.8851C88.8078 33.4465 88.4134 33.8863 87.8976 34.205ZM43.5728 20.5175H47.1226L50.2981 32.1144L53.6763 20.5175H56.6345L60.2981 31.8817L63.3474 20.5175H66.6014L61.8 37.2656H58.7394L55.0139 26.1636L51.5941 37.2656H48.4994L43.5728 20.5175ZM71.844 37.5613C70.6075 37.5689 69.4925 37.2958 68.4988 36.7422C67.5127 36.1808 66.7353 35.4033 66.1663 34.4097C65.6051 33.416 65.3245 32.282 65.3245 31.0077C65.3245 29.7713 65.6127 28.6525 66.1892 27.6513C66.7656 26.65 67.5468 25.8688 68.533 25.3075C69.5191 24.7462 70.6188 24.4655 71.8325 24.4655C73.1978 24.4655 74.3925 24.7689 75.4165 25.3757C76.4481 25.9825 77.218 26.8435 77.7262 27.9585C78.242 29.0659 78.4278 30.3364 78.2837 31.77H68.5378C68.5651 32.3412 68.7076 32.8608 68.9653 33.3288C69.2536 33.8445 69.6556 34.2465 70.1713 34.5348C70.6872 34.823 71.2636 34.9672 71.9008 34.9672C72.3862 34.9595 72.8376 34.8762 73.2547 34.7169C73.672 34.55 74.0246 34.3263 74.3128 34.0455C74.6087 33.7649 74.8173 33.4464 74.9387 33.0899H78.1927C77.9955 33.9622 77.6011 34.7397 77.0095 35.4223C76.4177 36.0974 75.6745 36.6245 74.7793 37.0038C73.8843 37.383 72.9058 37.5689 71.844 37.5613ZM68.9767 28.6412C68.795 28.9581 68.669 29.2994 68.5988 29.6652H75.0592C75.0123 29.2032 74.8697 28.7822 74.6315 28.4022C74.3583 27.9547 73.9867 27.6096 73.5165 27.3668C73.0462 27.1165 72.5152 26.9914 71.9236 26.9914C71.294 26.9914 70.7213 27.1355 70.2055 27.4237C69.6897 27.712 69.2801 28.1178 68.9767 28.6412ZM95.0204 24.7272C95.0204 23.7108 95.2517 22.8082 95.7144 22.0193C96.1771 21.2229 96.8257 20.6047 97.6601 20.1647C98.5019 19.7172 99.4843 19.4859 100.607 19.4707V22.2355C100.083 22.2431 99.6359 22.3531 99.2643 22.5655C98.9002 22.7703 98.6196 23.0699 98.4223 23.4643C98.2408 23.8274 98.1428 24.2484 98.1284 24.7272H100.539V27.3555H98.1266V37.2656H95.0204V27.3555H93.0179V24.7272H95.0204ZM112.838 37.5385C111.571 37.5385 110.437 37.2616 109.436 36.708C108.442 36.1466 107.661 35.373 107.092 34.3869C106.53 33.3932 106.25 32.2669 106.25 31.0076C106.25 29.741 106.53 28.6108 107.092 27.6171C107.661 26.6158 108.442 25.8384 109.436 25.2847C110.437 24.7309 111.571 24.4541 112.838 24.4541C114.112 24.4541 115.25 24.7309 116.251 25.2847C117.26 25.8384 118.045 26.6121 118.606 27.6057C119.167 28.5994 119.452 29.7334 119.459 31.0076C119.452 32.2669 119.167 33.3932 118.606 34.3869C118.052 35.373 117.271 36.1466 116.262 36.708C115.253 37.2616 114.112 37.5385 112.838 37.5385ZM112.838 34.6827C113.505 34.6827 114.097 34.531 114.612 34.2276C115.128 33.9166 115.526 33.4842 115.807 32.9305C116.088 32.3692 116.228 31.7282 116.228 31.0076C116.228 30.2795 116.088 29.6347 115.807 29.0734C115.526 28.5121 115.128 28.0798 114.612 27.7764C114.097 27.4654 113.505 27.3099 112.838 27.3099C112.178 27.3099 111.59 27.4654 111.074 27.7764C110.566 28.0798 110.171 28.5121 109.891 29.0734C109.61 29.6347 109.474 30.2795 109.481 31.0076C109.481 31.7282 109.621 32.3692 109.902 32.9305C110.19 33.4842 110.585 33.9166 111.085 34.2276C111.594 34.531 112.178 34.6827 112.838 34.6827ZM122.816 24.7272H119.357L123.1 37.2655H126.127L128.589 29.2573L131.246 37.2655H134.228L137.983 24.7272H134.854L132.724 32.5315L130.37 24.7272H127.344L125.002 32.7034L122.816 24.7272Z" fill="black"/>
<path fill-rule="evenodd" clip-rule="evenodd" d="M39.0729 17.249L27.5634 39.749H16.7527L21.5694 30.424H21.3533C17.3796 35.5825 11.4506 38.9784 3.00269 39.749V30.5531C3.00269 30.5531 8.407 30.2339 11.584 26.8937H3.00269V17.2492H12.6472V25.1817L12.8637 25.1808L16.8048 17.2492H24.0987V25.1314L24.3151 25.131L28.4041 17.249H39.0729ZM101.836 37.2655H104.942V19.4365H101.836V37.2655ZM84.7119 37.0835C85.3869 37.3641 86.0734 37.5045 86.7712 37.5045C87.9241 37.5045 88.9557 37.2238 89.866 36.6625C90.7761 36.1012 91.4816 35.3276 91.9822 34.3415C92.4829 33.3478 92.7331 32.2213 92.7331 30.9622C92.7331 29.7031 92.4753 28.5767 91.9595 27.5831C91.4436 26.5894 90.7269 25.8195 89.809 25.2734C88.8913 24.7197 87.8482 24.4466 86.6801 24.4542C85.9369 24.4542 85.2239 24.5983 84.5411 24.8865C83.8585 25.1748 83.2896 25.5844 82.8345 26.1153C82.7994 26.1558 82.7653 26.1966 82.7321 26.2378V19.448H79.6146V37.2656H82.7094L82.7031 35.6011C82.7831 35.6992 82.8688 35.7951 82.9596 35.8888C83.4526 36.3971 84.0368 36.7952 84.7119 37.0835ZM87.8976 34.205C87.3894 34.516 86.8091 34.6715 86.1567 34.6715C85.512 34.6715 84.9204 34.5121 84.3819 34.1936C83.8432 33.8673 83.4147 33.4237 83.0961 32.8623C82.7851 32.3011 82.6296 31.6638 82.6296 30.9508C82.6221 30.2378 82.7738 29.6007 83.0848 29.0394C83.4034 28.4705 83.8319 28.0306 84.3705 27.7196C84.909 27.401 85.5045 27.2455 86.1567 27.2531C86.8091 27.2455 87.3894 27.3972 87.8976 27.7082C88.4134 28.0116 88.8078 28.4478 89.0809 29.0167C89.3615 29.578 89.5019 30.2227 89.5019 30.9508C89.5019 31.6791 89.3615 32.3238 89.0809 32.8851C88.8078 33.4465 88.4134 33.8863 87.8976 34.205ZM43.5728 20.5175H47.1226L50.2981 32.1144L53.6763 20.5175H56.6345L60.2981 31.8817L63.3474 20.5175H66.6014L61.8 37.2656H58.7394L55.0139 26.1636L51.5941 37.2656H48.4994L43.5728 20.5175ZM71.844 37.5613C70.6075 37.5689 69.4925 37.2958 68.4988 36.7422C67.5127 36.1808 66.7353 35.4033 66.1663 34.4097C65.6051 33.416 65.3245 32.282 65.3245 31.0077C65.3245 29.7713 65.6127 28.6525 66.1892 27.6513C66.7656 26.65 67.5468 25.8688 68.533 25.3075C69.5191 24.7462 70.6188 24.4655 71.8325 24.4655C73.1978 24.4655 74.3925 24.7689 75.4165 25.3757C76.4481 25.9825 77.218 26.8435 77.7262 27.9585C78.242 29.0659 78.4278 30.3364 78.2837 31.77H68.5378C68.5651 32.3412 68.7076 32.8608 68.9653 33.3288C69.2536 33.8445 69.6556 34.2465 70.1713 34.5348C70.6872 34.823 71.2636 34.9672 71.9008 34.9672C72.3862 34.9595 72.8376 34.8762 73.2547 34.7169C73.672 34.55 74.0246 34.3263 74.3128 34.0455C74.6087 33.7649 74.8173 33.4464 74.9387 33.0899H78.1927C77.9955 33.9622 77.6011 34.7397 77.0095 35.4223C76.4177 36.0974 75.6745 36.6245 74.7793 37.0038C73.8843 37.383 72.9058 37.5689 71.844 37.5613ZM68.9767 28.6412C68.795 28.9581 68.669 29.2994 68.5988 29.6652H75.0592C75.0123 29.2032 74.8697 28.7822 74.6315 28.4022C74.3583 27.9547 73.9867 27.6096 73.5165 27.3668C73.0462 27.1165 72.5152 26.9914 71.9236 26.9914C71.294 26.9914 70.7213 27.1355 70.2055 27.4237C69.6897 27.712 69.2801 28.1178 68.9767 28.6412ZM95.0204 24.7272C95.0204 23.7108 95.2517 22.8082 95.7144 22.0193C96.1771 21.2229 96.8257 20.6047 97.6601 20.1647C98.5019 19.7172 99.4843 19.4859 100.607 19.4707V22.2355C100.083 22.2431 99.6359 22.3531 99.2643 22.5655C98.9002 22.7703 98.6196 23.0699 98.4223 23.4643C98.2408 23.8274 98.1428 24.2484 98.1284 24.7272H100.539V27.3555H98.1266V37.2656H95.0204V27.3555H93.0179V24.7272H95.0204ZM112.838 37.5385C111.571 37.5385 110.437 37.2616 109.436 36.708C108.442 36.1466 107.661 35.373 107.092 34.3869C106.53 33.3932 106.25 32.2669 106.25 31.0076C106.25 29.741 106.53 28.6108 107.092 27.6171C107.661 26.6158 108.442 25.8384 109.436 25.2847C110.437 24.7309 111.571 24.4541 112.838 24.4541C114.112 24.4541 115.25 24.7309 116.251 25.2847C117.26 25.8384 118.045 26.6121 118.606 27.6057C119.167 28.5994 119.452 29.7334 119.459 31.0076C119.452 32.2669 119.167 33.3932 118.606 34.3869C118.052 35.373 117.271 36.1466 116.262 36.708C115.253 37.2616 114.112 37.5385 112.838 37.5385ZM112.838 34.6827C113.505 34.6827 114.097 34.531 114.612 34.2276C115.128 33.9166 115.526 33.4842 115.807 32.9305C116.088 32.3692 116.228 31.7282 116.228 31.0076C116.228 30.2795 116.088 29.6347 115.807 29.0734C115.526 28.5121 115.128 28.0798 114.612 27.7764C114.097 27.4654 113.505 27.3099 112.838 27.3099C112.178 27.3099 111.59 27.4654 111.074 27.7764C110.566 28.0798 110.171 28.5121 109.891 29.0734C109.61 29.6347 109.474 30.2795 109.481 31.0076C109.481 31.7282 109.621 32.3692 109.902 32.9305C110.19 33.4842 110.585 33.9166 111.085 34.2276C111.594 34.531 112.178 34.6827 112.838 34.6827ZM122.816 24.7272H119.357L123.1 37.2655H126.127L128.589 29.2573L131.246 37.2655H134.228L137.983 24.7272H134.854L132.724 32.5315L130.37 24.7272H127.344L125.002 32.7034L122.816 24.7272Z" fill="black"/>
<path d="M39.0729 17.249L27.5634 39.749H16.7527L21.5694 30.424H21.3533C17.3796 35.5825 11.4506 38.9784 3.00269 39.749V30.5531C3.00269 30.5531 8.407 30.2339 11.584 26.8937H3.00269V17.2492H12.6472V25.1817L12.8637 25.1808L16.8048 17.2492H24.0987V25.1314L24.3151 25.131L28.4041 17.249H39.0729ZM101.836 37.2655H104.942V19.4365H101.836V37.2655ZM84.7119 37.0835C85.3869 37.3641 86.0734 37.5045 86.7712 37.5045C87.9241 37.5045 88.9557 37.2238 89.866 36.6625C90.7761 36.1012 91.4816 35.3276 91.9822 34.3415C92.4829 33.3478 92.7331 32.2213 92.7331 30.9622C92.7331 29.7031 92.4753 28.5767 91.9595 27.5831C91.4436 26.5894 90.7269 25.8195 89.809 25.2734C88.8913 24.7197 87.8482 24.4466 86.6801 24.4542C85.9369 24.4542 85.2239 24.5983 84.5411 24.8865C83.8585 25.1748 83.2896 25.5844 82.8345 26.1153C82.7994 26.1558 82.7653 26.1966 82.7321 26.2378V19.448H79.6146V37.2656H82.7094L82.7031 35.6011C82.7831 35.6992 82.8688 35.7951 82.9596 35.8888C83.4526 36.3971 84.0368 36.7952 84.7119 37.0835ZM87.8976 34.205C87.3894 34.516 86.8091 34.6715 86.1567 34.6715C85.512 34.6715 84.9204 34.5121 84.3819 34.1936C83.8432 33.8673 83.4147 33.4237 83.0961 32.8623C82.7851 32.3011 82.6296 31.6638 82.6296 30.9508C82.6221 30.2378 82.7738 29.6007 83.0848 29.0394C83.4034 28.4705 83.8319 28.0306 84.3705 27.7196C84.909 27.401 85.5045 27.2455 86.1567 27.2531C86.8091 27.2455 87.3894 27.3972 87.8976 27.7082C88.4134 28.0116 88.8078 28.4478 89.0809 29.0167C89.3615 29.578 89.5019 30.2227 89.5019 30.9508C89.5019 31.6791 89.3615 32.3238 89.0809 32.8851C88.8078 33.4465 88.4134 33.8863 87.8976 34.205ZM43.5728 20.5175H47.1226L50.2981 32.1144L53.6763 20.5175H56.6345L60.2981 31.8817L63.3474 20.5175H66.6014L61.8 37.2656H58.7394L55.0139 26.1636L51.5941 37.2656H48.4994L43.5728 20.5175ZM71.844 37.5613C70.6075 37.5689 69.4925 37.2958 68.4988 36.7422C67.5127 36.1808 66.7353 35.4033 66.1663 34.4097C65.6051 33.416 65.3245 32.282 65.3245 31.0077C65.3245 29.7713 65.6127 28.6525 66.1892 27.6513C66.7656 26.65 67.5468 25.8688 68.533 25.3075C69.5191 24.7462 70.6188 24.4655 71.8325 24.4655C73.1978 24.4655 74.3925 24.7689 75.4165 25.3757C76.4481 25.9825 77.218 26.8435 77.7262 27.9585C78.242 29.0659 78.4278 30.3364 78.2837 31.77H68.5378C68.5651 32.3412 68.7076 32.8608 68.9653 33.3288C69.2536 33.8445 69.6556 34.2465 70.1713 34.5348C70.6872 34.823 71.2636 34.9672 71.9008 34.9672C72.3862 34.9595 72.8376 34.8762 73.2547 34.7169C73.672 34.55 74.0246 34.3263 74.3128 34.0455C74.6087 33.7649 74.8173 33.4464 74.9387 33.0899H78.1927C77.9955 33.9622 77.6011 34.7397 77.0095 35.4223C76.4177 36.0974 75.6745 36.6245 74.7793 37.0038C73.8843 37.383 72.9058 37.5689 71.844 37.5613ZM68.9767 28.6412C68.795 28.9581 68.669 29.2994 68.5988 29.6652H75.0592C75.0123 29.2032 74.8697 28.7822 74.6315 28.4022C74.3583 27.9547 73.9867 27.6096 73.5165 27.3668C73.0462 27.1165 72.5152 26.9914 71.9236 26.9914C71.294 26.9914 70.7213 27.1355 70.2055 27.4237C69.6897 27.712 69.2801 28.1178 68.9767 28.6412ZM95.0204 24.7272C95.0204 23.7108 95.2517 22.8082 95.7144 22.0193C96.1771 21.2229 96.8257 20.6047 97.6601 20.1647C98.5019 19.7172 99.4843 19.4859 100.607 19.4707V22.2355C100.083 22.2431 99.6359 22.3531 99.2643 22.5655C98.9002 22.7703 98.6196 23.0699 98.4223 23.4643C98.2408 23.8274 98.1428 24.2484 98.1284 24.7272H100.539V27.3555H98.1266V37.2656H95.0204V27.3555H93.0179V24.7272H95.0204ZM112.838 37.5385C111.571 37.5385 110.437 37.2616 109.436 36.708C108.442 36.1466 107.661 35.373 107.092 34.3869C106.53 33.3932 106.25 32.2669 106.25 31.0076C106.25 29.741 106.53 28.6108 107.092 27.6171C107.661 26.6158 108.442 25.8384 109.436 25.2847C110.437 24.7309 111.571 24.4541 112.838 24.4541C114.112 24.4541 115.25 24.7309 116.251 25.2847C117.26 25.8384 118.045 26.6121 118.606 27.6057C119.167 28.5994 119.452 29.7334 119.459 31.0076C119.452 32.2669 119.167 33.3932 118.606 34.3869C118.052 35.373 117.271 36.1466 116.262 36.708C115.253 37.2616 114.112 37.5385 112.838 37.5385ZM112.838 34.6827C113.505 34.6827 114.097 34.531 114.612 34.2276C115.128 33.9166 115.526 33.4842 115.807 32.9305C116.088 32.3692 116.228 31.7282 116.228 31.0076C116.228 30.2795 116.088 29.6347 115.807 29.0734C115.526 28.5121 115.128 28.0798 114.612 27.7764C114.097 27.4654 113.505 27.3099 112.838 27.3099C112.178 27.3099 111.59 27.4654 111.074 27.7764C110.566 28.0798 110.171 28.5121 109.891 29.0734C109.61 29.6347 109.474 30.2795 109.481 31.0076C109.481 31.7282 109.621 32.3692 109.902 32.9305C110.19 33.4842 110.585 33.9166 111.085 34.2276C111.594 34.531 112.178 34.6827 112.838 34.6827ZM122.816 24.7272H119.357L123.1 37.2655H126.127L128.589 29.2573L131.246 37.2655H134.228L137.983 24.7272H134.854L132.724 32.5315L130.37 24.7272H127.344L125.002 32.7034L122.816 24.7272Z" fill="black"/>
</svg>
