<svg width="200" height="57" viewBox="0 0 200 57" fill="none" xmlns="http://www.w3.org/2000/svg">
<path fill-rule="evenodd" clip-rule="evenodd" d="M68.5693 17.6392L57.0598 40.1392H46.249L51.0658 30.8142H50.8496C46.8759 35.9727 40.9469 39.3685 32.499 40.1392V30.9433C32.499 30.9433 37.9033 30.624 41.0804 27.2838H32.499V17.6393H42.1435V25.5718L42.36 25.5709L46.3011 17.6393H53.595V25.5215L53.8114 25.5212L57.9004 17.6392H68.5693ZM131.332 37.6557H134.438V19.8267H131.332V37.6557ZM114.208 37.4736C114.883 37.7542 115.57 37.8946 116.268 37.8946C117.42 37.8946 118.452 37.614 119.362 37.0526C120.272 36.4914 120.978 35.7177 121.479 34.7316C121.979 33.738 122.229 32.6115 122.229 31.3524C122.229 30.0932 121.972 28.9669 121.456 27.9732C120.94 26.9796 120.223 26.2097 119.305 25.6635C118.388 25.1098 117.345 24.8367 116.176 24.8443C115.433 24.8443 114.72 24.9884 114.037 25.2767C113.355 25.5649 112.786 25.9745 112.331 26.5055C112.296 26.5459 112.262 26.5867 112.228 26.628V19.8381H109.111V37.6557H112.206L112.199 35.9912C112.279 36.0894 112.365 36.1852 112.456 36.279C112.949 36.7872 113.533 37.1854 114.208 37.4736ZM117.394 34.5951C116.886 34.9061 116.305 35.0616 115.653 35.0616C115.008 35.0616 114.417 34.9022 113.878 34.5837C113.34 34.2575 112.911 33.8139 112.592 33.2525C112.281 32.6912 112.126 32.054 112.126 31.341C112.118 30.628 112.27 29.9909 112.581 29.4296C112.9 28.8607 113.328 28.4207 113.867 28.1097C114.405 27.7912 115.001 27.6357 115.653 27.6433C116.305 27.6357 116.886 27.7874 117.394 28.0984C117.91 28.4018 118.304 28.8379 118.577 29.4068C118.858 29.9681 118.998 30.6129 118.998 31.341C118.998 32.0692 118.858 32.714 118.577 33.2752C118.304 33.8366 117.91 34.2765 117.394 34.5951ZM73.0691 20.9076H76.619L79.7945 32.5046L83.1726 20.9076H86.1308L89.7945 32.2718L92.8437 20.9076H96.0977L91.2963 37.6557H88.2357L84.5102 26.5537L81.0905 37.6557H77.9957L73.0691 20.9076ZM101.34 37.9514C100.104 37.9591 98.9888 37.6859 97.9952 37.1323C97.0091 36.5709 96.2317 35.7934 95.6627 34.7998C95.1014 33.8062 94.8208 32.6722 94.8208 31.3978C94.8208 30.1614 95.1091 29.0427 95.6856 28.0414C96.2619 27.0402 97.0432 26.2589 98.0293 25.6976C99.0154 25.1363 100.115 24.8557 101.329 24.8557C102.694 24.8557 103.889 25.1591 104.913 25.7659C105.944 26.3727 106.714 27.2336 107.223 28.3486C107.738 29.4561 107.924 30.7266 107.78 32.1602H98.0342C98.0614 32.7313 98.2039 33.2509 98.4617 33.7189C98.7499 34.2347 99.1519 34.6367 99.6677 34.9249C100.184 35.2132 100.76 35.3573 101.397 35.3573C101.883 35.3497 102.334 35.2663 102.751 35.1071C103.168 34.9402 103.521 34.7164 103.809 34.4357C104.105 34.1551 104.314 33.8366 104.435 33.4801H107.689C107.492 34.3523 107.097 35.1298 106.506 35.8124C105.914 36.4876 105.171 37.0147 104.276 37.3939C103.381 37.7732 102.402 37.9591 101.34 37.9514ZM98.4731 29.0313C98.2913 29.3483 98.1653 29.6896 98.0952 30.0553H104.556C104.509 29.5933 104.366 29.1723 104.128 28.7924C103.855 28.3448 103.483 27.9997 103.013 27.757C102.543 27.5067 102.012 27.3815 101.42 27.3815C100.79 27.3815 100.218 27.5256 99.7018 27.8139C99.186 28.1021 98.7764 28.5079 98.4731 29.0313ZM124.517 25.1174C124.517 24.101 124.748 23.1983 125.211 22.4095C125.673 21.613 126.322 20.9948 127.156 20.5549C127.998 20.1074 128.981 19.876 130.103 19.8608V22.6256C129.58 22.6332 129.132 22.7432 128.761 22.9556C128.397 23.1604 128.116 23.46 127.919 23.8544C127.737 24.2176 127.639 24.6385 127.625 25.1174H130.035V27.7456H127.623V37.6557H124.517V27.7456H122.514V25.1174H124.517ZM142.334 37.9286C141.067 37.9286 139.933 37.6517 138.932 37.0981C137.938 36.5367 137.157 35.7631 136.588 34.777C136.027 33.7834 135.746 32.657 135.746 31.3977C135.746 30.1311 136.027 29.0009 136.588 28.0072C137.157 27.006 137.938 26.2285 138.932 25.6748C139.933 25.1211 141.067 24.8442 142.334 24.8442C143.608 24.8442 144.746 25.1211 145.747 25.6748C146.756 26.2285 147.541 27.0022 148.102 27.9959C148.664 28.9895 148.948 30.1235 148.956 31.3977C148.948 32.657 148.664 33.7834 148.102 34.777C147.549 35.7631 146.767 36.5367 145.758 37.0981C144.75 37.6517 143.608 37.9286 142.334 37.9286ZM142.334 35.0729C143.001 35.0729 143.593 34.9211 144.109 34.6177C144.625 34.3067 145.023 33.8744 145.303 33.3206C145.584 32.7594 145.724 32.1184 145.724 31.3977C145.724 30.6696 145.584 30.0249 145.303 29.4636C145.023 28.9023 144.625 28.4699 144.109 28.1665C143.593 27.8555 143.001 27.7 142.334 27.7C141.674 27.7 141.086 27.8555 140.57 28.1665C140.062 28.4699 139.668 28.9023 139.387 29.4636C139.106 30.0249 138.97 30.6696 138.977 31.3977C138.977 32.1184 139.118 32.7594 139.398 33.3206C139.687 33.8744 140.081 34.3067 140.582 34.6177C141.09 34.9211 141.674 35.0729 142.334 35.0729ZM152.312 25.1173H148.853L152.597 37.6557H155.623L158.085 29.6474L160.743 37.6557H163.724L167.479 25.1173H164.35L162.22 32.9217L159.866 25.1173H156.841L154.498 33.0936L152.312 25.1173Z" fill="black"/>
<path d="M68.5693 17.6392L57.0598 40.1392H46.249L51.0658 30.8142H50.8496C46.8759 35.9727 40.9469 39.3685 32.499 40.1392V30.9433C32.499 30.9433 37.9033 30.624 41.0804 27.2838H32.499V17.6393H42.1435V25.5718L42.36 25.5709L46.3011 17.6393H53.595V25.5215L53.8114 25.5212L57.9004 17.6392H68.5693ZM131.332 37.6557H134.438V19.8267H131.332V37.6557ZM114.208 37.4736C114.883 37.7542 115.57 37.8946 116.268 37.8946C117.42 37.8946 118.452 37.614 119.362 37.0526C120.272 36.4914 120.978 35.7177 121.479 34.7316C121.979 33.738 122.229 32.6115 122.229 31.3524C122.229 30.0932 121.972 28.9669 121.456 27.9732C120.94 26.9796 120.223 26.2097 119.305 25.6635C118.388 25.1098 117.345 24.8367 116.176 24.8443C115.433 24.8443 114.72 24.9884 114.037 25.2767C113.355 25.5649 112.786 25.9745 112.331 26.5055C112.296 26.5459 112.262 26.5867 112.228 26.628V19.8381H109.111V37.6557H112.206L112.199 35.9912C112.279 36.0894 112.365 36.1852 112.456 36.279C112.949 36.7872 113.533 37.1854 114.208 37.4736ZM117.394 34.5951C116.886 34.9061 116.305 35.0616 115.653 35.0616C115.008 35.0616 114.417 34.9022 113.878 34.5837C113.34 34.2575 112.911 33.8139 112.592 33.2525C112.281 32.6912 112.126 32.054 112.126 31.341C112.118 30.628 112.27 29.9909 112.581 29.4296C112.9 28.8607 113.328 28.4207 113.867 28.1097C114.405 27.7912 115.001 27.6357 115.653 27.6433C116.305 27.6357 116.886 27.7874 117.394 28.0984C117.91 28.4018 118.304 28.8379 118.577 29.4068C118.858 29.9681 118.998 30.6129 118.998 31.341C118.998 32.0692 118.858 32.714 118.577 33.2752C118.304 33.8366 117.91 34.2765 117.394 34.5951ZM73.0691 20.9076H76.619L79.7945 32.5046L83.1726 20.9076H86.1308L89.7945 32.2718L92.8437 20.9076H96.0977L91.2963 37.6557H88.2357L84.5102 26.5537L81.0905 37.6557H77.9957L73.0691 20.9076ZM101.34 37.9514C100.104 37.9591 98.9888 37.6859 97.9952 37.1323C97.0091 36.5709 96.2317 35.7934 95.6627 34.7998C95.1014 33.8062 94.8208 32.6722 94.8208 31.3978C94.8208 30.1614 95.1091 29.0427 95.6856 28.0414C96.2619 27.0402 97.0432 26.2589 98.0293 25.6976C99.0154 25.1363 100.115 24.8557 101.329 24.8557C102.694 24.8557 103.889 25.1591 104.913 25.7659C105.944 26.3727 106.714 27.2336 107.223 28.3486C107.738 29.4561 107.924 30.7266 107.78 32.1602H98.0342C98.0614 32.7313 98.2039 33.2509 98.4617 33.7189C98.7499 34.2347 99.1519 34.6367 99.6677 34.9249C100.184 35.2132 100.76 35.3573 101.397 35.3573C101.883 35.3497 102.334 35.2663 102.751 35.1071C103.168 34.9402 103.521 34.7164 103.809 34.4357C104.105 34.1551 104.314 33.8366 104.435 33.4801H107.689C107.492 34.3523 107.097 35.1298 106.506 35.8124C105.914 36.4876 105.171 37.0147 104.276 37.3939C103.381 37.7732 102.402 37.9591 101.34 37.9514ZM98.4731 29.0313C98.2913 29.3483 98.1653 29.6896 98.0952 30.0553H104.556C104.509 29.5933 104.366 29.1723 104.128 28.7924C103.855 28.3448 103.483 27.9997 103.013 27.757C102.543 27.5067 102.012 27.3815 101.42 27.3815C100.79 27.3815 100.218 27.5256 99.7018 27.8139C99.186 28.1021 98.7764 28.5079 98.4731 29.0313ZM124.517 25.1174C124.517 24.101 124.748 23.1983 125.211 22.4095C125.673 21.613 126.322 20.9948 127.156 20.5549C127.998 20.1074 128.981 19.876 130.103 19.8608V22.6256C129.58 22.6332 129.132 22.7432 128.761 22.9556C128.397 23.1604 128.116 23.46 127.919 23.8544C127.737 24.2176 127.639 24.6385 127.625 25.1174H130.035V27.7456H127.623V37.6557H124.517V27.7456H122.514V25.1174H124.517ZM142.334 37.9286C141.067 37.9286 139.933 37.6517 138.932 37.0981C137.938 36.5367 137.157 35.7631 136.588 34.777C136.027 33.7834 135.746 32.657 135.746 31.3977C135.746 30.1311 136.027 29.0009 136.588 28.0072C137.157 27.006 137.938 26.2285 138.932 25.6748C139.933 25.1211 141.067 24.8442 142.334 24.8442C143.608 24.8442 144.746 25.1211 145.747 25.6748C146.756 26.2285 147.541 27.0022 148.102 27.9959C148.664 28.9895 148.948 30.1235 148.956 31.3977C148.948 32.657 148.664 33.7834 148.102 34.777C147.549 35.7631 146.767 36.5367 145.758 37.0981C144.75 37.6517 143.608 37.9286 142.334 37.9286ZM142.334 35.0729C143.001 35.0729 143.593 34.9211 144.109 34.6177C144.625 34.3067 145.023 33.8744 145.303 33.3206C145.584 32.7594 145.724 32.1184 145.724 31.3977C145.724 30.6696 145.584 30.0249 145.303 29.4636C145.023 28.9023 144.625 28.4699 144.109 28.1665C143.593 27.8555 143.001 27.7 142.334 27.7C141.674 27.7 141.086 27.8555 140.57 28.1665C140.062 28.4699 139.668 28.9023 139.387 29.4636C139.106 30.0249 138.97 30.6696 138.977 31.3977C138.977 32.1184 139.118 32.7594 139.398 33.3206C139.687 33.8744 140.081 34.3067 140.582 34.6177C141.09 34.9211 141.674 35.0729 142.334 35.0729ZM152.312 25.1173H148.853L152.597 37.6557H155.623L158.085 29.6474L160.743 37.6557H163.724L167.479 25.1173H164.35L162.22 32.9217L159.866 25.1173H156.841L154.498 33.0936L152.312 25.1173Z" fill="black"/>
<path fill-rule="evenodd" clip-rule="evenodd" d="M68.5693 17.6392L57.0598 40.1392H46.249L51.0658 30.8142H50.8496C46.8759 35.9727 40.9469 39.3685 32.499 40.1392V30.9433C32.499 30.9433 37.9033 30.624 41.0804 27.2838H32.499V17.6393H42.1435V25.5718L42.36 25.5709L46.3011 17.6393H53.595V25.5215L53.8114 25.5212L57.9004 17.6392H68.5693ZM131.332 37.6557H134.438V19.8267H131.332V37.6557ZM114.208 37.4736C114.883 37.7542 115.57 37.8946 116.268 37.8946C117.42 37.8946 118.452 37.614 119.362 37.0526C120.272 36.4914 120.978 35.7177 121.479 34.7316C121.979 33.738 122.229 32.6115 122.229 31.3524C122.229 30.0932 121.972 28.9669 121.456 27.9732C120.94 26.9796 120.223 26.2097 119.305 25.6635C118.388 25.1098 117.345 24.8367 116.176 24.8443C115.433 24.8443 114.72 24.9884 114.037 25.2767C113.355 25.5649 112.786 25.9745 112.331 26.5055C112.296 26.5459 112.262 26.5867 112.228 26.628V19.8381H109.111V37.6557H112.206L112.199 35.9912C112.279 36.0894 112.365 36.1852 112.456 36.279C112.949 36.7872 113.533 37.1854 114.208 37.4736ZM117.394 34.5951C116.886 34.9061 116.305 35.0616 115.653 35.0616C115.008 35.0616 114.417 34.9022 113.878 34.5837C113.34 34.2575 112.911 33.8139 112.592 33.2525C112.281 32.6912 112.126 32.054 112.126 31.341C112.118 30.628 112.27 29.9909 112.581 29.4296C112.9 28.8607 113.328 28.4207 113.867 28.1097C114.405 27.7912 115.001 27.6357 115.653 27.6433C116.305 27.6357 116.886 27.7874 117.394 28.0984C117.91 28.4018 118.304 28.8379 118.577 29.4068C118.858 29.9681 118.998 30.6129 118.998 31.341C118.998 32.0692 118.858 32.714 118.577 33.2752C118.304 33.8366 117.91 34.2765 117.394 34.5951ZM73.0691 20.9076H76.619L79.7945 32.5046L83.1726 20.9076H86.1308L89.7945 32.2718L92.8437 20.9076H96.0977L91.2963 37.6557H88.2357L84.5102 26.5537L81.0905 37.6557H77.9957L73.0691 20.9076ZM101.34 37.9514C100.104 37.9591 98.9888 37.6859 97.9952 37.1323C97.0091 36.5709 96.2317 35.7934 95.6627 34.7998C95.1014 33.8062 94.8208 32.6722 94.8208 31.3978C94.8208 30.1614 95.1091 29.0427 95.6856 28.0414C96.2619 27.0402 97.0432 26.2589 98.0293 25.6976C99.0154 25.1363 100.115 24.8557 101.329 24.8557C102.694 24.8557 103.889 25.1591 104.913 25.7659C105.944 26.3727 106.714 27.2336 107.223 28.3486C107.738 29.4561 107.924 30.7266 107.78 32.1602H98.0342C98.0614 32.7313 98.2039 33.2509 98.4617 33.7189C98.7499 34.2347 99.1519 34.6367 99.6677 34.9249C100.184 35.2132 100.76 35.3573 101.397 35.3573C101.883 35.3497 102.334 35.2663 102.751 35.1071C103.168 34.9402 103.521 34.7164 103.809 34.4357C104.105 34.1551 104.314 33.8366 104.435 33.4801H107.689C107.492 34.3523 107.097 35.1298 106.506 35.8124C105.914 36.4876 105.171 37.0147 104.276 37.3939C103.381 37.7732 102.402 37.9591 101.34 37.9514ZM98.4731 29.0313C98.2913 29.3483 98.1653 29.6896 98.0952 30.0553H104.556C104.509 29.5933 104.366 29.1723 104.128 28.7924C103.855 28.3448 103.483 27.9997 103.013 27.757C102.543 27.5067 102.012 27.3815 101.42 27.3815C100.79 27.3815 100.218 27.5256 99.7018 27.8139C99.186 28.1021 98.7764 28.5079 98.4731 29.0313ZM124.517 25.1174C124.517 24.101 124.748 23.1983 125.211 22.4095C125.673 21.613 126.322 20.9948 127.156 20.5549C127.998 20.1074 128.981 19.876 130.103 19.8608V22.6256C129.58 22.6332 129.132 22.7432 128.761 22.9556C128.397 23.1604 128.116 23.46 127.919 23.8544C127.737 24.2176 127.639 24.6385 127.625 25.1174H130.035V27.7456H127.623V37.6557H124.517V27.7456H122.514V25.1174H124.517ZM142.334 37.9286C141.067 37.9286 139.933 37.6517 138.932 37.0981C137.938 36.5367 137.157 35.7631 136.588 34.777C136.027 33.7834 135.746 32.657 135.746 31.3977C135.746 30.1311 136.027 29.0009 136.588 28.0072C137.157 27.006 137.938 26.2285 138.932 25.6748C139.933 25.1211 141.067 24.8442 142.334 24.8442C143.608 24.8442 144.746 25.1211 145.747 25.6748C146.756 26.2285 147.541 27.0022 148.102 27.9959C148.664 28.9895 148.948 30.1235 148.956 31.3977C148.948 32.657 148.664 33.7834 148.102 34.777C147.549 35.7631 146.767 36.5367 145.758 37.0981C144.75 37.6517 143.608 37.9286 142.334 37.9286ZM142.334 35.0729C143.001 35.0729 143.593 34.9211 144.109 34.6177C144.625 34.3067 145.023 33.8744 145.303 33.3206C145.584 32.7594 145.724 32.1184 145.724 31.3977C145.724 30.6696 145.584 30.0249 145.303 29.4636C145.023 28.9023 144.625 28.4699 144.109 28.1665C143.593 27.8555 143.001 27.7 142.334 27.7C141.674 27.7 141.086 27.8555 140.57 28.1665C140.062 28.4699 139.668 28.9023 139.387 29.4636C139.106 30.0249 138.97 30.6696 138.977 31.3977C138.977 32.1184 139.118 32.7594 139.398 33.3206C139.687 33.8744 140.081 34.3067 140.582 34.6177C141.09 34.9211 141.674 35.0729 142.334 35.0729ZM152.312 25.1173H148.853L152.597 37.6557H155.623L158.085 29.6474L160.743 37.6557H163.724L167.479 25.1173H164.35L162.22 32.9217L159.866 25.1173H156.841L154.498 33.0936L152.312 25.1173Z" fill="black"/>
<path d="M68.5693 17.6392L57.0598 40.1392H46.249L51.0658 30.8142H50.8496C46.8759 35.9727 40.9469 39.3685 32.499 40.1392V30.9433C32.499 30.9433 37.9033 30.624 41.0804 27.2838H32.499V17.6393H42.1435V25.5718L42.36 25.5709L46.3011 17.6393H53.595V25.5215L53.8114 25.5212L57.9004 17.6392H68.5693ZM131.332 37.6557H134.438V19.8267H131.332V37.6557ZM114.208 37.4736C114.883 37.7542 115.57 37.8946 116.268 37.8946C117.42 37.8946 118.452 37.614 119.362 37.0526C120.272 36.4914 120.978 35.7177 121.479 34.7316C121.979 33.738 122.229 32.6115 122.229 31.3524C122.229 30.0932 121.972 28.9669 121.456 27.9732C120.94 26.9796 120.223 26.2097 119.305 25.6635C118.388 25.1098 117.345 24.8367 116.176 24.8443C115.433 24.8443 114.72 24.9884 114.037 25.2767C113.355 25.5649 112.786 25.9745 112.331 26.5055C112.296 26.5459 112.262 26.5867 112.228 26.628V19.8381H109.111V37.6557H112.206L112.199 35.9912C112.279 36.0894 112.365 36.1852 112.456 36.279C112.949 36.7872 113.533 37.1854 114.208 37.4736ZM117.394 34.5951C116.886 34.9061 116.305 35.0616 115.653 35.0616C115.008 35.0616 114.417 34.9022 113.878 34.5837C113.34 34.2575 112.911 33.8139 112.592 33.2525C112.281 32.6912 112.126 32.054 112.126 31.341C112.118 30.628 112.27 29.9909 112.581 29.4296C112.9 28.8607 113.328 28.4207 113.867 28.1097C114.405 27.7912 115.001 27.6357 115.653 27.6433C116.305 27.6357 116.886 27.7874 117.394 28.0984C117.91 28.4018 118.304 28.8379 118.577 29.4068C118.858 29.9681 118.998 30.6129 118.998 31.341C118.998 32.0692 118.858 32.714 118.577 33.2752C118.304 33.8366 117.91 34.2765 117.394 34.5951ZM73.0691 20.9076H76.619L79.7945 32.5046L83.1726 20.9076H86.1308L89.7945 32.2718L92.8437 20.9076H96.0977L91.2963 37.6557H88.2357L84.5102 26.5537L81.0905 37.6557H77.9957L73.0691 20.9076ZM101.34 37.9514C100.104 37.9591 98.9888 37.6859 97.9952 37.1323C97.0091 36.5709 96.2317 35.7934 95.6627 34.7998C95.1014 33.8062 94.8208 32.6722 94.8208 31.3978C94.8208 30.1614 95.1091 29.0427 95.6856 28.0414C96.2619 27.0402 97.0432 26.2589 98.0293 25.6976C99.0154 25.1363 100.115 24.8557 101.329 24.8557C102.694 24.8557 103.889 25.1591 104.913 25.7659C105.944 26.3727 106.714 27.2336 107.223 28.3486C107.738 29.4561 107.924 30.7266 107.78 32.1602H98.0342C98.0614 32.7313 98.2039 33.2509 98.4617 33.7189C98.7499 34.2347 99.1519 34.6367 99.6677 34.9249C100.184 35.2132 100.76 35.3573 101.397 35.3573C101.883 35.3497 102.334 35.2663 102.751 35.1071C103.168 34.9402 103.521 34.7164 103.809 34.4357C104.105 34.1551 104.314 33.8366 104.435 33.4801H107.689C107.492 34.3523 107.097 35.1298 106.506 35.8124C105.914 36.4876 105.171 37.0147 104.276 37.3939C103.381 37.7732 102.402 37.9591 101.34 37.9514ZM98.4731 29.0313C98.2913 29.3483 98.1653 29.6896 98.0952 30.0553H104.556C104.509 29.5933 104.366 29.1723 104.128 28.7924C103.855 28.3448 103.483 27.9997 103.013 27.757C102.543 27.5067 102.012 27.3815 101.42 27.3815C100.79 27.3815 100.218 27.5256 99.7018 27.8139C99.186 28.1021 98.7764 28.5079 98.4731 29.0313ZM124.517 25.1174C124.517 24.101 124.748 23.1983 125.211 22.4095C125.673 21.613 126.322 20.9948 127.156 20.5549C127.998 20.1074 128.981 19.876 130.103 19.8608V22.6256C129.58 22.6332 129.132 22.7432 128.761 22.9556C128.397 23.1604 128.116 23.46 127.919 23.8544C127.737 24.2176 127.639 24.6385 127.625 25.1174H130.035V27.7456H127.623V37.6557H124.517V27.7456H122.514V25.1174H124.517ZM142.334 37.9286C141.067 37.9286 139.933 37.6517 138.932 37.0981C137.938 36.5367 137.157 35.7631 136.588 34.777C136.027 33.7834 135.746 32.657 135.746 31.3977C135.746 30.1311 136.027 29.0009 136.588 28.0072C137.157 27.006 137.938 26.2285 138.932 25.6748C139.933 25.1211 141.067 24.8442 142.334 24.8442C143.608 24.8442 144.746 25.1211 145.747 25.6748C146.756 26.2285 147.541 27.0022 148.102 27.9959C148.664 28.9895 148.948 30.1235 148.956 31.3977C148.948 32.657 148.664 33.7834 148.102 34.777C147.549 35.7631 146.767 36.5367 145.758 37.0981C144.75 37.6517 143.608 37.9286 142.334 37.9286ZM142.334 35.0729C143.001 35.0729 143.593 34.9211 144.109 34.6177C144.625 34.3067 145.023 33.8744 145.303 33.3206C145.584 32.7594 145.724 32.1184 145.724 31.3977C145.724 30.6696 145.584 30.0249 145.303 29.4636C145.023 28.9023 144.625 28.4699 144.109 28.1665C143.593 27.8555 143.001 27.7 142.334 27.7C141.674 27.7 141.086 27.8555 140.57 28.1665C140.062 28.4699 139.668 28.9023 139.387 29.4636C139.106 30.0249 138.97 30.6696 138.977 31.3977C138.977 32.1184 139.118 32.7594 139.398 33.3206C139.687 33.8744 140.081 34.3067 140.582 34.6177C141.09 34.9211 141.674 35.0729 142.334 35.0729ZM152.312 25.1173H148.853L152.597 37.6557H155.623L158.085 29.6474L160.743 37.6557H163.724L167.479 25.1173H164.35L162.22 32.9217L159.866 25.1173H156.841L154.498 33.0936L152.312 25.1173Z" fill="black"/>
<path fill-rule="evenodd" clip-rule="evenodd" d="M68.5693 17.6392L57.0598 40.1392H46.249L51.0658 30.8142H50.8496C46.8759 35.9727 40.9469 39.3685 32.499 40.1392V30.9433C32.499 30.9433 37.9033 30.624 41.0804 27.2838H32.499V17.6393H42.1435V25.5718L42.36 25.5709L46.3011 17.6393H53.595V25.5215L53.8114 25.5212L57.9004 17.6392H68.5693ZM131.332 37.6557H134.438V19.8267H131.332V37.6557ZM114.208 37.4736C114.883 37.7542 115.57 37.8946 116.268 37.8946C117.42 37.8946 118.452 37.614 119.362 37.0526C120.272 36.4914 120.978 35.7177 121.479 34.7316C121.979 33.738 122.229 32.6115 122.229 31.3524C122.229 30.0932 121.972 28.9669 121.456 27.9732C120.94 26.9796 120.223 26.2097 119.305 25.6635C118.388 25.1098 117.345 24.8367 116.176 24.8443C115.433 24.8443 114.72 24.9884 114.037 25.2767C113.355 25.5649 112.786 25.9745 112.331 26.5055C112.296 26.5459 112.262 26.5867 112.228 26.628V19.8381H109.111V37.6557H112.206L112.199 35.9912C112.279 36.0894 112.365 36.1852 112.456 36.279C112.949 36.7872 113.533 37.1854 114.208 37.4736ZM117.394 34.5951C116.886 34.9061 116.305 35.0616 115.653 35.0616C115.008 35.0616 114.417 34.9022 113.878 34.5837C113.34 34.2575 112.911 33.8139 112.592 33.2525C112.281 32.6912 112.126 32.054 112.126 31.341C112.118 30.628 112.27 29.9909 112.581 29.4296C112.9 28.8607 113.328 28.4207 113.867 28.1097C114.405 27.7912 115.001 27.6357 115.653 27.6433C116.305 27.6357 116.886 27.7874 117.394 28.0984C117.91 28.4018 118.304 28.8379 118.577 29.4068C118.858 29.9681 118.998 30.6129 118.998 31.341C118.998 32.0692 118.858 32.714 118.577 33.2752C118.304 33.8366 117.91 34.2765 117.394 34.5951ZM73.0691 20.9076H76.619L79.7945 32.5046L83.1726 20.9076H86.1308L89.7945 32.2718L92.8437 20.9076H96.0977L91.2963 37.6557H88.2357L84.5102 26.5537L81.0905 37.6557H77.9957L73.0691 20.9076ZM101.34 37.9514C100.104 37.9591 98.9888 37.6859 97.9952 37.1323C97.0091 36.5709 96.2317 35.7934 95.6627 34.7998C95.1014 33.8062 94.8208 32.6722 94.8208 31.3978C94.8208 30.1614 95.1091 29.0427 95.6856 28.0414C96.2619 27.0402 97.0432 26.2589 98.0293 25.6976C99.0154 25.1363 100.115 24.8557 101.329 24.8557C102.694 24.8557 103.889 25.1591 104.913 25.7659C105.944 26.3727 106.714 27.2336 107.223 28.3486C107.738 29.4561 107.924 30.7266 107.78 32.1602H98.0342C98.0614 32.7313 98.2039 33.2509 98.4617 33.7189C98.7499 34.2347 99.1519 34.6367 99.6677 34.9249C100.184 35.2132 100.76 35.3573 101.397 35.3573C101.883 35.3497 102.334 35.2663 102.751 35.1071C103.168 34.9402 103.521 34.7164 103.809 34.4357C104.105 34.1551 104.314 33.8366 104.435 33.4801H107.689C107.492 34.3523 107.097 35.1298 106.506 35.8124C105.914 36.4876 105.171 37.0147 104.276 37.3939C103.381 37.7732 102.402 37.9591 101.34 37.9514ZM98.4731 29.0313C98.2913 29.3483 98.1653 29.6896 98.0952 30.0553H104.556C104.509 29.5933 104.366 29.1723 104.128 28.7924C103.855 28.3448 103.483 27.9997 103.013 27.757C102.543 27.5067 102.012 27.3815 101.42 27.3815C100.79 27.3815 100.218 27.5256 99.7018 27.8139C99.186 28.1021 98.7764 28.5079 98.4731 29.0313ZM124.517 25.1174C124.517 24.101 124.748 23.1983 125.211 22.4095C125.673 21.613 126.322 20.9948 127.156 20.5549C127.998 20.1074 128.981 19.876 130.103 19.8608V22.6256C129.58 22.6332 129.132 22.7432 128.761 22.9556C128.397 23.1604 128.116 23.46 127.919 23.8544C127.737 24.2176 127.639 24.6385 127.625 25.1174H130.035V27.7456H127.623V37.6557H124.517V27.7456H122.514V25.1174H124.517ZM142.334 37.9286C141.067 37.9286 139.933 37.6517 138.932 37.0981C137.938 36.5367 137.157 35.7631 136.588 34.777C136.027 33.7834 135.746 32.657 135.746 31.3977C135.746 30.1311 136.027 29.0009 136.588 28.0072C137.157 27.006 137.938 26.2285 138.932 25.6748C139.933 25.1211 141.067 24.8442 142.334 24.8442C143.608 24.8442 144.746 25.1211 145.747 25.6748C146.756 26.2285 147.541 27.0022 148.102 27.9959C148.664 28.9895 148.948 30.1235 148.956 31.3977C148.948 32.657 148.664 33.7834 148.102 34.777C147.549 35.7631 146.767 36.5367 145.758 37.0981C144.75 37.6517 143.608 37.9286 142.334 37.9286ZM142.334 35.0729C143.001 35.0729 143.593 34.9211 144.109 34.6177C144.625 34.3067 145.023 33.8744 145.303 33.3206C145.584 32.7594 145.724 32.1184 145.724 31.3977C145.724 30.6696 145.584 30.0249 145.303 29.4636C145.023 28.9023 144.625 28.4699 144.109 28.1665C143.593 27.8555 143.001 27.7 142.334 27.7C141.674 27.7 141.086 27.8555 140.57 28.1665C140.062 28.4699 139.668 28.9023 139.387 29.4636C139.106 30.0249 138.97 30.6696 138.977 31.3977C138.977 32.1184 139.118 32.7594 139.398 33.3206C139.687 33.8744 140.081 34.3067 140.582 34.6177C141.09 34.9211 141.674 35.0729 142.334 35.0729ZM152.312 25.1173H148.853L152.597 37.6557H155.623L158.085 29.6474L160.743 37.6557H163.724L167.479 25.1173H164.35L162.22 32.9217L159.866 25.1173H156.841L154.498 33.0936L152.312 25.1173Z" fill="black"/>
<path d="M68.5693 17.6392L57.0598 40.1392H46.249L51.0658 30.8142H50.8496C46.8759 35.9727 40.9469 39.3685 32.499 40.1392V30.9433C32.499 30.9433 37.9033 30.624 41.0804 27.2838H32.499V17.6393H42.1435V25.5718L42.36 25.5709L46.3011 17.6393H53.595V25.5215L53.8114 25.5212L57.9004 17.6392H68.5693ZM131.332 37.6557H134.438V19.8267H131.332V37.6557ZM114.208 37.4736C114.883 37.7542 115.57 37.8946 116.268 37.8946C117.42 37.8946 118.452 37.614 119.362 37.0526C120.272 36.4914 120.978 35.7177 121.479 34.7316C121.979 33.738 122.229 32.6115 122.229 31.3524C122.229 30.0932 121.972 28.9669 121.456 27.9732C120.94 26.9796 120.223 26.2097 119.305 25.6635C118.388 25.1098 117.345 24.8367 116.176 24.8443C115.433 24.8443 114.72 24.9884 114.037 25.2767C113.355 25.5649 112.786 25.9745 112.331 26.5055C112.296 26.5459 112.262 26.5867 112.228 26.628V19.8381H109.111V37.6557H112.206L112.199 35.9912C112.279 36.0894 112.365 36.1852 112.456 36.279C112.949 36.7872 113.533 37.1854 114.208 37.4736ZM117.394 34.5951C116.886 34.9061 116.305 35.0616 115.653 35.0616C115.008 35.0616 114.417 34.9022 113.878 34.5837C113.34 34.2575 112.911 33.8139 112.592 33.2525C112.281 32.6912 112.126 32.054 112.126 31.341C112.118 30.628 112.27 29.9909 112.581 29.4296C112.9 28.8607 113.328 28.4207 113.867 28.1097C114.405 27.7912 115.001 27.6357 115.653 27.6433C116.305 27.6357 116.886 27.7874 117.394 28.0984C117.91 28.4018 118.304 28.8379 118.577 29.4068C118.858 29.9681 118.998 30.6129 118.998 31.341C118.998 32.0692 118.858 32.714 118.577 33.2752C118.304 33.8366 117.91 34.2765 117.394 34.5951ZM73.0691 20.9076H76.619L79.7945 32.5046L83.1726 20.9076H86.1308L89.7945 32.2718L92.8437 20.9076H96.0977L91.2963 37.6557H88.2357L84.5102 26.5537L81.0905 37.6557H77.9957L73.0691 20.9076ZM101.34 37.9514C100.104 37.9591 98.9888 37.6859 97.9952 37.1323C97.0091 36.5709 96.2317 35.7934 95.6627 34.7998C95.1014 33.8062 94.8208 32.6722 94.8208 31.3978C94.8208 30.1614 95.1091 29.0427 95.6856 28.0414C96.2619 27.0402 97.0432 26.2589 98.0293 25.6976C99.0154 25.1363 100.115 24.8557 101.329 24.8557C102.694 24.8557 103.889 25.1591 104.913 25.7659C105.944 26.3727 106.714 27.2336 107.223 28.3486C107.738 29.4561 107.924 30.7266 107.78 32.1602H98.0342C98.0614 32.7313 98.2039 33.2509 98.4617 33.7189C98.7499 34.2347 99.1519 34.6367 99.6677 34.9249C100.184 35.2132 100.76 35.3573 101.397 35.3573C101.883 35.3497 102.334 35.2663 102.751 35.1071C103.168 34.9402 103.521 34.7164 103.809 34.4357C104.105 34.1551 104.314 33.8366 104.435 33.4801H107.689C107.492 34.3523 107.097 35.1298 106.506 35.8124C105.914 36.4876 105.171 37.0147 104.276 37.3939C103.381 37.7732 102.402 37.9591 101.34 37.9514ZM98.4731 29.0313C98.2913 29.3483 98.1653 29.6896 98.0952 30.0553H104.556C104.509 29.5933 104.366 29.1723 104.128 28.7924C103.855 28.3448 103.483 27.9997 103.013 27.757C102.543 27.5067 102.012 27.3815 101.42 27.3815C100.79 27.3815 100.218 27.5256 99.7018 27.8139C99.186 28.1021 98.7764 28.5079 98.4731 29.0313ZM124.517 25.1174C124.517 24.101 124.748 23.1983 125.211 22.4095C125.673 21.613 126.322 20.9948 127.156 20.5549C127.998 20.1074 128.981 19.876 130.103 19.8608V22.6256C129.58 22.6332 129.132 22.7432 128.761 22.9556C128.397 23.1604 128.116 23.46 127.919 23.8544C127.737 24.2176 127.639 24.6385 127.625 25.1174H130.035V27.7456H127.623V37.6557H124.517V27.7456H122.514V25.1174H124.517ZM142.334 37.9286C141.067 37.9286 139.933 37.6517 138.932 37.0981C137.938 36.5367 137.157 35.7631 136.588 34.777C136.027 33.7834 135.746 32.657 135.746 31.3977C135.746 30.1311 136.027 29.0009 136.588 28.0072C137.157 27.006 137.938 26.2285 138.932 25.6748C139.933 25.1211 141.067 24.8442 142.334 24.8442C143.608 24.8442 144.746 25.1211 145.747 25.6748C146.756 26.2285 147.541 27.0022 148.102 27.9959C148.664 28.9895 148.948 30.1235 148.956 31.3977C148.948 32.657 148.664 33.7834 148.102 34.777C147.549 35.7631 146.767 36.5367 145.758 37.0981C144.75 37.6517 143.608 37.9286 142.334 37.9286ZM142.334 35.0729C143.001 35.0729 143.593 34.9211 144.109 34.6177C144.625 34.3067 145.023 33.8744 145.303 33.3206C145.584 32.7594 145.724 32.1184 145.724 31.3977C145.724 30.6696 145.584 30.0249 145.303 29.4636C145.023 28.9023 144.625 28.4699 144.109 28.1665C143.593 27.8555 143.001 27.7 142.334 27.7C141.674 27.7 141.086 27.8555 140.57 28.1665C140.062 28.4699 139.668 28.9023 139.387 29.4636C139.106 30.0249 138.97 30.6696 138.977 31.3977C138.977 32.1184 139.118 32.7594 139.398 33.3206C139.687 33.8744 140.081 34.3067 140.582 34.6177C141.09 34.9211 141.674 35.0729 142.334 35.0729ZM152.312 25.1173H148.853L152.597 37.6557H155.623L158.085 29.6474L160.743 37.6557H163.724L167.479 25.1173H164.35L162.22 32.9217L159.866 25.1173H156.841L154.498 33.0936L152.312 25.1173Z" fill="black"/>
<path fill-rule="evenodd" clip-rule="evenodd" d="M68.5693 17.6392L57.0598 40.1392H46.249L51.0658 30.8142H50.8496C46.8759 35.9727 40.9469 39.3685 32.499 40.1392V30.9433C32.499 30.9433 37.9033 30.624 41.0804 27.2838H32.499V17.6393H42.1435V25.5718L42.36 25.5709L46.3011 17.6393H53.595V25.5215L53.8114 25.5212L57.9004 17.6392H68.5693ZM131.332 37.6557H134.438V19.8267H131.332V37.6557ZM114.208 37.4736C114.883 37.7542 115.57 37.8946 116.268 37.8946C117.42 37.8946 118.452 37.614 119.362 37.0526C120.272 36.4914 120.978 35.7177 121.479 34.7316C121.979 33.738 122.229 32.6115 122.229 31.3524C122.229 30.0932 121.972 28.9669 121.456 27.9732C120.94 26.9796 120.223 26.2097 119.305 25.6635C118.388 25.1098 117.345 24.8367 116.176 24.8443C115.433 24.8443 114.72 24.9884 114.037 25.2767C113.355 25.5649 112.786 25.9745 112.331 26.5055C112.296 26.5459 112.262 26.5867 112.228 26.628V19.8381H109.111V37.6557H112.206L112.199 35.9912C112.279 36.0894 112.365 36.1852 112.456 36.279C112.949 36.7872 113.533 37.1854 114.208 37.4736ZM117.394 34.5951C116.886 34.9061 116.305 35.0616 115.653 35.0616C115.008 35.0616 114.417 34.9022 113.878 34.5837C113.34 34.2575 112.911 33.8139 112.592 33.2525C112.281 32.6912 112.126 32.054 112.126 31.341C112.118 30.628 112.27 29.9909 112.581 29.4296C112.9 28.8607 113.328 28.4207 113.867 28.1097C114.405 27.7912 115.001 27.6357 115.653 27.6433C116.305 27.6357 116.886 27.7874 117.394 28.0984C117.91 28.4018 118.304 28.8379 118.577 29.4068C118.858 29.9681 118.998 30.6129 118.998 31.341C118.998 32.0692 118.858 32.714 118.577 33.2752C118.304 33.8366 117.91 34.2765 117.394 34.5951ZM73.0691 20.9076H76.619L79.7945 32.5046L83.1726 20.9076H86.1308L89.7945 32.2718L92.8437 20.9076H96.0977L91.2963 37.6557H88.2357L84.5102 26.5537L81.0905 37.6557H77.9957L73.0691 20.9076ZM101.34 37.9514C100.104 37.9591 98.9888 37.6859 97.9952 37.1323C97.0091 36.5709 96.2317 35.7934 95.6627 34.7998C95.1014 33.8062 94.8208 32.6722 94.8208 31.3978C94.8208 30.1614 95.1091 29.0427 95.6856 28.0414C96.2619 27.0402 97.0432 26.2589 98.0293 25.6976C99.0154 25.1363 100.115 24.8557 101.329 24.8557C102.694 24.8557 103.889 25.1591 104.913 25.7659C105.944 26.3727 106.714 27.2336 107.223 28.3486C107.738 29.4561 107.924 30.7266 107.78 32.1602H98.0342C98.0614 32.7313 98.2039 33.2509 98.4617 33.7189C98.7499 34.2347 99.1519 34.6367 99.6677 34.9249C100.184 35.2132 100.76 35.3573 101.397 35.3573C101.883 35.3497 102.334 35.2663 102.751 35.1071C103.168 34.9402 103.521 34.7164 103.809 34.4357C104.105 34.1551 104.314 33.8366 104.435 33.4801H107.689C107.492 34.3523 107.097 35.1298 106.506 35.8124C105.914 36.4876 105.171 37.0147 104.276 37.3939C103.381 37.7732 102.402 37.9591 101.34 37.9514ZM98.4731 29.0313C98.2913 29.3483 98.1653 29.6896 98.0952 30.0553H104.556C104.509 29.5933 104.366 29.1723 104.128 28.7924C103.855 28.3448 103.483 27.9997 103.013 27.757C102.543 27.5067 102.012 27.3815 101.42 27.3815C100.79 27.3815 100.218 27.5256 99.7018 27.8139C99.186 28.1021 98.7764 28.5079 98.4731 29.0313ZM124.517 25.1174C124.517 24.101 124.748 23.1983 125.211 22.4095C125.673 21.613 126.322 20.9948 127.156 20.5549C127.998 20.1074 128.981 19.876 130.103 19.8608V22.6256C129.58 22.6332 129.132 22.7432 128.761 22.9556C128.397 23.1604 128.116 23.46 127.919 23.8544C127.737 24.2176 127.639 24.6385 127.625 25.1174H130.035V27.7456H127.623V37.6557H124.517V27.7456H122.514V25.1174H124.517ZM142.334 37.9286C141.067 37.9286 139.933 37.6517 138.932 37.0981C137.938 36.5367 137.157 35.7631 136.588 34.777C136.027 33.7834 135.746 32.657 135.746 31.3977C135.746 30.1311 136.027 29.0009 136.588 28.0072C137.157 27.006 137.938 26.2285 138.932 25.6748C139.933 25.1211 141.067 24.8442 142.334 24.8442C143.608 24.8442 144.746 25.1211 145.747 25.6748C146.756 26.2285 147.541 27.0022 148.102 27.9959C148.664 28.9895 148.948 30.1235 148.956 31.3977C148.948 32.657 148.664 33.7834 148.102 34.777C147.549 35.7631 146.767 36.5367 145.758 37.0981C144.75 37.6517 143.608 37.9286 142.334 37.9286ZM142.334 35.0729C143.001 35.0729 143.593 34.9211 144.109 34.6177C144.625 34.3067 145.023 33.8744 145.303 33.3206C145.584 32.7594 145.724 32.1184 145.724 31.3977C145.724 30.6696 145.584 30.0249 145.303 29.4636C145.023 28.9023 144.625 28.4699 144.109 28.1665C143.593 27.8555 143.001 27.7 142.334 27.7C141.674 27.7 141.086 27.8555 140.57 28.1665C140.062 28.4699 139.668 28.9023 139.387 29.4636C139.106 30.0249 138.97 30.6696 138.977 31.3977C138.977 32.1184 139.118 32.7594 139.398 33.3206C139.687 33.8744 140.081 34.3067 140.582 34.6177C141.09 34.9211 141.674 35.0729 142.334 35.0729ZM152.312 25.1173H148.853L152.597 37.6557H155.623L158.085 29.6474L160.743 37.6557H163.724L167.479 25.1173H164.35L162.22 32.9217L159.866 25.1173H156.841L154.498 33.0936L152.312 25.1173Z" fill="black"/>
<path d="M68.5693 17.6392L57.0598 40.1392H46.249L51.0658 30.8142H50.8496C46.8759 35.9727 40.9469 39.3685 32.499 40.1392V30.9433C32.499 30.9433 37.9033 30.624 41.0804 27.2838H32.499V17.6393H42.1435V25.5718L42.36 25.5709L46.3011 17.6393H53.595V25.5215L53.8114 25.5212L57.9004 17.6392H68.5693ZM131.332 37.6557H134.438V19.8267H131.332V37.6557ZM114.208 37.4736C114.883 37.7542 115.57 37.8946 116.268 37.8946C117.42 37.8946 118.452 37.614 119.362 37.0526C120.272 36.4914 120.978 35.7177 121.479 34.7316C121.979 33.738 122.229 32.6115 122.229 31.3524C122.229 30.0932 121.972 28.9669 121.456 27.9732C120.94 26.9796 120.223 26.2097 119.305 25.6635C118.388 25.1098 117.345 24.8367 116.176 24.8443C115.433 24.8443 114.72 24.9884 114.037 25.2767C113.355 25.5649 112.786 25.9745 112.331 26.5055C112.296 26.5459 112.262 26.5867 112.228 26.628V19.8381H109.111V37.6557H112.206L112.199 35.9912C112.279 36.0894 112.365 36.1852 112.456 36.279C112.949 36.7872 113.533 37.1854 114.208 37.4736ZM117.394 34.5951C116.886 34.9061 116.305 35.0616 115.653 35.0616C115.008 35.0616 114.417 34.9022 113.878 34.5837C113.34 34.2575 112.911 33.8139 112.592 33.2525C112.281 32.6912 112.126 32.054 112.126 31.341C112.118 30.628 112.27 29.9909 112.581 29.4296C112.9 28.8607 113.328 28.4207 113.867 28.1097C114.405 27.7912 115.001 27.6357 115.653 27.6433C116.305 27.6357 116.886 27.7874 117.394 28.0984C117.91 28.4018 118.304 28.8379 118.577 29.4068C118.858 29.9681 118.998 30.6129 118.998 31.341C118.998 32.0692 118.858 32.714 118.577 33.2752C118.304 33.8366 117.91 34.2765 117.394 34.5951ZM73.0691 20.9076H76.619L79.7945 32.5046L83.1726 20.9076H86.1308L89.7945 32.2718L92.8437 20.9076H96.0977L91.2963 37.6557H88.2357L84.5102 26.5537L81.0905 37.6557H77.9957L73.0691 20.9076ZM101.34 37.9514C100.104 37.9591 98.9888 37.6859 97.9952 37.1323C97.0091 36.5709 96.2317 35.7934 95.6627 34.7998C95.1014 33.8062 94.8208 32.6722 94.8208 31.3978C94.8208 30.1614 95.1091 29.0427 95.6856 28.0414C96.2619 27.0402 97.0432 26.2589 98.0293 25.6976C99.0154 25.1363 100.115 24.8557 101.329 24.8557C102.694 24.8557 103.889 25.1591 104.913 25.7659C105.944 26.3727 106.714 27.2336 107.223 28.3486C107.738 29.4561 107.924 30.7266 107.78 32.1602H98.0342C98.0614 32.7313 98.2039 33.2509 98.4617 33.7189C98.7499 34.2347 99.1519 34.6367 99.6677 34.9249C100.184 35.2132 100.76 35.3573 101.397 35.3573C101.883 35.3497 102.334 35.2663 102.751 35.1071C103.168 34.9402 103.521 34.7164 103.809 34.4357C104.105 34.1551 104.314 33.8366 104.435 33.4801H107.689C107.492 34.3523 107.097 35.1298 106.506 35.8124C105.914 36.4876 105.171 37.0147 104.276 37.3939C103.381 37.7732 102.402 37.9591 101.34 37.9514ZM98.4731 29.0313C98.2913 29.3483 98.1653 29.6896 98.0952 30.0553H104.556C104.509 29.5933 104.366 29.1723 104.128 28.7924C103.855 28.3448 103.483 27.9997 103.013 27.757C102.543 27.5067 102.012 27.3815 101.42 27.3815C100.79 27.3815 100.218 27.5256 99.7018 27.8139C99.186 28.1021 98.7764 28.5079 98.4731 29.0313ZM124.517 25.1174C124.517 24.101 124.748 23.1983 125.211 22.4095C125.673 21.613 126.322 20.9948 127.156 20.5549C127.998 20.1074 128.981 19.876 130.103 19.8608V22.6256C129.58 22.6332 129.132 22.7432 128.761 22.9556C128.397 23.1604 128.116 23.46 127.919 23.8544C127.737 24.2176 127.639 24.6385 127.625 25.1174H130.035V27.7456H127.623V37.6557H124.517V27.7456H122.514V25.1174H124.517ZM142.334 37.9286C141.067 37.9286 139.933 37.6517 138.932 37.0981C137.938 36.5367 137.157 35.7631 136.588 34.777C136.027 33.7834 135.746 32.657 135.746 31.3977C135.746 30.1311 136.027 29.0009 136.588 28.0072C137.157 27.006 137.938 26.2285 138.932 25.6748C139.933 25.1211 141.067 24.8442 142.334 24.8442C143.608 24.8442 144.746 25.1211 145.747 25.6748C146.756 26.2285 147.541 27.0022 148.102 27.9959C148.664 28.9895 148.948 30.1235 148.956 31.3977C148.948 32.657 148.664 33.7834 148.102 34.777C147.549 35.7631 146.767 36.5367 145.758 37.0981C144.75 37.6517 143.608 37.9286 142.334 37.9286ZM142.334 35.0729C143.001 35.0729 143.593 34.9211 144.109 34.6177C144.625 34.3067 145.023 33.8744 145.303 33.3206C145.584 32.7594 145.724 32.1184 145.724 31.3977C145.724 30.6696 145.584 30.0249 145.303 29.4636C145.023 28.9023 144.625 28.4699 144.109 28.1665C143.593 27.8555 143.001 27.7 142.334 27.7C141.674 27.7 141.086 27.8555 140.57 28.1665C140.062 28.4699 139.668 28.9023 139.387 29.4636C139.106 30.0249 138.97 30.6696 138.977 31.3977C138.977 32.1184 139.118 32.7594 139.398 33.3206C139.687 33.8744 140.081 34.3067 140.582 34.6177C141.09 34.9211 141.674 35.0729 142.334 35.0729ZM152.312 25.1173H148.853L152.597 37.6557H155.623L158.085 29.6474L160.743 37.6557H163.724L167.479 25.1173H164.35L162.22 32.9217L159.866 25.1173H156.841L154.498 33.0936L152.312 25.1173Z" fill="black"/>
</svg>
