<svg width="141" height="57" viewBox="0 0 141 57" fill="none" xmlns="http://www.w3.org/2000/svg">
<path fill-rule="evenodd" clip-rule="evenodd" d="M39.0715 17.249L27.562 39.749H16.7512L21.568 30.424H21.3518C17.3781 35.5825 11.4491 38.9784 3.00122 39.749V30.5531C3.00122 30.5531 8.40553 30.2339 11.5826 26.8937H3.00122V17.2492H12.6457V25.1817L12.8622 25.1808L16.8033 17.2492H24.0972V25.1314L24.3136 25.131L28.4026 17.249H39.0715ZM101.834 37.2655H104.94V19.4365H101.834V37.2655ZM84.7104 37.0835C85.3854 37.3641 86.0719 37.5045 86.7698 37.5045C87.9227 37.5045 88.9543 37.2238 89.8645 36.6625C90.7747 36.1012 91.4802 35.3276 91.9808 34.3415C92.4814 33.3478 92.7317 32.2213 92.7317 30.9622C92.7317 29.7031 92.4738 28.5767 91.958 27.5831C91.4422 26.5894 90.7254 25.8195 89.8075 25.2734C88.8898 24.7197 87.8468 24.4466 86.6787 24.4542C85.9354 24.4542 85.2224 24.5983 84.5397 24.8865C83.857 25.1748 83.2882 25.5844 82.833 26.1153C82.7979 26.1558 82.7638 26.1966 82.7307 26.2378V19.448H79.6132V37.2656H82.7079L82.7017 35.6011C82.7817 35.6992 82.8673 35.7951 82.9582 35.8888C83.4512 36.3971 84.0353 36.7952 84.7104 37.0835ZM87.8962 34.205C87.3879 34.516 86.8077 34.6715 86.1553 34.6715C85.5105 34.6715 84.9189 34.5121 84.3804 34.1936C83.8418 33.8673 83.4133 33.4237 83.0947 32.8623C82.7837 32.3011 82.6282 31.6638 82.6282 30.9508C82.6207 30.2378 82.7723 29.6007 83.0833 29.0394C83.4019 28.4705 83.8304 28.0306 84.369 27.7196C84.9075 27.401 85.503 27.2455 86.1553 27.2531C86.8077 27.2455 87.3879 27.3972 87.8962 27.7082C88.4119 28.0116 88.8063 28.4478 89.0794 29.0167C89.36 29.578 89.5004 30.2227 89.5004 30.9508C89.5004 31.6791 89.36 32.3238 89.0794 32.8851C88.8063 33.4465 88.4119 33.8863 87.8962 34.205ZM43.5713 20.5175H47.1212L50.2967 32.1144L53.6748 20.5175H56.633L60.2967 31.8817L63.3459 20.5175H66.5999L61.7985 37.2656H58.7379L55.0124 26.1636L51.5927 37.2656H48.4979L43.5713 20.5175ZM71.8425 37.5613C70.606 37.5689 69.491 37.2958 68.4974 36.7422C67.5113 36.1808 66.7339 35.4033 66.1649 34.4097C65.6036 33.416 65.323 32.282 65.323 31.0077C65.323 29.7713 65.6112 28.6525 66.1877 27.6513C66.7641 26.65 67.5454 25.8688 68.5315 25.3075C69.5176 24.7462 70.6174 24.4655 71.831 24.4655C73.1964 24.4655 74.391 24.7689 75.415 25.3757C76.4466 25.9825 77.2165 26.8435 77.7247 27.9585C78.2405 29.0659 78.4264 30.3364 78.2822 31.77H68.5364C68.5636 32.3412 68.7061 32.8608 68.9639 33.3288C69.2521 33.8445 69.6541 34.2465 70.1699 34.5348C70.6857 34.823 71.2621 34.9672 71.8994 34.9672C72.3848 34.9595 72.8361 34.8762 73.2533 34.7169C73.6705 34.55 74.0231 34.3263 74.3114 34.0455C74.6072 33.7649 74.8159 33.4464 74.9372 33.0899H78.1913C77.994 33.9622 77.5996 34.7397 77.008 35.4223C76.4162 36.0974 75.673 36.6245 74.7779 37.0038C73.8829 37.383 72.9044 37.5689 71.8425 37.5613ZM68.9753 28.6412C68.7935 28.9581 68.6675 29.2994 68.5974 29.6652H75.0577C75.0109 29.2032 74.8682 28.7822 74.63 28.4022C74.3569 27.9547 73.9853 27.6096 73.515 27.3668C73.0447 27.1165 72.5137 26.9914 71.9221 26.9914C71.2925 26.9914 70.7199 27.1355 70.204 27.4237C69.6882 27.712 69.2786 28.1178 68.9753 28.6412ZM95.019 24.7272C95.019 23.7108 95.2502 22.8082 95.713 22.0193C96.1756 21.2229 96.8242 20.6047 97.6586 20.1647C98.5005 19.7172 99.4829 19.4859 100.605 19.4707V22.2355C100.082 22.2431 99.6345 22.3531 99.2629 22.5655C98.8987 22.7703 98.6181 23.0699 98.4209 23.4643C98.2393 23.8274 98.1414 24.2484 98.127 24.7272H100.537V27.3555H98.1251V37.2656H95.019V27.3555H93.0165V24.7272H95.019ZM112.836 37.5385C111.569 37.5385 110.435 37.2616 109.434 36.708C108.44 36.1466 107.659 35.373 107.09 34.3869C106.529 33.3932 106.248 32.2669 106.248 31.0076C106.248 29.741 106.529 28.6108 107.09 27.6171C107.659 26.6158 108.44 25.8384 109.434 25.2847C110.435 24.7309 111.569 24.4541 112.836 24.4541C114.11 24.4541 115.248 24.7309 116.249 25.2847C117.258 25.8384 118.043 26.6121 118.605 27.6057C119.166 28.5994 119.45 29.7334 119.458 31.0076C119.45 32.2669 119.166 33.3932 118.605 34.3869C118.051 35.373 117.27 36.1466 116.261 36.708C115.252 37.2616 114.11 37.5385 112.836 37.5385ZM112.836 34.6827C113.504 34.6827 114.095 34.531 114.611 34.2276C115.127 33.9166 115.525 33.4842 115.806 32.9305C116.086 32.3692 116.227 31.7282 116.227 31.0076C116.227 30.2795 116.086 29.6347 115.806 29.0734C115.525 28.5121 115.127 28.0798 114.611 27.7764C114.095 27.4654 113.504 27.3099 112.836 27.3099C112.176 27.3099 111.588 27.4654 111.072 27.7764C110.564 28.0798 110.17 28.5121 109.889 29.0734C109.609 29.6347 109.472 30.2795 109.48 31.0076C109.48 31.7282 109.62 32.3692 109.901 32.9305C110.189 33.4842 110.583 33.9166 111.084 34.2276C111.592 34.531 112.176 34.6827 112.836 34.6827ZM122.814 24.7272H119.356L123.099 37.2655H126.125L128.587 29.2573L131.245 37.2655H134.226L137.981 24.7272H134.852L132.722 32.5315L130.369 24.7272H127.343L125 32.7034L122.814 24.7272Z" fill="black"/>
<path d="M39.0715 17.249L27.562 39.749H16.7512L21.568 30.424H21.3518C17.3781 35.5825 11.4491 38.9784 3.00122 39.749V30.5531C3.00122 30.5531 8.40553 30.2339 11.5826 26.8937H3.00122V17.2492H12.6457V25.1817L12.8622 25.1808L16.8033 17.2492H24.0972V25.1314L24.3136 25.131L28.4026 17.249H39.0715ZM101.834 37.2655H104.94V19.4365H101.834V37.2655ZM84.7104 37.0835C85.3854 37.3641 86.0719 37.5045 86.7698 37.5045C87.9227 37.5045 88.9543 37.2238 89.8645 36.6625C90.7747 36.1012 91.4802 35.3276 91.9808 34.3415C92.4814 33.3478 92.7317 32.2213 92.7317 30.9622C92.7317 29.7031 92.4738 28.5767 91.958 27.5831C91.4422 26.5894 90.7254 25.8195 89.8075 25.2734C88.8898 24.7197 87.8468 24.4466 86.6787 24.4542C85.9354 24.4542 85.2224 24.5983 84.5397 24.8865C83.857 25.1748 83.2882 25.5844 82.833 26.1153C82.7979 26.1558 82.7638 26.1966 82.7307 26.2378V19.448H79.6132V37.2656H82.7079L82.7017 35.6011C82.7817 35.6992 82.8673 35.7951 82.9582 35.8888C83.4512 36.3971 84.0353 36.7952 84.7104 37.0835ZM87.8962 34.205C87.3879 34.516 86.8077 34.6715 86.1553 34.6715C85.5105 34.6715 84.9189 34.5121 84.3804 34.1936C83.8418 33.8673 83.4133 33.4237 83.0947 32.8623C82.7837 32.3011 82.6282 31.6638 82.6282 30.9508C82.6207 30.2378 82.7723 29.6007 83.0833 29.0394C83.4019 28.4705 83.8304 28.0306 84.369 27.7196C84.9075 27.401 85.503 27.2455 86.1553 27.2531C86.8077 27.2455 87.3879 27.3972 87.8962 27.7082C88.4119 28.0116 88.8063 28.4478 89.0794 29.0167C89.36 29.578 89.5004 30.2227 89.5004 30.9508C89.5004 31.6791 89.36 32.3238 89.0794 32.8851C88.8063 33.4465 88.4119 33.8863 87.8962 34.205ZM43.5713 20.5175H47.1212L50.2967 32.1144L53.6748 20.5175H56.633L60.2967 31.8817L63.3459 20.5175H66.5999L61.7985 37.2656H58.7379L55.0124 26.1636L51.5927 37.2656H48.4979L43.5713 20.5175ZM71.8425 37.5613C70.606 37.5689 69.491 37.2958 68.4974 36.7422C67.5113 36.1808 66.7339 35.4033 66.1649 34.4097C65.6036 33.416 65.323 32.282 65.323 31.0077C65.323 29.7713 65.6112 28.6525 66.1877 27.6513C66.7641 26.65 67.5454 25.8688 68.5315 25.3075C69.5176 24.7462 70.6174 24.4655 71.831 24.4655C73.1964 24.4655 74.391 24.7689 75.415 25.3757C76.4466 25.9825 77.2165 26.8435 77.7247 27.9585C78.2405 29.0659 78.4264 30.3364 78.2822 31.77H68.5364C68.5636 32.3412 68.7061 32.8608 68.9639 33.3288C69.2521 33.8445 69.6541 34.2465 70.1699 34.5348C70.6857 34.823 71.2621 34.9672 71.8994 34.9672C72.3848 34.9595 72.8361 34.8762 73.2533 34.7169C73.6705 34.55 74.0231 34.3263 74.3114 34.0455C74.6072 33.7649 74.8159 33.4464 74.9372 33.0899H78.1913C77.994 33.9622 77.5996 34.7397 77.008 35.4223C76.4162 36.0974 75.673 36.6245 74.7779 37.0038C73.8829 37.383 72.9044 37.5689 71.8425 37.5613ZM68.9753 28.6412C68.7935 28.9581 68.6675 29.2994 68.5974 29.6652H75.0577C75.0109 29.2032 74.8682 28.7822 74.63 28.4022C74.3569 27.9547 73.9853 27.6096 73.515 27.3668C73.0447 27.1165 72.5137 26.9914 71.9221 26.9914C71.2925 26.9914 70.7199 27.1355 70.204 27.4237C69.6882 27.712 69.2786 28.1178 68.9753 28.6412ZM95.019 24.7272C95.019 23.7108 95.2502 22.8082 95.713 22.0193C96.1756 21.2229 96.8242 20.6047 97.6586 20.1647C98.5005 19.7172 99.4829 19.4859 100.605 19.4707V22.2355C100.082 22.2431 99.6345 22.3531 99.2629 22.5655C98.8987 22.7703 98.6181 23.0699 98.4209 23.4643C98.2393 23.8274 98.1414 24.2484 98.127 24.7272H100.537V27.3555H98.1251V37.2656H95.019V27.3555H93.0165V24.7272H95.019ZM112.836 37.5385C111.569 37.5385 110.435 37.2616 109.434 36.708C108.44 36.1466 107.659 35.373 107.09 34.3869C106.529 33.3932 106.248 32.2669 106.248 31.0076C106.248 29.741 106.529 28.6108 107.09 27.6171C107.659 26.6158 108.44 25.8384 109.434 25.2847C110.435 24.7309 111.569 24.4541 112.836 24.4541C114.11 24.4541 115.248 24.7309 116.249 25.2847C117.258 25.8384 118.043 26.6121 118.605 27.6057C119.166 28.5994 119.45 29.7334 119.458 31.0076C119.45 32.2669 119.166 33.3932 118.605 34.3869C118.051 35.373 117.27 36.1466 116.261 36.708C115.252 37.2616 114.11 37.5385 112.836 37.5385ZM112.836 34.6827C113.504 34.6827 114.095 34.531 114.611 34.2276C115.127 33.9166 115.525 33.4842 115.806 32.9305C116.086 32.3692 116.227 31.7282 116.227 31.0076C116.227 30.2795 116.086 29.6347 115.806 29.0734C115.525 28.5121 115.127 28.0798 114.611 27.7764C114.095 27.4654 113.504 27.3099 112.836 27.3099C112.176 27.3099 111.588 27.4654 111.072 27.7764C110.564 28.0798 110.17 28.5121 109.889 29.0734C109.609 29.6347 109.472 30.2795 109.48 31.0076C109.48 31.7282 109.62 32.3692 109.901 32.9305C110.189 33.4842 110.583 33.9166 111.084 34.2276C111.592 34.531 112.176 34.6827 112.836 34.6827ZM122.814 24.7272H119.356L123.099 37.2655H126.125L128.587 29.2573L131.245 37.2655H134.226L137.981 24.7272H134.852L132.722 32.5315L130.369 24.7272H127.343L125 32.7034L122.814 24.7272Z" fill="black"/>
<path fill-rule="evenodd" clip-rule="evenodd" d="M39.0715 17.249L27.562 39.749H16.7512L21.568 30.424H21.3518C17.3781 35.5825 11.4491 38.9784 3.00122 39.749V30.5531C3.00122 30.5531 8.40553 30.2339 11.5826 26.8937H3.00122V17.2492H12.6457V25.1817L12.8622 25.1808L16.8033 17.2492H24.0972V25.1314L24.3136 25.131L28.4026 17.249H39.0715ZM101.834 37.2655H104.94V19.4365H101.834V37.2655ZM84.7104 37.0835C85.3854 37.3641 86.0719 37.5045 86.7698 37.5045C87.9227 37.5045 88.9543 37.2238 89.8645 36.6625C90.7747 36.1012 91.4802 35.3276 91.9808 34.3415C92.4814 33.3478 92.7317 32.2213 92.7317 30.9622C92.7317 29.7031 92.4738 28.5767 91.958 27.5831C91.4422 26.5894 90.7254 25.8195 89.8075 25.2734C88.8898 24.7197 87.8468 24.4466 86.6787 24.4542C85.9354 24.4542 85.2224 24.5983 84.5397 24.8865C83.857 25.1748 83.2882 25.5844 82.833 26.1153C82.7979 26.1558 82.7638 26.1966 82.7307 26.2378V19.448H79.6132V37.2656H82.7079L82.7017 35.6011C82.7817 35.6992 82.8673 35.7951 82.9582 35.8888C83.4512 36.3971 84.0353 36.7952 84.7104 37.0835ZM87.8962 34.205C87.3879 34.516 86.8077 34.6715 86.1553 34.6715C85.5105 34.6715 84.9189 34.5121 84.3804 34.1936C83.8418 33.8673 83.4133 33.4237 83.0947 32.8623C82.7837 32.3011 82.6282 31.6638 82.6282 30.9508C82.6207 30.2378 82.7723 29.6007 83.0833 29.0394C83.4019 28.4705 83.8304 28.0306 84.369 27.7196C84.9075 27.401 85.503 27.2455 86.1553 27.2531C86.8077 27.2455 87.3879 27.3972 87.8962 27.7082C88.4119 28.0116 88.8063 28.4478 89.0794 29.0167C89.36 29.578 89.5004 30.2227 89.5004 30.9508C89.5004 31.6791 89.36 32.3238 89.0794 32.8851C88.8063 33.4465 88.4119 33.8863 87.8962 34.205ZM43.5713 20.5175H47.1212L50.2967 32.1144L53.6748 20.5175H56.633L60.2967 31.8817L63.3459 20.5175H66.5999L61.7985 37.2656H58.7379L55.0124 26.1636L51.5927 37.2656H48.4979L43.5713 20.5175ZM71.8425 37.5613C70.606 37.5689 69.491 37.2958 68.4974 36.7422C67.5113 36.1808 66.7339 35.4033 66.1649 34.4097C65.6036 33.416 65.323 32.282 65.323 31.0077C65.323 29.7713 65.6112 28.6525 66.1877 27.6513C66.7641 26.65 67.5454 25.8688 68.5315 25.3075C69.5176 24.7462 70.6174 24.4655 71.831 24.4655C73.1964 24.4655 74.391 24.7689 75.415 25.3757C76.4466 25.9825 77.2165 26.8435 77.7247 27.9585C78.2405 29.0659 78.4264 30.3364 78.2822 31.77H68.5364C68.5636 32.3412 68.7061 32.8608 68.9639 33.3288C69.2521 33.8445 69.6541 34.2465 70.1699 34.5348C70.6857 34.823 71.2621 34.9672 71.8994 34.9672C72.3848 34.9595 72.8361 34.8762 73.2533 34.7169C73.6705 34.55 74.0231 34.3263 74.3114 34.0455C74.6072 33.7649 74.8159 33.4464 74.9372 33.0899H78.1913C77.994 33.9622 77.5996 34.7397 77.008 35.4223C76.4162 36.0974 75.673 36.6245 74.7779 37.0038C73.8829 37.383 72.9044 37.5689 71.8425 37.5613ZM68.9753 28.6412C68.7935 28.9581 68.6675 29.2994 68.5974 29.6652H75.0577C75.0109 29.2032 74.8682 28.7822 74.63 28.4022C74.3569 27.9547 73.9853 27.6096 73.515 27.3668C73.0447 27.1165 72.5137 26.9914 71.9221 26.9914C71.2925 26.9914 70.7199 27.1355 70.204 27.4237C69.6882 27.712 69.2786 28.1178 68.9753 28.6412ZM95.019 24.7272C95.019 23.7108 95.2502 22.8082 95.713 22.0193C96.1756 21.2229 96.8242 20.6047 97.6586 20.1647C98.5005 19.7172 99.4829 19.4859 100.605 19.4707V22.2355C100.082 22.2431 99.6345 22.3531 99.2629 22.5655C98.8987 22.7703 98.6181 23.0699 98.4209 23.4643C98.2393 23.8274 98.1414 24.2484 98.127 24.7272H100.537V27.3555H98.1251V37.2656H95.019V27.3555H93.0165V24.7272H95.019ZM112.836 37.5385C111.569 37.5385 110.435 37.2616 109.434 36.708C108.44 36.1466 107.659 35.373 107.09 34.3869C106.529 33.3932 106.248 32.2669 106.248 31.0076C106.248 29.741 106.529 28.6108 107.09 27.6171C107.659 26.6158 108.44 25.8384 109.434 25.2847C110.435 24.7309 111.569 24.4541 112.836 24.4541C114.11 24.4541 115.248 24.7309 116.249 25.2847C117.258 25.8384 118.043 26.6121 118.605 27.6057C119.166 28.5994 119.45 29.7334 119.458 31.0076C119.45 32.2669 119.166 33.3932 118.605 34.3869C118.051 35.373 117.27 36.1466 116.261 36.708C115.252 37.2616 114.11 37.5385 112.836 37.5385ZM112.836 34.6827C113.504 34.6827 114.095 34.531 114.611 34.2276C115.127 33.9166 115.525 33.4842 115.806 32.9305C116.086 32.3692 116.227 31.7282 116.227 31.0076C116.227 30.2795 116.086 29.6347 115.806 29.0734C115.525 28.5121 115.127 28.0798 114.611 27.7764C114.095 27.4654 113.504 27.3099 112.836 27.3099C112.176 27.3099 111.588 27.4654 111.072 27.7764C110.564 28.0798 110.17 28.5121 109.889 29.0734C109.609 29.6347 109.472 30.2795 109.48 31.0076C109.48 31.7282 109.62 32.3692 109.901 32.9305C110.189 33.4842 110.583 33.9166 111.084 34.2276C111.592 34.531 112.176 34.6827 112.836 34.6827ZM122.814 24.7272H119.356L123.099 37.2655H126.125L128.587 29.2573L131.245 37.2655H134.226L137.981 24.7272H134.852L132.722 32.5315L130.369 24.7272H127.343L125 32.7034L122.814 24.7272Z" fill="black"/>
<path d="M39.0715 17.249L27.562 39.749H16.7512L21.568 30.424H21.3518C17.3781 35.5825 11.4491 38.9784 3.00122 39.749V30.5531C3.00122 30.5531 8.40553 30.2339 11.5826 26.8937H3.00122V17.2492H12.6457V25.1817L12.8622 25.1808L16.8033 17.2492H24.0972V25.1314L24.3136 25.131L28.4026 17.249H39.0715ZM101.834 37.2655H104.94V19.4365H101.834V37.2655ZM84.7104 37.0835C85.3854 37.3641 86.0719 37.5045 86.7698 37.5045C87.9227 37.5045 88.9543 37.2238 89.8645 36.6625C90.7747 36.1012 91.4802 35.3276 91.9808 34.3415C92.4814 33.3478 92.7317 32.2213 92.7317 30.9622C92.7317 29.7031 92.4738 28.5767 91.958 27.5831C91.4422 26.5894 90.7254 25.8195 89.8075 25.2734C88.8898 24.7197 87.8468 24.4466 86.6787 24.4542C85.9354 24.4542 85.2224 24.5983 84.5397 24.8865C83.857 25.1748 83.2882 25.5844 82.833 26.1153C82.7979 26.1558 82.7638 26.1966 82.7307 26.2378V19.448H79.6132V37.2656H82.7079L82.7017 35.6011C82.7817 35.6992 82.8673 35.7951 82.9582 35.8888C83.4512 36.3971 84.0353 36.7952 84.7104 37.0835ZM87.8962 34.205C87.3879 34.516 86.8077 34.6715 86.1553 34.6715C85.5105 34.6715 84.9189 34.5121 84.3804 34.1936C83.8418 33.8673 83.4133 33.4237 83.0947 32.8623C82.7837 32.3011 82.6282 31.6638 82.6282 30.9508C82.6207 30.2378 82.7723 29.6007 83.0833 29.0394C83.4019 28.4705 83.8304 28.0306 84.369 27.7196C84.9075 27.401 85.503 27.2455 86.1553 27.2531C86.8077 27.2455 87.3879 27.3972 87.8962 27.7082C88.4119 28.0116 88.8063 28.4478 89.0794 29.0167C89.36 29.578 89.5004 30.2227 89.5004 30.9508C89.5004 31.6791 89.36 32.3238 89.0794 32.8851C88.8063 33.4465 88.4119 33.8863 87.8962 34.205ZM43.5713 20.5175H47.1212L50.2967 32.1144L53.6748 20.5175H56.633L60.2967 31.8817L63.3459 20.5175H66.5999L61.7985 37.2656H58.7379L55.0124 26.1636L51.5927 37.2656H48.4979L43.5713 20.5175ZM71.8425 37.5613C70.606 37.5689 69.491 37.2958 68.4974 36.7422C67.5113 36.1808 66.7339 35.4033 66.1649 34.4097C65.6036 33.416 65.323 32.282 65.323 31.0077C65.323 29.7713 65.6112 28.6525 66.1877 27.6513C66.7641 26.65 67.5454 25.8688 68.5315 25.3075C69.5176 24.7462 70.6174 24.4655 71.831 24.4655C73.1964 24.4655 74.391 24.7689 75.415 25.3757C76.4466 25.9825 77.2165 26.8435 77.7247 27.9585C78.2405 29.0659 78.4264 30.3364 78.2822 31.77H68.5364C68.5636 32.3412 68.7061 32.8608 68.9639 33.3288C69.2521 33.8445 69.6541 34.2465 70.1699 34.5348C70.6857 34.823 71.2621 34.9672 71.8994 34.9672C72.3848 34.9595 72.8361 34.8762 73.2533 34.7169C73.6705 34.55 74.0231 34.3263 74.3114 34.0455C74.6072 33.7649 74.8159 33.4464 74.9372 33.0899H78.1913C77.994 33.9622 77.5996 34.7397 77.008 35.4223C76.4162 36.0974 75.673 36.6245 74.7779 37.0038C73.8829 37.383 72.9044 37.5689 71.8425 37.5613ZM68.9753 28.6412C68.7935 28.9581 68.6675 29.2994 68.5974 29.6652H75.0577C75.0109 29.2032 74.8682 28.7822 74.63 28.4022C74.3569 27.9547 73.9853 27.6096 73.515 27.3668C73.0447 27.1165 72.5137 26.9914 71.9221 26.9914C71.2925 26.9914 70.7199 27.1355 70.204 27.4237C69.6882 27.712 69.2786 28.1178 68.9753 28.6412ZM95.019 24.7272C95.019 23.7108 95.2502 22.8082 95.713 22.0193C96.1756 21.2229 96.8242 20.6047 97.6586 20.1647C98.5005 19.7172 99.4829 19.4859 100.605 19.4707V22.2355C100.082 22.2431 99.6345 22.3531 99.2629 22.5655C98.8987 22.7703 98.6181 23.0699 98.4209 23.4643C98.2393 23.8274 98.1414 24.2484 98.127 24.7272H100.537V27.3555H98.1251V37.2656H95.019V27.3555H93.0165V24.7272H95.019ZM112.836 37.5385C111.569 37.5385 110.435 37.2616 109.434 36.708C108.44 36.1466 107.659 35.373 107.09 34.3869C106.529 33.3932 106.248 32.2669 106.248 31.0076C106.248 29.741 106.529 28.6108 107.09 27.6171C107.659 26.6158 108.44 25.8384 109.434 25.2847C110.435 24.7309 111.569 24.4541 112.836 24.4541C114.11 24.4541 115.248 24.7309 116.249 25.2847C117.258 25.8384 118.043 26.6121 118.605 27.6057C119.166 28.5994 119.45 29.7334 119.458 31.0076C119.45 32.2669 119.166 33.3932 118.605 34.3869C118.051 35.373 117.27 36.1466 116.261 36.708C115.252 37.2616 114.11 37.5385 112.836 37.5385ZM112.836 34.6827C113.504 34.6827 114.095 34.531 114.611 34.2276C115.127 33.9166 115.525 33.4842 115.806 32.9305C116.086 32.3692 116.227 31.7282 116.227 31.0076C116.227 30.2795 116.086 29.6347 115.806 29.0734C115.525 28.5121 115.127 28.0798 114.611 27.7764C114.095 27.4654 113.504 27.3099 112.836 27.3099C112.176 27.3099 111.588 27.4654 111.072 27.7764C110.564 28.0798 110.17 28.5121 109.889 29.0734C109.609 29.6347 109.472 30.2795 109.48 31.0076C109.48 31.7282 109.62 32.3692 109.901 32.9305C110.189 33.4842 110.583 33.9166 111.084 34.2276C111.592 34.531 112.176 34.6827 112.836 34.6827ZM122.814 24.7272H119.356L123.099 37.2655H126.125L128.587 29.2573L131.245 37.2655H134.226L137.981 24.7272H134.852L132.722 32.5315L130.369 24.7272H127.343L125 32.7034L122.814 24.7272Z" fill="black"/>
<path fill-rule="evenodd" clip-rule="evenodd" d="M39.0715 17.249L27.562 39.749H16.7512L21.568 30.424H21.3518C17.3781 35.5825 11.4491 38.9784 3.00122 39.749V30.5531C3.00122 30.5531 8.40553 30.2339 11.5826 26.8937H3.00122V17.2492H12.6457V25.1817L12.8622 25.1808L16.8033 17.2492H24.0972V25.1314L24.3136 25.131L28.4026 17.249H39.0715ZM101.834 37.2655H104.94V19.4365H101.834V37.2655ZM84.7104 37.0835C85.3854 37.3641 86.0719 37.5045 86.7698 37.5045C87.9227 37.5045 88.9543 37.2238 89.8645 36.6625C90.7747 36.1012 91.4802 35.3276 91.9808 34.3415C92.4814 33.3478 92.7317 32.2213 92.7317 30.9622C92.7317 29.7031 92.4738 28.5767 91.958 27.5831C91.4422 26.5894 90.7254 25.8195 89.8075 25.2734C88.8898 24.7197 87.8468 24.4466 86.6787 24.4542C85.9354 24.4542 85.2224 24.5983 84.5397 24.8865C83.857 25.1748 83.2882 25.5844 82.833 26.1153C82.7979 26.1558 82.7638 26.1966 82.7307 26.2378V19.448H79.6132V37.2656H82.7079L82.7017 35.6011C82.7817 35.6992 82.8673 35.7951 82.9582 35.8888C83.4512 36.3971 84.0353 36.7952 84.7104 37.0835ZM87.8962 34.205C87.3879 34.516 86.8077 34.6715 86.1553 34.6715C85.5105 34.6715 84.9189 34.5121 84.3804 34.1936C83.8418 33.8673 83.4133 33.4237 83.0947 32.8623C82.7837 32.3011 82.6282 31.6638 82.6282 30.9508C82.6207 30.2378 82.7723 29.6007 83.0833 29.0394C83.4019 28.4705 83.8304 28.0306 84.369 27.7196C84.9075 27.401 85.503 27.2455 86.1553 27.2531C86.8077 27.2455 87.3879 27.3972 87.8962 27.7082C88.4119 28.0116 88.8063 28.4478 89.0794 29.0167C89.36 29.578 89.5004 30.2227 89.5004 30.9508C89.5004 31.6791 89.36 32.3238 89.0794 32.8851C88.8063 33.4465 88.4119 33.8863 87.8962 34.205ZM43.5713 20.5175H47.1212L50.2967 32.1144L53.6748 20.5175H56.633L60.2967 31.8817L63.3459 20.5175H66.5999L61.7985 37.2656H58.7379L55.0124 26.1636L51.5927 37.2656H48.4979L43.5713 20.5175ZM71.8425 37.5613C70.606 37.5689 69.491 37.2958 68.4974 36.7422C67.5113 36.1808 66.7339 35.4033 66.1649 34.4097C65.6036 33.416 65.323 32.282 65.323 31.0077C65.323 29.7713 65.6112 28.6525 66.1877 27.6513C66.7641 26.65 67.5454 25.8688 68.5315 25.3075C69.5176 24.7462 70.6174 24.4655 71.831 24.4655C73.1964 24.4655 74.391 24.7689 75.415 25.3757C76.4466 25.9825 77.2165 26.8435 77.7247 27.9585C78.2405 29.0659 78.4264 30.3364 78.2822 31.77H68.5364C68.5636 32.3412 68.7061 32.8608 68.9639 33.3288C69.2521 33.8445 69.6541 34.2465 70.1699 34.5348C70.6857 34.823 71.2621 34.9672 71.8994 34.9672C72.3848 34.9595 72.8361 34.8762 73.2533 34.7169C73.6705 34.55 74.0231 34.3263 74.3114 34.0455C74.6072 33.7649 74.8159 33.4464 74.9372 33.0899H78.1913C77.994 33.9622 77.5996 34.7397 77.008 35.4223C76.4162 36.0974 75.673 36.6245 74.7779 37.0038C73.8829 37.383 72.9044 37.5689 71.8425 37.5613ZM68.9753 28.6412C68.7935 28.9581 68.6675 29.2994 68.5974 29.6652H75.0577C75.0109 29.2032 74.8682 28.7822 74.63 28.4022C74.3569 27.9547 73.9853 27.6096 73.515 27.3668C73.0447 27.1165 72.5137 26.9914 71.9221 26.9914C71.2925 26.9914 70.7199 27.1355 70.204 27.4237C69.6882 27.712 69.2786 28.1178 68.9753 28.6412ZM95.019 24.7272C95.019 23.7108 95.2502 22.8082 95.713 22.0193C96.1756 21.2229 96.8242 20.6047 97.6586 20.1647C98.5005 19.7172 99.4829 19.4859 100.605 19.4707V22.2355C100.082 22.2431 99.6345 22.3531 99.2629 22.5655C98.8987 22.7703 98.6181 23.0699 98.4209 23.4643C98.2393 23.8274 98.1414 24.2484 98.127 24.7272H100.537V27.3555H98.1251V37.2656H95.019V27.3555H93.0165V24.7272H95.019ZM112.836 37.5385C111.569 37.5385 110.435 37.2616 109.434 36.708C108.44 36.1466 107.659 35.373 107.09 34.3869C106.529 33.3932 106.248 32.2669 106.248 31.0076C106.248 29.741 106.529 28.6108 107.09 27.6171C107.659 26.6158 108.44 25.8384 109.434 25.2847C110.435 24.7309 111.569 24.4541 112.836 24.4541C114.11 24.4541 115.248 24.7309 116.249 25.2847C117.258 25.8384 118.043 26.6121 118.605 27.6057C119.166 28.5994 119.45 29.7334 119.458 31.0076C119.45 32.2669 119.166 33.3932 118.605 34.3869C118.051 35.373 117.27 36.1466 116.261 36.708C115.252 37.2616 114.11 37.5385 112.836 37.5385ZM112.836 34.6827C113.504 34.6827 114.095 34.531 114.611 34.2276C115.127 33.9166 115.525 33.4842 115.806 32.9305C116.086 32.3692 116.227 31.7282 116.227 31.0076C116.227 30.2795 116.086 29.6347 115.806 29.0734C115.525 28.5121 115.127 28.0798 114.611 27.7764C114.095 27.4654 113.504 27.3099 112.836 27.3099C112.176 27.3099 111.588 27.4654 111.072 27.7764C110.564 28.0798 110.17 28.5121 109.889 29.0734C109.609 29.6347 109.472 30.2795 109.48 31.0076C109.48 31.7282 109.62 32.3692 109.901 32.9305C110.189 33.4842 110.583 33.9166 111.084 34.2276C111.592 34.531 112.176 34.6827 112.836 34.6827ZM122.814 24.7272H119.356L123.099 37.2655H126.125L128.587 29.2573L131.245 37.2655H134.226L137.981 24.7272H134.852L132.722 32.5315L130.369 24.7272H127.343L125 32.7034L122.814 24.7272Z" fill="black"/>
<path d="M39.0715 17.249L27.562 39.749H16.7512L21.568 30.424H21.3518C17.3781 35.5825 11.4491 38.9784 3.00122 39.749V30.5531C3.00122 30.5531 8.40553 30.2339 11.5826 26.8937H3.00122V17.2492H12.6457V25.1817L12.8622 25.1808L16.8033 17.2492H24.0972V25.1314L24.3136 25.131L28.4026 17.249H39.0715ZM101.834 37.2655H104.94V19.4365H101.834V37.2655ZM84.7104 37.0835C85.3854 37.3641 86.0719 37.5045 86.7698 37.5045C87.9227 37.5045 88.9543 37.2238 89.8645 36.6625C90.7747 36.1012 91.4802 35.3276 91.9808 34.3415C92.4814 33.3478 92.7317 32.2213 92.7317 30.9622C92.7317 29.7031 92.4738 28.5767 91.958 27.5831C91.4422 26.5894 90.7254 25.8195 89.8075 25.2734C88.8898 24.7197 87.8468 24.4466 86.6787 24.4542C85.9354 24.4542 85.2224 24.5983 84.5397 24.8865C83.857 25.1748 83.2882 25.5844 82.833 26.1153C82.7979 26.1558 82.7638 26.1966 82.7307 26.2378V19.448H79.6132V37.2656H82.7079L82.7017 35.6011C82.7817 35.6992 82.8673 35.7951 82.9582 35.8888C83.4512 36.3971 84.0353 36.7952 84.7104 37.0835ZM87.8962 34.205C87.3879 34.516 86.8077 34.6715 86.1553 34.6715C85.5105 34.6715 84.9189 34.5121 84.3804 34.1936C83.8418 33.8673 83.4133 33.4237 83.0947 32.8623C82.7837 32.3011 82.6282 31.6638 82.6282 30.9508C82.6207 30.2378 82.7723 29.6007 83.0833 29.0394C83.4019 28.4705 83.8304 28.0306 84.369 27.7196C84.9075 27.401 85.503 27.2455 86.1553 27.2531C86.8077 27.2455 87.3879 27.3972 87.8962 27.7082C88.4119 28.0116 88.8063 28.4478 89.0794 29.0167C89.36 29.578 89.5004 30.2227 89.5004 30.9508C89.5004 31.6791 89.36 32.3238 89.0794 32.8851C88.8063 33.4465 88.4119 33.8863 87.8962 34.205ZM43.5713 20.5175H47.1212L50.2967 32.1144L53.6748 20.5175H56.633L60.2967 31.8817L63.3459 20.5175H66.5999L61.7985 37.2656H58.7379L55.0124 26.1636L51.5927 37.2656H48.4979L43.5713 20.5175ZM71.8425 37.5613C70.606 37.5689 69.491 37.2958 68.4974 36.7422C67.5113 36.1808 66.7339 35.4033 66.1649 34.4097C65.6036 33.416 65.323 32.282 65.323 31.0077C65.323 29.7713 65.6112 28.6525 66.1877 27.6513C66.7641 26.65 67.5454 25.8688 68.5315 25.3075C69.5176 24.7462 70.6174 24.4655 71.831 24.4655C73.1964 24.4655 74.391 24.7689 75.415 25.3757C76.4466 25.9825 77.2165 26.8435 77.7247 27.9585C78.2405 29.0659 78.4264 30.3364 78.2822 31.77H68.5364C68.5636 32.3412 68.7061 32.8608 68.9639 33.3288C69.2521 33.8445 69.6541 34.2465 70.1699 34.5348C70.6857 34.823 71.2621 34.9672 71.8994 34.9672C72.3848 34.9595 72.8361 34.8762 73.2533 34.7169C73.6705 34.55 74.0231 34.3263 74.3114 34.0455C74.6072 33.7649 74.8159 33.4464 74.9372 33.0899H78.1913C77.994 33.9622 77.5996 34.7397 77.008 35.4223C76.4162 36.0974 75.673 36.6245 74.7779 37.0038C73.8829 37.383 72.9044 37.5689 71.8425 37.5613ZM68.9753 28.6412C68.7935 28.9581 68.6675 29.2994 68.5974 29.6652H75.0577C75.0109 29.2032 74.8682 28.7822 74.63 28.4022C74.3569 27.9547 73.9853 27.6096 73.515 27.3668C73.0447 27.1165 72.5137 26.9914 71.9221 26.9914C71.2925 26.9914 70.7199 27.1355 70.204 27.4237C69.6882 27.712 69.2786 28.1178 68.9753 28.6412ZM95.019 24.7272C95.019 23.7108 95.2502 22.8082 95.713 22.0193C96.1756 21.2229 96.8242 20.6047 97.6586 20.1647C98.5005 19.7172 99.4829 19.4859 100.605 19.4707V22.2355C100.082 22.2431 99.6345 22.3531 99.2629 22.5655C98.8987 22.7703 98.6181 23.0699 98.4209 23.4643C98.2393 23.8274 98.1414 24.2484 98.127 24.7272H100.537V27.3555H98.1251V37.2656H95.019V27.3555H93.0165V24.7272H95.019ZM112.836 37.5385C111.569 37.5385 110.435 37.2616 109.434 36.708C108.44 36.1466 107.659 35.373 107.09 34.3869C106.529 33.3932 106.248 32.2669 106.248 31.0076C106.248 29.741 106.529 28.6108 107.09 27.6171C107.659 26.6158 108.44 25.8384 109.434 25.2847C110.435 24.7309 111.569 24.4541 112.836 24.4541C114.11 24.4541 115.248 24.7309 116.249 25.2847C117.258 25.8384 118.043 26.6121 118.605 27.6057C119.166 28.5994 119.45 29.7334 119.458 31.0076C119.45 32.2669 119.166 33.3932 118.605 34.3869C118.051 35.373 117.27 36.1466 116.261 36.708C115.252 37.2616 114.11 37.5385 112.836 37.5385ZM112.836 34.6827C113.504 34.6827 114.095 34.531 114.611 34.2276C115.127 33.9166 115.525 33.4842 115.806 32.9305C116.086 32.3692 116.227 31.7282 116.227 31.0076C116.227 30.2795 116.086 29.6347 115.806 29.0734C115.525 28.5121 115.127 28.0798 114.611 27.7764C114.095 27.4654 113.504 27.3099 112.836 27.3099C112.176 27.3099 111.588 27.4654 111.072 27.7764C110.564 28.0798 110.17 28.5121 109.889 29.0734C109.609 29.6347 109.472 30.2795 109.48 31.0076C109.48 31.7282 109.62 32.3692 109.901 32.9305C110.189 33.4842 110.583 33.9166 111.084 34.2276C111.592 34.531 112.176 34.6827 112.836 34.6827ZM122.814 24.7272H119.356L123.099 37.2655H126.125L128.587 29.2573L131.245 37.2655H134.226L137.981 24.7272H134.852L132.722 32.5315L130.369 24.7272H127.343L125 32.7034L122.814 24.7272Z" fill="black"/>
<path fill-rule="evenodd" clip-rule="evenodd" d="M39.0715 17.249L27.562 39.749H16.7512L21.568 30.424H21.3518C17.3781 35.5825 11.4491 38.9784 3.00122 39.749V30.5531C3.00122 30.5531 8.40553 30.2339 11.5826 26.8937H3.00122V17.2492H12.6457V25.1817L12.8622 25.1808L16.8033 17.2492H24.0972V25.1314L24.3136 25.131L28.4026 17.249H39.0715ZM101.834 37.2655H104.94V19.4365H101.834V37.2655ZM84.7104 37.0835C85.3854 37.3641 86.0719 37.5045 86.7698 37.5045C87.9227 37.5045 88.9543 37.2238 89.8645 36.6625C90.7747 36.1012 91.4802 35.3276 91.9808 34.3415C92.4814 33.3478 92.7317 32.2213 92.7317 30.9622C92.7317 29.7031 92.4738 28.5767 91.958 27.5831C91.4422 26.5894 90.7254 25.8195 89.8075 25.2734C88.8898 24.7197 87.8468 24.4466 86.6787 24.4542C85.9354 24.4542 85.2224 24.5983 84.5397 24.8865C83.857 25.1748 83.2882 25.5844 82.833 26.1153C82.7979 26.1558 82.7638 26.1966 82.7307 26.2378V19.448H79.6132V37.2656H82.7079L82.7017 35.6011C82.7817 35.6992 82.8673 35.7951 82.9582 35.8888C83.4512 36.3971 84.0353 36.7952 84.7104 37.0835ZM87.8962 34.205C87.3879 34.516 86.8077 34.6715 86.1553 34.6715C85.5105 34.6715 84.9189 34.5121 84.3804 34.1936C83.8418 33.8673 83.4133 33.4237 83.0947 32.8623C82.7837 32.3011 82.6282 31.6638 82.6282 30.9508C82.6207 30.2378 82.7723 29.6007 83.0833 29.0394C83.4019 28.4705 83.8304 28.0306 84.369 27.7196C84.9075 27.401 85.503 27.2455 86.1553 27.2531C86.8077 27.2455 87.3879 27.3972 87.8962 27.7082C88.4119 28.0116 88.8063 28.4478 89.0794 29.0167C89.36 29.578 89.5004 30.2227 89.5004 30.9508C89.5004 31.6791 89.36 32.3238 89.0794 32.8851C88.8063 33.4465 88.4119 33.8863 87.8962 34.205ZM43.5713 20.5175H47.1212L50.2967 32.1144L53.6748 20.5175H56.633L60.2967 31.8817L63.3459 20.5175H66.5999L61.7985 37.2656H58.7379L55.0124 26.1636L51.5927 37.2656H48.4979L43.5713 20.5175ZM71.8425 37.5613C70.606 37.5689 69.491 37.2958 68.4974 36.7422C67.5113 36.1808 66.7339 35.4033 66.1649 34.4097C65.6036 33.416 65.323 32.282 65.323 31.0077C65.323 29.7713 65.6112 28.6525 66.1877 27.6513C66.7641 26.65 67.5454 25.8688 68.5315 25.3075C69.5176 24.7462 70.6174 24.4655 71.831 24.4655C73.1964 24.4655 74.391 24.7689 75.415 25.3757C76.4466 25.9825 77.2165 26.8435 77.7247 27.9585C78.2405 29.0659 78.4264 30.3364 78.2822 31.77H68.5364C68.5636 32.3412 68.7061 32.8608 68.9639 33.3288C69.2521 33.8445 69.6541 34.2465 70.1699 34.5348C70.6857 34.823 71.2621 34.9672 71.8994 34.9672C72.3848 34.9595 72.8361 34.8762 73.2533 34.7169C73.6705 34.55 74.0231 34.3263 74.3114 34.0455C74.6072 33.7649 74.8159 33.4464 74.9372 33.0899H78.1913C77.994 33.9622 77.5996 34.7397 77.008 35.4223C76.4162 36.0974 75.673 36.6245 74.7779 37.0038C73.8829 37.383 72.9044 37.5689 71.8425 37.5613ZM68.9753 28.6412C68.7935 28.9581 68.6675 29.2994 68.5974 29.6652H75.0577C75.0109 29.2032 74.8682 28.7822 74.63 28.4022C74.3569 27.9547 73.9853 27.6096 73.515 27.3668C73.0447 27.1165 72.5137 26.9914 71.9221 26.9914C71.2925 26.9914 70.7199 27.1355 70.204 27.4237C69.6882 27.712 69.2786 28.1178 68.9753 28.6412ZM95.019 24.7272C95.019 23.7108 95.2502 22.8082 95.713 22.0193C96.1756 21.2229 96.8242 20.6047 97.6586 20.1647C98.5005 19.7172 99.4829 19.4859 100.605 19.4707V22.2355C100.082 22.2431 99.6345 22.3531 99.2629 22.5655C98.8987 22.7703 98.6181 23.0699 98.4209 23.4643C98.2393 23.8274 98.1414 24.2484 98.127 24.7272H100.537V27.3555H98.1251V37.2656H95.019V27.3555H93.0165V24.7272H95.019ZM112.836 37.5385C111.569 37.5385 110.435 37.2616 109.434 36.708C108.44 36.1466 107.659 35.373 107.09 34.3869C106.529 33.3932 106.248 32.2669 106.248 31.0076C106.248 29.741 106.529 28.6108 107.09 27.6171C107.659 26.6158 108.44 25.8384 109.434 25.2847C110.435 24.7309 111.569 24.4541 112.836 24.4541C114.11 24.4541 115.248 24.7309 116.249 25.2847C117.258 25.8384 118.043 26.6121 118.605 27.6057C119.166 28.5994 119.45 29.7334 119.458 31.0076C119.45 32.2669 119.166 33.3932 118.605 34.3869C118.051 35.373 117.27 36.1466 116.261 36.708C115.252 37.2616 114.11 37.5385 112.836 37.5385ZM112.836 34.6827C113.504 34.6827 114.095 34.531 114.611 34.2276C115.127 33.9166 115.525 33.4842 115.806 32.9305C116.086 32.3692 116.227 31.7282 116.227 31.0076C116.227 30.2795 116.086 29.6347 115.806 29.0734C115.525 28.5121 115.127 28.0798 114.611 27.7764C114.095 27.4654 113.504 27.3099 112.836 27.3099C112.176 27.3099 111.588 27.4654 111.072 27.7764C110.564 28.0798 110.17 28.5121 109.889 29.0734C109.609 29.6347 109.472 30.2795 109.48 31.0076C109.48 31.7282 109.62 32.3692 109.901 32.9305C110.189 33.4842 110.583 33.9166 111.084 34.2276C111.592 34.531 112.176 34.6827 112.836 34.6827ZM122.814 24.7272H119.356L123.099 37.2655H126.125L128.587 29.2573L131.245 37.2655H134.226L137.981 24.7272H134.852L132.722 32.5315L130.369 24.7272H127.343L125 32.7034L122.814 24.7272Z" fill="black"/>
<path d="M39.0715 17.249L27.562 39.749H16.7512L21.568 30.424H21.3518C17.3781 35.5825 11.4491 38.9784 3.00122 39.749V30.5531C3.00122 30.5531 8.40553 30.2339 11.5826 26.8937H3.00122V17.2492H12.6457V25.1817L12.8622 25.1808L16.8033 17.2492H24.0972V25.1314L24.3136 25.131L28.4026 17.249H39.0715ZM101.834 37.2655H104.94V19.4365H101.834V37.2655ZM84.7104 37.0835C85.3854 37.3641 86.0719 37.5045 86.7698 37.5045C87.9227 37.5045 88.9543 37.2238 89.8645 36.6625C90.7747 36.1012 91.4802 35.3276 91.9808 34.3415C92.4814 33.3478 92.7317 32.2213 92.7317 30.9622C92.7317 29.7031 92.4738 28.5767 91.958 27.5831C91.4422 26.5894 90.7254 25.8195 89.8075 25.2734C88.8898 24.7197 87.8468 24.4466 86.6787 24.4542C85.9354 24.4542 85.2224 24.5983 84.5397 24.8865C83.857 25.1748 83.2882 25.5844 82.833 26.1153C82.7979 26.1558 82.7638 26.1966 82.7307 26.2378V19.448H79.6132V37.2656H82.7079L82.7017 35.6011C82.7817 35.6992 82.8673 35.7951 82.9582 35.8888C83.4512 36.3971 84.0353 36.7952 84.7104 37.0835ZM87.8962 34.205C87.3879 34.516 86.8077 34.6715 86.1553 34.6715C85.5105 34.6715 84.9189 34.5121 84.3804 34.1936C83.8418 33.8673 83.4133 33.4237 83.0947 32.8623C82.7837 32.3011 82.6282 31.6638 82.6282 30.9508C82.6207 30.2378 82.7723 29.6007 83.0833 29.0394C83.4019 28.4705 83.8304 28.0306 84.369 27.7196C84.9075 27.401 85.503 27.2455 86.1553 27.2531C86.8077 27.2455 87.3879 27.3972 87.8962 27.7082C88.4119 28.0116 88.8063 28.4478 89.0794 29.0167C89.36 29.578 89.5004 30.2227 89.5004 30.9508C89.5004 31.6791 89.36 32.3238 89.0794 32.8851C88.8063 33.4465 88.4119 33.8863 87.8962 34.205ZM43.5713 20.5175H47.1212L50.2967 32.1144L53.6748 20.5175H56.633L60.2967 31.8817L63.3459 20.5175H66.5999L61.7985 37.2656H58.7379L55.0124 26.1636L51.5927 37.2656H48.4979L43.5713 20.5175ZM71.8425 37.5613C70.606 37.5689 69.491 37.2958 68.4974 36.7422C67.5113 36.1808 66.7339 35.4033 66.1649 34.4097C65.6036 33.416 65.323 32.282 65.323 31.0077C65.323 29.7713 65.6112 28.6525 66.1877 27.6513C66.7641 26.65 67.5454 25.8688 68.5315 25.3075C69.5176 24.7462 70.6174 24.4655 71.831 24.4655C73.1964 24.4655 74.391 24.7689 75.415 25.3757C76.4466 25.9825 77.2165 26.8435 77.7247 27.9585C78.2405 29.0659 78.4264 30.3364 78.2822 31.77H68.5364C68.5636 32.3412 68.7061 32.8608 68.9639 33.3288C69.2521 33.8445 69.6541 34.2465 70.1699 34.5348C70.6857 34.823 71.2621 34.9672 71.8994 34.9672C72.3848 34.9595 72.8361 34.8762 73.2533 34.7169C73.6705 34.55 74.0231 34.3263 74.3114 34.0455C74.6072 33.7649 74.8159 33.4464 74.9372 33.0899H78.1913C77.994 33.9622 77.5996 34.7397 77.008 35.4223C76.4162 36.0974 75.673 36.6245 74.7779 37.0038C73.8829 37.383 72.9044 37.5689 71.8425 37.5613ZM68.9753 28.6412C68.7935 28.9581 68.6675 29.2994 68.5974 29.6652H75.0577C75.0109 29.2032 74.8682 28.7822 74.63 28.4022C74.3569 27.9547 73.9853 27.6096 73.515 27.3668C73.0447 27.1165 72.5137 26.9914 71.9221 26.9914C71.2925 26.9914 70.7199 27.1355 70.204 27.4237C69.6882 27.712 69.2786 28.1178 68.9753 28.6412ZM95.019 24.7272C95.019 23.7108 95.2502 22.8082 95.713 22.0193C96.1756 21.2229 96.8242 20.6047 97.6586 20.1647C98.5005 19.7172 99.4829 19.4859 100.605 19.4707V22.2355C100.082 22.2431 99.6345 22.3531 99.2629 22.5655C98.8987 22.7703 98.6181 23.0699 98.4209 23.4643C98.2393 23.8274 98.1414 24.2484 98.127 24.7272H100.537V27.3555H98.1251V37.2656H95.019V27.3555H93.0165V24.7272H95.019ZM112.836 37.5385C111.569 37.5385 110.435 37.2616 109.434 36.708C108.44 36.1466 107.659 35.373 107.09 34.3869C106.529 33.3932 106.248 32.2669 106.248 31.0076C106.248 29.741 106.529 28.6108 107.09 27.6171C107.659 26.6158 108.44 25.8384 109.434 25.2847C110.435 24.7309 111.569 24.4541 112.836 24.4541C114.11 24.4541 115.248 24.7309 116.249 25.2847C117.258 25.8384 118.043 26.6121 118.605 27.6057C119.166 28.5994 119.45 29.7334 119.458 31.0076C119.45 32.2669 119.166 33.3932 118.605 34.3869C118.051 35.373 117.27 36.1466 116.261 36.708C115.252 37.2616 114.11 37.5385 112.836 37.5385ZM112.836 34.6827C113.504 34.6827 114.095 34.531 114.611 34.2276C115.127 33.9166 115.525 33.4842 115.806 32.9305C116.086 32.3692 116.227 31.7282 116.227 31.0076C116.227 30.2795 116.086 29.6347 115.806 29.0734C115.525 28.5121 115.127 28.0798 114.611 27.7764C114.095 27.4654 113.504 27.3099 112.836 27.3099C112.176 27.3099 111.588 27.4654 111.072 27.7764C110.564 28.0798 110.17 28.5121 109.889 29.0734C109.609 29.6347 109.472 30.2795 109.48 31.0076C109.48 31.7282 109.62 32.3692 109.901 32.9305C110.189 33.4842 110.583 33.9166 111.084 34.2276C111.592 34.531 112.176 34.6827 112.836 34.6827ZM122.814 24.7272H119.356L123.099 37.2655H126.125L128.587 29.2573L131.245 37.2655H134.226L137.981 24.7272H134.852L132.722 32.5315L130.369 24.7272H127.343L125 32.7034L122.814 24.7272Z" fill="black"/>
</svg>
