<svg width="140" height="57" viewBox="0 0 140 57" fill="none" xmlns="http://www.w3.org/2000/svg">
<path fill-rule="evenodd" clip-rule="evenodd" d="M35.5532 19.7345L35.8043 20.183C36.1205 20.7279 36.2876 21.3466 36.2886 21.9766V35.8781C36.2835 36.5076 36.1167 37.1253 35.8043 37.6719L35.5353 38.1203C35.228 38.6693 34.7748 39.1224 34.2259 39.4297L22.1899 46.3894C21.6449 46.7055 21.0263 46.8725 20.3962 46.8737H19.8939C19.263 46.8796 18.6425 46.7121 18.1002 46.3894L6.04632 39.4477C5.50907 39.1252 5.05939 38.6755 4.7369 38.1382L4.48578 37.6898C4.16962 37.1448 4.00258 36.5261 4.00146 35.8961V21.9946C4.00258 21.3646 4.16962 20.7459 4.48578 20.2009L4.7369 19.7525C5.05126 19.2089 5.50277 18.7573 6.04632 18.443L18.0822 11.4833C18.6273 11.1672 19.2459 11.0002 19.876 10.999H20.3962C21.0263 11.0002 21.6449 11.1672 22.1899 11.4833L34.2259 18.4251C34.7725 18.7415 35.2294 19.1922 35.5532 19.7345ZM20.3962 14.5864H19.876L9.38269 20.6493L20.145 26.8555L30.9075 20.6493L20.3962 14.5864ZM32.4321 36.3267L21.9388 42.3895V29.9768L32.7011 23.7526V35.8782L32.4321 36.3267ZM83.0647 37.5465H79.3452V17.9159H83.0647V37.5465ZM49.5015 37.9673H53.6601V30.8383H55.4681L59.885 37.9673H64.3277L59.446 30.1151C61.6157 29.4693 63.2429 27.997 63.2429 25.2074V25.1041C63.2429 21.2813 60.4792 19.499 56.1139 19.499H49.5015V37.9673ZM53.6601 27.997V22.7019H56.0106C58.0253 22.7019 59.1619 23.3477 59.1619 25.2332V25.3366C59.1619 27.1188 58.1028 27.997 56.0106 27.997H53.6601ZM71.082 37.8299C74.7757 37.8299 77.1003 36.2027 77.5394 33.2839H74.0008C73.7683 34.4204 72.9159 35.1695 71.1854 35.1695C69.1448 35.1695 67.9308 33.878 67.8275 31.6309H77.5653V30.5977C77.5653 25.7674 74.4657 23.7269 70.9787 23.7269C67.0526 23.7269 64.0305 26.4907 64.0305 30.7526V30.9592C64.0305 35.2728 67.0009 37.8299 71.082 37.8299ZM67.8791 29.332C68.1632 27.4205 69.2998 26.3099 70.9787 26.3099C72.761 26.3099 73.7942 27.2914 73.9233 29.332H67.8791ZM90.1999 37.831C92.4215 37.831 93.79 36.7978 94.4874 35.4289V37.5469H98.207V24.038H94.4874V31.9677C94.4874 33.9567 93.2475 34.9381 91.6726 34.9381C90.0713 34.9381 89.3214 34.0599 89.3214 32.226V24.038H85.6024V32.7426C85.6024 36.2813 87.5653 37.831 90.1999 37.831ZM104.492 37.5458H100.746V24.0369H104.492V26.1032C105.163 24.8376 106.61 23.7269 108.625 23.7269C110.407 23.7269 111.75 24.476 112.396 26.0774C113.481 24.4501 115.237 23.7269 116.942 23.7269C119.448 23.7269 121.385 25.3025 121.385 28.8929V37.5458H117.665V29.3062C117.665 27.5755 116.89 26.8006 115.547 26.8006C114.1 26.8006 112.938 27.7306 112.938 29.5645V37.5458H109.219V29.3062C109.219 27.5755 108.418 26.8006 107.1 26.8006C105.654 26.8006 104.492 27.7306 104.492 29.5645V37.5458ZM130.033 37.8299C133.727 37.8299 136.052 36.2027 136.49 33.2839H132.952C132.719 34.4204 131.867 35.1695 130.136 35.1695C128.096 35.1695 126.882 33.878 126.779 31.6309H136.517V30.5977C136.517 25.7674 133.417 23.7269 129.93 23.7269C126.004 23.7269 122.981 26.4907 122.981 30.7526V30.9592C122.981 35.2728 125.952 37.8299 130.033 37.8299ZM126.83 29.332C127.115 27.4205 128.251 26.3099 129.93 26.3099C131.712 26.3099 132.745 27.2914 132.875 29.332H126.83Z" fill="black"/>
</svg>
