<svg width="141" height="57" viewBox="0 0 141 57" fill="none" xmlns="http://www.w3.org/2000/svg">
<path fill-rule="evenodd" clip-rule="evenodd" d="M36.052 19.735L36.3031 20.1835C36.6193 20.7284 36.7864 21.3471 36.7874 21.9771V35.8786C36.7822 36.5081 36.6155 37.1257 36.3031 37.6724L36.034 38.1208C35.7268 38.6698 35.2736 39.1229 34.7247 39.4302L22.6887 46.3899C22.1437 46.706 21.525 46.873 20.895 46.8742H20.3927C19.7617 46.8801 19.1413 46.7126 18.599 46.3899L6.5451 39.4482C6.00785 39.1256 5.55817 38.676 5.23568 38.1387L4.98455 37.6903C4.6684 37.1453 4.50136 36.5266 4.50024 35.8966V21.9951C4.50136 21.3651 4.6684 20.7464 4.98455 20.2014L5.23568 19.753C5.55004 19.2094 6.00155 18.7578 6.5451 18.4435L18.581 11.4838C19.1261 11.1677 19.7447 11.0006 20.3748 10.9995H20.895C21.525 11.0006 22.1437 11.1677 22.6887 11.4838L34.7247 18.4256C35.2713 18.742 35.7281 19.1927 36.052 19.735ZM20.895 14.5869H20.3748L9.88147 20.6498L20.6438 26.856L31.4063 20.6498L20.895 14.5869ZM32.9309 36.3271L22.4376 42.39V29.9773L33.1999 23.7531V35.8787L32.9309 36.3271ZM83.5635 37.547H79.844V17.9164H83.5635V37.547ZM50.0002 37.9678H54.1588V30.8388H55.9669L60.3838 37.9678H64.8265L59.9447 30.1156C62.1145 29.4698 63.7417 27.9975 63.7417 25.2079V25.1046C63.7417 21.2818 60.9779 19.4995 56.6127 19.4995H50.0002V37.9678ZM54.1588 27.9975V22.7024H56.5093C58.5241 22.7024 59.6606 23.3482 59.6606 25.2337V25.337C59.6606 27.1193 58.6016 27.9975 56.5093 27.9975H54.1588ZM71.5808 37.8304C75.2744 37.8304 77.5991 36.2032 78.0382 33.2844H74.4995C74.2671 34.4209 73.4147 35.17 71.6842 35.17C69.6436 35.17 68.4296 33.8785 68.3263 31.6313H78.0641V30.5981C78.0641 25.7679 74.9645 23.7274 71.4775 23.7274C67.5514 23.7274 64.5292 26.4912 64.5292 30.7531V30.9597C64.5292 35.2733 67.4997 37.8304 71.5808 37.8304ZM68.3779 29.3325C68.662 27.421 69.7985 26.3104 71.4775 26.3104C73.2598 26.3104 74.293 27.2919 74.4221 29.3325H68.3779ZM90.6987 37.8315C92.9203 37.8315 94.2888 36.7983 94.9862 35.4294V37.5474H98.7058V24.0385H94.9862V31.9682C94.9862 33.9571 93.7463 34.9386 92.1713 34.9386C90.5701 34.9386 89.8202 34.0604 89.8202 32.2265V24.0385H86.1011V32.7431C86.1011 36.2817 88.0641 37.8315 90.6987 37.8315ZM104.991 37.5463H101.245V24.0373H104.991V26.1037C105.662 24.838 107.108 23.7274 109.124 23.7274C110.906 23.7274 112.249 24.4765 112.895 26.0779C113.98 24.4506 115.736 23.7274 117.44 23.7274C119.946 23.7274 121.884 25.303 121.884 28.8934V37.5463H118.164V29.3067C118.164 27.576 117.389 26.8011 116.046 26.8011C114.599 26.8011 113.437 27.731 113.437 29.565V37.5463H109.718V29.3067C109.718 27.576 108.917 26.8011 107.599 26.8011C106.153 26.8011 104.991 27.731 104.991 29.565V37.5463ZM130.532 37.8304C134.226 37.8304 136.551 36.2032 136.989 33.2844H133.451C133.218 34.4209 132.366 35.17 130.635 35.17C128.594 35.17 127.381 33.8785 127.278 31.6313H137.015V30.5981C137.015 25.7679 133.915 23.7274 130.428 23.7274C126.502 23.7274 123.48 26.4912 123.48 30.7531V30.9597C123.48 35.2733 126.451 37.8304 130.532 37.8304ZM127.329 29.3325C127.614 27.421 128.75 26.3104 130.428 26.3104C132.211 26.3104 133.244 27.2919 133.374 29.3325H127.329Z" fill="black"/>
</svg>
