<svg width="141" height="57" viewBox="0 0 141 57" fill="none" xmlns="http://www.w3.org/2000/svg">
<path fill-rule="evenodd" clip-rule="evenodd" d="M39.0698 17.25L27.5603 39.75H16.7495L21.5663 30.425H21.3501C17.3764 35.5835 11.4474 38.9794 2.99951 39.75V30.5541C2.99951 30.5541 8.40382 30.2349 11.5809 26.8947H2.99951V17.2502H12.644V25.1826L12.8605 25.1818L16.8016 17.2502H24.0955V25.1323L24.3119 25.132L28.4009 17.25H39.0698ZM101.833 37.2665H104.939V19.4375H101.833V37.2665ZM84.7087 37.0844C85.3837 37.3651 86.0702 37.5054 86.7681 37.5054C87.921 37.5054 88.9526 37.2248 89.8628 36.6634C90.7729 36.1022 91.4784 35.3286 91.9791 34.3424C92.4797 33.3488 92.7299 32.2223 92.7299 30.9632C92.7299 29.7041 92.4721 28.5777 91.9563 27.584C91.4405 26.5904 90.7237 25.8205 89.8058 25.2744C88.8881 24.7206 87.8451 24.4476 86.6769 24.4552C85.9337 24.4552 85.2207 24.5993 84.538 24.8875C83.8553 25.1758 83.2865 25.5854 82.8313 26.1163C82.7962 26.1567 82.7621 26.1976 82.729 26.2388V19.4489H79.6115V37.2666H82.7062L82.7 35.6021C82.78 35.7002 82.8656 35.7961 82.9565 35.8898C83.4494 36.3981 84.0336 36.7962 84.7087 37.0844ZM87.8944 34.2059C87.3862 34.5169 86.8059 34.6724 86.1536 34.6724C85.5088 34.6724 84.9172 34.5131 84.3787 34.1946C83.8401 33.8683 83.4116 33.4247 83.0929 32.8633C82.782 32.3021 82.6264 31.6648 82.6264 30.9518C82.6189 30.2388 82.7706 29.6017 83.0816 29.0404C83.4002 28.4715 83.8287 28.0316 84.3673 27.7206C84.9058 27.402 85.5013 27.2465 86.1536 27.2541C86.8059 27.2465 87.3862 27.3982 87.8944 27.7092C88.4102 28.0126 88.8046 28.4488 89.0777 29.0176C89.3583 29.5789 89.4987 30.2237 89.4987 30.9518C89.4987 31.6801 89.3583 32.3248 89.0777 32.8861C88.8046 33.4474 88.4102 33.8873 87.8944 34.2059ZM43.5696 20.5184H47.1195L50.295 32.1154L53.6731 20.5184H56.6313L60.295 31.8827L63.3442 20.5184H66.5982L61.7968 37.2665H58.7362L55.0107 26.1645L51.591 37.2665H48.4962L43.5696 20.5184ZM71.8408 37.5623C70.6043 37.5699 69.4893 37.2968 68.4957 36.7431C67.5095 36.1818 66.7322 35.4043 66.1632 34.4106C65.6019 33.417 65.3213 32.283 65.3213 31.0086C65.3213 29.7723 65.6095 28.6535 66.186 27.6523C66.7624 26.651 67.5437 25.8697 68.5298 25.3084C69.5159 24.7471 70.6157 24.4665 71.8293 24.4665C73.1947 24.4665 74.3893 24.7699 75.4133 25.3767C76.4449 25.9835 77.2148 26.8444 77.723 27.9595C78.2388 29.0669 78.4247 30.3374 78.2805 31.771H68.5347C68.5619 32.3421 68.7044 32.8618 68.9622 33.3298C69.2504 33.8455 69.6524 34.2475 70.1682 34.5358C70.684 34.824 71.2604 34.9681 71.8977 34.9681C72.383 34.9605 72.8344 34.8771 73.2515 34.7179C73.6688 34.551 74.0214 34.3273 74.3097 34.0465C74.6055 33.7659 74.8142 33.4474 74.9355 33.0909H78.1895C77.9923 33.9631 77.5979 34.7406 77.0063 35.4233C76.4145 36.0984 75.6713 36.6255 74.7762 37.0048C73.8812 37.384 72.9027 37.5699 71.8408 37.5623ZM68.9735 28.6421C68.7918 28.9591 68.6658 29.3004 68.5957 29.6661H75.056C75.0092 29.2041 74.8665 28.7832 74.6283 28.4032C74.3552 27.9557 73.9835 27.6105 73.5133 27.3678C73.043 27.1175 72.512 26.9924 71.9204 26.9924C71.2908 26.9924 70.7182 27.1365 70.2023 27.4247C69.6865 27.7129 69.2769 28.1188 68.9735 28.6421ZM95.0173 24.7282C95.0173 23.7118 95.2485 22.8092 95.7113 22.0203C96.1739 21.2239 96.8225 20.6057 97.6569 20.1657C98.4988 19.7182 99.4811 19.4868 100.604 19.4717V22.2365C100.08 22.2441 99.6328 22.354 99.2611 22.5664C98.897 22.7712 98.6164 23.0708 98.4191 23.4653C98.2376 23.8284 98.1396 24.2494 98.1253 24.7282H100.535V27.3565H98.1234V37.2665H95.0173V27.3565H93.0148V24.7282H95.0173ZM112.834 37.5395C111.568 37.5395 110.434 37.2626 109.432 36.709C108.439 36.1476 107.657 35.374 107.089 34.3878C106.527 33.3942 106.247 32.2678 106.247 31.0086C106.247 29.742 106.527 28.6117 107.089 27.6181C107.657 26.6168 108.439 25.8393 109.432 25.2856C110.434 24.7319 111.568 24.455 112.834 24.455C114.109 24.455 115.246 24.7319 116.248 25.2856C117.256 25.8393 118.042 26.613 118.603 27.6067C119.164 28.6003 119.449 29.7343 119.456 31.0086C119.449 32.2678 119.164 33.3942 118.603 34.3878C118.049 35.374 117.268 36.1476 116.259 36.709C115.25 37.2626 114.109 37.5395 112.834 37.5395ZM112.834 34.6837C113.502 34.6837 114.093 34.532 114.609 34.2286C115.125 33.9176 115.523 33.4852 115.804 32.9315C116.085 32.3702 116.225 31.7292 116.225 31.0086C116.225 30.2805 116.085 29.6357 115.804 29.0744C115.523 28.5131 115.125 28.0808 114.609 27.7774C114.093 27.4664 113.502 27.3109 112.834 27.3109C112.174 27.3109 111.587 27.4664 111.071 27.7774C110.563 28.0808 110.168 28.5131 109.887 29.0744C109.607 29.6357 109.47 30.2805 109.478 31.0086C109.478 31.7292 109.618 32.3702 109.899 32.9315C110.187 33.4852 110.581 33.9176 111.082 34.2286C111.59 34.532 112.174 34.6837 112.834 34.6837ZM122.813 24.7282H119.354L123.097 37.2665H126.124L128.586 29.2583L131.243 37.2665H134.224L137.979 24.7282H134.851L132.721 32.5325L130.367 24.7282H127.341L124.999 32.7044L122.813 24.7282Z" fill="black"/>
<path d="M39.0698 17.25L27.5603 39.75H16.7495L21.5663 30.425H21.3501C17.3764 35.5835 11.4474 38.9794 2.99951 39.75V30.5541C2.99951 30.5541 8.40382 30.2349 11.5809 26.8947H2.99951V17.2502H12.644V25.1826L12.8605 25.1818L16.8016 17.2502H24.0955V25.1323L24.3119 25.132L28.4009 17.25H39.0698ZM101.833 37.2665H104.939V19.4375H101.833V37.2665ZM84.7087 37.0844C85.3837 37.3651 86.0702 37.5054 86.7681 37.5054C87.921 37.5054 88.9526 37.2248 89.8628 36.6634C90.7729 36.1022 91.4784 35.3286 91.9791 34.3424C92.4797 33.3488 92.7299 32.2223 92.7299 30.9632C92.7299 29.7041 92.4721 28.5777 91.9563 27.584C91.4405 26.5904 90.7237 25.8205 89.8058 25.2744C88.8881 24.7206 87.8451 24.4476 86.6769 24.4552C85.9337 24.4552 85.2207 24.5993 84.538 24.8875C83.8553 25.1758 83.2865 25.5854 82.8313 26.1163C82.7962 26.1567 82.7621 26.1976 82.729 26.2388V19.4489H79.6115V37.2666H82.7062L82.7 35.6021C82.78 35.7002 82.8656 35.7961 82.9565 35.8898C83.4494 36.3981 84.0336 36.7962 84.7087 37.0844ZM87.8944 34.2059C87.3862 34.5169 86.8059 34.6724 86.1536 34.6724C85.5088 34.6724 84.9172 34.5131 84.3787 34.1946C83.8401 33.8683 83.4116 33.4247 83.0929 32.8633C82.782 32.3021 82.6264 31.6648 82.6264 30.9518C82.6189 30.2388 82.7706 29.6017 83.0816 29.0404C83.4002 28.4715 83.8287 28.0316 84.3673 27.7206C84.9058 27.402 85.5013 27.2465 86.1536 27.2541C86.8059 27.2465 87.3862 27.3982 87.8944 27.7092C88.4102 28.0126 88.8046 28.4488 89.0777 29.0176C89.3583 29.5789 89.4987 30.2237 89.4987 30.9518C89.4987 31.6801 89.3583 32.3248 89.0777 32.8861C88.8046 33.4474 88.4102 33.8873 87.8944 34.2059ZM43.5696 20.5184H47.1195L50.295 32.1154L53.6731 20.5184H56.6313L60.295 31.8827L63.3442 20.5184H66.5982L61.7968 37.2665H58.7362L55.0107 26.1645L51.591 37.2665H48.4962L43.5696 20.5184ZM71.8408 37.5623C70.6043 37.5699 69.4893 37.2968 68.4957 36.7431C67.5095 36.1818 66.7322 35.4043 66.1632 34.4106C65.6019 33.417 65.3213 32.283 65.3213 31.0086C65.3213 29.7723 65.6095 28.6535 66.186 27.6523C66.7624 26.651 67.5437 25.8697 68.5298 25.3084C69.5159 24.7471 70.6157 24.4665 71.8293 24.4665C73.1947 24.4665 74.3893 24.7699 75.4133 25.3767C76.4449 25.9835 77.2148 26.8444 77.723 27.9595C78.2388 29.0669 78.4247 30.3374 78.2805 31.771H68.5347C68.5619 32.3421 68.7044 32.8618 68.9622 33.3298C69.2504 33.8455 69.6524 34.2475 70.1682 34.5358C70.684 34.824 71.2604 34.9681 71.8977 34.9681C72.383 34.9605 72.8344 34.8771 73.2515 34.7179C73.6688 34.551 74.0214 34.3273 74.3097 34.0465C74.6055 33.7659 74.8142 33.4474 74.9355 33.0909H78.1895C77.9923 33.9631 77.5979 34.7406 77.0063 35.4233C76.4145 36.0984 75.6713 36.6255 74.7762 37.0048C73.8812 37.384 72.9027 37.5699 71.8408 37.5623ZM68.9735 28.6421C68.7918 28.9591 68.6658 29.3004 68.5957 29.6661H75.056C75.0092 29.2041 74.8665 28.7832 74.6283 28.4032C74.3552 27.9557 73.9835 27.6105 73.5133 27.3678C73.043 27.1175 72.512 26.9924 71.9204 26.9924C71.2908 26.9924 70.7182 27.1365 70.2023 27.4247C69.6865 27.7129 69.2769 28.1188 68.9735 28.6421ZM95.0173 24.7282C95.0173 23.7118 95.2485 22.8092 95.7113 22.0203C96.1739 21.2239 96.8225 20.6057 97.6569 20.1657C98.4988 19.7182 99.4811 19.4868 100.604 19.4717V22.2365C100.08 22.2441 99.6328 22.354 99.2611 22.5664C98.897 22.7712 98.6164 23.0708 98.4191 23.4653C98.2376 23.8284 98.1396 24.2494 98.1253 24.7282H100.535V27.3565H98.1234V37.2665H95.0173V27.3565H93.0148V24.7282H95.0173ZM112.834 37.5395C111.568 37.5395 110.434 37.2626 109.432 36.709C108.439 36.1476 107.657 35.374 107.089 34.3878C106.527 33.3942 106.247 32.2678 106.247 31.0086C106.247 29.742 106.527 28.6117 107.089 27.6181C107.657 26.6168 108.439 25.8393 109.432 25.2856C110.434 24.7319 111.568 24.455 112.834 24.455C114.109 24.455 115.246 24.7319 116.248 25.2856C117.256 25.8393 118.042 26.613 118.603 27.6067C119.164 28.6003 119.449 29.7343 119.456 31.0086C119.449 32.2678 119.164 33.3942 118.603 34.3878C118.049 35.374 117.268 36.1476 116.259 36.709C115.25 37.2626 114.109 37.5395 112.834 37.5395ZM112.834 34.6837C113.502 34.6837 114.093 34.532 114.609 34.2286C115.125 33.9176 115.523 33.4852 115.804 32.9315C116.085 32.3702 116.225 31.7292 116.225 31.0086C116.225 30.2805 116.085 29.6357 115.804 29.0744C115.523 28.5131 115.125 28.0808 114.609 27.7774C114.093 27.4664 113.502 27.3109 112.834 27.3109C112.174 27.3109 111.587 27.4664 111.071 27.7774C110.563 28.0808 110.168 28.5131 109.887 29.0744C109.607 29.6357 109.47 30.2805 109.478 31.0086C109.478 31.7292 109.618 32.3702 109.899 32.9315C110.187 33.4852 110.581 33.9176 111.082 34.2286C111.59 34.532 112.174 34.6837 112.834 34.6837ZM122.813 24.7282H119.354L123.097 37.2665H126.124L128.586 29.2583L131.243 37.2665H134.224L137.979 24.7282H134.851L132.721 32.5325L130.367 24.7282H127.341L124.999 32.7044L122.813 24.7282Z" fill="black"/>
<path fill-rule="evenodd" clip-rule="evenodd" d="M39.0698 17.25L27.5603 39.75H16.7495L21.5663 30.425H21.3501C17.3764 35.5835 11.4474 38.9794 2.99951 39.75V30.5541C2.99951 30.5541 8.40382 30.2349 11.5809 26.8947H2.99951V17.2502H12.644V25.1826L12.8605 25.1818L16.8016 17.2502H24.0955V25.1323L24.3119 25.132L28.4009 17.25H39.0698ZM101.833 37.2665H104.939V19.4375H101.833V37.2665ZM84.7087 37.0844C85.3837 37.3651 86.0702 37.5054 86.7681 37.5054C87.921 37.5054 88.9526 37.2248 89.8628 36.6634C90.7729 36.1022 91.4784 35.3286 91.9791 34.3424C92.4797 33.3488 92.7299 32.2223 92.7299 30.9632C92.7299 29.7041 92.4721 28.5777 91.9563 27.584C91.4405 26.5904 90.7237 25.8205 89.8058 25.2744C88.8881 24.7206 87.8451 24.4476 86.6769 24.4552C85.9337 24.4552 85.2207 24.5993 84.538 24.8875C83.8553 25.1758 83.2865 25.5854 82.8313 26.1163C82.7962 26.1567 82.7621 26.1976 82.729 26.2388V19.4489H79.6115V37.2666H82.7062L82.7 35.6021C82.78 35.7002 82.8656 35.7961 82.9565 35.8898C83.4494 36.3981 84.0336 36.7962 84.7087 37.0844ZM87.8944 34.2059C87.3862 34.5169 86.8059 34.6724 86.1536 34.6724C85.5088 34.6724 84.9172 34.5131 84.3787 34.1946C83.8401 33.8683 83.4116 33.4247 83.0929 32.8633C82.782 32.3021 82.6264 31.6648 82.6264 30.9518C82.6189 30.2388 82.7706 29.6017 83.0816 29.0404C83.4002 28.4715 83.8287 28.0316 84.3673 27.7206C84.9058 27.402 85.5013 27.2465 86.1536 27.2541C86.8059 27.2465 87.3862 27.3982 87.8944 27.7092C88.4102 28.0126 88.8046 28.4488 89.0777 29.0176C89.3583 29.5789 89.4987 30.2237 89.4987 30.9518C89.4987 31.6801 89.3583 32.3248 89.0777 32.8861C88.8046 33.4474 88.4102 33.8873 87.8944 34.2059ZM43.5696 20.5184H47.1195L50.295 32.1154L53.6731 20.5184H56.6313L60.295 31.8827L63.3442 20.5184H66.5982L61.7968 37.2665H58.7362L55.0107 26.1645L51.591 37.2665H48.4962L43.5696 20.5184ZM71.8408 37.5623C70.6043 37.5699 69.4893 37.2968 68.4957 36.7431C67.5095 36.1818 66.7322 35.4043 66.1632 34.4106C65.6019 33.417 65.3213 32.283 65.3213 31.0086C65.3213 29.7723 65.6095 28.6535 66.186 27.6523C66.7624 26.651 67.5437 25.8697 68.5298 25.3084C69.5159 24.7471 70.6157 24.4665 71.8293 24.4665C73.1947 24.4665 74.3893 24.7699 75.4133 25.3767C76.4449 25.9835 77.2148 26.8444 77.723 27.9595C78.2388 29.0669 78.4247 30.3374 78.2805 31.771H68.5347C68.5619 32.3421 68.7044 32.8618 68.9622 33.3298C69.2504 33.8455 69.6524 34.2475 70.1682 34.5358C70.684 34.824 71.2604 34.9681 71.8977 34.9681C72.383 34.9605 72.8344 34.8771 73.2515 34.7179C73.6688 34.551 74.0214 34.3273 74.3097 34.0465C74.6055 33.7659 74.8142 33.4474 74.9355 33.0909H78.1895C77.9923 33.9631 77.5979 34.7406 77.0063 35.4233C76.4145 36.0984 75.6713 36.6255 74.7762 37.0048C73.8812 37.384 72.9027 37.5699 71.8408 37.5623ZM68.9735 28.6421C68.7918 28.9591 68.6658 29.3004 68.5957 29.6661H75.056C75.0092 29.2041 74.8665 28.7832 74.6283 28.4032C74.3552 27.9557 73.9835 27.6105 73.5133 27.3678C73.043 27.1175 72.512 26.9924 71.9204 26.9924C71.2908 26.9924 70.7182 27.1365 70.2023 27.4247C69.6865 27.7129 69.2769 28.1188 68.9735 28.6421ZM95.0173 24.7282C95.0173 23.7118 95.2485 22.8092 95.7113 22.0203C96.1739 21.2239 96.8225 20.6057 97.6569 20.1657C98.4988 19.7182 99.4811 19.4868 100.604 19.4717V22.2365C100.08 22.2441 99.6328 22.354 99.2611 22.5664C98.897 22.7712 98.6164 23.0708 98.4191 23.4653C98.2376 23.8284 98.1396 24.2494 98.1253 24.7282H100.535V27.3565H98.1234V37.2665H95.0173V27.3565H93.0148V24.7282H95.0173ZM112.834 37.5395C111.568 37.5395 110.434 37.2626 109.432 36.709C108.439 36.1476 107.657 35.374 107.089 34.3878C106.527 33.3942 106.247 32.2678 106.247 31.0086C106.247 29.742 106.527 28.6117 107.089 27.6181C107.657 26.6168 108.439 25.8393 109.432 25.2856C110.434 24.7319 111.568 24.455 112.834 24.455C114.109 24.455 115.246 24.7319 116.248 25.2856C117.256 25.8393 118.042 26.613 118.603 27.6067C119.164 28.6003 119.449 29.7343 119.456 31.0086C119.449 32.2678 119.164 33.3942 118.603 34.3878C118.049 35.374 117.268 36.1476 116.259 36.709C115.25 37.2626 114.109 37.5395 112.834 37.5395ZM112.834 34.6837C113.502 34.6837 114.093 34.532 114.609 34.2286C115.125 33.9176 115.523 33.4852 115.804 32.9315C116.085 32.3702 116.225 31.7292 116.225 31.0086C116.225 30.2805 116.085 29.6357 115.804 29.0744C115.523 28.5131 115.125 28.0808 114.609 27.7774C114.093 27.4664 113.502 27.3109 112.834 27.3109C112.174 27.3109 111.587 27.4664 111.071 27.7774C110.563 28.0808 110.168 28.5131 109.887 29.0744C109.607 29.6357 109.47 30.2805 109.478 31.0086C109.478 31.7292 109.618 32.3702 109.899 32.9315C110.187 33.4852 110.581 33.9176 111.082 34.2286C111.59 34.532 112.174 34.6837 112.834 34.6837ZM122.813 24.7282H119.354L123.097 37.2665H126.124L128.586 29.2583L131.243 37.2665H134.224L137.979 24.7282H134.851L132.721 32.5325L130.367 24.7282H127.341L124.999 32.7044L122.813 24.7282Z" fill="black"/>
<path d="M39.0698 17.25L27.5603 39.75H16.7495L21.5663 30.425H21.3501C17.3764 35.5835 11.4474 38.9794 2.99951 39.75V30.5541C2.99951 30.5541 8.40382 30.2349 11.5809 26.8947H2.99951V17.2502H12.644V25.1826L12.8605 25.1818L16.8016 17.2502H24.0955V25.1323L24.3119 25.132L28.4009 17.25H39.0698ZM101.833 37.2665H104.939V19.4375H101.833V37.2665ZM84.7087 37.0844C85.3837 37.3651 86.0702 37.5054 86.7681 37.5054C87.921 37.5054 88.9526 37.2248 89.8628 36.6634C90.7729 36.1022 91.4784 35.3286 91.9791 34.3424C92.4797 33.3488 92.7299 32.2223 92.7299 30.9632C92.7299 29.7041 92.4721 28.5777 91.9563 27.584C91.4405 26.5904 90.7237 25.8205 89.8058 25.2744C88.8881 24.7206 87.8451 24.4476 86.6769 24.4552C85.9337 24.4552 85.2207 24.5993 84.538 24.8875C83.8553 25.1758 83.2865 25.5854 82.8313 26.1163C82.7962 26.1567 82.7621 26.1976 82.729 26.2388V19.4489H79.6115V37.2666H82.7062L82.7 35.6021C82.78 35.7002 82.8656 35.7961 82.9565 35.8898C83.4494 36.3981 84.0336 36.7962 84.7087 37.0844ZM87.8944 34.2059C87.3862 34.5169 86.8059 34.6724 86.1536 34.6724C85.5088 34.6724 84.9172 34.5131 84.3787 34.1946C83.8401 33.8683 83.4116 33.4247 83.0929 32.8633C82.782 32.3021 82.6264 31.6648 82.6264 30.9518C82.6189 30.2388 82.7706 29.6017 83.0816 29.0404C83.4002 28.4715 83.8287 28.0316 84.3673 27.7206C84.9058 27.402 85.5013 27.2465 86.1536 27.2541C86.8059 27.2465 87.3862 27.3982 87.8944 27.7092C88.4102 28.0126 88.8046 28.4488 89.0777 29.0176C89.3583 29.5789 89.4987 30.2237 89.4987 30.9518C89.4987 31.6801 89.3583 32.3248 89.0777 32.8861C88.8046 33.4474 88.4102 33.8873 87.8944 34.2059ZM43.5696 20.5184H47.1195L50.295 32.1154L53.6731 20.5184H56.6313L60.295 31.8827L63.3442 20.5184H66.5982L61.7968 37.2665H58.7362L55.0107 26.1645L51.591 37.2665H48.4962L43.5696 20.5184ZM71.8408 37.5623C70.6043 37.5699 69.4893 37.2968 68.4957 36.7431C67.5095 36.1818 66.7322 35.4043 66.1632 34.4106C65.6019 33.417 65.3213 32.283 65.3213 31.0086C65.3213 29.7723 65.6095 28.6535 66.186 27.6523C66.7624 26.651 67.5437 25.8697 68.5298 25.3084C69.5159 24.7471 70.6157 24.4665 71.8293 24.4665C73.1947 24.4665 74.3893 24.7699 75.4133 25.3767C76.4449 25.9835 77.2148 26.8444 77.723 27.9595C78.2388 29.0669 78.4247 30.3374 78.2805 31.771H68.5347C68.5619 32.3421 68.7044 32.8618 68.9622 33.3298C69.2504 33.8455 69.6524 34.2475 70.1682 34.5358C70.684 34.824 71.2604 34.9681 71.8977 34.9681C72.383 34.9605 72.8344 34.8771 73.2515 34.7179C73.6688 34.551 74.0214 34.3273 74.3097 34.0465C74.6055 33.7659 74.8142 33.4474 74.9355 33.0909H78.1895C77.9923 33.9631 77.5979 34.7406 77.0063 35.4233C76.4145 36.0984 75.6713 36.6255 74.7762 37.0048C73.8812 37.384 72.9027 37.5699 71.8408 37.5623ZM68.9735 28.6421C68.7918 28.9591 68.6658 29.3004 68.5957 29.6661H75.056C75.0092 29.2041 74.8665 28.7832 74.6283 28.4032C74.3552 27.9557 73.9835 27.6105 73.5133 27.3678C73.043 27.1175 72.512 26.9924 71.9204 26.9924C71.2908 26.9924 70.7182 27.1365 70.2023 27.4247C69.6865 27.7129 69.2769 28.1188 68.9735 28.6421ZM95.0173 24.7282C95.0173 23.7118 95.2485 22.8092 95.7113 22.0203C96.1739 21.2239 96.8225 20.6057 97.6569 20.1657C98.4988 19.7182 99.4811 19.4868 100.604 19.4717V22.2365C100.08 22.2441 99.6328 22.354 99.2611 22.5664C98.897 22.7712 98.6164 23.0708 98.4191 23.4653C98.2376 23.8284 98.1396 24.2494 98.1253 24.7282H100.535V27.3565H98.1234V37.2665H95.0173V27.3565H93.0148V24.7282H95.0173ZM112.834 37.5395C111.568 37.5395 110.434 37.2626 109.432 36.709C108.439 36.1476 107.657 35.374 107.089 34.3878C106.527 33.3942 106.247 32.2678 106.247 31.0086C106.247 29.742 106.527 28.6117 107.089 27.6181C107.657 26.6168 108.439 25.8393 109.432 25.2856C110.434 24.7319 111.568 24.455 112.834 24.455C114.109 24.455 115.246 24.7319 116.248 25.2856C117.256 25.8393 118.042 26.613 118.603 27.6067C119.164 28.6003 119.449 29.7343 119.456 31.0086C119.449 32.2678 119.164 33.3942 118.603 34.3878C118.049 35.374 117.268 36.1476 116.259 36.709C115.25 37.2626 114.109 37.5395 112.834 37.5395ZM112.834 34.6837C113.502 34.6837 114.093 34.532 114.609 34.2286C115.125 33.9176 115.523 33.4852 115.804 32.9315C116.085 32.3702 116.225 31.7292 116.225 31.0086C116.225 30.2805 116.085 29.6357 115.804 29.0744C115.523 28.5131 115.125 28.0808 114.609 27.7774C114.093 27.4664 113.502 27.3109 112.834 27.3109C112.174 27.3109 111.587 27.4664 111.071 27.7774C110.563 28.0808 110.168 28.5131 109.887 29.0744C109.607 29.6357 109.47 30.2805 109.478 31.0086C109.478 31.7292 109.618 32.3702 109.899 32.9315C110.187 33.4852 110.581 33.9176 111.082 34.2286C111.59 34.532 112.174 34.6837 112.834 34.6837ZM122.813 24.7282H119.354L123.097 37.2665H126.124L128.586 29.2583L131.243 37.2665H134.224L137.979 24.7282H134.851L132.721 32.5325L130.367 24.7282H127.341L124.999 32.7044L122.813 24.7282Z" fill="black"/>
<path fill-rule="evenodd" clip-rule="evenodd" d="M39.0698 17.25L27.5603 39.75H16.7495L21.5663 30.425H21.3501C17.3764 35.5835 11.4474 38.9794 2.99951 39.75V30.5541C2.99951 30.5541 8.40382 30.2349 11.5809 26.8947H2.99951V17.2502H12.644V25.1826L12.8605 25.1818L16.8016 17.2502H24.0955V25.1323L24.3119 25.132L28.4009 17.25H39.0698ZM101.833 37.2665H104.939V19.4375H101.833V37.2665ZM84.7087 37.0844C85.3837 37.3651 86.0702 37.5054 86.7681 37.5054C87.921 37.5054 88.9526 37.2248 89.8628 36.6634C90.7729 36.1022 91.4784 35.3286 91.9791 34.3424C92.4797 33.3488 92.7299 32.2223 92.7299 30.9632C92.7299 29.7041 92.4721 28.5777 91.9563 27.584C91.4405 26.5904 90.7237 25.8205 89.8058 25.2744C88.8881 24.7206 87.8451 24.4476 86.6769 24.4552C85.9337 24.4552 85.2207 24.5993 84.538 24.8875C83.8553 25.1758 83.2865 25.5854 82.8313 26.1163C82.7962 26.1567 82.7621 26.1976 82.729 26.2388V19.4489H79.6115V37.2666H82.7062L82.7 35.6021C82.78 35.7002 82.8656 35.7961 82.9565 35.8898C83.4494 36.3981 84.0336 36.7962 84.7087 37.0844ZM87.8944 34.2059C87.3862 34.5169 86.8059 34.6724 86.1536 34.6724C85.5088 34.6724 84.9172 34.5131 84.3787 34.1946C83.8401 33.8683 83.4116 33.4247 83.0929 32.8633C82.782 32.3021 82.6264 31.6648 82.6264 30.9518C82.6189 30.2388 82.7706 29.6017 83.0816 29.0404C83.4002 28.4715 83.8287 28.0316 84.3673 27.7206C84.9058 27.402 85.5013 27.2465 86.1536 27.2541C86.8059 27.2465 87.3862 27.3982 87.8944 27.7092C88.4102 28.0126 88.8046 28.4488 89.0777 29.0176C89.3583 29.5789 89.4987 30.2237 89.4987 30.9518C89.4987 31.6801 89.3583 32.3248 89.0777 32.8861C88.8046 33.4474 88.4102 33.8873 87.8944 34.2059ZM43.5696 20.5184H47.1195L50.295 32.1154L53.6731 20.5184H56.6313L60.295 31.8827L63.3442 20.5184H66.5982L61.7968 37.2665H58.7362L55.0107 26.1645L51.591 37.2665H48.4962L43.5696 20.5184ZM71.8408 37.5623C70.6043 37.5699 69.4893 37.2968 68.4957 36.7431C67.5095 36.1818 66.7322 35.4043 66.1632 34.4106C65.6019 33.417 65.3213 32.283 65.3213 31.0086C65.3213 29.7723 65.6095 28.6535 66.186 27.6523C66.7624 26.651 67.5437 25.8697 68.5298 25.3084C69.5159 24.7471 70.6157 24.4665 71.8293 24.4665C73.1947 24.4665 74.3893 24.7699 75.4133 25.3767C76.4449 25.9835 77.2148 26.8444 77.723 27.9595C78.2388 29.0669 78.4247 30.3374 78.2805 31.771H68.5347C68.5619 32.3421 68.7044 32.8618 68.9622 33.3298C69.2504 33.8455 69.6524 34.2475 70.1682 34.5358C70.684 34.824 71.2604 34.9681 71.8977 34.9681C72.383 34.9605 72.8344 34.8771 73.2515 34.7179C73.6688 34.551 74.0214 34.3273 74.3097 34.0465C74.6055 33.7659 74.8142 33.4474 74.9355 33.0909H78.1895C77.9923 33.9631 77.5979 34.7406 77.0063 35.4233C76.4145 36.0984 75.6713 36.6255 74.7762 37.0048C73.8812 37.384 72.9027 37.5699 71.8408 37.5623ZM68.9735 28.6421C68.7918 28.9591 68.6658 29.3004 68.5957 29.6661H75.056C75.0092 29.2041 74.8665 28.7832 74.6283 28.4032C74.3552 27.9557 73.9835 27.6105 73.5133 27.3678C73.043 27.1175 72.512 26.9924 71.9204 26.9924C71.2908 26.9924 70.7182 27.1365 70.2023 27.4247C69.6865 27.7129 69.2769 28.1188 68.9735 28.6421ZM95.0173 24.7282C95.0173 23.7118 95.2485 22.8092 95.7113 22.0203C96.1739 21.2239 96.8225 20.6057 97.6569 20.1657C98.4988 19.7182 99.4811 19.4868 100.604 19.4717V22.2365C100.08 22.2441 99.6328 22.354 99.2611 22.5664C98.897 22.7712 98.6164 23.0708 98.4191 23.4653C98.2376 23.8284 98.1396 24.2494 98.1253 24.7282H100.535V27.3565H98.1234V37.2665H95.0173V27.3565H93.0148V24.7282H95.0173ZM112.834 37.5395C111.568 37.5395 110.434 37.2626 109.432 36.709C108.439 36.1476 107.657 35.374 107.089 34.3878C106.527 33.3942 106.247 32.2678 106.247 31.0086C106.247 29.742 106.527 28.6117 107.089 27.6181C107.657 26.6168 108.439 25.8393 109.432 25.2856C110.434 24.7319 111.568 24.455 112.834 24.455C114.109 24.455 115.246 24.7319 116.248 25.2856C117.256 25.8393 118.042 26.613 118.603 27.6067C119.164 28.6003 119.449 29.7343 119.456 31.0086C119.449 32.2678 119.164 33.3942 118.603 34.3878C118.049 35.374 117.268 36.1476 116.259 36.709C115.25 37.2626 114.109 37.5395 112.834 37.5395ZM112.834 34.6837C113.502 34.6837 114.093 34.532 114.609 34.2286C115.125 33.9176 115.523 33.4852 115.804 32.9315C116.085 32.3702 116.225 31.7292 116.225 31.0086C116.225 30.2805 116.085 29.6357 115.804 29.0744C115.523 28.5131 115.125 28.0808 114.609 27.7774C114.093 27.4664 113.502 27.3109 112.834 27.3109C112.174 27.3109 111.587 27.4664 111.071 27.7774C110.563 28.0808 110.168 28.5131 109.887 29.0744C109.607 29.6357 109.47 30.2805 109.478 31.0086C109.478 31.7292 109.618 32.3702 109.899 32.9315C110.187 33.4852 110.581 33.9176 111.082 34.2286C111.59 34.532 112.174 34.6837 112.834 34.6837ZM122.813 24.7282H119.354L123.097 37.2665H126.124L128.586 29.2583L131.243 37.2665H134.224L137.979 24.7282H134.851L132.721 32.5325L130.367 24.7282H127.341L124.999 32.7044L122.813 24.7282Z" fill="black"/>
<path d="M39.0698 17.25L27.5603 39.75H16.7495L21.5663 30.425H21.3501C17.3764 35.5835 11.4474 38.9794 2.99951 39.75V30.5541C2.99951 30.5541 8.40382 30.2349 11.5809 26.8947H2.99951V17.2502H12.644V25.1826L12.8605 25.1818L16.8016 17.2502H24.0955V25.1323L24.3119 25.132L28.4009 17.25H39.0698ZM101.833 37.2665H104.939V19.4375H101.833V37.2665ZM84.7087 37.0844C85.3837 37.3651 86.0702 37.5054 86.7681 37.5054C87.921 37.5054 88.9526 37.2248 89.8628 36.6634C90.7729 36.1022 91.4784 35.3286 91.9791 34.3424C92.4797 33.3488 92.7299 32.2223 92.7299 30.9632C92.7299 29.7041 92.4721 28.5777 91.9563 27.584C91.4405 26.5904 90.7237 25.8205 89.8058 25.2744C88.8881 24.7206 87.8451 24.4476 86.6769 24.4552C85.9337 24.4552 85.2207 24.5993 84.538 24.8875C83.8553 25.1758 83.2865 25.5854 82.8313 26.1163C82.7962 26.1567 82.7621 26.1976 82.729 26.2388V19.4489H79.6115V37.2666H82.7062L82.7 35.6021C82.78 35.7002 82.8656 35.7961 82.9565 35.8898C83.4494 36.3981 84.0336 36.7962 84.7087 37.0844ZM87.8944 34.2059C87.3862 34.5169 86.8059 34.6724 86.1536 34.6724C85.5088 34.6724 84.9172 34.5131 84.3787 34.1946C83.8401 33.8683 83.4116 33.4247 83.0929 32.8633C82.782 32.3021 82.6264 31.6648 82.6264 30.9518C82.6189 30.2388 82.7706 29.6017 83.0816 29.0404C83.4002 28.4715 83.8287 28.0316 84.3673 27.7206C84.9058 27.402 85.5013 27.2465 86.1536 27.2541C86.8059 27.2465 87.3862 27.3982 87.8944 27.7092C88.4102 28.0126 88.8046 28.4488 89.0777 29.0176C89.3583 29.5789 89.4987 30.2237 89.4987 30.9518C89.4987 31.6801 89.3583 32.3248 89.0777 32.8861C88.8046 33.4474 88.4102 33.8873 87.8944 34.2059ZM43.5696 20.5184H47.1195L50.295 32.1154L53.6731 20.5184H56.6313L60.295 31.8827L63.3442 20.5184H66.5982L61.7968 37.2665H58.7362L55.0107 26.1645L51.591 37.2665H48.4962L43.5696 20.5184ZM71.8408 37.5623C70.6043 37.5699 69.4893 37.2968 68.4957 36.7431C67.5095 36.1818 66.7322 35.4043 66.1632 34.4106C65.6019 33.417 65.3213 32.283 65.3213 31.0086C65.3213 29.7723 65.6095 28.6535 66.186 27.6523C66.7624 26.651 67.5437 25.8697 68.5298 25.3084C69.5159 24.7471 70.6157 24.4665 71.8293 24.4665C73.1947 24.4665 74.3893 24.7699 75.4133 25.3767C76.4449 25.9835 77.2148 26.8444 77.723 27.9595C78.2388 29.0669 78.4247 30.3374 78.2805 31.771H68.5347C68.5619 32.3421 68.7044 32.8618 68.9622 33.3298C69.2504 33.8455 69.6524 34.2475 70.1682 34.5358C70.684 34.824 71.2604 34.9681 71.8977 34.9681C72.383 34.9605 72.8344 34.8771 73.2515 34.7179C73.6688 34.551 74.0214 34.3273 74.3097 34.0465C74.6055 33.7659 74.8142 33.4474 74.9355 33.0909H78.1895C77.9923 33.9631 77.5979 34.7406 77.0063 35.4233C76.4145 36.0984 75.6713 36.6255 74.7762 37.0048C73.8812 37.384 72.9027 37.5699 71.8408 37.5623ZM68.9735 28.6421C68.7918 28.9591 68.6658 29.3004 68.5957 29.6661H75.056C75.0092 29.2041 74.8665 28.7832 74.6283 28.4032C74.3552 27.9557 73.9835 27.6105 73.5133 27.3678C73.043 27.1175 72.512 26.9924 71.9204 26.9924C71.2908 26.9924 70.7182 27.1365 70.2023 27.4247C69.6865 27.7129 69.2769 28.1188 68.9735 28.6421ZM95.0173 24.7282C95.0173 23.7118 95.2485 22.8092 95.7113 22.0203C96.1739 21.2239 96.8225 20.6057 97.6569 20.1657C98.4988 19.7182 99.4811 19.4868 100.604 19.4717V22.2365C100.08 22.2441 99.6328 22.354 99.2611 22.5664C98.897 22.7712 98.6164 23.0708 98.4191 23.4653C98.2376 23.8284 98.1396 24.2494 98.1253 24.7282H100.535V27.3565H98.1234V37.2665H95.0173V27.3565H93.0148V24.7282H95.0173ZM112.834 37.5395C111.568 37.5395 110.434 37.2626 109.432 36.709C108.439 36.1476 107.657 35.374 107.089 34.3878C106.527 33.3942 106.247 32.2678 106.247 31.0086C106.247 29.742 106.527 28.6117 107.089 27.6181C107.657 26.6168 108.439 25.8393 109.432 25.2856C110.434 24.7319 111.568 24.455 112.834 24.455C114.109 24.455 115.246 24.7319 116.248 25.2856C117.256 25.8393 118.042 26.613 118.603 27.6067C119.164 28.6003 119.449 29.7343 119.456 31.0086C119.449 32.2678 119.164 33.3942 118.603 34.3878C118.049 35.374 117.268 36.1476 116.259 36.709C115.25 37.2626 114.109 37.5395 112.834 37.5395ZM112.834 34.6837C113.502 34.6837 114.093 34.532 114.609 34.2286C115.125 33.9176 115.523 33.4852 115.804 32.9315C116.085 32.3702 116.225 31.7292 116.225 31.0086C116.225 30.2805 116.085 29.6357 115.804 29.0744C115.523 28.5131 115.125 28.0808 114.609 27.7774C114.093 27.4664 113.502 27.3109 112.834 27.3109C112.174 27.3109 111.587 27.4664 111.071 27.7774C110.563 28.0808 110.168 28.5131 109.887 29.0744C109.607 29.6357 109.47 30.2805 109.478 31.0086C109.478 31.7292 109.618 32.3702 109.899 32.9315C110.187 33.4852 110.581 33.9176 111.082 34.2286C111.59 34.532 112.174 34.6837 112.834 34.6837ZM122.813 24.7282H119.354L123.097 37.2665H126.124L128.586 29.2583L131.243 37.2665H134.224L137.979 24.7282H134.851L132.721 32.5325L130.367 24.7282H127.341L124.999 32.7044L122.813 24.7282Z" fill="black"/>
<path fill-rule="evenodd" clip-rule="evenodd" d="M39.0698 17.25L27.5603 39.75H16.7495L21.5663 30.425H21.3501C17.3764 35.5835 11.4474 38.9794 2.99951 39.75V30.5541C2.99951 30.5541 8.40382 30.2349 11.5809 26.8947H2.99951V17.2502H12.644V25.1826L12.8605 25.1818L16.8016 17.2502H24.0955V25.1323L24.3119 25.132L28.4009 17.25H39.0698ZM101.833 37.2665H104.939V19.4375H101.833V37.2665ZM84.7087 37.0844C85.3837 37.3651 86.0702 37.5054 86.7681 37.5054C87.921 37.5054 88.9526 37.2248 89.8628 36.6634C90.7729 36.1022 91.4784 35.3286 91.9791 34.3424C92.4797 33.3488 92.7299 32.2223 92.7299 30.9632C92.7299 29.7041 92.4721 28.5777 91.9563 27.584C91.4405 26.5904 90.7237 25.8205 89.8058 25.2744C88.8881 24.7206 87.8451 24.4476 86.6769 24.4552C85.9337 24.4552 85.2207 24.5993 84.538 24.8875C83.8553 25.1758 83.2865 25.5854 82.8313 26.1163C82.7962 26.1567 82.7621 26.1976 82.729 26.2388V19.4489H79.6115V37.2666H82.7062L82.7 35.6021C82.78 35.7002 82.8656 35.7961 82.9565 35.8898C83.4494 36.3981 84.0336 36.7962 84.7087 37.0844ZM87.8944 34.2059C87.3862 34.5169 86.8059 34.6724 86.1536 34.6724C85.5088 34.6724 84.9172 34.5131 84.3787 34.1946C83.8401 33.8683 83.4116 33.4247 83.0929 32.8633C82.782 32.3021 82.6264 31.6648 82.6264 30.9518C82.6189 30.2388 82.7706 29.6017 83.0816 29.0404C83.4002 28.4715 83.8287 28.0316 84.3673 27.7206C84.9058 27.402 85.5013 27.2465 86.1536 27.2541C86.8059 27.2465 87.3862 27.3982 87.8944 27.7092C88.4102 28.0126 88.8046 28.4488 89.0777 29.0176C89.3583 29.5789 89.4987 30.2237 89.4987 30.9518C89.4987 31.6801 89.3583 32.3248 89.0777 32.8861C88.8046 33.4474 88.4102 33.8873 87.8944 34.2059ZM43.5696 20.5184H47.1195L50.295 32.1154L53.6731 20.5184H56.6313L60.295 31.8827L63.3442 20.5184H66.5982L61.7968 37.2665H58.7362L55.0107 26.1645L51.591 37.2665H48.4962L43.5696 20.5184ZM71.8408 37.5623C70.6043 37.5699 69.4893 37.2968 68.4957 36.7431C67.5095 36.1818 66.7322 35.4043 66.1632 34.4106C65.6019 33.417 65.3213 32.283 65.3213 31.0086C65.3213 29.7723 65.6095 28.6535 66.186 27.6523C66.7624 26.651 67.5437 25.8697 68.5298 25.3084C69.5159 24.7471 70.6157 24.4665 71.8293 24.4665C73.1947 24.4665 74.3893 24.7699 75.4133 25.3767C76.4449 25.9835 77.2148 26.8444 77.723 27.9595C78.2388 29.0669 78.4247 30.3374 78.2805 31.771H68.5347C68.5619 32.3421 68.7044 32.8618 68.9622 33.3298C69.2504 33.8455 69.6524 34.2475 70.1682 34.5358C70.684 34.824 71.2604 34.9681 71.8977 34.9681C72.383 34.9605 72.8344 34.8771 73.2515 34.7179C73.6688 34.551 74.0214 34.3273 74.3097 34.0465C74.6055 33.7659 74.8142 33.4474 74.9355 33.0909H78.1895C77.9923 33.9631 77.5979 34.7406 77.0063 35.4233C76.4145 36.0984 75.6713 36.6255 74.7762 37.0048C73.8812 37.384 72.9027 37.5699 71.8408 37.5623ZM68.9735 28.6421C68.7918 28.9591 68.6658 29.3004 68.5957 29.6661H75.056C75.0092 29.2041 74.8665 28.7832 74.6283 28.4032C74.3552 27.9557 73.9835 27.6105 73.5133 27.3678C73.043 27.1175 72.512 26.9924 71.9204 26.9924C71.2908 26.9924 70.7182 27.1365 70.2023 27.4247C69.6865 27.7129 69.2769 28.1188 68.9735 28.6421ZM95.0173 24.7282C95.0173 23.7118 95.2485 22.8092 95.7113 22.0203C96.1739 21.2239 96.8225 20.6057 97.6569 20.1657C98.4988 19.7182 99.4811 19.4868 100.604 19.4717V22.2365C100.08 22.2441 99.6328 22.354 99.2611 22.5664C98.897 22.7712 98.6164 23.0708 98.4191 23.4653C98.2376 23.8284 98.1396 24.2494 98.1253 24.7282H100.535V27.3565H98.1234V37.2665H95.0173V27.3565H93.0148V24.7282H95.0173ZM112.834 37.5395C111.568 37.5395 110.434 37.2626 109.432 36.709C108.439 36.1476 107.657 35.374 107.089 34.3878C106.527 33.3942 106.247 32.2678 106.247 31.0086C106.247 29.742 106.527 28.6117 107.089 27.6181C107.657 26.6168 108.439 25.8393 109.432 25.2856C110.434 24.7319 111.568 24.455 112.834 24.455C114.109 24.455 115.246 24.7319 116.248 25.2856C117.256 25.8393 118.042 26.613 118.603 27.6067C119.164 28.6003 119.449 29.7343 119.456 31.0086C119.449 32.2678 119.164 33.3942 118.603 34.3878C118.049 35.374 117.268 36.1476 116.259 36.709C115.25 37.2626 114.109 37.5395 112.834 37.5395ZM112.834 34.6837C113.502 34.6837 114.093 34.532 114.609 34.2286C115.125 33.9176 115.523 33.4852 115.804 32.9315C116.085 32.3702 116.225 31.7292 116.225 31.0086C116.225 30.2805 116.085 29.6357 115.804 29.0744C115.523 28.5131 115.125 28.0808 114.609 27.7774C114.093 27.4664 113.502 27.3109 112.834 27.3109C112.174 27.3109 111.587 27.4664 111.071 27.7774C110.563 28.0808 110.168 28.5131 109.887 29.0744C109.607 29.6357 109.47 30.2805 109.478 31.0086C109.478 31.7292 109.618 32.3702 109.899 32.9315C110.187 33.4852 110.581 33.9176 111.082 34.2286C111.59 34.532 112.174 34.6837 112.834 34.6837ZM122.813 24.7282H119.354L123.097 37.2665H126.124L128.586 29.2583L131.243 37.2665H134.224L137.979 24.7282H134.851L132.721 32.5325L130.367 24.7282H127.341L124.999 32.7044L122.813 24.7282Z" fill="black"/>
<path d="M39.0698 17.25L27.5603 39.75H16.7495L21.5663 30.425H21.3501C17.3764 35.5835 11.4474 38.9794 2.99951 39.75V30.5541C2.99951 30.5541 8.40382 30.2349 11.5809 26.8947H2.99951V17.2502H12.644V25.1826L12.8605 25.1818L16.8016 17.2502H24.0955V25.1323L24.3119 25.132L28.4009 17.25H39.0698ZM101.833 37.2665H104.939V19.4375H101.833V37.2665ZM84.7087 37.0844C85.3837 37.3651 86.0702 37.5054 86.7681 37.5054C87.921 37.5054 88.9526 37.2248 89.8628 36.6634C90.7729 36.1022 91.4784 35.3286 91.9791 34.3424C92.4797 33.3488 92.7299 32.2223 92.7299 30.9632C92.7299 29.7041 92.4721 28.5777 91.9563 27.584C91.4405 26.5904 90.7237 25.8205 89.8058 25.2744C88.8881 24.7206 87.8451 24.4476 86.6769 24.4552C85.9337 24.4552 85.2207 24.5993 84.538 24.8875C83.8553 25.1758 83.2865 25.5854 82.8313 26.1163C82.7962 26.1567 82.7621 26.1976 82.729 26.2388V19.4489H79.6115V37.2666H82.7062L82.7 35.6021C82.78 35.7002 82.8656 35.7961 82.9565 35.8898C83.4494 36.3981 84.0336 36.7962 84.7087 37.0844ZM87.8944 34.2059C87.3862 34.5169 86.8059 34.6724 86.1536 34.6724C85.5088 34.6724 84.9172 34.5131 84.3787 34.1946C83.8401 33.8683 83.4116 33.4247 83.0929 32.8633C82.782 32.3021 82.6264 31.6648 82.6264 30.9518C82.6189 30.2388 82.7706 29.6017 83.0816 29.0404C83.4002 28.4715 83.8287 28.0316 84.3673 27.7206C84.9058 27.402 85.5013 27.2465 86.1536 27.2541C86.8059 27.2465 87.3862 27.3982 87.8944 27.7092C88.4102 28.0126 88.8046 28.4488 89.0777 29.0176C89.3583 29.5789 89.4987 30.2237 89.4987 30.9518C89.4987 31.6801 89.3583 32.3248 89.0777 32.8861C88.8046 33.4474 88.4102 33.8873 87.8944 34.2059ZM43.5696 20.5184H47.1195L50.295 32.1154L53.6731 20.5184H56.6313L60.295 31.8827L63.3442 20.5184H66.5982L61.7968 37.2665H58.7362L55.0107 26.1645L51.591 37.2665H48.4962L43.5696 20.5184ZM71.8408 37.5623C70.6043 37.5699 69.4893 37.2968 68.4957 36.7431C67.5095 36.1818 66.7322 35.4043 66.1632 34.4106C65.6019 33.417 65.3213 32.283 65.3213 31.0086C65.3213 29.7723 65.6095 28.6535 66.186 27.6523C66.7624 26.651 67.5437 25.8697 68.5298 25.3084C69.5159 24.7471 70.6157 24.4665 71.8293 24.4665C73.1947 24.4665 74.3893 24.7699 75.4133 25.3767C76.4449 25.9835 77.2148 26.8444 77.723 27.9595C78.2388 29.0669 78.4247 30.3374 78.2805 31.771H68.5347C68.5619 32.3421 68.7044 32.8618 68.9622 33.3298C69.2504 33.8455 69.6524 34.2475 70.1682 34.5358C70.684 34.824 71.2604 34.9681 71.8977 34.9681C72.383 34.9605 72.8344 34.8771 73.2515 34.7179C73.6688 34.551 74.0214 34.3273 74.3097 34.0465C74.6055 33.7659 74.8142 33.4474 74.9355 33.0909H78.1895C77.9923 33.9631 77.5979 34.7406 77.0063 35.4233C76.4145 36.0984 75.6713 36.6255 74.7762 37.0048C73.8812 37.384 72.9027 37.5699 71.8408 37.5623ZM68.9735 28.6421C68.7918 28.9591 68.6658 29.3004 68.5957 29.6661H75.056C75.0092 29.2041 74.8665 28.7832 74.6283 28.4032C74.3552 27.9557 73.9835 27.6105 73.5133 27.3678C73.043 27.1175 72.512 26.9924 71.9204 26.9924C71.2908 26.9924 70.7182 27.1365 70.2023 27.4247C69.6865 27.7129 69.2769 28.1188 68.9735 28.6421ZM95.0173 24.7282C95.0173 23.7118 95.2485 22.8092 95.7113 22.0203C96.1739 21.2239 96.8225 20.6057 97.6569 20.1657C98.4988 19.7182 99.4811 19.4868 100.604 19.4717V22.2365C100.08 22.2441 99.6328 22.354 99.2611 22.5664C98.897 22.7712 98.6164 23.0708 98.4191 23.4653C98.2376 23.8284 98.1396 24.2494 98.1253 24.7282H100.535V27.3565H98.1234V37.2665H95.0173V27.3565H93.0148V24.7282H95.0173ZM112.834 37.5395C111.568 37.5395 110.434 37.2626 109.432 36.709C108.439 36.1476 107.657 35.374 107.089 34.3878C106.527 33.3942 106.247 32.2678 106.247 31.0086C106.247 29.742 106.527 28.6117 107.089 27.6181C107.657 26.6168 108.439 25.8393 109.432 25.2856C110.434 24.7319 111.568 24.455 112.834 24.455C114.109 24.455 115.246 24.7319 116.248 25.2856C117.256 25.8393 118.042 26.613 118.603 27.6067C119.164 28.6003 119.449 29.7343 119.456 31.0086C119.449 32.2678 119.164 33.3942 118.603 34.3878C118.049 35.374 117.268 36.1476 116.259 36.709C115.25 37.2626 114.109 37.5395 112.834 37.5395ZM112.834 34.6837C113.502 34.6837 114.093 34.532 114.609 34.2286C115.125 33.9176 115.523 33.4852 115.804 32.9315C116.085 32.3702 116.225 31.7292 116.225 31.0086C116.225 30.2805 116.085 29.6357 115.804 29.0744C115.523 28.5131 115.125 28.0808 114.609 27.7774C114.093 27.4664 113.502 27.3109 112.834 27.3109C112.174 27.3109 111.587 27.4664 111.071 27.7774C110.563 28.0808 110.168 28.5131 109.887 29.0744C109.607 29.6357 109.47 30.2805 109.478 31.0086C109.478 31.7292 109.618 32.3702 109.899 32.9315C110.187 33.4852 110.581 33.9176 111.082 34.2286C111.59 34.532 112.174 34.6837 112.834 34.6837ZM122.813 24.7282H119.354L123.097 37.2665H126.124L128.586 29.2583L131.243 37.2665H134.224L137.979 24.7282H134.851L132.721 32.5325L130.367 24.7282H127.341L124.999 32.7044L122.813 24.7282Z" fill="black"/>
</svg>
