<svg width="140" height="57" viewBox="0 0 140 57" fill="none" xmlns="http://www.w3.org/2000/svg">
<path fill-rule="evenodd" clip-rule="evenodd" d="M38.5729 17.249L27.0634 39.749H16.2527L21.0694 30.424H20.8533C16.8796 35.5825 10.9506 38.9784 2.50269 39.749V30.5531C2.50269 30.5531 7.907 30.2339 11.084 26.8937H2.50269V17.2492H12.1472V25.1817L12.3637 25.1808L16.3048 17.2492H23.5987V25.1314L23.8151 25.131L27.9041 17.249H38.5729ZM101.336 37.2655H104.442V19.4365H101.336V37.2655ZM84.2119 37.0835C84.8869 37.3641 85.5734 37.5045 86.2712 37.5045C87.4241 37.5045 88.4557 37.2238 89.366 36.6625C90.2761 36.1012 90.9816 35.3276 91.4822 34.3415C91.9829 33.3478 92.2331 32.2213 92.2331 30.9622C92.2331 29.7031 91.9753 28.5767 91.4595 27.5831C90.9436 26.5894 90.2269 25.8195 89.309 25.2734C88.3913 24.7197 87.3482 24.4466 86.1801 24.4542C85.4369 24.4542 84.7239 24.5983 84.0411 24.8865C83.3585 25.1748 82.7896 25.5844 82.3345 26.1153C82.2994 26.1558 82.2653 26.1966 82.2321 26.2378V19.448H79.1146V37.2656H82.2094L82.2031 35.6011C82.2831 35.6992 82.3688 35.7951 82.4596 35.8888C82.9526 36.3971 83.5368 36.7952 84.2119 37.0835ZM87.3976 34.205C86.8894 34.516 86.3091 34.6715 85.6567 34.6715C85.012 34.6715 84.4204 34.5121 83.8819 34.1936C83.3432 33.8673 82.9147 33.4237 82.5961 32.8623C82.2851 32.3011 82.1296 31.6638 82.1296 30.9508C82.1221 30.2378 82.2738 29.6007 82.5848 29.0394C82.9034 28.4705 83.3319 28.0306 83.8705 27.7196C84.409 27.401 85.0045 27.2455 85.6567 27.2531C86.3091 27.2455 86.8894 27.3972 87.3976 27.7082C87.9134 28.0116 88.3078 28.4478 88.5809 29.0167C88.8615 29.578 89.0019 30.2227 89.0019 30.9508C89.0019 31.6791 88.8615 32.3238 88.5809 32.8851C88.3078 33.4465 87.9134 33.8863 87.3976 34.205ZM43.0728 20.5175H46.6226L49.7981 32.1144L53.1763 20.5175H56.1345L59.7981 31.8817L62.8474 20.5175H66.1014L61.3 37.2656H58.2394L54.5139 26.1636L51.0941 37.2656H47.9994L43.0728 20.5175ZM71.344 37.5613C70.1075 37.5689 68.9925 37.2958 67.9988 36.7422C67.0127 36.1808 66.2353 35.4033 65.6663 34.4097C65.1051 33.416 64.8245 32.282 64.8245 31.0077C64.8245 29.7713 65.1127 28.6525 65.6892 27.6513C66.2656 26.65 67.0468 25.8688 68.033 25.3075C69.0191 24.7462 70.1188 24.4655 71.3325 24.4655C72.6978 24.4655 73.8925 24.7689 74.9165 25.3757C75.9481 25.9825 76.718 26.8435 77.2262 27.9585C77.742 29.0659 77.9278 30.3364 77.7837 31.77H68.0378C68.0651 32.3412 68.2076 32.8608 68.4653 33.3288C68.7536 33.8445 69.1556 34.2465 69.6713 34.5348C70.1872 34.823 70.7636 34.9672 71.4008 34.9672C71.8862 34.9595 72.3376 34.8762 72.7547 34.7169C73.172 34.55 73.5246 34.3263 73.8128 34.0455C74.1087 33.7649 74.3173 33.4464 74.4387 33.0899H77.6927C77.4955 33.9622 77.1011 34.7397 76.5095 35.4223C75.9177 36.0974 75.1745 36.6245 74.2793 37.0038C73.3843 37.383 72.4058 37.5689 71.344 37.5613ZM68.4767 28.6412C68.295 28.9581 68.169 29.2994 68.0988 29.6652H74.5592C74.5123 29.2032 74.3697 28.7822 74.1315 28.4022C73.8583 27.9547 73.4867 27.6096 73.0165 27.3668C72.5462 27.1165 72.0152 26.9914 71.4236 26.9914C70.794 26.9914 70.2213 27.1355 69.7055 27.4237C69.1897 27.712 68.7801 28.1178 68.4767 28.6412ZM94.5204 24.7272C94.5204 23.7108 94.7517 22.8082 95.2144 22.0193C95.6771 21.2229 96.3257 20.6047 97.1601 20.1647C98.0019 19.7172 98.9843 19.4859 100.107 19.4707V22.2355C99.5834 22.2431 99.1359 22.3531 98.7643 22.5655C98.4002 22.7703 98.1196 23.0699 97.9223 23.4643C97.7408 23.8274 97.6428 24.2484 97.6284 24.7272H100.039V27.3555H97.6266V37.2656H94.5204V27.3555H92.5179V24.7272H94.5204ZM112.338 37.5385C111.071 37.5385 109.937 37.2616 108.936 36.708C107.942 36.1466 107.161 35.373 106.592 34.3869C106.03 33.3932 105.75 32.2669 105.75 31.0076C105.75 29.741 106.03 28.6108 106.592 27.6171C107.161 26.6158 107.942 25.8384 108.936 25.2847C109.937 24.7309 111.071 24.4541 112.338 24.4541C113.612 24.4541 114.75 24.7309 115.751 25.2847C116.76 25.8384 117.545 26.6121 118.106 27.6057C118.667 28.5994 118.952 29.7334 118.959 31.0076C118.952 32.2669 118.667 33.3932 118.106 34.3869C117.552 35.373 116.771 36.1466 115.762 36.708C114.753 37.2616 113.612 37.5385 112.338 37.5385ZM112.338 34.6827C113.005 34.6827 113.597 34.531 114.112 34.2276C114.628 33.9166 115.026 33.4842 115.307 32.9305C115.588 32.3692 115.728 31.7282 115.728 31.0076C115.728 30.2795 115.588 29.6347 115.307 29.0734C115.026 28.5121 114.628 28.0798 114.112 27.7764C113.597 27.4654 113.005 27.3099 112.338 27.3099C111.678 27.3099 111.09 27.4654 110.574 27.7764C110.066 28.0798 109.671 28.5121 109.391 29.0734C109.11 29.6347 108.974 30.2795 108.981 31.0076C108.981 31.7282 109.121 32.3692 109.402 32.9305C109.69 33.4842 110.085 33.9166 110.585 34.2276C111.094 34.531 111.678 34.6827 112.338 34.6827ZM122.316 24.7272H118.857L122.6 37.2655H125.627L128.089 29.2573L130.746 37.2655H133.728L137.483 24.7272H134.354L132.224 32.5315L129.87 24.7272H126.844L124.502 32.7034L122.316 24.7272Z" fill="black"/>
<path d="M38.5729 17.249L27.0634 39.749H16.2527L21.0694 30.424H20.8533C16.8796 35.5825 10.9506 38.9784 2.50269 39.749V30.5531C2.50269 30.5531 7.907 30.2339 11.084 26.8937H2.50269V17.2492H12.1472V25.1817L12.3637 25.1808L16.3048 17.2492H23.5987V25.1314L23.8151 25.131L27.9041 17.249H38.5729ZM101.336 37.2655H104.442V19.4365H101.336V37.2655ZM84.2119 37.0835C84.8869 37.3641 85.5734 37.5045 86.2712 37.5045C87.4241 37.5045 88.4557 37.2238 89.366 36.6625C90.2761 36.1012 90.9816 35.3276 91.4822 34.3415C91.9829 33.3478 92.2331 32.2213 92.2331 30.9622C92.2331 29.7031 91.9753 28.5767 91.4595 27.5831C90.9436 26.5894 90.2269 25.8195 89.309 25.2734C88.3913 24.7197 87.3482 24.4466 86.1801 24.4542C85.4369 24.4542 84.7239 24.5983 84.0411 24.8865C83.3585 25.1748 82.7896 25.5844 82.3345 26.1153C82.2994 26.1558 82.2653 26.1966 82.2321 26.2378V19.448H79.1146V37.2656H82.2094L82.2031 35.6011C82.2831 35.6992 82.3688 35.7951 82.4596 35.8888C82.9526 36.3971 83.5368 36.7952 84.2119 37.0835ZM87.3976 34.205C86.8894 34.516 86.3091 34.6715 85.6567 34.6715C85.012 34.6715 84.4204 34.5121 83.8819 34.1936C83.3432 33.8673 82.9147 33.4237 82.5961 32.8623C82.2851 32.3011 82.1296 31.6638 82.1296 30.9508C82.1221 30.2378 82.2738 29.6007 82.5848 29.0394C82.9034 28.4705 83.3319 28.0306 83.8705 27.7196C84.409 27.401 85.0045 27.2455 85.6567 27.2531C86.3091 27.2455 86.8894 27.3972 87.3976 27.7082C87.9134 28.0116 88.3078 28.4478 88.5809 29.0167C88.8615 29.578 89.0019 30.2227 89.0019 30.9508C89.0019 31.6791 88.8615 32.3238 88.5809 32.8851C88.3078 33.4465 87.9134 33.8863 87.3976 34.205ZM43.0728 20.5175H46.6226L49.7981 32.1144L53.1763 20.5175H56.1345L59.7981 31.8817L62.8474 20.5175H66.1014L61.3 37.2656H58.2394L54.5139 26.1636L51.0941 37.2656H47.9994L43.0728 20.5175ZM71.344 37.5613C70.1075 37.5689 68.9925 37.2958 67.9988 36.7422C67.0127 36.1808 66.2353 35.4033 65.6663 34.4097C65.1051 33.416 64.8245 32.282 64.8245 31.0077C64.8245 29.7713 65.1127 28.6525 65.6892 27.6513C66.2656 26.65 67.0468 25.8688 68.033 25.3075C69.0191 24.7462 70.1188 24.4655 71.3325 24.4655C72.6978 24.4655 73.8925 24.7689 74.9165 25.3757C75.9481 25.9825 76.718 26.8435 77.2262 27.9585C77.742 29.0659 77.9278 30.3364 77.7837 31.77H68.0378C68.0651 32.3412 68.2076 32.8608 68.4653 33.3288C68.7536 33.8445 69.1556 34.2465 69.6713 34.5348C70.1872 34.823 70.7636 34.9672 71.4008 34.9672C71.8862 34.9595 72.3376 34.8762 72.7547 34.7169C73.172 34.55 73.5246 34.3263 73.8128 34.0455C74.1087 33.7649 74.3173 33.4464 74.4387 33.0899H77.6927C77.4955 33.9622 77.1011 34.7397 76.5095 35.4223C75.9177 36.0974 75.1745 36.6245 74.2793 37.0038C73.3843 37.383 72.4058 37.5689 71.344 37.5613ZM68.4767 28.6412C68.295 28.9581 68.169 29.2994 68.0988 29.6652H74.5592C74.5123 29.2032 74.3697 28.7822 74.1315 28.4022C73.8583 27.9547 73.4867 27.6096 73.0165 27.3668C72.5462 27.1165 72.0152 26.9914 71.4236 26.9914C70.794 26.9914 70.2213 27.1355 69.7055 27.4237C69.1897 27.712 68.7801 28.1178 68.4767 28.6412ZM94.5204 24.7272C94.5204 23.7108 94.7517 22.8082 95.2144 22.0193C95.6771 21.2229 96.3257 20.6047 97.1601 20.1647C98.0019 19.7172 98.9843 19.4859 100.107 19.4707V22.2355C99.5834 22.2431 99.1359 22.3531 98.7643 22.5655C98.4002 22.7703 98.1196 23.0699 97.9223 23.4643C97.7408 23.8274 97.6428 24.2484 97.6284 24.7272H100.039V27.3555H97.6266V37.2656H94.5204V27.3555H92.5179V24.7272H94.5204ZM112.338 37.5385C111.071 37.5385 109.937 37.2616 108.936 36.708C107.942 36.1466 107.161 35.373 106.592 34.3869C106.03 33.3932 105.75 32.2669 105.75 31.0076C105.75 29.741 106.03 28.6108 106.592 27.6171C107.161 26.6158 107.942 25.8384 108.936 25.2847C109.937 24.7309 111.071 24.4541 112.338 24.4541C113.612 24.4541 114.75 24.7309 115.751 25.2847C116.76 25.8384 117.545 26.6121 118.106 27.6057C118.667 28.5994 118.952 29.7334 118.959 31.0076C118.952 32.2669 118.667 33.3932 118.106 34.3869C117.552 35.373 116.771 36.1466 115.762 36.708C114.753 37.2616 113.612 37.5385 112.338 37.5385ZM112.338 34.6827C113.005 34.6827 113.597 34.531 114.112 34.2276C114.628 33.9166 115.026 33.4842 115.307 32.9305C115.588 32.3692 115.728 31.7282 115.728 31.0076C115.728 30.2795 115.588 29.6347 115.307 29.0734C115.026 28.5121 114.628 28.0798 114.112 27.7764C113.597 27.4654 113.005 27.3099 112.338 27.3099C111.678 27.3099 111.09 27.4654 110.574 27.7764C110.066 28.0798 109.671 28.5121 109.391 29.0734C109.11 29.6347 108.974 30.2795 108.981 31.0076C108.981 31.7282 109.121 32.3692 109.402 32.9305C109.69 33.4842 110.085 33.9166 110.585 34.2276C111.094 34.531 111.678 34.6827 112.338 34.6827ZM122.316 24.7272H118.857L122.6 37.2655H125.627L128.089 29.2573L130.746 37.2655H133.728L137.483 24.7272H134.354L132.224 32.5315L129.87 24.7272H126.844L124.502 32.7034L122.316 24.7272Z" fill="black"/>
<path fill-rule="evenodd" clip-rule="evenodd" d="M38.5729 17.249L27.0634 39.749H16.2527L21.0694 30.424H20.8533C16.8796 35.5825 10.9506 38.9784 2.50269 39.749V30.5531C2.50269 30.5531 7.907 30.2339 11.084 26.8937H2.50269V17.2492H12.1472V25.1817L12.3637 25.1808L16.3048 17.2492H23.5987V25.1314L23.8151 25.131L27.9041 17.249H38.5729ZM101.336 37.2655H104.442V19.4365H101.336V37.2655ZM84.2119 37.0835C84.8869 37.3641 85.5734 37.5045 86.2712 37.5045C87.4241 37.5045 88.4557 37.2238 89.366 36.6625C90.2761 36.1012 90.9816 35.3276 91.4822 34.3415C91.9829 33.3478 92.2331 32.2213 92.2331 30.9622C92.2331 29.7031 91.9753 28.5767 91.4595 27.5831C90.9436 26.5894 90.2269 25.8195 89.309 25.2734C88.3913 24.7197 87.3482 24.4466 86.1801 24.4542C85.4369 24.4542 84.7239 24.5983 84.0411 24.8865C83.3585 25.1748 82.7896 25.5844 82.3345 26.1153C82.2994 26.1558 82.2653 26.1966 82.2321 26.2378V19.448H79.1146V37.2656H82.2094L82.2031 35.6011C82.2831 35.6992 82.3688 35.7951 82.4596 35.8888C82.9526 36.3971 83.5368 36.7952 84.2119 37.0835ZM87.3976 34.205C86.8894 34.516 86.3091 34.6715 85.6567 34.6715C85.012 34.6715 84.4204 34.5121 83.8819 34.1936C83.3432 33.8673 82.9147 33.4237 82.5961 32.8623C82.2851 32.3011 82.1296 31.6638 82.1296 30.9508C82.1221 30.2378 82.2738 29.6007 82.5848 29.0394C82.9034 28.4705 83.3319 28.0306 83.8705 27.7196C84.409 27.401 85.0045 27.2455 85.6567 27.2531C86.3091 27.2455 86.8894 27.3972 87.3976 27.7082C87.9134 28.0116 88.3078 28.4478 88.5809 29.0167C88.8615 29.578 89.0019 30.2227 89.0019 30.9508C89.0019 31.6791 88.8615 32.3238 88.5809 32.8851C88.3078 33.4465 87.9134 33.8863 87.3976 34.205ZM43.0728 20.5175H46.6226L49.7981 32.1144L53.1763 20.5175H56.1345L59.7981 31.8817L62.8474 20.5175H66.1014L61.3 37.2656H58.2394L54.5139 26.1636L51.0941 37.2656H47.9994L43.0728 20.5175ZM71.344 37.5613C70.1075 37.5689 68.9925 37.2958 67.9988 36.7422C67.0127 36.1808 66.2353 35.4033 65.6663 34.4097C65.1051 33.416 64.8245 32.282 64.8245 31.0077C64.8245 29.7713 65.1127 28.6525 65.6892 27.6513C66.2656 26.65 67.0468 25.8688 68.033 25.3075C69.0191 24.7462 70.1188 24.4655 71.3325 24.4655C72.6978 24.4655 73.8925 24.7689 74.9165 25.3757C75.9481 25.9825 76.718 26.8435 77.2262 27.9585C77.742 29.0659 77.9278 30.3364 77.7837 31.77H68.0378C68.0651 32.3412 68.2076 32.8608 68.4653 33.3288C68.7536 33.8445 69.1556 34.2465 69.6713 34.5348C70.1872 34.823 70.7636 34.9672 71.4008 34.9672C71.8862 34.9595 72.3376 34.8762 72.7547 34.7169C73.172 34.55 73.5246 34.3263 73.8128 34.0455C74.1087 33.7649 74.3173 33.4464 74.4387 33.0899H77.6927C77.4955 33.9622 77.1011 34.7397 76.5095 35.4223C75.9177 36.0974 75.1745 36.6245 74.2793 37.0038C73.3843 37.383 72.4058 37.5689 71.344 37.5613ZM68.4767 28.6412C68.295 28.9581 68.169 29.2994 68.0988 29.6652H74.5592C74.5123 29.2032 74.3697 28.7822 74.1315 28.4022C73.8583 27.9547 73.4867 27.6096 73.0165 27.3668C72.5462 27.1165 72.0152 26.9914 71.4236 26.9914C70.794 26.9914 70.2213 27.1355 69.7055 27.4237C69.1897 27.712 68.7801 28.1178 68.4767 28.6412ZM94.5204 24.7272C94.5204 23.7108 94.7517 22.8082 95.2144 22.0193C95.6771 21.2229 96.3257 20.6047 97.1601 20.1647C98.0019 19.7172 98.9843 19.4859 100.107 19.4707V22.2355C99.5834 22.2431 99.1359 22.3531 98.7643 22.5655C98.4002 22.7703 98.1196 23.0699 97.9223 23.4643C97.7408 23.8274 97.6428 24.2484 97.6284 24.7272H100.039V27.3555H97.6266V37.2656H94.5204V27.3555H92.5179V24.7272H94.5204ZM112.338 37.5385C111.071 37.5385 109.937 37.2616 108.936 36.708C107.942 36.1466 107.161 35.373 106.592 34.3869C106.03 33.3932 105.75 32.2669 105.75 31.0076C105.75 29.741 106.03 28.6108 106.592 27.6171C107.161 26.6158 107.942 25.8384 108.936 25.2847C109.937 24.7309 111.071 24.4541 112.338 24.4541C113.612 24.4541 114.75 24.7309 115.751 25.2847C116.76 25.8384 117.545 26.6121 118.106 27.6057C118.667 28.5994 118.952 29.7334 118.959 31.0076C118.952 32.2669 118.667 33.3932 118.106 34.3869C117.552 35.373 116.771 36.1466 115.762 36.708C114.753 37.2616 113.612 37.5385 112.338 37.5385ZM112.338 34.6827C113.005 34.6827 113.597 34.531 114.112 34.2276C114.628 33.9166 115.026 33.4842 115.307 32.9305C115.588 32.3692 115.728 31.7282 115.728 31.0076C115.728 30.2795 115.588 29.6347 115.307 29.0734C115.026 28.5121 114.628 28.0798 114.112 27.7764C113.597 27.4654 113.005 27.3099 112.338 27.3099C111.678 27.3099 111.09 27.4654 110.574 27.7764C110.066 28.0798 109.671 28.5121 109.391 29.0734C109.11 29.6347 108.974 30.2795 108.981 31.0076C108.981 31.7282 109.121 32.3692 109.402 32.9305C109.69 33.4842 110.085 33.9166 110.585 34.2276C111.094 34.531 111.678 34.6827 112.338 34.6827ZM122.316 24.7272H118.857L122.6 37.2655H125.627L128.089 29.2573L130.746 37.2655H133.728L137.483 24.7272H134.354L132.224 32.5315L129.87 24.7272H126.844L124.502 32.7034L122.316 24.7272Z" fill="black"/>
<path d="M38.5729 17.249L27.0634 39.749H16.2527L21.0694 30.424H20.8533C16.8796 35.5825 10.9506 38.9784 2.50269 39.749V30.5531C2.50269 30.5531 7.907 30.2339 11.084 26.8937H2.50269V17.2492H12.1472V25.1817L12.3637 25.1808L16.3048 17.2492H23.5987V25.1314L23.8151 25.131L27.9041 17.249H38.5729ZM101.336 37.2655H104.442V19.4365H101.336V37.2655ZM84.2119 37.0835C84.8869 37.3641 85.5734 37.5045 86.2712 37.5045C87.4241 37.5045 88.4557 37.2238 89.366 36.6625C90.2761 36.1012 90.9816 35.3276 91.4822 34.3415C91.9829 33.3478 92.2331 32.2213 92.2331 30.9622C92.2331 29.7031 91.9753 28.5767 91.4595 27.5831C90.9436 26.5894 90.2269 25.8195 89.309 25.2734C88.3913 24.7197 87.3482 24.4466 86.1801 24.4542C85.4369 24.4542 84.7239 24.5983 84.0411 24.8865C83.3585 25.1748 82.7896 25.5844 82.3345 26.1153C82.2994 26.1558 82.2653 26.1966 82.2321 26.2378V19.448H79.1146V37.2656H82.2094L82.2031 35.6011C82.2831 35.6992 82.3688 35.7951 82.4596 35.8888C82.9526 36.3971 83.5368 36.7952 84.2119 37.0835ZM87.3976 34.205C86.8894 34.516 86.3091 34.6715 85.6567 34.6715C85.012 34.6715 84.4204 34.5121 83.8819 34.1936C83.3432 33.8673 82.9147 33.4237 82.5961 32.8623C82.2851 32.3011 82.1296 31.6638 82.1296 30.9508C82.1221 30.2378 82.2738 29.6007 82.5848 29.0394C82.9034 28.4705 83.3319 28.0306 83.8705 27.7196C84.409 27.401 85.0045 27.2455 85.6567 27.2531C86.3091 27.2455 86.8894 27.3972 87.3976 27.7082C87.9134 28.0116 88.3078 28.4478 88.5809 29.0167C88.8615 29.578 89.0019 30.2227 89.0019 30.9508C89.0019 31.6791 88.8615 32.3238 88.5809 32.8851C88.3078 33.4465 87.9134 33.8863 87.3976 34.205ZM43.0728 20.5175H46.6226L49.7981 32.1144L53.1763 20.5175H56.1345L59.7981 31.8817L62.8474 20.5175H66.1014L61.3 37.2656H58.2394L54.5139 26.1636L51.0941 37.2656H47.9994L43.0728 20.5175ZM71.344 37.5613C70.1075 37.5689 68.9925 37.2958 67.9988 36.7422C67.0127 36.1808 66.2353 35.4033 65.6663 34.4097C65.1051 33.416 64.8245 32.282 64.8245 31.0077C64.8245 29.7713 65.1127 28.6525 65.6892 27.6513C66.2656 26.65 67.0468 25.8688 68.033 25.3075C69.0191 24.7462 70.1188 24.4655 71.3325 24.4655C72.6978 24.4655 73.8925 24.7689 74.9165 25.3757C75.9481 25.9825 76.718 26.8435 77.2262 27.9585C77.742 29.0659 77.9278 30.3364 77.7837 31.77H68.0378C68.0651 32.3412 68.2076 32.8608 68.4653 33.3288C68.7536 33.8445 69.1556 34.2465 69.6713 34.5348C70.1872 34.823 70.7636 34.9672 71.4008 34.9672C71.8862 34.9595 72.3376 34.8762 72.7547 34.7169C73.172 34.55 73.5246 34.3263 73.8128 34.0455C74.1087 33.7649 74.3173 33.4464 74.4387 33.0899H77.6927C77.4955 33.9622 77.1011 34.7397 76.5095 35.4223C75.9177 36.0974 75.1745 36.6245 74.2793 37.0038C73.3843 37.383 72.4058 37.5689 71.344 37.5613ZM68.4767 28.6412C68.295 28.9581 68.169 29.2994 68.0988 29.6652H74.5592C74.5123 29.2032 74.3697 28.7822 74.1315 28.4022C73.8583 27.9547 73.4867 27.6096 73.0165 27.3668C72.5462 27.1165 72.0152 26.9914 71.4236 26.9914C70.794 26.9914 70.2213 27.1355 69.7055 27.4237C69.1897 27.712 68.7801 28.1178 68.4767 28.6412ZM94.5204 24.7272C94.5204 23.7108 94.7517 22.8082 95.2144 22.0193C95.6771 21.2229 96.3257 20.6047 97.1601 20.1647C98.0019 19.7172 98.9843 19.4859 100.107 19.4707V22.2355C99.5834 22.2431 99.1359 22.3531 98.7643 22.5655C98.4002 22.7703 98.1196 23.0699 97.9223 23.4643C97.7408 23.8274 97.6428 24.2484 97.6284 24.7272H100.039V27.3555H97.6266V37.2656H94.5204V27.3555H92.5179V24.7272H94.5204ZM112.338 37.5385C111.071 37.5385 109.937 37.2616 108.936 36.708C107.942 36.1466 107.161 35.373 106.592 34.3869C106.03 33.3932 105.75 32.2669 105.75 31.0076C105.75 29.741 106.03 28.6108 106.592 27.6171C107.161 26.6158 107.942 25.8384 108.936 25.2847C109.937 24.7309 111.071 24.4541 112.338 24.4541C113.612 24.4541 114.75 24.7309 115.751 25.2847C116.76 25.8384 117.545 26.6121 118.106 27.6057C118.667 28.5994 118.952 29.7334 118.959 31.0076C118.952 32.2669 118.667 33.3932 118.106 34.3869C117.552 35.373 116.771 36.1466 115.762 36.708C114.753 37.2616 113.612 37.5385 112.338 37.5385ZM112.338 34.6827C113.005 34.6827 113.597 34.531 114.112 34.2276C114.628 33.9166 115.026 33.4842 115.307 32.9305C115.588 32.3692 115.728 31.7282 115.728 31.0076C115.728 30.2795 115.588 29.6347 115.307 29.0734C115.026 28.5121 114.628 28.0798 114.112 27.7764C113.597 27.4654 113.005 27.3099 112.338 27.3099C111.678 27.3099 111.09 27.4654 110.574 27.7764C110.066 28.0798 109.671 28.5121 109.391 29.0734C109.11 29.6347 108.974 30.2795 108.981 31.0076C108.981 31.7282 109.121 32.3692 109.402 32.9305C109.69 33.4842 110.085 33.9166 110.585 34.2276C111.094 34.531 111.678 34.6827 112.338 34.6827ZM122.316 24.7272H118.857L122.6 37.2655H125.627L128.089 29.2573L130.746 37.2655H133.728L137.483 24.7272H134.354L132.224 32.5315L129.87 24.7272H126.844L124.502 32.7034L122.316 24.7272Z" fill="black"/>
<path fill-rule="evenodd" clip-rule="evenodd" d="M38.5729 17.249L27.0634 39.749H16.2527L21.0694 30.424H20.8533C16.8796 35.5825 10.9506 38.9784 2.50269 39.749V30.5531C2.50269 30.5531 7.907 30.2339 11.084 26.8937H2.50269V17.2492H12.1472V25.1817L12.3637 25.1808L16.3048 17.2492H23.5987V25.1314L23.8151 25.131L27.9041 17.249H38.5729ZM101.336 37.2655H104.442V19.4365H101.336V37.2655ZM84.2119 37.0835C84.8869 37.3641 85.5734 37.5045 86.2712 37.5045C87.4241 37.5045 88.4557 37.2238 89.366 36.6625C90.2761 36.1012 90.9816 35.3276 91.4822 34.3415C91.9829 33.3478 92.2331 32.2213 92.2331 30.9622C92.2331 29.7031 91.9753 28.5767 91.4595 27.5831C90.9436 26.5894 90.2269 25.8195 89.309 25.2734C88.3913 24.7197 87.3482 24.4466 86.1801 24.4542C85.4369 24.4542 84.7239 24.5983 84.0411 24.8865C83.3585 25.1748 82.7896 25.5844 82.3345 26.1153C82.2994 26.1558 82.2653 26.1966 82.2321 26.2378V19.448H79.1146V37.2656H82.2094L82.2031 35.6011C82.2831 35.6992 82.3688 35.7951 82.4596 35.8888C82.9526 36.3971 83.5368 36.7952 84.2119 37.0835ZM87.3976 34.205C86.8894 34.516 86.3091 34.6715 85.6567 34.6715C85.012 34.6715 84.4204 34.5121 83.8819 34.1936C83.3432 33.8673 82.9147 33.4237 82.5961 32.8623C82.2851 32.3011 82.1296 31.6638 82.1296 30.9508C82.1221 30.2378 82.2738 29.6007 82.5848 29.0394C82.9034 28.4705 83.3319 28.0306 83.8705 27.7196C84.409 27.401 85.0045 27.2455 85.6567 27.2531C86.3091 27.2455 86.8894 27.3972 87.3976 27.7082C87.9134 28.0116 88.3078 28.4478 88.5809 29.0167C88.8615 29.578 89.0019 30.2227 89.0019 30.9508C89.0019 31.6791 88.8615 32.3238 88.5809 32.8851C88.3078 33.4465 87.9134 33.8863 87.3976 34.205ZM43.0728 20.5175H46.6226L49.7981 32.1144L53.1763 20.5175H56.1345L59.7981 31.8817L62.8474 20.5175H66.1014L61.3 37.2656H58.2394L54.5139 26.1636L51.0941 37.2656H47.9994L43.0728 20.5175ZM71.344 37.5613C70.1075 37.5689 68.9925 37.2958 67.9988 36.7422C67.0127 36.1808 66.2353 35.4033 65.6663 34.4097C65.1051 33.416 64.8245 32.282 64.8245 31.0077C64.8245 29.7713 65.1127 28.6525 65.6892 27.6513C66.2656 26.65 67.0468 25.8688 68.033 25.3075C69.0191 24.7462 70.1188 24.4655 71.3325 24.4655C72.6978 24.4655 73.8925 24.7689 74.9165 25.3757C75.9481 25.9825 76.718 26.8435 77.2262 27.9585C77.742 29.0659 77.9278 30.3364 77.7837 31.77H68.0378C68.0651 32.3412 68.2076 32.8608 68.4653 33.3288C68.7536 33.8445 69.1556 34.2465 69.6713 34.5348C70.1872 34.823 70.7636 34.9672 71.4008 34.9672C71.8862 34.9595 72.3376 34.8762 72.7547 34.7169C73.172 34.55 73.5246 34.3263 73.8128 34.0455C74.1087 33.7649 74.3173 33.4464 74.4387 33.0899H77.6927C77.4955 33.9622 77.1011 34.7397 76.5095 35.4223C75.9177 36.0974 75.1745 36.6245 74.2793 37.0038C73.3843 37.383 72.4058 37.5689 71.344 37.5613ZM68.4767 28.6412C68.295 28.9581 68.169 29.2994 68.0988 29.6652H74.5592C74.5123 29.2032 74.3697 28.7822 74.1315 28.4022C73.8583 27.9547 73.4867 27.6096 73.0165 27.3668C72.5462 27.1165 72.0152 26.9914 71.4236 26.9914C70.794 26.9914 70.2213 27.1355 69.7055 27.4237C69.1897 27.712 68.7801 28.1178 68.4767 28.6412ZM94.5204 24.7272C94.5204 23.7108 94.7517 22.8082 95.2144 22.0193C95.6771 21.2229 96.3257 20.6047 97.1601 20.1647C98.0019 19.7172 98.9843 19.4859 100.107 19.4707V22.2355C99.5834 22.2431 99.1359 22.3531 98.7643 22.5655C98.4002 22.7703 98.1196 23.0699 97.9223 23.4643C97.7408 23.8274 97.6428 24.2484 97.6284 24.7272H100.039V27.3555H97.6266V37.2656H94.5204V27.3555H92.5179V24.7272H94.5204ZM112.338 37.5385C111.071 37.5385 109.937 37.2616 108.936 36.708C107.942 36.1466 107.161 35.373 106.592 34.3869C106.03 33.3932 105.75 32.2669 105.75 31.0076C105.75 29.741 106.03 28.6108 106.592 27.6171C107.161 26.6158 107.942 25.8384 108.936 25.2847C109.937 24.7309 111.071 24.4541 112.338 24.4541C113.612 24.4541 114.75 24.7309 115.751 25.2847C116.76 25.8384 117.545 26.6121 118.106 27.6057C118.667 28.5994 118.952 29.7334 118.959 31.0076C118.952 32.2669 118.667 33.3932 118.106 34.3869C117.552 35.373 116.771 36.1466 115.762 36.708C114.753 37.2616 113.612 37.5385 112.338 37.5385ZM112.338 34.6827C113.005 34.6827 113.597 34.531 114.112 34.2276C114.628 33.9166 115.026 33.4842 115.307 32.9305C115.588 32.3692 115.728 31.7282 115.728 31.0076C115.728 30.2795 115.588 29.6347 115.307 29.0734C115.026 28.5121 114.628 28.0798 114.112 27.7764C113.597 27.4654 113.005 27.3099 112.338 27.3099C111.678 27.3099 111.09 27.4654 110.574 27.7764C110.066 28.0798 109.671 28.5121 109.391 29.0734C109.11 29.6347 108.974 30.2795 108.981 31.0076C108.981 31.7282 109.121 32.3692 109.402 32.9305C109.69 33.4842 110.085 33.9166 110.585 34.2276C111.094 34.531 111.678 34.6827 112.338 34.6827ZM122.316 24.7272H118.857L122.6 37.2655H125.627L128.089 29.2573L130.746 37.2655H133.728L137.483 24.7272H134.354L132.224 32.5315L129.87 24.7272H126.844L124.502 32.7034L122.316 24.7272Z" fill="black"/>
<path d="M38.5729 17.249L27.0634 39.749H16.2527L21.0694 30.424H20.8533C16.8796 35.5825 10.9506 38.9784 2.50269 39.749V30.5531C2.50269 30.5531 7.907 30.2339 11.084 26.8937H2.50269V17.2492H12.1472V25.1817L12.3637 25.1808L16.3048 17.2492H23.5987V25.1314L23.8151 25.131L27.9041 17.249H38.5729ZM101.336 37.2655H104.442V19.4365H101.336V37.2655ZM84.2119 37.0835C84.8869 37.3641 85.5734 37.5045 86.2712 37.5045C87.4241 37.5045 88.4557 37.2238 89.366 36.6625C90.2761 36.1012 90.9816 35.3276 91.4822 34.3415C91.9829 33.3478 92.2331 32.2213 92.2331 30.9622C92.2331 29.7031 91.9753 28.5767 91.4595 27.5831C90.9436 26.5894 90.2269 25.8195 89.309 25.2734C88.3913 24.7197 87.3482 24.4466 86.1801 24.4542C85.4369 24.4542 84.7239 24.5983 84.0411 24.8865C83.3585 25.1748 82.7896 25.5844 82.3345 26.1153C82.2994 26.1558 82.2653 26.1966 82.2321 26.2378V19.448H79.1146V37.2656H82.2094L82.2031 35.6011C82.2831 35.6992 82.3688 35.7951 82.4596 35.8888C82.9526 36.3971 83.5368 36.7952 84.2119 37.0835ZM87.3976 34.205C86.8894 34.516 86.3091 34.6715 85.6567 34.6715C85.012 34.6715 84.4204 34.5121 83.8819 34.1936C83.3432 33.8673 82.9147 33.4237 82.5961 32.8623C82.2851 32.3011 82.1296 31.6638 82.1296 30.9508C82.1221 30.2378 82.2738 29.6007 82.5848 29.0394C82.9034 28.4705 83.3319 28.0306 83.8705 27.7196C84.409 27.401 85.0045 27.2455 85.6567 27.2531C86.3091 27.2455 86.8894 27.3972 87.3976 27.7082C87.9134 28.0116 88.3078 28.4478 88.5809 29.0167C88.8615 29.578 89.0019 30.2227 89.0019 30.9508C89.0019 31.6791 88.8615 32.3238 88.5809 32.8851C88.3078 33.4465 87.9134 33.8863 87.3976 34.205ZM43.0728 20.5175H46.6226L49.7981 32.1144L53.1763 20.5175H56.1345L59.7981 31.8817L62.8474 20.5175H66.1014L61.3 37.2656H58.2394L54.5139 26.1636L51.0941 37.2656H47.9994L43.0728 20.5175ZM71.344 37.5613C70.1075 37.5689 68.9925 37.2958 67.9988 36.7422C67.0127 36.1808 66.2353 35.4033 65.6663 34.4097C65.1051 33.416 64.8245 32.282 64.8245 31.0077C64.8245 29.7713 65.1127 28.6525 65.6892 27.6513C66.2656 26.65 67.0468 25.8688 68.033 25.3075C69.0191 24.7462 70.1188 24.4655 71.3325 24.4655C72.6978 24.4655 73.8925 24.7689 74.9165 25.3757C75.9481 25.9825 76.718 26.8435 77.2262 27.9585C77.742 29.0659 77.9278 30.3364 77.7837 31.77H68.0378C68.0651 32.3412 68.2076 32.8608 68.4653 33.3288C68.7536 33.8445 69.1556 34.2465 69.6713 34.5348C70.1872 34.823 70.7636 34.9672 71.4008 34.9672C71.8862 34.9595 72.3376 34.8762 72.7547 34.7169C73.172 34.55 73.5246 34.3263 73.8128 34.0455C74.1087 33.7649 74.3173 33.4464 74.4387 33.0899H77.6927C77.4955 33.9622 77.1011 34.7397 76.5095 35.4223C75.9177 36.0974 75.1745 36.6245 74.2793 37.0038C73.3843 37.383 72.4058 37.5689 71.344 37.5613ZM68.4767 28.6412C68.295 28.9581 68.169 29.2994 68.0988 29.6652H74.5592C74.5123 29.2032 74.3697 28.7822 74.1315 28.4022C73.8583 27.9547 73.4867 27.6096 73.0165 27.3668C72.5462 27.1165 72.0152 26.9914 71.4236 26.9914C70.794 26.9914 70.2213 27.1355 69.7055 27.4237C69.1897 27.712 68.7801 28.1178 68.4767 28.6412ZM94.5204 24.7272C94.5204 23.7108 94.7517 22.8082 95.2144 22.0193C95.6771 21.2229 96.3257 20.6047 97.1601 20.1647C98.0019 19.7172 98.9843 19.4859 100.107 19.4707V22.2355C99.5834 22.2431 99.1359 22.3531 98.7643 22.5655C98.4002 22.7703 98.1196 23.0699 97.9223 23.4643C97.7408 23.8274 97.6428 24.2484 97.6284 24.7272H100.039V27.3555H97.6266V37.2656H94.5204V27.3555H92.5179V24.7272H94.5204ZM112.338 37.5385C111.071 37.5385 109.937 37.2616 108.936 36.708C107.942 36.1466 107.161 35.373 106.592 34.3869C106.03 33.3932 105.75 32.2669 105.75 31.0076C105.75 29.741 106.03 28.6108 106.592 27.6171C107.161 26.6158 107.942 25.8384 108.936 25.2847C109.937 24.7309 111.071 24.4541 112.338 24.4541C113.612 24.4541 114.75 24.7309 115.751 25.2847C116.76 25.8384 117.545 26.6121 118.106 27.6057C118.667 28.5994 118.952 29.7334 118.959 31.0076C118.952 32.2669 118.667 33.3932 118.106 34.3869C117.552 35.373 116.771 36.1466 115.762 36.708C114.753 37.2616 113.612 37.5385 112.338 37.5385ZM112.338 34.6827C113.005 34.6827 113.597 34.531 114.112 34.2276C114.628 33.9166 115.026 33.4842 115.307 32.9305C115.588 32.3692 115.728 31.7282 115.728 31.0076C115.728 30.2795 115.588 29.6347 115.307 29.0734C115.026 28.5121 114.628 28.0798 114.112 27.7764C113.597 27.4654 113.005 27.3099 112.338 27.3099C111.678 27.3099 111.09 27.4654 110.574 27.7764C110.066 28.0798 109.671 28.5121 109.391 29.0734C109.11 29.6347 108.974 30.2795 108.981 31.0076C108.981 31.7282 109.121 32.3692 109.402 32.9305C109.69 33.4842 110.085 33.9166 110.585 34.2276C111.094 34.531 111.678 34.6827 112.338 34.6827ZM122.316 24.7272H118.857L122.6 37.2655H125.627L128.089 29.2573L130.746 37.2655H133.728L137.483 24.7272H134.354L132.224 32.5315L129.87 24.7272H126.844L124.502 32.7034L122.316 24.7272Z" fill="black"/>
<path fill-rule="evenodd" clip-rule="evenodd" d="M38.5729 17.249L27.0634 39.749H16.2527L21.0694 30.424H20.8533C16.8796 35.5825 10.9506 38.9784 2.50269 39.749V30.5531C2.50269 30.5531 7.907 30.2339 11.084 26.8937H2.50269V17.2492H12.1472V25.1817L12.3637 25.1808L16.3048 17.2492H23.5987V25.1314L23.8151 25.131L27.9041 17.249H38.5729ZM101.336 37.2655H104.442V19.4365H101.336V37.2655ZM84.2119 37.0835C84.8869 37.3641 85.5734 37.5045 86.2712 37.5045C87.4241 37.5045 88.4557 37.2238 89.366 36.6625C90.2761 36.1012 90.9816 35.3276 91.4822 34.3415C91.9829 33.3478 92.2331 32.2213 92.2331 30.9622C92.2331 29.7031 91.9753 28.5767 91.4595 27.5831C90.9436 26.5894 90.2269 25.8195 89.309 25.2734C88.3913 24.7197 87.3482 24.4466 86.1801 24.4542C85.4369 24.4542 84.7239 24.5983 84.0411 24.8865C83.3585 25.1748 82.7896 25.5844 82.3345 26.1153C82.2994 26.1558 82.2653 26.1966 82.2321 26.2378V19.448H79.1146V37.2656H82.2094L82.2031 35.6011C82.2831 35.6992 82.3688 35.7951 82.4596 35.8888C82.9526 36.3971 83.5368 36.7952 84.2119 37.0835ZM87.3976 34.205C86.8894 34.516 86.3091 34.6715 85.6567 34.6715C85.012 34.6715 84.4204 34.5121 83.8819 34.1936C83.3432 33.8673 82.9147 33.4237 82.5961 32.8623C82.2851 32.3011 82.1296 31.6638 82.1296 30.9508C82.1221 30.2378 82.2738 29.6007 82.5848 29.0394C82.9034 28.4705 83.3319 28.0306 83.8705 27.7196C84.409 27.401 85.0045 27.2455 85.6567 27.2531C86.3091 27.2455 86.8894 27.3972 87.3976 27.7082C87.9134 28.0116 88.3078 28.4478 88.5809 29.0167C88.8615 29.578 89.0019 30.2227 89.0019 30.9508C89.0019 31.6791 88.8615 32.3238 88.5809 32.8851C88.3078 33.4465 87.9134 33.8863 87.3976 34.205ZM43.0728 20.5175H46.6226L49.7981 32.1144L53.1763 20.5175H56.1345L59.7981 31.8817L62.8474 20.5175H66.1014L61.3 37.2656H58.2394L54.5139 26.1636L51.0941 37.2656H47.9994L43.0728 20.5175ZM71.344 37.5613C70.1075 37.5689 68.9925 37.2958 67.9988 36.7422C67.0127 36.1808 66.2353 35.4033 65.6663 34.4097C65.1051 33.416 64.8245 32.282 64.8245 31.0077C64.8245 29.7713 65.1127 28.6525 65.6892 27.6513C66.2656 26.65 67.0468 25.8688 68.033 25.3075C69.0191 24.7462 70.1188 24.4655 71.3325 24.4655C72.6978 24.4655 73.8925 24.7689 74.9165 25.3757C75.9481 25.9825 76.718 26.8435 77.2262 27.9585C77.742 29.0659 77.9278 30.3364 77.7837 31.77H68.0378C68.0651 32.3412 68.2076 32.8608 68.4653 33.3288C68.7536 33.8445 69.1556 34.2465 69.6713 34.5348C70.1872 34.823 70.7636 34.9672 71.4008 34.9672C71.8862 34.9595 72.3376 34.8762 72.7547 34.7169C73.172 34.55 73.5246 34.3263 73.8128 34.0455C74.1087 33.7649 74.3173 33.4464 74.4387 33.0899H77.6927C77.4955 33.9622 77.1011 34.7397 76.5095 35.4223C75.9177 36.0974 75.1745 36.6245 74.2793 37.0038C73.3843 37.383 72.4058 37.5689 71.344 37.5613ZM68.4767 28.6412C68.295 28.9581 68.169 29.2994 68.0988 29.6652H74.5592C74.5123 29.2032 74.3697 28.7822 74.1315 28.4022C73.8583 27.9547 73.4867 27.6096 73.0165 27.3668C72.5462 27.1165 72.0152 26.9914 71.4236 26.9914C70.794 26.9914 70.2213 27.1355 69.7055 27.4237C69.1897 27.712 68.7801 28.1178 68.4767 28.6412ZM94.5204 24.7272C94.5204 23.7108 94.7517 22.8082 95.2144 22.0193C95.6771 21.2229 96.3257 20.6047 97.1601 20.1647C98.0019 19.7172 98.9843 19.4859 100.107 19.4707V22.2355C99.5834 22.2431 99.1359 22.3531 98.7643 22.5655C98.4002 22.7703 98.1196 23.0699 97.9223 23.4643C97.7408 23.8274 97.6428 24.2484 97.6284 24.7272H100.039V27.3555H97.6266V37.2656H94.5204V27.3555H92.5179V24.7272H94.5204ZM112.338 37.5385C111.071 37.5385 109.937 37.2616 108.936 36.708C107.942 36.1466 107.161 35.373 106.592 34.3869C106.03 33.3932 105.75 32.2669 105.75 31.0076C105.75 29.741 106.03 28.6108 106.592 27.6171C107.161 26.6158 107.942 25.8384 108.936 25.2847C109.937 24.7309 111.071 24.4541 112.338 24.4541C113.612 24.4541 114.75 24.7309 115.751 25.2847C116.76 25.8384 117.545 26.6121 118.106 27.6057C118.667 28.5994 118.952 29.7334 118.959 31.0076C118.952 32.2669 118.667 33.3932 118.106 34.3869C117.552 35.373 116.771 36.1466 115.762 36.708C114.753 37.2616 113.612 37.5385 112.338 37.5385ZM112.338 34.6827C113.005 34.6827 113.597 34.531 114.112 34.2276C114.628 33.9166 115.026 33.4842 115.307 32.9305C115.588 32.3692 115.728 31.7282 115.728 31.0076C115.728 30.2795 115.588 29.6347 115.307 29.0734C115.026 28.5121 114.628 28.0798 114.112 27.7764C113.597 27.4654 113.005 27.3099 112.338 27.3099C111.678 27.3099 111.09 27.4654 110.574 27.7764C110.066 28.0798 109.671 28.5121 109.391 29.0734C109.11 29.6347 108.974 30.2795 108.981 31.0076C108.981 31.7282 109.121 32.3692 109.402 32.9305C109.69 33.4842 110.085 33.9166 110.585 34.2276C111.094 34.531 111.678 34.6827 112.338 34.6827ZM122.316 24.7272H118.857L122.6 37.2655H125.627L128.089 29.2573L130.746 37.2655H133.728L137.483 24.7272H134.354L132.224 32.5315L129.87 24.7272H126.844L124.502 32.7034L122.316 24.7272Z" fill="black"/>
<path d="M38.5729 17.249L27.0634 39.749H16.2527L21.0694 30.424H20.8533C16.8796 35.5825 10.9506 38.9784 2.50269 39.749V30.5531C2.50269 30.5531 7.907 30.2339 11.084 26.8937H2.50269V17.2492H12.1472V25.1817L12.3637 25.1808L16.3048 17.2492H23.5987V25.1314L23.8151 25.131L27.9041 17.249H38.5729ZM101.336 37.2655H104.442V19.4365H101.336V37.2655ZM84.2119 37.0835C84.8869 37.3641 85.5734 37.5045 86.2712 37.5045C87.4241 37.5045 88.4557 37.2238 89.366 36.6625C90.2761 36.1012 90.9816 35.3276 91.4822 34.3415C91.9829 33.3478 92.2331 32.2213 92.2331 30.9622C92.2331 29.7031 91.9753 28.5767 91.4595 27.5831C90.9436 26.5894 90.2269 25.8195 89.309 25.2734C88.3913 24.7197 87.3482 24.4466 86.1801 24.4542C85.4369 24.4542 84.7239 24.5983 84.0411 24.8865C83.3585 25.1748 82.7896 25.5844 82.3345 26.1153C82.2994 26.1558 82.2653 26.1966 82.2321 26.2378V19.448H79.1146V37.2656H82.2094L82.2031 35.6011C82.2831 35.6992 82.3688 35.7951 82.4596 35.8888C82.9526 36.3971 83.5368 36.7952 84.2119 37.0835ZM87.3976 34.205C86.8894 34.516 86.3091 34.6715 85.6567 34.6715C85.012 34.6715 84.4204 34.5121 83.8819 34.1936C83.3432 33.8673 82.9147 33.4237 82.5961 32.8623C82.2851 32.3011 82.1296 31.6638 82.1296 30.9508C82.1221 30.2378 82.2738 29.6007 82.5848 29.0394C82.9034 28.4705 83.3319 28.0306 83.8705 27.7196C84.409 27.401 85.0045 27.2455 85.6567 27.2531C86.3091 27.2455 86.8894 27.3972 87.3976 27.7082C87.9134 28.0116 88.3078 28.4478 88.5809 29.0167C88.8615 29.578 89.0019 30.2227 89.0019 30.9508C89.0019 31.6791 88.8615 32.3238 88.5809 32.8851C88.3078 33.4465 87.9134 33.8863 87.3976 34.205ZM43.0728 20.5175H46.6226L49.7981 32.1144L53.1763 20.5175H56.1345L59.7981 31.8817L62.8474 20.5175H66.1014L61.3 37.2656H58.2394L54.5139 26.1636L51.0941 37.2656H47.9994L43.0728 20.5175ZM71.344 37.5613C70.1075 37.5689 68.9925 37.2958 67.9988 36.7422C67.0127 36.1808 66.2353 35.4033 65.6663 34.4097C65.1051 33.416 64.8245 32.282 64.8245 31.0077C64.8245 29.7713 65.1127 28.6525 65.6892 27.6513C66.2656 26.65 67.0468 25.8688 68.033 25.3075C69.0191 24.7462 70.1188 24.4655 71.3325 24.4655C72.6978 24.4655 73.8925 24.7689 74.9165 25.3757C75.9481 25.9825 76.718 26.8435 77.2262 27.9585C77.742 29.0659 77.9278 30.3364 77.7837 31.77H68.0378C68.0651 32.3412 68.2076 32.8608 68.4653 33.3288C68.7536 33.8445 69.1556 34.2465 69.6713 34.5348C70.1872 34.823 70.7636 34.9672 71.4008 34.9672C71.8862 34.9595 72.3376 34.8762 72.7547 34.7169C73.172 34.55 73.5246 34.3263 73.8128 34.0455C74.1087 33.7649 74.3173 33.4464 74.4387 33.0899H77.6927C77.4955 33.9622 77.1011 34.7397 76.5095 35.4223C75.9177 36.0974 75.1745 36.6245 74.2793 37.0038C73.3843 37.383 72.4058 37.5689 71.344 37.5613ZM68.4767 28.6412C68.295 28.9581 68.169 29.2994 68.0988 29.6652H74.5592C74.5123 29.2032 74.3697 28.7822 74.1315 28.4022C73.8583 27.9547 73.4867 27.6096 73.0165 27.3668C72.5462 27.1165 72.0152 26.9914 71.4236 26.9914C70.794 26.9914 70.2213 27.1355 69.7055 27.4237C69.1897 27.712 68.7801 28.1178 68.4767 28.6412ZM94.5204 24.7272C94.5204 23.7108 94.7517 22.8082 95.2144 22.0193C95.6771 21.2229 96.3257 20.6047 97.1601 20.1647C98.0019 19.7172 98.9843 19.4859 100.107 19.4707V22.2355C99.5834 22.2431 99.1359 22.3531 98.7643 22.5655C98.4002 22.7703 98.1196 23.0699 97.9223 23.4643C97.7408 23.8274 97.6428 24.2484 97.6284 24.7272H100.039V27.3555H97.6266V37.2656H94.5204V27.3555H92.5179V24.7272H94.5204ZM112.338 37.5385C111.071 37.5385 109.937 37.2616 108.936 36.708C107.942 36.1466 107.161 35.373 106.592 34.3869C106.03 33.3932 105.75 32.2669 105.75 31.0076C105.75 29.741 106.03 28.6108 106.592 27.6171C107.161 26.6158 107.942 25.8384 108.936 25.2847C109.937 24.7309 111.071 24.4541 112.338 24.4541C113.612 24.4541 114.75 24.7309 115.751 25.2847C116.76 25.8384 117.545 26.6121 118.106 27.6057C118.667 28.5994 118.952 29.7334 118.959 31.0076C118.952 32.2669 118.667 33.3932 118.106 34.3869C117.552 35.373 116.771 36.1466 115.762 36.708C114.753 37.2616 113.612 37.5385 112.338 37.5385ZM112.338 34.6827C113.005 34.6827 113.597 34.531 114.112 34.2276C114.628 33.9166 115.026 33.4842 115.307 32.9305C115.588 32.3692 115.728 31.7282 115.728 31.0076C115.728 30.2795 115.588 29.6347 115.307 29.0734C115.026 28.5121 114.628 28.0798 114.112 27.7764C113.597 27.4654 113.005 27.3099 112.338 27.3099C111.678 27.3099 111.09 27.4654 110.574 27.7764C110.066 28.0798 109.671 28.5121 109.391 29.0734C109.11 29.6347 108.974 30.2795 108.981 31.0076C108.981 31.7282 109.121 32.3692 109.402 32.9305C109.69 33.4842 110.085 33.9166 110.585 34.2276C111.094 34.531 111.678 34.6827 112.338 34.6827ZM122.316 24.7272H118.857L122.6 37.2655H125.627L128.089 29.2573L130.746 37.2655H133.728L137.483 24.7272H134.354L132.224 32.5315L129.87 24.7272H126.844L124.502 32.7034L122.316 24.7272Z" fill="black"/>
</svg>
