<svg width="141" height="57" viewBox="0 0 141 57" fill="none" xmlns="http://www.w3.org/2000/svg">
<path fill-rule="evenodd" clip-rule="evenodd" d="M39.0695 17.6387L27.56 40.1387H16.7493L21.566 30.8137H21.3499C17.3761 35.9722 11.4471 39.368 2.99927 40.1387V30.9428C2.99927 30.9428 8.40358 30.6235 11.5806 27.2834H2.99927V17.6388H12.6438V25.5713L12.8602 25.5704L16.8014 17.6388H24.0953V25.521L24.3116 25.5207L28.4006 17.6387H39.0695ZM101.832 37.6552H104.938V19.8262H101.832V37.6552ZM84.7085 37.4731C85.3835 37.7537 86.07 37.8941 86.7678 37.8941C87.9207 37.8941 88.9523 37.6135 89.8626 37.0521C90.7727 36.4909 91.4782 35.7172 91.9788 34.7311C92.4795 33.7375 92.7297 32.611 92.7297 31.3519C92.7297 30.0927 92.4718 28.9664 91.9561 27.9727C91.4402 26.9791 90.7235 26.2092 89.8056 25.663C88.8878 25.1093 87.8448 24.8363 86.6767 24.8438C85.9335 24.8438 85.2205 24.988 84.5377 25.2762C83.8551 25.5644 83.2862 25.974 82.8311 26.505C82.796 26.5454 82.7618 26.5862 82.7287 26.6275V19.8376H79.6112V37.6552H82.706L82.6997 35.9907C82.7797 36.0889 82.8653 36.1847 82.9562 36.2785C83.4492 36.7867 84.0333 37.1849 84.7085 37.4731ZM87.8942 34.5946C87.386 34.9056 86.8057 35.0611 86.1533 35.0611C85.5086 35.0611 84.917 34.9017 84.3785 34.5832C83.8398 34.257 83.4113 33.8134 83.0927 33.252C82.7817 32.6907 82.6262 32.0535 82.6262 31.3405C82.6187 30.6275 82.7703 29.9904 83.0813 29.4291C83.4 28.8602 83.8285 28.4202 84.3671 28.1093C84.9056 27.7907 85.5011 27.6352 86.1533 27.6428C86.8057 27.6352 87.386 27.7869 87.8942 28.0979C88.41 28.4013 88.8043 28.8374 89.0775 29.4063C89.3581 29.9676 89.4985 30.6124 89.4985 31.3405C89.4985 32.0687 89.3581 32.7135 89.0775 33.2747C88.8043 33.8361 88.41 34.276 87.8942 34.5946ZM43.5693 20.9071H47.1192L50.2947 32.5041L53.6728 20.9071H56.6311L60.2947 32.2713L63.344 20.9071H66.598L61.7966 37.6552H58.736L55.0105 26.5532L51.5907 37.6552H48.496L43.5693 20.9071ZM71.8405 37.9509C70.604 37.9586 69.489 37.6854 68.4954 37.1318C67.5093 36.5704 66.7319 35.7929 66.1629 34.7993C65.6017 33.8057 65.321 32.6717 65.321 31.3973C65.321 30.1609 65.6093 29.0422 66.1858 28.0409C66.7622 27.0397 67.5434 26.2584 68.5295 25.6971C69.5157 25.1358 70.6154 24.8552 71.829 24.8552C73.1944 24.8552 74.389 25.1586 75.413 25.7654C76.4447 26.3722 77.2145 27.2331 77.7228 28.3481C78.2385 29.4556 78.4244 30.7261 78.2803 32.1597H68.5344C68.5617 32.7308 68.7042 33.2504 68.9619 33.7184C69.2502 34.2342 69.6522 34.6362 70.1679 34.9244C70.6838 35.2127 71.2602 35.3568 71.8974 35.3568C72.3828 35.3492 72.8342 35.2658 73.2513 35.1066C73.6685 34.9397 74.0212 34.7159 74.3094 34.4352C74.6053 34.1546 74.8139 33.8361 74.9353 33.4796H78.1893C77.9921 34.3518 77.5977 35.1293 77.006 35.8119C76.4143 36.4871 75.671 37.0142 74.7759 37.3934C73.8809 37.7727 72.9024 37.9586 71.8405 37.9509ZM68.9733 29.0308C68.7915 29.3478 68.6655 29.6891 68.5954 30.0548H75.0558C75.0089 29.5928 74.8663 29.1718 74.628 28.7919C74.3549 28.3443 73.9833 27.9992 73.513 27.7565C73.0428 27.5062 72.5118 27.381 71.9202 27.381C71.2906 27.381 70.7179 27.5251 70.202 27.8134C69.6863 28.1016 69.2767 28.5074 68.9733 29.0308ZM95.017 25.1169C95.017 24.1005 95.2483 23.1978 95.711 22.409C96.1736 21.6125 96.8223 20.9943 97.6566 20.5544C98.4985 20.1069 99.4809 19.8755 100.603 19.8604V22.6251C100.08 22.6327 99.6325 22.7427 99.2609 22.9551C98.8968 23.1599 98.6161 23.4595 98.4189 23.8539C98.2374 24.2171 98.1394 24.638 98.125 25.1169H100.535V27.7451H98.1232V37.6552H95.017V27.7451H93.0145V25.1169H95.017ZM112.834 37.9281C111.567 37.9281 110.433 37.6513 109.432 37.0976C108.438 36.5363 107.657 35.7626 107.088 34.7765C106.527 33.7829 106.246 32.6565 106.246 31.3973C106.246 30.1306 106.527 29.0004 107.088 28.0067C107.657 27.0055 108.438 26.228 109.432 25.6743C110.433 25.1206 111.567 24.8437 112.834 24.8437C114.108 24.8437 115.246 25.1206 116.247 25.6743C117.256 26.228 118.041 27.0017 118.603 27.9954C119.164 28.989 119.448 30.123 119.456 31.3973C119.448 32.6565 119.164 33.7829 118.603 34.7765C118.049 35.7626 117.268 36.5363 116.259 37.0976C115.25 37.6513 114.108 37.9281 112.834 37.9281ZM112.834 35.0724C113.502 35.0724 114.093 34.9206 114.609 34.6173C115.125 34.3063 115.523 33.8739 115.804 33.3201C116.084 32.7589 116.225 32.1179 116.225 31.3973C116.225 30.6691 116.084 30.0244 115.804 29.4631C115.523 28.9018 115.125 28.4694 114.609 28.166C114.093 27.855 113.502 27.6995 112.834 27.6995C112.174 27.6995 111.586 27.855 111.07 28.166C110.562 28.4694 110.168 28.9018 109.887 29.4631C109.607 30.0244 109.47 30.6691 109.478 31.3973C109.478 32.1179 109.618 32.7589 109.899 33.3201C110.187 33.8739 110.581 34.3063 111.082 34.6173C111.59 34.9206 112.174 35.0724 112.834 35.0724ZM122.812 25.1169H119.354L123.097 37.6552H126.123L128.585 29.6469L131.243 37.6552H134.224L137.979 25.1169H134.85L132.72 32.9212L130.367 25.1169H127.341L124.999 33.0931L122.812 25.1169Z" fill="black"/>
<path d="M39.0695 17.6387L27.56 40.1387H16.7493L21.566 30.8137H21.3499C17.3761 35.9722 11.4471 39.368 2.99927 40.1387V30.9428C2.99927 30.9428 8.40358 30.6235 11.5806 27.2834H2.99927V17.6388H12.6438V25.5713L12.8602 25.5704L16.8014 17.6388H24.0953V25.521L24.3116 25.5207L28.4006 17.6387H39.0695ZM101.832 37.6552H104.938V19.8262H101.832V37.6552ZM84.7085 37.4731C85.3835 37.7537 86.07 37.8941 86.7678 37.8941C87.9207 37.8941 88.9523 37.6135 89.8626 37.0521C90.7727 36.4909 91.4782 35.7172 91.9788 34.7311C92.4795 33.7375 92.7297 32.611 92.7297 31.3519C92.7297 30.0927 92.4718 28.9664 91.9561 27.9727C91.4402 26.9791 90.7235 26.2092 89.8056 25.663C88.8878 25.1093 87.8448 24.8363 86.6767 24.8438C85.9335 24.8438 85.2205 24.988 84.5377 25.2762C83.8551 25.5644 83.2862 25.974 82.8311 26.505C82.796 26.5454 82.7618 26.5862 82.7287 26.6275V19.8376H79.6112V37.6552H82.706L82.6997 35.9907C82.7797 36.0889 82.8653 36.1847 82.9562 36.2785C83.4492 36.7867 84.0333 37.1849 84.7085 37.4731ZM87.8942 34.5946C87.386 34.9056 86.8057 35.0611 86.1533 35.0611C85.5086 35.0611 84.917 34.9017 84.3785 34.5832C83.8398 34.257 83.4113 33.8134 83.0927 33.252C82.7817 32.6907 82.6262 32.0535 82.6262 31.3405C82.6187 30.6275 82.7703 29.9904 83.0813 29.4291C83.4 28.8602 83.8285 28.4202 84.3671 28.1093C84.9056 27.7907 85.5011 27.6352 86.1533 27.6428C86.8057 27.6352 87.386 27.7869 87.8942 28.0979C88.41 28.4013 88.8043 28.8374 89.0775 29.4063C89.3581 29.9676 89.4985 30.6124 89.4985 31.3405C89.4985 32.0687 89.3581 32.7135 89.0775 33.2747C88.8043 33.8361 88.41 34.276 87.8942 34.5946ZM43.5693 20.9071H47.1192L50.2947 32.5041L53.6728 20.9071H56.6311L60.2947 32.2713L63.344 20.9071H66.598L61.7966 37.6552H58.736L55.0105 26.5532L51.5907 37.6552H48.496L43.5693 20.9071ZM71.8405 37.9509C70.604 37.9586 69.489 37.6854 68.4954 37.1318C67.5093 36.5704 66.7319 35.7929 66.1629 34.7993C65.6017 33.8057 65.321 32.6717 65.321 31.3973C65.321 30.1609 65.6093 29.0422 66.1858 28.0409C66.7622 27.0397 67.5434 26.2584 68.5295 25.6971C69.5157 25.1358 70.6154 24.8552 71.829 24.8552C73.1944 24.8552 74.389 25.1586 75.413 25.7654C76.4447 26.3722 77.2145 27.2331 77.7228 28.3481C78.2385 29.4556 78.4244 30.7261 78.2803 32.1597H68.5344C68.5617 32.7308 68.7042 33.2504 68.9619 33.7184C69.2502 34.2342 69.6522 34.6362 70.1679 34.9244C70.6838 35.2127 71.2602 35.3568 71.8974 35.3568C72.3828 35.3492 72.8342 35.2658 73.2513 35.1066C73.6685 34.9397 74.0212 34.7159 74.3094 34.4352C74.6053 34.1546 74.8139 33.8361 74.9353 33.4796H78.1893C77.9921 34.3518 77.5977 35.1293 77.006 35.8119C76.4143 36.4871 75.671 37.0142 74.7759 37.3934C73.8809 37.7727 72.9024 37.9586 71.8405 37.9509ZM68.9733 29.0308C68.7915 29.3478 68.6655 29.6891 68.5954 30.0548H75.0558C75.0089 29.5928 74.8663 29.1718 74.628 28.7919C74.3549 28.3443 73.9833 27.9992 73.513 27.7565C73.0428 27.5062 72.5118 27.381 71.9202 27.381C71.2906 27.381 70.7179 27.5251 70.202 27.8134C69.6863 28.1016 69.2767 28.5074 68.9733 29.0308ZM95.017 25.1169C95.017 24.1005 95.2483 23.1978 95.711 22.409C96.1736 21.6125 96.8223 20.9943 97.6566 20.5544C98.4985 20.1069 99.4809 19.8755 100.603 19.8604V22.6251C100.08 22.6327 99.6325 22.7427 99.2609 22.9551C98.8968 23.1599 98.6161 23.4595 98.4189 23.8539C98.2374 24.2171 98.1394 24.638 98.125 25.1169H100.535V27.7451H98.1232V37.6552H95.017V27.7451H93.0145V25.1169H95.017ZM112.834 37.9281C111.567 37.9281 110.433 37.6513 109.432 37.0976C108.438 36.5363 107.657 35.7626 107.088 34.7765C106.527 33.7829 106.246 32.6565 106.246 31.3973C106.246 30.1306 106.527 29.0004 107.088 28.0067C107.657 27.0055 108.438 26.228 109.432 25.6743C110.433 25.1206 111.567 24.8437 112.834 24.8437C114.108 24.8437 115.246 25.1206 116.247 25.6743C117.256 26.228 118.041 27.0017 118.603 27.9954C119.164 28.989 119.448 30.123 119.456 31.3973C119.448 32.6565 119.164 33.7829 118.603 34.7765C118.049 35.7626 117.268 36.5363 116.259 37.0976C115.25 37.6513 114.108 37.9281 112.834 37.9281ZM112.834 35.0724C113.502 35.0724 114.093 34.9206 114.609 34.6173C115.125 34.3063 115.523 33.8739 115.804 33.3201C116.084 32.7589 116.225 32.1179 116.225 31.3973C116.225 30.6691 116.084 30.0244 115.804 29.4631C115.523 28.9018 115.125 28.4694 114.609 28.166C114.093 27.855 113.502 27.6995 112.834 27.6995C112.174 27.6995 111.586 27.855 111.07 28.166C110.562 28.4694 110.168 28.9018 109.887 29.4631C109.607 30.0244 109.47 30.6691 109.478 31.3973C109.478 32.1179 109.618 32.7589 109.899 33.3201C110.187 33.8739 110.581 34.3063 111.082 34.6173C111.59 34.9206 112.174 35.0724 112.834 35.0724ZM122.812 25.1169H119.354L123.097 37.6552H126.123L128.585 29.6469L131.243 37.6552H134.224L137.979 25.1169H134.85L132.72 32.9212L130.367 25.1169H127.341L124.999 33.0931L122.812 25.1169Z" fill="black"/>
<path fill-rule="evenodd" clip-rule="evenodd" d="M39.0695 17.6387L27.56 40.1387H16.7493L21.566 30.8137H21.3499C17.3761 35.9722 11.4471 39.368 2.99927 40.1387V30.9428C2.99927 30.9428 8.40358 30.6235 11.5806 27.2834H2.99927V17.6388H12.6438V25.5713L12.8602 25.5704L16.8014 17.6388H24.0953V25.521L24.3116 25.5207L28.4006 17.6387H39.0695ZM101.832 37.6552H104.938V19.8262H101.832V37.6552ZM84.7085 37.4731C85.3835 37.7537 86.07 37.8941 86.7678 37.8941C87.9207 37.8941 88.9523 37.6135 89.8626 37.0521C90.7727 36.4909 91.4782 35.7172 91.9788 34.7311C92.4795 33.7375 92.7297 32.611 92.7297 31.3519C92.7297 30.0927 92.4718 28.9664 91.9561 27.9727C91.4402 26.9791 90.7235 26.2092 89.8056 25.663C88.8878 25.1093 87.8448 24.8363 86.6767 24.8438C85.9335 24.8438 85.2205 24.988 84.5377 25.2762C83.8551 25.5644 83.2862 25.974 82.8311 26.505C82.796 26.5454 82.7618 26.5862 82.7287 26.6275V19.8376H79.6112V37.6552H82.706L82.6997 35.9907C82.7797 36.0889 82.8653 36.1847 82.9562 36.2785C83.4492 36.7867 84.0333 37.1849 84.7085 37.4731ZM87.8942 34.5946C87.386 34.9056 86.8057 35.0611 86.1533 35.0611C85.5086 35.0611 84.917 34.9017 84.3785 34.5832C83.8398 34.257 83.4113 33.8134 83.0927 33.252C82.7817 32.6907 82.6262 32.0535 82.6262 31.3405C82.6187 30.6275 82.7703 29.9904 83.0813 29.4291C83.4 28.8602 83.8285 28.4202 84.3671 28.1093C84.9056 27.7907 85.5011 27.6352 86.1533 27.6428C86.8057 27.6352 87.386 27.7869 87.8942 28.0979C88.41 28.4013 88.8043 28.8374 89.0775 29.4063C89.3581 29.9676 89.4985 30.6124 89.4985 31.3405C89.4985 32.0687 89.3581 32.7135 89.0775 33.2747C88.8043 33.8361 88.41 34.276 87.8942 34.5946ZM43.5693 20.9071H47.1192L50.2947 32.5041L53.6728 20.9071H56.6311L60.2947 32.2713L63.344 20.9071H66.598L61.7966 37.6552H58.736L55.0105 26.5532L51.5907 37.6552H48.496L43.5693 20.9071ZM71.8405 37.9509C70.604 37.9586 69.489 37.6854 68.4954 37.1318C67.5093 36.5704 66.7319 35.7929 66.1629 34.7993C65.6017 33.8057 65.321 32.6717 65.321 31.3973C65.321 30.1609 65.6093 29.0422 66.1858 28.0409C66.7622 27.0397 67.5434 26.2584 68.5295 25.6971C69.5157 25.1358 70.6154 24.8552 71.829 24.8552C73.1944 24.8552 74.389 25.1586 75.413 25.7654C76.4447 26.3722 77.2145 27.2331 77.7228 28.3481C78.2385 29.4556 78.4244 30.7261 78.2803 32.1597H68.5344C68.5617 32.7308 68.7042 33.2504 68.9619 33.7184C69.2502 34.2342 69.6522 34.6362 70.1679 34.9244C70.6838 35.2127 71.2602 35.3568 71.8974 35.3568C72.3828 35.3492 72.8342 35.2658 73.2513 35.1066C73.6685 34.9397 74.0212 34.7159 74.3094 34.4352C74.6053 34.1546 74.8139 33.8361 74.9353 33.4796H78.1893C77.9921 34.3518 77.5977 35.1293 77.006 35.8119C76.4143 36.4871 75.671 37.0142 74.7759 37.3934C73.8809 37.7727 72.9024 37.9586 71.8405 37.9509ZM68.9733 29.0308C68.7915 29.3478 68.6655 29.6891 68.5954 30.0548H75.0558C75.0089 29.5928 74.8663 29.1718 74.628 28.7919C74.3549 28.3443 73.9833 27.9992 73.513 27.7565C73.0428 27.5062 72.5118 27.381 71.9202 27.381C71.2906 27.381 70.7179 27.5251 70.202 27.8134C69.6863 28.1016 69.2767 28.5074 68.9733 29.0308ZM95.017 25.1169C95.017 24.1005 95.2483 23.1978 95.711 22.409C96.1736 21.6125 96.8223 20.9943 97.6566 20.5544C98.4985 20.1069 99.4809 19.8755 100.603 19.8604V22.6251C100.08 22.6327 99.6325 22.7427 99.2609 22.9551C98.8968 23.1599 98.6161 23.4595 98.4189 23.8539C98.2374 24.2171 98.1394 24.638 98.125 25.1169H100.535V27.7451H98.1232V37.6552H95.017V27.7451H93.0145V25.1169H95.017ZM112.834 37.9281C111.567 37.9281 110.433 37.6513 109.432 37.0976C108.438 36.5363 107.657 35.7626 107.088 34.7765C106.527 33.7829 106.246 32.6565 106.246 31.3973C106.246 30.1306 106.527 29.0004 107.088 28.0067C107.657 27.0055 108.438 26.228 109.432 25.6743C110.433 25.1206 111.567 24.8437 112.834 24.8437C114.108 24.8437 115.246 25.1206 116.247 25.6743C117.256 26.228 118.041 27.0017 118.603 27.9954C119.164 28.989 119.448 30.123 119.456 31.3973C119.448 32.6565 119.164 33.7829 118.603 34.7765C118.049 35.7626 117.268 36.5363 116.259 37.0976C115.25 37.6513 114.108 37.9281 112.834 37.9281ZM112.834 35.0724C113.502 35.0724 114.093 34.9206 114.609 34.6173C115.125 34.3063 115.523 33.8739 115.804 33.3201C116.084 32.7589 116.225 32.1179 116.225 31.3973C116.225 30.6691 116.084 30.0244 115.804 29.4631C115.523 28.9018 115.125 28.4694 114.609 28.166C114.093 27.855 113.502 27.6995 112.834 27.6995C112.174 27.6995 111.586 27.855 111.07 28.166C110.562 28.4694 110.168 28.9018 109.887 29.4631C109.607 30.0244 109.47 30.6691 109.478 31.3973C109.478 32.1179 109.618 32.7589 109.899 33.3201C110.187 33.8739 110.581 34.3063 111.082 34.6173C111.59 34.9206 112.174 35.0724 112.834 35.0724ZM122.812 25.1169H119.354L123.097 37.6552H126.123L128.585 29.6469L131.243 37.6552H134.224L137.979 25.1169H134.85L132.72 32.9212L130.367 25.1169H127.341L124.999 33.0931L122.812 25.1169Z" fill="black"/>
<path d="M39.0695 17.6387L27.56 40.1387H16.7493L21.566 30.8137H21.3499C17.3761 35.9722 11.4471 39.368 2.99927 40.1387V30.9428C2.99927 30.9428 8.40358 30.6235 11.5806 27.2834H2.99927V17.6388H12.6438V25.5713L12.8602 25.5704L16.8014 17.6388H24.0953V25.521L24.3116 25.5207L28.4006 17.6387H39.0695ZM101.832 37.6552H104.938V19.8262H101.832V37.6552ZM84.7085 37.4731C85.3835 37.7537 86.07 37.8941 86.7678 37.8941C87.9207 37.8941 88.9523 37.6135 89.8626 37.0521C90.7727 36.4909 91.4782 35.7172 91.9788 34.7311C92.4795 33.7375 92.7297 32.611 92.7297 31.3519C92.7297 30.0927 92.4718 28.9664 91.9561 27.9727C91.4402 26.9791 90.7235 26.2092 89.8056 25.663C88.8878 25.1093 87.8448 24.8363 86.6767 24.8438C85.9335 24.8438 85.2205 24.988 84.5377 25.2762C83.8551 25.5644 83.2862 25.974 82.8311 26.505C82.796 26.5454 82.7618 26.5862 82.7287 26.6275V19.8376H79.6112V37.6552H82.706L82.6997 35.9907C82.7797 36.0889 82.8653 36.1847 82.9562 36.2785C83.4492 36.7867 84.0333 37.1849 84.7085 37.4731ZM87.8942 34.5946C87.386 34.9056 86.8057 35.0611 86.1533 35.0611C85.5086 35.0611 84.917 34.9017 84.3785 34.5832C83.8398 34.257 83.4113 33.8134 83.0927 33.252C82.7817 32.6907 82.6262 32.0535 82.6262 31.3405C82.6187 30.6275 82.7703 29.9904 83.0813 29.4291C83.4 28.8602 83.8285 28.4202 84.3671 28.1093C84.9056 27.7907 85.5011 27.6352 86.1533 27.6428C86.8057 27.6352 87.386 27.7869 87.8942 28.0979C88.41 28.4013 88.8043 28.8374 89.0775 29.4063C89.3581 29.9676 89.4985 30.6124 89.4985 31.3405C89.4985 32.0687 89.3581 32.7135 89.0775 33.2747C88.8043 33.8361 88.41 34.276 87.8942 34.5946ZM43.5693 20.9071H47.1192L50.2947 32.5041L53.6728 20.9071H56.6311L60.2947 32.2713L63.344 20.9071H66.598L61.7966 37.6552H58.736L55.0105 26.5532L51.5907 37.6552H48.496L43.5693 20.9071ZM71.8405 37.9509C70.604 37.9586 69.489 37.6854 68.4954 37.1318C67.5093 36.5704 66.7319 35.7929 66.1629 34.7993C65.6017 33.8057 65.321 32.6717 65.321 31.3973C65.321 30.1609 65.6093 29.0422 66.1858 28.0409C66.7622 27.0397 67.5434 26.2584 68.5295 25.6971C69.5157 25.1358 70.6154 24.8552 71.829 24.8552C73.1944 24.8552 74.389 25.1586 75.413 25.7654C76.4447 26.3722 77.2145 27.2331 77.7228 28.3481C78.2385 29.4556 78.4244 30.7261 78.2803 32.1597H68.5344C68.5617 32.7308 68.7042 33.2504 68.9619 33.7184C69.2502 34.2342 69.6522 34.6362 70.1679 34.9244C70.6838 35.2127 71.2602 35.3568 71.8974 35.3568C72.3828 35.3492 72.8342 35.2658 73.2513 35.1066C73.6685 34.9397 74.0212 34.7159 74.3094 34.4352C74.6053 34.1546 74.8139 33.8361 74.9353 33.4796H78.1893C77.9921 34.3518 77.5977 35.1293 77.006 35.8119C76.4143 36.4871 75.671 37.0142 74.7759 37.3934C73.8809 37.7727 72.9024 37.9586 71.8405 37.9509ZM68.9733 29.0308C68.7915 29.3478 68.6655 29.6891 68.5954 30.0548H75.0558C75.0089 29.5928 74.8663 29.1718 74.628 28.7919C74.3549 28.3443 73.9833 27.9992 73.513 27.7565C73.0428 27.5062 72.5118 27.381 71.9202 27.381C71.2906 27.381 70.7179 27.5251 70.202 27.8134C69.6863 28.1016 69.2767 28.5074 68.9733 29.0308ZM95.017 25.1169C95.017 24.1005 95.2483 23.1978 95.711 22.409C96.1736 21.6125 96.8223 20.9943 97.6566 20.5544C98.4985 20.1069 99.4809 19.8755 100.603 19.8604V22.6251C100.08 22.6327 99.6325 22.7427 99.2609 22.9551C98.8968 23.1599 98.6161 23.4595 98.4189 23.8539C98.2374 24.2171 98.1394 24.638 98.125 25.1169H100.535V27.7451H98.1232V37.6552H95.017V27.7451H93.0145V25.1169H95.017ZM112.834 37.9281C111.567 37.9281 110.433 37.6513 109.432 37.0976C108.438 36.5363 107.657 35.7626 107.088 34.7765C106.527 33.7829 106.246 32.6565 106.246 31.3973C106.246 30.1306 106.527 29.0004 107.088 28.0067C107.657 27.0055 108.438 26.228 109.432 25.6743C110.433 25.1206 111.567 24.8437 112.834 24.8437C114.108 24.8437 115.246 25.1206 116.247 25.6743C117.256 26.228 118.041 27.0017 118.603 27.9954C119.164 28.989 119.448 30.123 119.456 31.3973C119.448 32.6565 119.164 33.7829 118.603 34.7765C118.049 35.7626 117.268 36.5363 116.259 37.0976C115.25 37.6513 114.108 37.9281 112.834 37.9281ZM112.834 35.0724C113.502 35.0724 114.093 34.9206 114.609 34.6173C115.125 34.3063 115.523 33.8739 115.804 33.3201C116.084 32.7589 116.225 32.1179 116.225 31.3973C116.225 30.6691 116.084 30.0244 115.804 29.4631C115.523 28.9018 115.125 28.4694 114.609 28.166C114.093 27.855 113.502 27.6995 112.834 27.6995C112.174 27.6995 111.586 27.855 111.07 28.166C110.562 28.4694 110.168 28.9018 109.887 29.4631C109.607 30.0244 109.47 30.6691 109.478 31.3973C109.478 32.1179 109.618 32.7589 109.899 33.3201C110.187 33.8739 110.581 34.3063 111.082 34.6173C111.59 34.9206 112.174 35.0724 112.834 35.0724ZM122.812 25.1169H119.354L123.097 37.6552H126.123L128.585 29.6469L131.243 37.6552H134.224L137.979 25.1169H134.85L132.72 32.9212L130.367 25.1169H127.341L124.999 33.0931L122.812 25.1169Z" fill="black"/>
<path fill-rule="evenodd" clip-rule="evenodd" d="M39.0695 17.6387L27.56 40.1387H16.7493L21.566 30.8137H21.3499C17.3761 35.9722 11.4471 39.368 2.99927 40.1387V30.9428C2.99927 30.9428 8.40358 30.6235 11.5806 27.2834H2.99927V17.6388H12.6438V25.5713L12.8602 25.5704L16.8014 17.6388H24.0953V25.521L24.3116 25.5207L28.4006 17.6387H39.0695ZM101.832 37.6552H104.938V19.8262H101.832V37.6552ZM84.7085 37.4731C85.3835 37.7537 86.07 37.8941 86.7678 37.8941C87.9207 37.8941 88.9523 37.6135 89.8626 37.0521C90.7727 36.4909 91.4782 35.7172 91.9788 34.7311C92.4795 33.7375 92.7297 32.611 92.7297 31.3519C92.7297 30.0927 92.4718 28.9664 91.9561 27.9727C91.4402 26.9791 90.7235 26.2092 89.8056 25.663C88.8878 25.1093 87.8448 24.8363 86.6767 24.8438C85.9335 24.8438 85.2205 24.988 84.5377 25.2762C83.8551 25.5644 83.2862 25.974 82.8311 26.505C82.796 26.5454 82.7618 26.5862 82.7287 26.6275V19.8376H79.6112V37.6552H82.706L82.6997 35.9907C82.7797 36.0889 82.8653 36.1847 82.9562 36.2785C83.4492 36.7867 84.0333 37.1849 84.7085 37.4731ZM87.8942 34.5946C87.386 34.9056 86.8057 35.0611 86.1533 35.0611C85.5086 35.0611 84.917 34.9017 84.3785 34.5832C83.8398 34.257 83.4113 33.8134 83.0927 33.252C82.7817 32.6907 82.6262 32.0535 82.6262 31.3405C82.6187 30.6275 82.7703 29.9904 83.0813 29.4291C83.4 28.8602 83.8285 28.4202 84.3671 28.1093C84.9056 27.7907 85.5011 27.6352 86.1533 27.6428C86.8057 27.6352 87.386 27.7869 87.8942 28.0979C88.41 28.4013 88.8043 28.8374 89.0775 29.4063C89.3581 29.9676 89.4985 30.6124 89.4985 31.3405C89.4985 32.0687 89.3581 32.7135 89.0775 33.2747C88.8043 33.8361 88.41 34.276 87.8942 34.5946ZM43.5693 20.9071H47.1192L50.2947 32.5041L53.6728 20.9071H56.6311L60.2947 32.2713L63.344 20.9071H66.598L61.7966 37.6552H58.736L55.0105 26.5532L51.5907 37.6552H48.496L43.5693 20.9071ZM71.8405 37.9509C70.604 37.9586 69.489 37.6854 68.4954 37.1318C67.5093 36.5704 66.7319 35.7929 66.1629 34.7993C65.6017 33.8057 65.321 32.6717 65.321 31.3973C65.321 30.1609 65.6093 29.0422 66.1858 28.0409C66.7622 27.0397 67.5434 26.2584 68.5295 25.6971C69.5157 25.1358 70.6154 24.8552 71.829 24.8552C73.1944 24.8552 74.389 25.1586 75.413 25.7654C76.4447 26.3722 77.2145 27.2331 77.7228 28.3481C78.2385 29.4556 78.4244 30.7261 78.2803 32.1597H68.5344C68.5617 32.7308 68.7042 33.2504 68.9619 33.7184C69.2502 34.2342 69.6522 34.6362 70.1679 34.9244C70.6838 35.2127 71.2602 35.3568 71.8974 35.3568C72.3828 35.3492 72.8342 35.2658 73.2513 35.1066C73.6685 34.9397 74.0212 34.7159 74.3094 34.4352C74.6053 34.1546 74.8139 33.8361 74.9353 33.4796H78.1893C77.9921 34.3518 77.5977 35.1293 77.006 35.8119C76.4143 36.4871 75.671 37.0142 74.7759 37.3934C73.8809 37.7727 72.9024 37.9586 71.8405 37.9509ZM68.9733 29.0308C68.7915 29.3478 68.6655 29.6891 68.5954 30.0548H75.0558C75.0089 29.5928 74.8663 29.1718 74.628 28.7919C74.3549 28.3443 73.9833 27.9992 73.513 27.7565C73.0428 27.5062 72.5118 27.381 71.9202 27.381C71.2906 27.381 70.7179 27.5251 70.202 27.8134C69.6863 28.1016 69.2767 28.5074 68.9733 29.0308ZM95.017 25.1169C95.017 24.1005 95.2483 23.1978 95.711 22.409C96.1736 21.6125 96.8223 20.9943 97.6566 20.5544C98.4985 20.1069 99.4809 19.8755 100.603 19.8604V22.6251C100.08 22.6327 99.6325 22.7427 99.2609 22.9551C98.8968 23.1599 98.6161 23.4595 98.4189 23.8539C98.2374 24.2171 98.1394 24.638 98.125 25.1169H100.535V27.7451H98.1232V37.6552H95.017V27.7451H93.0145V25.1169H95.017ZM112.834 37.9281C111.567 37.9281 110.433 37.6513 109.432 37.0976C108.438 36.5363 107.657 35.7626 107.088 34.7765C106.527 33.7829 106.246 32.6565 106.246 31.3973C106.246 30.1306 106.527 29.0004 107.088 28.0067C107.657 27.0055 108.438 26.228 109.432 25.6743C110.433 25.1206 111.567 24.8437 112.834 24.8437C114.108 24.8437 115.246 25.1206 116.247 25.6743C117.256 26.228 118.041 27.0017 118.603 27.9954C119.164 28.989 119.448 30.123 119.456 31.3973C119.448 32.6565 119.164 33.7829 118.603 34.7765C118.049 35.7626 117.268 36.5363 116.259 37.0976C115.25 37.6513 114.108 37.9281 112.834 37.9281ZM112.834 35.0724C113.502 35.0724 114.093 34.9206 114.609 34.6173C115.125 34.3063 115.523 33.8739 115.804 33.3201C116.084 32.7589 116.225 32.1179 116.225 31.3973C116.225 30.6691 116.084 30.0244 115.804 29.4631C115.523 28.9018 115.125 28.4694 114.609 28.166C114.093 27.855 113.502 27.6995 112.834 27.6995C112.174 27.6995 111.586 27.855 111.07 28.166C110.562 28.4694 110.168 28.9018 109.887 29.4631C109.607 30.0244 109.47 30.6691 109.478 31.3973C109.478 32.1179 109.618 32.7589 109.899 33.3201C110.187 33.8739 110.581 34.3063 111.082 34.6173C111.59 34.9206 112.174 35.0724 112.834 35.0724ZM122.812 25.1169H119.354L123.097 37.6552H126.123L128.585 29.6469L131.243 37.6552H134.224L137.979 25.1169H134.85L132.72 32.9212L130.367 25.1169H127.341L124.999 33.0931L122.812 25.1169Z" fill="black"/>
<path d="M39.0695 17.6387L27.56 40.1387H16.7493L21.566 30.8137H21.3499C17.3761 35.9722 11.4471 39.368 2.99927 40.1387V30.9428C2.99927 30.9428 8.40358 30.6235 11.5806 27.2834H2.99927V17.6388H12.6438V25.5713L12.8602 25.5704L16.8014 17.6388H24.0953V25.521L24.3116 25.5207L28.4006 17.6387H39.0695ZM101.832 37.6552H104.938V19.8262H101.832V37.6552ZM84.7085 37.4731C85.3835 37.7537 86.07 37.8941 86.7678 37.8941C87.9207 37.8941 88.9523 37.6135 89.8626 37.0521C90.7727 36.4909 91.4782 35.7172 91.9788 34.7311C92.4795 33.7375 92.7297 32.611 92.7297 31.3519C92.7297 30.0927 92.4718 28.9664 91.9561 27.9727C91.4402 26.9791 90.7235 26.2092 89.8056 25.663C88.8878 25.1093 87.8448 24.8363 86.6767 24.8438C85.9335 24.8438 85.2205 24.988 84.5377 25.2762C83.8551 25.5644 83.2862 25.974 82.8311 26.505C82.796 26.5454 82.7618 26.5862 82.7287 26.6275V19.8376H79.6112V37.6552H82.706L82.6997 35.9907C82.7797 36.0889 82.8653 36.1847 82.9562 36.2785C83.4492 36.7867 84.0333 37.1849 84.7085 37.4731ZM87.8942 34.5946C87.386 34.9056 86.8057 35.0611 86.1533 35.0611C85.5086 35.0611 84.917 34.9017 84.3785 34.5832C83.8398 34.257 83.4113 33.8134 83.0927 33.252C82.7817 32.6907 82.6262 32.0535 82.6262 31.3405C82.6187 30.6275 82.7703 29.9904 83.0813 29.4291C83.4 28.8602 83.8285 28.4202 84.3671 28.1093C84.9056 27.7907 85.5011 27.6352 86.1533 27.6428C86.8057 27.6352 87.386 27.7869 87.8942 28.0979C88.41 28.4013 88.8043 28.8374 89.0775 29.4063C89.3581 29.9676 89.4985 30.6124 89.4985 31.3405C89.4985 32.0687 89.3581 32.7135 89.0775 33.2747C88.8043 33.8361 88.41 34.276 87.8942 34.5946ZM43.5693 20.9071H47.1192L50.2947 32.5041L53.6728 20.9071H56.6311L60.2947 32.2713L63.344 20.9071H66.598L61.7966 37.6552H58.736L55.0105 26.5532L51.5907 37.6552H48.496L43.5693 20.9071ZM71.8405 37.9509C70.604 37.9586 69.489 37.6854 68.4954 37.1318C67.5093 36.5704 66.7319 35.7929 66.1629 34.7993C65.6017 33.8057 65.321 32.6717 65.321 31.3973C65.321 30.1609 65.6093 29.0422 66.1858 28.0409C66.7622 27.0397 67.5434 26.2584 68.5295 25.6971C69.5157 25.1358 70.6154 24.8552 71.829 24.8552C73.1944 24.8552 74.389 25.1586 75.413 25.7654C76.4447 26.3722 77.2145 27.2331 77.7228 28.3481C78.2385 29.4556 78.4244 30.7261 78.2803 32.1597H68.5344C68.5617 32.7308 68.7042 33.2504 68.9619 33.7184C69.2502 34.2342 69.6522 34.6362 70.1679 34.9244C70.6838 35.2127 71.2602 35.3568 71.8974 35.3568C72.3828 35.3492 72.8342 35.2658 73.2513 35.1066C73.6685 34.9397 74.0212 34.7159 74.3094 34.4352C74.6053 34.1546 74.8139 33.8361 74.9353 33.4796H78.1893C77.9921 34.3518 77.5977 35.1293 77.006 35.8119C76.4143 36.4871 75.671 37.0142 74.7759 37.3934C73.8809 37.7727 72.9024 37.9586 71.8405 37.9509ZM68.9733 29.0308C68.7915 29.3478 68.6655 29.6891 68.5954 30.0548H75.0558C75.0089 29.5928 74.8663 29.1718 74.628 28.7919C74.3549 28.3443 73.9833 27.9992 73.513 27.7565C73.0428 27.5062 72.5118 27.381 71.9202 27.381C71.2906 27.381 70.7179 27.5251 70.202 27.8134C69.6863 28.1016 69.2767 28.5074 68.9733 29.0308ZM95.017 25.1169C95.017 24.1005 95.2483 23.1978 95.711 22.409C96.1736 21.6125 96.8223 20.9943 97.6566 20.5544C98.4985 20.1069 99.4809 19.8755 100.603 19.8604V22.6251C100.08 22.6327 99.6325 22.7427 99.2609 22.9551C98.8968 23.1599 98.6161 23.4595 98.4189 23.8539C98.2374 24.2171 98.1394 24.638 98.125 25.1169H100.535V27.7451H98.1232V37.6552H95.017V27.7451H93.0145V25.1169H95.017ZM112.834 37.9281C111.567 37.9281 110.433 37.6513 109.432 37.0976C108.438 36.5363 107.657 35.7626 107.088 34.7765C106.527 33.7829 106.246 32.6565 106.246 31.3973C106.246 30.1306 106.527 29.0004 107.088 28.0067C107.657 27.0055 108.438 26.228 109.432 25.6743C110.433 25.1206 111.567 24.8437 112.834 24.8437C114.108 24.8437 115.246 25.1206 116.247 25.6743C117.256 26.228 118.041 27.0017 118.603 27.9954C119.164 28.989 119.448 30.123 119.456 31.3973C119.448 32.6565 119.164 33.7829 118.603 34.7765C118.049 35.7626 117.268 36.5363 116.259 37.0976C115.25 37.6513 114.108 37.9281 112.834 37.9281ZM112.834 35.0724C113.502 35.0724 114.093 34.9206 114.609 34.6173C115.125 34.3063 115.523 33.8739 115.804 33.3201C116.084 32.7589 116.225 32.1179 116.225 31.3973C116.225 30.6691 116.084 30.0244 115.804 29.4631C115.523 28.9018 115.125 28.4694 114.609 28.166C114.093 27.855 113.502 27.6995 112.834 27.6995C112.174 27.6995 111.586 27.855 111.07 28.166C110.562 28.4694 110.168 28.9018 109.887 29.4631C109.607 30.0244 109.47 30.6691 109.478 31.3973C109.478 32.1179 109.618 32.7589 109.899 33.3201C110.187 33.8739 110.581 34.3063 111.082 34.6173C111.59 34.9206 112.174 35.0724 112.834 35.0724ZM122.812 25.1169H119.354L123.097 37.6552H126.123L128.585 29.6469L131.243 37.6552H134.224L137.979 25.1169H134.85L132.72 32.9212L130.367 25.1169H127.341L124.999 33.0931L122.812 25.1169Z" fill="black"/>
<path fill-rule="evenodd" clip-rule="evenodd" d="M39.0695 17.6387L27.56 40.1387H16.7493L21.566 30.8137H21.3499C17.3761 35.9722 11.4471 39.368 2.99927 40.1387V30.9428C2.99927 30.9428 8.40358 30.6235 11.5806 27.2834H2.99927V17.6388H12.6438V25.5713L12.8602 25.5704L16.8014 17.6388H24.0953V25.521L24.3116 25.5207L28.4006 17.6387H39.0695ZM101.832 37.6552H104.938V19.8262H101.832V37.6552ZM84.7085 37.4731C85.3835 37.7537 86.07 37.8941 86.7678 37.8941C87.9207 37.8941 88.9523 37.6135 89.8626 37.0521C90.7727 36.4909 91.4782 35.7172 91.9788 34.7311C92.4795 33.7375 92.7297 32.611 92.7297 31.3519C92.7297 30.0927 92.4718 28.9664 91.9561 27.9727C91.4402 26.9791 90.7235 26.2092 89.8056 25.663C88.8878 25.1093 87.8448 24.8363 86.6767 24.8438C85.9335 24.8438 85.2205 24.988 84.5377 25.2762C83.8551 25.5644 83.2862 25.974 82.8311 26.505C82.796 26.5454 82.7618 26.5862 82.7287 26.6275V19.8376H79.6112V37.6552H82.706L82.6997 35.9907C82.7797 36.0889 82.8653 36.1847 82.9562 36.2785C83.4492 36.7867 84.0333 37.1849 84.7085 37.4731ZM87.8942 34.5946C87.386 34.9056 86.8057 35.0611 86.1533 35.0611C85.5086 35.0611 84.917 34.9017 84.3785 34.5832C83.8398 34.257 83.4113 33.8134 83.0927 33.252C82.7817 32.6907 82.6262 32.0535 82.6262 31.3405C82.6187 30.6275 82.7703 29.9904 83.0813 29.4291C83.4 28.8602 83.8285 28.4202 84.3671 28.1093C84.9056 27.7907 85.5011 27.6352 86.1533 27.6428C86.8057 27.6352 87.386 27.7869 87.8942 28.0979C88.41 28.4013 88.8043 28.8374 89.0775 29.4063C89.3581 29.9676 89.4985 30.6124 89.4985 31.3405C89.4985 32.0687 89.3581 32.7135 89.0775 33.2747C88.8043 33.8361 88.41 34.276 87.8942 34.5946ZM43.5693 20.9071H47.1192L50.2947 32.5041L53.6728 20.9071H56.6311L60.2947 32.2713L63.344 20.9071H66.598L61.7966 37.6552H58.736L55.0105 26.5532L51.5907 37.6552H48.496L43.5693 20.9071ZM71.8405 37.9509C70.604 37.9586 69.489 37.6854 68.4954 37.1318C67.5093 36.5704 66.7319 35.7929 66.1629 34.7993C65.6017 33.8057 65.321 32.6717 65.321 31.3973C65.321 30.1609 65.6093 29.0422 66.1858 28.0409C66.7622 27.0397 67.5434 26.2584 68.5295 25.6971C69.5157 25.1358 70.6154 24.8552 71.829 24.8552C73.1944 24.8552 74.389 25.1586 75.413 25.7654C76.4447 26.3722 77.2145 27.2331 77.7228 28.3481C78.2385 29.4556 78.4244 30.7261 78.2803 32.1597H68.5344C68.5617 32.7308 68.7042 33.2504 68.9619 33.7184C69.2502 34.2342 69.6522 34.6362 70.1679 34.9244C70.6838 35.2127 71.2602 35.3568 71.8974 35.3568C72.3828 35.3492 72.8342 35.2658 73.2513 35.1066C73.6685 34.9397 74.0212 34.7159 74.3094 34.4352C74.6053 34.1546 74.8139 33.8361 74.9353 33.4796H78.1893C77.9921 34.3518 77.5977 35.1293 77.006 35.8119C76.4143 36.4871 75.671 37.0142 74.7759 37.3934C73.8809 37.7727 72.9024 37.9586 71.8405 37.9509ZM68.9733 29.0308C68.7915 29.3478 68.6655 29.6891 68.5954 30.0548H75.0558C75.0089 29.5928 74.8663 29.1718 74.628 28.7919C74.3549 28.3443 73.9833 27.9992 73.513 27.7565C73.0428 27.5062 72.5118 27.381 71.9202 27.381C71.2906 27.381 70.7179 27.5251 70.202 27.8134C69.6863 28.1016 69.2767 28.5074 68.9733 29.0308ZM95.017 25.1169C95.017 24.1005 95.2483 23.1978 95.711 22.409C96.1736 21.6125 96.8223 20.9943 97.6566 20.5544C98.4985 20.1069 99.4809 19.8755 100.603 19.8604V22.6251C100.08 22.6327 99.6325 22.7427 99.2609 22.9551C98.8968 23.1599 98.6161 23.4595 98.4189 23.8539C98.2374 24.2171 98.1394 24.638 98.125 25.1169H100.535V27.7451H98.1232V37.6552H95.017V27.7451H93.0145V25.1169H95.017ZM112.834 37.9281C111.567 37.9281 110.433 37.6513 109.432 37.0976C108.438 36.5363 107.657 35.7626 107.088 34.7765C106.527 33.7829 106.246 32.6565 106.246 31.3973C106.246 30.1306 106.527 29.0004 107.088 28.0067C107.657 27.0055 108.438 26.228 109.432 25.6743C110.433 25.1206 111.567 24.8437 112.834 24.8437C114.108 24.8437 115.246 25.1206 116.247 25.6743C117.256 26.228 118.041 27.0017 118.603 27.9954C119.164 28.989 119.448 30.123 119.456 31.3973C119.448 32.6565 119.164 33.7829 118.603 34.7765C118.049 35.7626 117.268 36.5363 116.259 37.0976C115.25 37.6513 114.108 37.9281 112.834 37.9281ZM112.834 35.0724C113.502 35.0724 114.093 34.9206 114.609 34.6173C115.125 34.3063 115.523 33.8739 115.804 33.3201C116.084 32.7589 116.225 32.1179 116.225 31.3973C116.225 30.6691 116.084 30.0244 115.804 29.4631C115.523 28.9018 115.125 28.4694 114.609 28.166C114.093 27.855 113.502 27.6995 112.834 27.6995C112.174 27.6995 111.586 27.855 111.07 28.166C110.562 28.4694 110.168 28.9018 109.887 29.4631C109.607 30.0244 109.47 30.6691 109.478 31.3973C109.478 32.1179 109.618 32.7589 109.899 33.3201C110.187 33.8739 110.581 34.3063 111.082 34.6173C111.59 34.9206 112.174 35.0724 112.834 35.0724ZM122.812 25.1169H119.354L123.097 37.6552H126.123L128.585 29.6469L131.243 37.6552H134.224L137.979 25.1169H134.85L132.72 32.9212L130.367 25.1169H127.341L124.999 33.0931L122.812 25.1169Z" fill="black"/>
<path d="M39.0695 17.6387L27.56 40.1387H16.7493L21.566 30.8137H21.3499C17.3761 35.9722 11.4471 39.368 2.99927 40.1387V30.9428C2.99927 30.9428 8.40358 30.6235 11.5806 27.2834H2.99927V17.6388H12.6438V25.5713L12.8602 25.5704L16.8014 17.6388H24.0953V25.521L24.3116 25.5207L28.4006 17.6387H39.0695ZM101.832 37.6552H104.938V19.8262H101.832V37.6552ZM84.7085 37.4731C85.3835 37.7537 86.07 37.8941 86.7678 37.8941C87.9207 37.8941 88.9523 37.6135 89.8626 37.0521C90.7727 36.4909 91.4782 35.7172 91.9788 34.7311C92.4795 33.7375 92.7297 32.611 92.7297 31.3519C92.7297 30.0927 92.4718 28.9664 91.9561 27.9727C91.4402 26.9791 90.7235 26.2092 89.8056 25.663C88.8878 25.1093 87.8448 24.8363 86.6767 24.8438C85.9335 24.8438 85.2205 24.988 84.5377 25.2762C83.8551 25.5644 83.2862 25.974 82.8311 26.505C82.796 26.5454 82.7618 26.5862 82.7287 26.6275V19.8376H79.6112V37.6552H82.706L82.6997 35.9907C82.7797 36.0889 82.8653 36.1847 82.9562 36.2785C83.4492 36.7867 84.0333 37.1849 84.7085 37.4731ZM87.8942 34.5946C87.386 34.9056 86.8057 35.0611 86.1533 35.0611C85.5086 35.0611 84.917 34.9017 84.3785 34.5832C83.8398 34.257 83.4113 33.8134 83.0927 33.252C82.7817 32.6907 82.6262 32.0535 82.6262 31.3405C82.6187 30.6275 82.7703 29.9904 83.0813 29.4291C83.4 28.8602 83.8285 28.4202 84.3671 28.1093C84.9056 27.7907 85.5011 27.6352 86.1533 27.6428C86.8057 27.6352 87.386 27.7869 87.8942 28.0979C88.41 28.4013 88.8043 28.8374 89.0775 29.4063C89.3581 29.9676 89.4985 30.6124 89.4985 31.3405C89.4985 32.0687 89.3581 32.7135 89.0775 33.2747C88.8043 33.8361 88.41 34.276 87.8942 34.5946ZM43.5693 20.9071H47.1192L50.2947 32.5041L53.6728 20.9071H56.6311L60.2947 32.2713L63.344 20.9071H66.598L61.7966 37.6552H58.736L55.0105 26.5532L51.5907 37.6552H48.496L43.5693 20.9071ZM71.8405 37.9509C70.604 37.9586 69.489 37.6854 68.4954 37.1318C67.5093 36.5704 66.7319 35.7929 66.1629 34.7993C65.6017 33.8057 65.321 32.6717 65.321 31.3973C65.321 30.1609 65.6093 29.0422 66.1858 28.0409C66.7622 27.0397 67.5434 26.2584 68.5295 25.6971C69.5157 25.1358 70.6154 24.8552 71.829 24.8552C73.1944 24.8552 74.389 25.1586 75.413 25.7654C76.4447 26.3722 77.2145 27.2331 77.7228 28.3481C78.2385 29.4556 78.4244 30.7261 78.2803 32.1597H68.5344C68.5617 32.7308 68.7042 33.2504 68.9619 33.7184C69.2502 34.2342 69.6522 34.6362 70.1679 34.9244C70.6838 35.2127 71.2602 35.3568 71.8974 35.3568C72.3828 35.3492 72.8342 35.2658 73.2513 35.1066C73.6685 34.9397 74.0212 34.7159 74.3094 34.4352C74.6053 34.1546 74.8139 33.8361 74.9353 33.4796H78.1893C77.9921 34.3518 77.5977 35.1293 77.006 35.8119C76.4143 36.4871 75.671 37.0142 74.7759 37.3934C73.8809 37.7727 72.9024 37.9586 71.8405 37.9509ZM68.9733 29.0308C68.7915 29.3478 68.6655 29.6891 68.5954 30.0548H75.0558C75.0089 29.5928 74.8663 29.1718 74.628 28.7919C74.3549 28.3443 73.9833 27.9992 73.513 27.7565C73.0428 27.5062 72.5118 27.381 71.9202 27.381C71.2906 27.381 70.7179 27.5251 70.202 27.8134C69.6863 28.1016 69.2767 28.5074 68.9733 29.0308ZM95.017 25.1169C95.017 24.1005 95.2483 23.1978 95.711 22.409C96.1736 21.6125 96.8223 20.9943 97.6566 20.5544C98.4985 20.1069 99.4809 19.8755 100.603 19.8604V22.6251C100.08 22.6327 99.6325 22.7427 99.2609 22.9551C98.8968 23.1599 98.6161 23.4595 98.4189 23.8539C98.2374 24.2171 98.1394 24.638 98.125 25.1169H100.535V27.7451H98.1232V37.6552H95.017V27.7451H93.0145V25.1169H95.017ZM112.834 37.9281C111.567 37.9281 110.433 37.6513 109.432 37.0976C108.438 36.5363 107.657 35.7626 107.088 34.7765C106.527 33.7829 106.246 32.6565 106.246 31.3973C106.246 30.1306 106.527 29.0004 107.088 28.0067C107.657 27.0055 108.438 26.228 109.432 25.6743C110.433 25.1206 111.567 24.8437 112.834 24.8437C114.108 24.8437 115.246 25.1206 116.247 25.6743C117.256 26.228 118.041 27.0017 118.603 27.9954C119.164 28.989 119.448 30.123 119.456 31.3973C119.448 32.6565 119.164 33.7829 118.603 34.7765C118.049 35.7626 117.268 36.5363 116.259 37.0976C115.25 37.6513 114.108 37.9281 112.834 37.9281ZM112.834 35.0724C113.502 35.0724 114.093 34.9206 114.609 34.6173C115.125 34.3063 115.523 33.8739 115.804 33.3201C116.084 32.7589 116.225 32.1179 116.225 31.3973C116.225 30.6691 116.084 30.0244 115.804 29.4631C115.523 28.9018 115.125 28.4694 114.609 28.166C114.093 27.855 113.502 27.6995 112.834 27.6995C112.174 27.6995 111.586 27.855 111.07 28.166C110.562 28.4694 110.168 28.9018 109.887 29.4631C109.607 30.0244 109.47 30.6691 109.478 31.3973C109.478 32.1179 109.618 32.7589 109.899 33.3201C110.187 33.8739 110.581 34.3063 111.082 34.6173C111.59 34.9206 112.174 35.0724 112.834 35.0724ZM122.812 25.1169H119.354L123.097 37.6552H126.123L128.585 29.6469L131.243 37.6552H134.224L137.979 25.1169H134.85L132.72 32.9212L130.367 25.1169H127.341L124.999 33.0931L122.812 25.1169Z" fill="black"/>
</svg>
