<svg width="140" height="57" viewBox="0 0 140 57" fill="none" xmlns="http://www.w3.org/2000/svg">
<path fill-rule="evenodd" clip-rule="evenodd" d="M35.5547 19.7345L35.8058 20.183C36.122 20.7279 36.289 21.3466 36.2901 21.9766V35.8781C36.2849 36.5076 36.1182 37.1253 35.8058 37.6719L35.5367 38.1203C35.2295 38.6693 34.7763 39.1224 34.2274 39.4297L22.1914 46.3894C21.6463 46.7055 21.0277 46.8725 20.3976 46.8737H19.8954C19.2644 46.8796 18.644 46.7121 18.1016 46.3894L6.04779 39.4477C5.51054 39.1252 5.06085 38.6755 4.73836 38.1382L4.48724 37.6898C4.17109 37.1448 4.00405 36.5261 4.00293 35.8961V21.9946C4.00405 21.3646 4.17109 20.7459 4.48724 20.2009L4.73836 19.7525C5.05272 19.2089 5.50424 18.7573 6.04779 18.443L18.0837 11.4833C18.6287 11.1672 19.2474 11.0002 19.8775 10.999H20.3976C21.0277 11.0002 21.6463 11.1672 22.1914 11.4833L34.2274 18.4251C34.774 18.7415 35.2308 19.1922 35.5547 19.7345ZM20.3976 14.5864H19.8775L9.38415 20.6493L20.1465 26.8555L30.909 20.6493L20.3976 14.5864ZM32.4336 36.3267L21.9403 42.3895V29.9768L32.7026 23.7526V35.8782L32.4336 36.3267ZM83.0662 37.5465H79.3467V17.9159H83.0662V37.5465ZM49.5029 37.9673H53.6615V30.8383H55.4696L59.8865 37.9673H64.3292L59.4474 30.1151C61.6172 29.4693 63.2444 27.997 63.2444 25.2074V25.1041C63.2444 21.2813 60.4806 19.499 56.1154 19.499H49.5029V37.9673ZM53.6615 27.997V22.7019H56.012C58.0268 22.7019 59.1633 23.3477 59.1633 25.2332V25.3366C59.1633 27.1188 58.1043 27.997 56.012 27.997H53.6615ZM71.0835 37.8299C74.7771 37.8299 77.1018 36.2027 77.5409 33.2839H74.0022C73.7697 34.4204 72.9174 35.1695 71.1868 35.1695C69.1463 35.1695 67.9323 33.878 67.829 31.6309H77.5668V30.5977C77.5668 25.7674 74.4672 23.7269 70.9802 23.7269C67.0541 23.7269 64.0319 26.4907 64.0319 30.7526V30.9592C64.0319 35.2728 67.0024 37.8299 71.0835 37.8299ZM67.8806 29.332C68.1647 27.4205 69.3012 26.3099 70.9802 26.3099C72.7625 26.3099 73.7956 27.2914 73.9248 29.332H67.8806ZM90.2014 37.831C92.423 37.831 93.7915 36.7978 94.4889 35.4289V37.5469H98.2085V24.038H94.4889V31.9677C94.4889 33.9567 93.249 34.9381 91.674 34.9381C90.0728 34.9381 89.3229 34.0599 89.3229 32.226V24.038H85.6038V32.7426C85.6038 36.2813 87.5668 37.831 90.2014 37.831ZM104.494 37.5458H100.748V24.0369H104.494V26.1032C105.165 24.8376 106.611 23.7269 108.626 23.7269C110.409 23.7269 111.752 24.476 112.397 26.0774C113.482 24.4501 115.239 23.7269 116.943 23.7269C119.449 23.7269 121.386 25.3025 121.386 28.8929V37.5458H117.667V29.3062C117.667 27.5755 116.891 26.8006 115.548 26.8006C114.102 26.8006 112.94 27.7306 112.94 29.5645V37.5458H109.22V29.3062C109.22 27.5755 108.42 26.8006 107.102 26.8006C105.656 26.8006 104.494 27.7306 104.494 29.5645V37.5458ZM130.034 37.8299C133.729 37.8299 136.053 36.2027 136.492 33.2839H132.953C132.721 34.4204 131.868 35.1695 130.138 35.1695C128.097 35.1695 126.884 33.878 126.78 31.6309H136.518V30.5977C136.518 25.7674 133.418 23.7269 129.931 23.7269C126.005 23.7269 122.983 26.4907 122.983 30.7526V30.9592C122.983 35.2728 125.953 37.8299 130.034 37.8299ZM126.832 29.332C127.116 27.4205 128.253 26.3099 129.931 26.3099C131.714 26.3099 132.747 27.2914 132.876 29.332H126.832Z" fill="black"/>
</svg>
