<svg width="200" height="57" viewBox="0 0 200 57" fill="none" xmlns="http://www.w3.org/2000/svg">
<path fill-rule="evenodd" clip-rule="evenodd" d="M65.5517 20.1247L65.8029 20.5731C66.1191 21.1181 66.2861 21.7368 66.2872 22.3668V36.2683C66.282 36.8977 66.1152 37.5154 65.8029 38.062L65.5338 38.5104C65.2266 39.0594 64.7733 39.5126 64.2245 39.8199L52.1884 46.7795C51.6434 47.0956 51.0248 47.2627 50.3947 47.2638H49.8925C49.2615 47.2698 48.641 47.1022 48.0987 46.7795L36.0449 39.8378C35.5076 39.5153 35.0579 39.0656 34.7354 38.5284L34.4843 38.0799C34.1682 37.5349 34.0011 36.9163 34 36.2862V22.3847C34.0011 21.7547 34.1682 21.136 34.4843 20.5911L34.7354 20.1426C35.0498 19.5991 35.5013 19.1475 36.0449 18.8332L48.0808 11.8735C48.6258 11.5573 49.2444 11.3903 49.8745 11.3892H50.3947C51.0248 11.3903 51.6434 11.5573 52.1884 11.8735L64.2245 18.8152C64.7711 19.1316 65.2279 19.5824 65.5517 20.1247ZM50.3947 14.9766H49.8745L39.3812 21.0394L50.1436 27.2457L60.906 21.0394L50.3947 14.9766ZM62.4306 36.7168L51.9373 42.7796V30.3669L62.6997 24.1427V36.2684L62.4306 36.7168ZM113.063 37.9366H109.344V18.306H113.063V37.9366ZM79.5 38.3574H83.6586V31.2284H85.4667L89.8836 38.3574H94.3263L89.4445 30.5052C91.6142 29.8595 93.2415 28.3871 93.2415 25.5975V25.4942C93.2415 21.6714 90.4777 19.8892 86.1124 19.8892H79.5V38.3574ZM83.6586 28.3871V23.0921H86.0091C88.0239 23.0921 89.1604 23.7378 89.1604 25.6234V25.7267C89.1604 27.509 88.1014 28.3871 86.0091 28.3871H83.6586ZM101.081 38.2201C104.774 38.2201 107.099 36.5928 107.538 33.674H103.999C103.767 34.8106 102.914 35.5596 101.184 35.5596C99.1433 35.5596 97.9294 34.2682 97.826 32.021H107.564V30.9878C107.564 26.1576 104.464 24.1171 100.977 24.1171C97.0511 24.1171 94.029 26.8808 94.029 31.1428V31.3493C94.029 35.663 96.9994 38.2201 101.081 38.2201ZM97.8777 29.7221C98.1618 27.8107 99.2983 26.7001 100.977 26.7001C102.76 26.7001 103.793 27.6815 103.922 29.7221H97.8777ZM120.198 38.2212C122.42 38.2212 123.789 37.188 124.486 35.8191V37.9371H128.206V24.4281H124.486V32.3578C124.486 34.3468 123.246 35.3283 121.671 35.3283C120.07 35.3283 119.32 34.45 119.32 32.6161V24.4281H115.601V33.1327C115.601 36.6714 117.564 38.2212 120.198 38.2212ZM134.491 37.936H130.745V24.427H134.491V26.4934C135.162 25.2277 136.608 24.1171 138.623 24.1171C140.406 24.1171 141.749 24.8661 142.395 26.4676C143.479 24.8403 145.236 24.1171 146.94 24.1171C149.446 24.1171 151.383 25.6927 151.383 29.283V37.936H147.664V29.6963C147.664 27.9656 146.888 27.1908 145.545 27.1908C144.099 27.1908 142.937 28.1207 142.937 29.9546V37.936H139.217V29.6963C139.217 27.9656 138.417 27.1908 137.099 27.1908C135.653 27.1908 134.491 28.1207 134.491 29.9546V37.936ZM160.031 38.2201C163.726 38.2201 166.051 36.5928 166.489 33.674H162.95C162.718 34.8106 161.865 35.5596 160.135 35.5596C158.094 35.5596 156.881 34.2682 156.777 32.021H166.515V30.9878C166.515 26.1576 163.415 24.1171 159.928 24.1171C156.002 24.1171 152.98 26.8808 152.98 31.1428V31.3493C152.98 35.663 155.95 38.2201 160.031 38.2201ZM156.829 29.7221C157.113 27.8107 158.25 26.7001 159.928 26.7001C161.711 26.7001 162.744 27.6815 162.873 29.7221H156.829Z" fill="black"/>
</svg>
