<svg width="141" height="57" viewBox="0 0 141 57" fill="none" xmlns="http://www.w3.org/2000/svg">
<path fill-rule="evenodd" clip-rule="evenodd" d="M36.0532 19.7345L36.3043 20.183C36.6205 20.7279 36.7876 21.3466 36.7886 21.9766V35.8781C36.7835 36.5076 36.6167 37.1253 36.3043 37.6719L36.0353 38.1203C35.728 38.6693 35.2748 39.1224 34.7259 39.4297L22.6899 46.3894C22.1449 46.7055 21.5263 46.8725 20.8962 46.8737H20.3939C19.763 46.8796 19.1425 46.7121 18.6002 46.3894L6.54632 39.4477C6.00907 39.1252 5.55939 38.6755 5.2369 38.1382L4.98578 37.6898C4.66962 37.1448 4.50258 36.5261 4.50146 35.8961V21.9946C4.50258 21.3646 4.66962 20.7459 4.98578 20.2009L5.2369 19.7525C5.55126 19.2089 6.00277 18.7573 6.54632 18.443L18.5822 11.4833C19.1273 11.1672 19.7459 11.0002 20.376 10.999H20.8962C21.5263 11.0002 22.1449 11.1672 22.6899 11.4833L34.7259 18.4251C35.2725 18.7415 35.7294 19.1922 36.0532 19.7345ZM20.8962 14.5864H20.376L9.88269 20.6493L20.645 26.8555L31.4075 20.6493L20.8962 14.5864ZM32.9321 36.3267L22.4388 42.3895V29.9768L33.2011 23.7526V35.8782L32.9321 36.3267ZM83.5647 37.5465H79.8452V17.9159H83.5647V37.5465ZM50.0015 37.9673H54.1601V30.8383H55.9681L60.385 37.9673H64.8277L59.946 30.1151C62.1157 29.4693 63.7429 27.997 63.7429 25.2074V25.1041C63.7429 21.2813 60.9792 19.499 56.6139 19.499H50.0015V37.9673ZM54.1601 27.997V22.7019H56.5106C58.5253 22.7019 59.6619 23.3477 59.6619 25.2332V25.3366C59.6619 27.1188 58.6028 27.997 56.5106 27.997H54.1601ZM71.582 37.8299C75.2757 37.8299 77.6003 36.2027 78.0394 33.2839H74.5008C74.2683 34.4204 73.4159 35.1695 71.6854 35.1695C69.6448 35.1695 68.4308 33.878 68.3275 31.6309H78.0653V30.5977C78.0653 25.7674 74.9657 23.7269 71.4787 23.7269C67.5526 23.7269 64.5305 26.4907 64.5305 30.7526V30.9592C64.5305 35.2728 67.5009 37.8299 71.582 37.8299ZM68.3791 29.332C68.6632 27.4205 69.7998 26.3099 71.4787 26.3099C73.261 26.3099 74.2942 27.2914 74.4233 29.332H68.3791ZM90.6999 37.831C92.9215 37.831 94.29 36.7978 94.9874 35.4289V37.5469H98.707V24.038H94.9874V31.9677C94.9874 33.9567 93.7475 34.9381 92.1726 34.9381C90.5713 34.9381 89.8214 34.0599 89.8214 32.226V24.038H86.1024V32.7426C86.1024 36.2813 88.0653 37.831 90.6999 37.831ZM104.992 37.5458H101.246V24.0369H104.992V26.1032C105.663 24.8376 107.11 23.7269 109.125 23.7269C110.907 23.7269 112.25 24.476 112.896 26.0774C113.981 24.4501 115.737 23.7269 117.442 23.7269C119.948 23.7269 121.885 25.3025 121.885 28.8929V37.5458H118.165V29.3062C118.165 27.5755 117.39 26.8006 116.047 26.8006C114.6 26.8006 113.438 27.7306 113.438 29.5645V37.5458H109.719V29.3062C109.719 27.5755 108.918 26.8006 107.6 26.8006C106.154 26.8006 104.992 27.7306 104.992 29.5645V37.5458ZM130.533 37.8299C134.227 37.8299 136.552 36.2027 136.99 33.2839H133.452C133.219 34.4204 132.367 35.1695 130.636 35.1695C128.596 35.1695 127.382 33.878 127.279 31.6309H137.017V30.5977C137.017 25.7674 133.917 23.7269 130.43 23.7269C126.504 23.7269 123.481 26.4907 123.481 30.7526V30.9592C123.481 35.2728 126.452 37.8299 130.533 37.8299ZM127.33 29.332C127.615 27.4205 128.751 26.3099 130.43 26.3099C132.212 26.3099 133.245 27.2914 133.375 29.332H127.33Z" fill="black"/>
</svg>
