<svg width="140" height="57" viewBox="0 0 140 57" fill="none" xmlns="http://www.w3.org/2000/svg">
<path fill-rule="evenodd" clip-rule="evenodd" d="M38.5702 17.25L27.0607 39.75H16.25L21.0667 30.425H20.8506C16.8769 35.5835 10.9479 38.9794 2.5 39.75V30.5541C2.5 30.5541 7.90431 30.2349 11.0814 26.8947H2.5V17.2502H12.1445V25.1826L12.361 25.1818L16.3021 17.2502H23.596V25.1323L23.8124 25.132L27.9014 17.25H38.5702ZM101.333 37.2665H104.439V19.4375H101.333V37.2665ZM84.2092 37.0844C84.8842 37.3651 85.5707 37.5054 86.2686 37.5054C87.4214 37.5054 88.4531 37.2248 89.3633 36.6634C90.2734 36.1022 90.9789 35.3286 91.4796 34.3424C91.9802 33.3488 92.2304 32.2223 92.2304 30.9632C92.2304 29.7041 91.9726 28.5777 91.4568 27.584C90.9409 26.5904 90.2242 25.8205 89.3063 25.2744C88.3886 24.7206 87.3456 24.4476 86.1774 24.4552C85.4342 24.4552 84.7212 24.5993 84.0384 24.8875C83.3558 25.1758 82.7869 25.5854 82.3318 26.1163C82.2967 26.1567 82.2626 26.1976 82.2294 26.2388V19.4489H79.1119V37.2666H82.2067L82.2004 35.6021C82.2804 35.7002 82.3661 35.7961 82.4569 35.8898C82.9499 36.3981 83.5341 36.7962 84.2092 37.0844ZM87.3949 34.2059C86.8867 34.5169 86.3064 34.6724 85.6541 34.6724C85.0093 34.6724 84.4177 34.5131 83.8792 34.1946C83.3406 33.8683 82.9121 33.4247 82.5934 32.8633C82.2824 32.3021 82.1269 31.6648 82.1269 30.9518C82.1194 30.2388 82.2711 29.6017 82.5821 29.0404C82.9007 28.4715 83.3292 28.0316 83.8678 27.7206C84.4063 27.402 85.0018 27.2465 85.6541 27.2541C86.3064 27.2465 86.8867 27.3982 87.3949 27.7092C87.9107 28.0126 88.3051 28.4488 88.5782 29.0176C88.8588 29.5789 88.9992 30.2237 88.9992 30.9518C88.9992 31.6801 88.8588 32.3248 88.5782 32.8861C88.3051 33.4474 87.9107 33.8873 87.3949 34.2059ZM43.0701 20.5184H46.6199L49.7954 32.1154L53.1736 20.5184H56.1318L59.7954 31.8827L62.8447 20.5184H66.0987L61.2973 37.2665H58.2367L54.5112 26.1645L51.0914 37.2665H47.9967L43.0701 20.5184ZM71.3413 37.5623C70.1048 37.5699 68.9898 37.2968 67.9962 36.7431C67.01 36.1818 66.2327 35.4043 65.6637 34.4106C65.1024 33.417 64.8218 32.283 64.8218 31.0086C64.8218 29.7723 65.11 28.6535 65.6865 27.6523C66.2629 26.651 67.0442 25.8697 68.0303 25.3084C69.0164 24.7471 70.1162 24.4665 71.3298 24.4665C72.6952 24.4665 73.8898 24.7699 74.9138 25.3767C75.9454 25.9835 76.7153 26.8444 77.2235 27.9595C77.7393 29.0669 77.9252 30.3374 77.781 31.771H68.0352C68.0624 32.3421 68.2049 32.8618 68.4627 33.3298C68.7509 33.8455 69.1529 34.2475 69.6686 34.5358C70.1845 34.824 70.7609 34.9681 71.3982 34.9681C71.8835 34.9605 72.3349 34.8771 72.752 34.7179C73.1693 34.551 73.5219 34.3273 73.8102 34.0465C74.106 33.7659 74.3147 33.4474 74.436 33.0909H77.69C77.4928 33.9631 77.0984 34.7406 76.5068 35.4233C75.915 36.0984 75.1718 36.6255 74.2766 37.0048C73.3817 37.384 72.4032 37.5699 71.3413 37.5623ZM68.474 28.6421C68.2923 28.9591 68.1663 29.3004 68.0962 29.6661H74.5565C74.5097 29.2041 74.367 28.7832 74.1288 28.4032C73.8557 27.9557 73.484 27.6105 73.0138 27.3678C72.5435 27.1175 72.0125 26.9924 71.4209 26.9924C70.7913 26.9924 70.2187 27.1365 69.7028 27.4247C69.187 27.7129 68.7774 28.1188 68.474 28.6421ZM94.5178 24.7282C94.5178 23.7118 94.749 22.8092 95.2118 22.0203C95.6744 21.2239 96.323 20.6057 97.1574 20.1657C97.9993 19.7182 98.9816 19.4868 100.104 19.4717V22.2365C99.5808 22.2441 99.1333 22.354 98.7616 22.5664C98.3975 22.7712 98.1169 23.0708 97.9196 23.4653C97.7381 23.8284 97.6401 24.2494 97.6258 24.7282H100.036V27.3565H97.6239V37.2665H94.5178V27.3565H92.5153V24.7282H94.5178ZM112.335 37.5395C111.068 37.5395 109.934 37.2626 108.933 36.709C107.939 36.1476 107.158 35.374 106.589 34.3878C106.028 33.3942 105.747 32.2678 105.747 31.0086C105.747 29.742 106.028 28.6117 106.589 27.6181C107.158 26.6168 107.939 25.8393 108.933 25.2856C109.934 24.7319 111.068 24.455 112.335 24.455C113.609 24.455 114.747 24.7319 115.748 25.2856C116.757 25.8393 117.542 26.613 118.103 27.6067C118.665 28.6003 118.949 29.7343 118.957 31.0086C118.949 32.2678 118.665 33.3942 118.103 34.3878C117.55 35.374 116.768 36.1476 115.759 36.709C114.751 37.2626 113.609 37.5395 112.335 37.5395ZM112.335 34.6837C113.002 34.6837 113.594 34.532 114.11 34.2286C114.626 33.9176 115.024 33.4852 115.304 32.9315C115.585 32.3702 115.725 31.7292 115.725 31.0086C115.725 30.2805 115.585 29.6357 115.304 29.0744C115.024 28.5131 114.626 28.0808 114.11 27.7774C113.594 27.4664 113.002 27.3109 112.335 27.3109C111.675 27.3109 111.087 27.4664 110.571 27.7774C110.063 28.0808 109.669 28.5131 109.388 29.0744C109.107 29.6357 108.971 30.2805 108.978 31.0086C108.978 31.7292 109.119 32.3702 109.399 32.9315C109.688 33.4852 110.082 33.9176 110.583 34.2286C111.091 34.532 111.675 34.6837 112.335 34.6837ZM122.313 24.7282H118.854L122.598 37.2665H125.624L128.086 29.2583L130.744 37.2665H133.725L137.48 24.7282H134.351L132.221 32.5325L129.867 24.7282H126.841L124.499 32.7044L122.313 24.7282Z" fill="black"/>
<path d="M38.5702 17.25L27.0607 39.75H16.25L21.0667 30.425H20.8506C16.8769 35.5835 10.9479 38.9794 2.5 39.75V30.5541C2.5 30.5541 7.90431 30.2349 11.0814 26.8947H2.5V17.2502H12.1445V25.1826L12.361 25.1818L16.3021 17.2502H23.596V25.1323L23.8124 25.132L27.9014 17.25H38.5702ZM101.333 37.2665H104.439V19.4375H101.333V37.2665ZM84.2092 37.0844C84.8842 37.3651 85.5707 37.5054 86.2686 37.5054C87.4214 37.5054 88.4531 37.2248 89.3633 36.6634C90.2734 36.1022 90.9789 35.3286 91.4796 34.3424C91.9802 33.3488 92.2304 32.2223 92.2304 30.9632C92.2304 29.7041 91.9726 28.5777 91.4568 27.584C90.9409 26.5904 90.2242 25.8205 89.3063 25.2744C88.3886 24.7206 87.3456 24.4476 86.1774 24.4552C85.4342 24.4552 84.7212 24.5993 84.0384 24.8875C83.3558 25.1758 82.7869 25.5854 82.3318 26.1163C82.2967 26.1567 82.2626 26.1976 82.2294 26.2388V19.4489H79.1119V37.2666H82.2067L82.2004 35.6021C82.2804 35.7002 82.3661 35.7961 82.4569 35.8898C82.9499 36.3981 83.5341 36.7962 84.2092 37.0844ZM87.3949 34.2059C86.8867 34.5169 86.3064 34.6724 85.6541 34.6724C85.0093 34.6724 84.4177 34.5131 83.8792 34.1946C83.3406 33.8683 82.9121 33.4247 82.5934 32.8633C82.2824 32.3021 82.1269 31.6648 82.1269 30.9518C82.1194 30.2388 82.2711 29.6017 82.5821 29.0404C82.9007 28.4715 83.3292 28.0316 83.8678 27.7206C84.4063 27.402 85.0018 27.2465 85.6541 27.2541C86.3064 27.2465 86.8867 27.3982 87.3949 27.7092C87.9107 28.0126 88.3051 28.4488 88.5782 29.0176C88.8588 29.5789 88.9992 30.2237 88.9992 30.9518C88.9992 31.6801 88.8588 32.3248 88.5782 32.8861C88.3051 33.4474 87.9107 33.8873 87.3949 34.2059ZM43.0701 20.5184H46.6199L49.7954 32.1154L53.1736 20.5184H56.1318L59.7954 31.8827L62.8447 20.5184H66.0987L61.2973 37.2665H58.2367L54.5112 26.1645L51.0914 37.2665H47.9967L43.0701 20.5184ZM71.3413 37.5623C70.1048 37.5699 68.9898 37.2968 67.9962 36.7431C67.01 36.1818 66.2327 35.4043 65.6637 34.4106C65.1024 33.417 64.8218 32.283 64.8218 31.0086C64.8218 29.7723 65.11 28.6535 65.6865 27.6523C66.2629 26.651 67.0442 25.8697 68.0303 25.3084C69.0164 24.7471 70.1162 24.4665 71.3298 24.4665C72.6952 24.4665 73.8898 24.7699 74.9138 25.3767C75.9454 25.9835 76.7153 26.8444 77.2235 27.9595C77.7393 29.0669 77.9252 30.3374 77.781 31.771H68.0352C68.0624 32.3421 68.2049 32.8618 68.4627 33.3298C68.7509 33.8455 69.1529 34.2475 69.6686 34.5358C70.1845 34.824 70.7609 34.9681 71.3982 34.9681C71.8835 34.9605 72.3349 34.8771 72.752 34.7179C73.1693 34.551 73.5219 34.3273 73.8102 34.0465C74.106 33.7659 74.3147 33.4474 74.436 33.0909H77.69C77.4928 33.9631 77.0984 34.7406 76.5068 35.4233C75.915 36.0984 75.1718 36.6255 74.2766 37.0048C73.3817 37.384 72.4032 37.5699 71.3413 37.5623ZM68.474 28.6421C68.2923 28.9591 68.1663 29.3004 68.0962 29.6661H74.5565C74.5097 29.2041 74.367 28.7832 74.1288 28.4032C73.8557 27.9557 73.484 27.6105 73.0138 27.3678C72.5435 27.1175 72.0125 26.9924 71.4209 26.9924C70.7913 26.9924 70.2187 27.1365 69.7028 27.4247C69.187 27.7129 68.7774 28.1188 68.474 28.6421ZM94.5178 24.7282C94.5178 23.7118 94.749 22.8092 95.2118 22.0203C95.6744 21.2239 96.323 20.6057 97.1574 20.1657C97.9993 19.7182 98.9816 19.4868 100.104 19.4717V22.2365C99.5808 22.2441 99.1333 22.354 98.7616 22.5664C98.3975 22.7712 98.1169 23.0708 97.9196 23.4653C97.7381 23.8284 97.6401 24.2494 97.6258 24.7282H100.036V27.3565H97.6239V37.2665H94.5178V27.3565H92.5153V24.7282H94.5178ZM112.335 37.5395C111.068 37.5395 109.934 37.2626 108.933 36.709C107.939 36.1476 107.158 35.374 106.589 34.3878C106.028 33.3942 105.747 32.2678 105.747 31.0086C105.747 29.742 106.028 28.6117 106.589 27.6181C107.158 26.6168 107.939 25.8393 108.933 25.2856C109.934 24.7319 111.068 24.455 112.335 24.455C113.609 24.455 114.747 24.7319 115.748 25.2856C116.757 25.8393 117.542 26.613 118.103 27.6067C118.665 28.6003 118.949 29.7343 118.957 31.0086C118.949 32.2678 118.665 33.3942 118.103 34.3878C117.55 35.374 116.768 36.1476 115.759 36.709C114.751 37.2626 113.609 37.5395 112.335 37.5395ZM112.335 34.6837C113.002 34.6837 113.594 34.532 114.11 34.2286C114.626 33.9176 115.024 33.4852 115.304 32.9315C115.585 32.3702 115.725 31.7292 115.725 31.0086C115.725 30.2805 115.585 29.6357 115.304 29.0744C115.024 28.5131 114.626 28.0808 114.11 27.7774C113.594 27.4664 113.002 27.3109 112.335 27.3109C111.675 27.3109 111.087 27.4664 110.571 27.7774C110.063 28.0808 109.669 28.5131 109.388 29.0744C109.107 29.6357 108.971 30.2805 108.978 31.0086C108.978 31.7292 109.119 32.3702 109.399 32.9315C109.688 33.4852 110.082 33.9176 110.583 34.2286C111.091 34.532 111.675 34.6837 112.335 34.6837ZM122.313 24.7282H118.854L122.598 37.2665H125.624L128.086 29.2583L130.744 37.2665H133.725L137.48 24.7282H134.351L132.221 32.5325L129.867 24.7282H126.841L124.499 32.7044L122.313 24.7282Z" fill="black"/>
<path fill-rule="evenodd" clip-rule="evenodd" d="M38.5702 17.25L27.0607 39.75H16.25L21.0667 30.425H20.8506C16.8769 35.5835 10.9479 38.9794 2.5 39.75V30.5541C2.5 30.5541 7.90431 30.2349 11.0814 26.8947H2.5V17.2502H12.1445V25.1826L12.361 25.1818L16.3021 17.2502H23.596V25.1323L23.8124 25.132L27.9014 17.25H38.5702ZM101.333 37.2665H104.439V19.4375H101.333V37.2665ZM84.2092 37.0844C84.8842 37.3651 85.5707 37.5054 86.2686 37.5054C87.4214 37.5054 88.4531 37.2248 89.3633 36.6634C90.2734 36.1022 90.9789 35.3286 91.4796 34.3424C91.9802 33.3488 92.2304 32.2223 92.2304 30.9632C92.2304 29.7041 91.9726 28.5777 91.4568 27.584C90.9409 26.5904 90.2242 25.8205 89.3063 25.2744C88.3886 24.7206 87.3456 24.4476 86.1774 24.4552C85.4342 24.4552 84.7212 24.5993 84.0384 24.8875C83.3558 25.1758 82.7869 25.5854 82.3318 26.1163C82.2967 26.1567 82.2626 26.1976 82.2294 26.2388V19.4489H79.1119V37.2666H82.2067L82.2004 35.6021C82.2804 35.7002 82.3661 35.7961 82.4569 35.8898C82.9499 36.3981 83.5341 36.7962 84.2092 37.0844ZM87.3949 34.2059C86.8867 34.5169 86.3064 34.6724 85.6541 34.6724C85.0093 34.6724 84.4177 34.5131 83.8792 34.1946C83.3406 33.8683 82.9121 33.4247 82.5934 32.8633C82.2824 32.3021 82.1269 31.6648 82.1269 30.9518C82.1194 30.2388 82.2711 29.6017 82.5821 29.0404C82.9007 28.4715 83.3292 28.0316 83.8678 27.7206C84.4063 27.402 85.0018 27.2465 85.6541 27.2541C86.3064 27.2465 86.8867 27.3982 87.3949 27.7092C87.9107 28.0126 88.3051 28.4488 88.5782 29.0176C88.8588 29.5789 88.9992 30.2237 88.9992 30.9518C88.9992 31.6801 88.8588 32.3248 88.5782 32.8861C88.3051 33.4474 87.9107 33.8873 87.3949 34.2059ZM43.0701 20.5184H46.6199L49.7954 32.1154L53.1736 20.5184H56.1318L59.7954 31.8827L62.8447 20.5184H66.0987L61.2973 37.2665H58.2367L54.5112 26.1645L51.0914 37.2665H47.9967L43.0701 20.5184ZM71.3413 37.5623C70.1048 37.5699 68.9898 37.2968 67.9962 36.7431C67.01 36.1818 66.2327 35.4043 65.6637 34.4106C65.1024 33.417 64.8218 32.283 64.8218 31.0086C64.8218 29.7723 65.11 28.6535 65.6865 27.6523C66.2629 26.651 67.0442 25.8697 68.0303 25.3084C69.0164 24.7471 70.1162 24.4665 71.3298 24.4665C72.6952 24.4665 73.8898 24.7699 74.9138 25.3767C75.9454 25.9835 76.7153 26.8444 77.2235 27.9595C77.7393 29.0669 77.9252 30.3374 77.781 31.771H68.0352C68.0624 32.3421 68.2049 32.8618 68.4627 33.3298C68.7509 33.8455 69.1529 34.2475 69.6686 34.5358C70.1845 34.824 70.7609 34.9681 71.3982 34.9681C71.8835 34.9605 72.3349 34.8771 72.752 34.7179C73.1693 34.551 73.5219 34.3273 73.8102 34.0465C74.106 33.7659 74.3147 33.4474 74.436 33.0909H77.69C77.4928 33.9631 77.0984 34.7406 76.5068 35.4233C75.915 36.0984 75.1718 36.6255 74.2766 37.0048C73.3817 37.384 72.4032 37.5699 71.3413 37.5623ZM68.474 28.6421C68.2923 28.9591 68.1663 29.3004 68.0962 29.6661H74.5565C74.5097 29.2041 74.367 28.7832 74.1288 28.4032C73.8557 27.9557 73.484 27.6105 73.0138 27.3678C72.5435 27.1175 72.0125 26.9924 71.4209 26.9924C70.7913 26.9924 70.2187 27.1365 69.7028 27.4247C69.187 27.7129 68.7774 28.1188 68.474 28.6421ZM94.5178 24.7282C94.5178 23.7118 94.749 22.8092 95.2118 22.0203C95.6744 21.2239 96.323 20.6057 97.1574 20.1657C97.9993 19.7182 98.9816 19.4868 100.104 19.4717V22.2365C99.5808 22.2441 99.1333 22.354 98.7616 22.5664C98.3975 22.7712 98.1169 23.0708 97.9196 23.4653C97.7381 23.8284 97.6401 24.2494 97.6258 24.7282H100.036V27.3565H97.6239V37.2665H94.5178V27.3565H92.5153V24.7282H94.5178ZM112.335 37.5395C111.068 37.5395 109.934 37.2626 108.933 36.709C107.939 36.1476 107.158 35.374 106.589 34.3878C106.028 33.3942 105.747 32.2678 105.747 31.0086C105.747 29.742 106.028 28.6117 106.589 27.6181C107.158 26.6168 107.939 25.8393 108.933 25.2856C109.934 24.7319 111.068 24.455 112.335 24.455C113.609 24.455 114.747 24.7319 115.748 25.2856C116.757 25.8393 117.542 26.613 118.103 27.6067C118.665 28.6003 118.949 29.7343 118.957 31.0086C118.949 32.2678 118.665 33.3942 118.103 34.3878C117.55 35.374 116.768 36.1476 115.759 36.709C114.751 37.2626 113.609 37.5395 112.335 37.5395ZM112.335 34.6837C113.002 34.6837 113.594 34.532 114.11 34.2286C114.626 33.9176 115.024 33.4852 115.304 32.9315C115.585 32.3702 115.725 31.7292 115.725 31.0086C115.725 30.2805 115.585 29.6357 115.304 29.0744C115.024 28.5131 114.626 28.0808 114.11 27.7774C113.594 27.4664 113.002 27.3109 112.335 27.3109C111.675 27.3109 111.087 27.4664 110.571 27.7774C110.063 28.0808 109.669 28.5131 109.388 29.0744C109.107 29.6357 108.971 30.2805 108.978 31.0086C108.978 31.7292 109.119 32.3702 109.399 32.9315C109.688 33.4852 110.082 33.9176 110.583 34.2286C111.091 34.532 111.675 34.6837 112.335 34.6837ZM122.313 24.7282H118.854L122.598 37.2665H125.624L128.086 29.2583L130.744 37.2665H133.725L137.48 24.7282H134.351L132.221 32.5325L129.867 24.7282H126.841L124.499 32.7044L122.313 24.7282Z" fill="black"/>
<path d="M38.5702 17.25L27.0607 39.75H16.25L21.0667 30.425H20.8506C16.8769 35.5835 10.9479 38.9794 2.5 39.75V30.5541C2.5 30.5541 7.90431 30.2349 11.0814 26.8947H2.5V17.2502H12.1445V25.1826L12.361 25.1818L16.3021 17.2502H23.596V25.1323L23.8124 25.132L27.9014 17.25H38.5702ZM101.333 37.2665H104.439V19.4375H101.333V37.2665ZM84.2092 37.0844C84.8842 37.3651 85.5707 37.5054 86.2686 37.5054C87.4214 37.5054 88.4531 37.2248 89.3633 36.6634C90.2734 36.1022 90.9789 35.3286 91.4796 34.3424C91.9802 33.3488 92.2304 32.2223 92.2304 30.9632C92.2304 29.7041 91.9726 28.5777 91.4568 27.584C90.9409 26.5904 90.2242 25.8205 89.3063 25.2744C88.3886 24.7206 87.3456 24.4476 86.1774 24.4552C85.4342 24.4552 84.7212 24.5993 84.0384 24.8875C83.3558 25.1758 82.7869 25.5854 82.3318 26.1163C82.2967 26.1567 82.2626 26.1976 82.2294 26.2388V19.4489H79.1119V37.2666H82.2067L82.2004 35.6021C82.2804 35.7002 82.3661 35.7961 82.4569 35.8898C82.9499 36.3981 83.5341 36.7962 84.2092 37.0844ZM87.3949 34.2059C86.8867 34.5169 86.3064 34.6724 85.6541 34.6724C85.0093 34.6724 84.4177 34.5131 83.8792 34.1946C83.3406 33.8683 82.9121 33.4247 82.5934 32.8633C82.2824 32.3021 82.1269 31.6648 82.1269 30.9518C82.1194 30.2388 82.2711 29.6017 82.5821 29.0404C82.9007 28.4715 83.3292 28.0316 83.8678 27.7206C84.4063 27.402 85.0018 27.2465 85.6541 27.2541C86.3064 27.2465 86.8867 27.3982 87.3949 27.7092C87.9107 28.0126 88.3051 28.4488 88.5782 29.0176C88.8588 29.5789 88.9992 30.2237 88.9992 30.9518C88.9992 31.6801 88.8588 32.3248 88.5782 32.8861C88.3051 33.4474 87.9107 33.8873 87.3949 34.2059ZM43.0701 20.5184H46.6199L49.7954 32.1154L53.1736 20.5184H56.1318L59.7954 31.8827L62.8447 20.5184H66.0987L61.2973 37.2665H58.2367L54.5112 26.1645L51.0914 37.2665H47.9967L43.0701 20.5184ZM71.3413 37.5623C70.1048 37.5699 68.9898 37.2968 67.9962 36.7431C67.01 36.1818 66.2327 35.4043 65.6637 34.4106C65.1024 33.417 64.8218 32.283 64.8218 31.0086C64.8218 29.7723 65.11 28.6535 65.6865 27.6523C66.2629 26.651 67.0442 25.8697 68.0303 25.3084C69.0164 24.7471 70.1162 24.4665 71.3298 24.4665C72.6952 24.4665 73.8898 24.7699 74.9138 25.3767C75.9454 25.9835 76.7153 26.8444 77.2235 27.9595C77.7393 29.0669 77.9252 30.3374 77.781 31.771H68.0352C68.0624 32.3421 68.2049 32.8618 68.4627 33.3298C68.7509 33.8455 69.1529 34.2475 69.6686 34.5358C70.1845 34.824 70.7609 34.9681 71.3982 34.9681C71.8835 34.9605 72.3349 34.8771 72.752 34.7179C73.1693 34.551 73.5219 34.3273 73.8102 34.0465C74.106 33.7659 74.3147 33.4474 74.436 33.0909H77.69C77.4928 33.9631 77.0984 34.7406 76.5068 35.4233C75.915 36.0984 75.1718 36.6255 74.2766 37.0048C73.3817 37.384 72.4032 37.5699 71.3413 37.5623ZM68.474 28.6421C68.2923 28.9591 68.1663 29.3004 68.0962 29.6661H74.5565C74.5097 29.2041 74.367 28.7832 74.1288 28.4032C73.8557 27.9557 73.484 27.6105 73.0138 27.3678C72.5435 27.1175 72.0125 26.9924 71.4209 26.9924C70.7913 26.9924 70.2187 27.1365 69.7028 27.4247C69.187 27.7129 68.7774 28.1188 68.474 28.6421ZM94.5178 24.7282C94.5178 23.7118 94.749 22.8092 95.2118 22.0203C95.6744 21.2239 96.323 20.6057 97.1574 20.1657C97.9993 19.7182 98.9816 19.4868 100.104 19.4717V22.2365C99.5808 22.2441 99.1333 22.354 98.7616 22.5664C98.3975 22.7712 98.1169 23.0708 97.9196 23.4653C97.7381 23.8284 97.6401 24.2494 97.6258 24.7282H100.036V27.3565H97.6239V37.2665H94.5178V27.3565H92.5153V24.7282H94.5178ZM112.335 37.5395C111.068 37.5395 109.934 37.2626 108.933 36.709C107.939 36.1476 107.158 35.374 106.589 34.3878C106.028 33.3942 105.747 32.2678 105.747 31.0086C105.747 29.742 106.028 28.6117 106.589 27.6181C107.158 26.6168 107.939 25.8393 108.933 25.2856C109.934 24.7319 111.068 24.455 112.335 24.455C113.609 24.455 114.747 24.7319 115.748 25.2856C116.757 25.8393 117.542 26.613 118.103 27.6067C118.665 28.6003 118.949 29.7343 118.957 31.0086C118.949 32.2678 118.665 33.3942 118.103 34.3878C117.55 35.374 116.768 36.1476 115.759 36.709C114.751 37.2626 113.609 37.5395 112.335 37.5395ZM112.335 34.6837C113.002 34.6837 113.594 34.532 114.11 34.2286C114.626 33.9176 115.024 33.4852 115.304 32.9315C115.585 32.3702 115.725 31.7292 115.725 31.0086C115.725 30.2805 115.585 29.6357 115.304 29.0744C115.024 28.5131 114.626 28.0808 114.11 27.7774C113.594 27.4664 113.002 27.3109 112.335 27.3109C111.675 27.3109 111.087 27.4664 110.571 27.7774C110.063 28.0808 109.669 28.5131 109.388 29.0744C109.107 29.6357 108.971 30.2805 108.978 31.0086C108.978 31.7292 109.119 32.3702 109.399 32.9315C109.688 33.4852 110.082 33.9176 110.583 34.2286C111.091 34.532 111.675 34.6837 112.335 34.6837ZM122.313 24.7282H118.854L122.598 37.2665H125.624L128.086 29.2583L130.744 37.2665H133.725L137.48 24.7282H134.351L132.221 32.5325L129.867 24.7282H126.841L124.499 32.7044L122.313 24.7282Z" fill="black"/>
<path fill-rule="evenodd" clip-rule="evenodd" d="M38.5702 17.25L27.0607 39.75H16.25L21.0667 30.425H20.8506C16.8769 35.5835 10.9479 38.9794 2.5 39.75V30.5541C2.5 30.5541 7.90431 30.2349 11.0814 26.8947H2.5V17.2502H12.1445V25.1826L12.361 25.1818L16.3021 17.2502H23.596V25.1323L23.8124 25.132L27.9014 17.25H38.5702ZM101.333 37.2665H104.439V19.4375H101.333V37.2665ZM84.2092 37.0844C84.8842 37.3651 85.5707 37.5054 86.2686 37.5054C87.4214 37.5054 88.4531 37.2248 89.3633 36.6634C90.2734 36.1022 90.9789 35.3286 91.4796 34.3424C91.9802 33.3488 92.2304 32.2223 92.2304 30.9632C92.2304 29.7041 91.9726 28.5777 91.4568 27.584C90.9409 26.5904 90.2242 25.8205 89.3063 25.2744C88.3886 24.7206 87.3456 24.4476 86.1774 24.4552C85.4342 24.4552 84.7212 24.5993 84.0384 24.8875C83.3558 25.1758 82.7869 25.5854 82.3318 26.1163C82.2967 26.1567 82.2626 26.1976 82.2294 26.2388V19.4489H79.1119V37.2666H82.2067L82.2004 35.6021C82.2804 35.7002 82.3661 35.7961 82.4569 35.8898C82.9499 36.3981 83.5341 36.7962 84.2092 37.0844ZM87.3949 34.2059C86.8867 34.5169 86.3064 34.6724 85.6541 34.6724C85.0093 34.6724 84.4177 34.5131 83.8792 34.1946C83.3406 33.8683 82.9121 33.4247 82.5934 32.8633C82.2824 32.3021 82.1269 31.6648 82.1269 30.9518C82.1194 30.2388 82.2711 29.6017 82.5821 29.0404C82.9007 28.4715 83.3292 28.0316 83.8678 27.7206C84.4063 27.402 85.0018 27.2465 85.6541 27.2541C86.3064 27.2465 86.8867 27.3982 87.3949 27.7092C87.9107 28.0126 88.3051 28.4488 88.5782 29.0176C88.8588 29.5789 88.9992 30.2237 88.9992 30.9518C88.9992 31.6801 88.8588 32.3248 88.5782 32.8861C88.3051 33.4474 87.9107 33.8873 87.3949 34.2059ZM43.0701 20.5184H46.6199L49.7954 32.1154L53.1736 20.5184H56.1318L59.7954 31.8827L62.8447 20.5184H66.0987L61.2973 37.2665H58.2367L54.5112 26.1645L51.0914 37.2665H47.9967L43.0701 20.5184ZM71.3413 37.5623C70.1048 37.5699 68.9898 37.2968 67.9962 36.7431C67.01 36.1818 66.2327 35.4043 65.6637 34.4106C65.1024 33.417 64.8218 32.283 64.8218 31.0086C64.8218 29.7723 65.11 28.6535 65.6865 27.6523C66.2629 26.651 67.0442 25.8697 68.0303 25.3084C69.0164 24.7471 70.1162 24.4665 71.3298 24.4665C72.6952 24.4665 73.8898 24.7699 74.9138 25.3767C75.9454 25.9835 76.7153 26.8444 77.2235 27.9595C77.7393 29.0669 77.9252 30.3374 77.781 31.771H68.0352C68.0624 32.3421 68.2049 32.8618 68.4627 33.3298C68.7509 33.8455 69.1529 34.2475 69.6686 34.5358C70.1845 34.824 70.7609 34.9681 71.3982 34.9681C71.8835 34.9605 72.3349 34.8771 72.752 34.7179C73.1693 34.551 73.5219 34.3273 73.8102 34.0465C74.106 33.7659 74.3147 33.4474 74.436 33.0909H77.69C77.4928 33.9631 77.0984 34.7406 76.5068 35.4233C75.915 36.0984 75.1718 36.6255 74.2766 37.0048C73.3817 37.384 72.4032 37.5699 71.3413 37.5623ZM68.474 28.6421C68.2923 28.9591 68.1663 29.3004 68.0962 29.6661H74.5565C74.5097 29.2041 74.367 28.7832 74.1288 28.4032C73.8557 27.9557 73.484 27.6105 73.0138 27.3678C72.5435 27.1175 72.0125 26.9924 71.4209 26.9924C70.7913 26.9924 70.2187 27.1365 69.7028 27.4247C69.187 27.7129 68.7774 28.1188 68.474 28.6421ZM94.5178 24.7282C94.5178 23.7118 94.749 22.8092 95.2118 22.0203C95.6744 21.2239 96.323 20.6057 97.1574 20.1657C97.9993 19.7182 98.9816 19.4868 100.104 19.4717V22.2365C99.5808 22.2441 99.1333 22.354 98.7616 22.5664C98.3975 22.7712 98.1169 23.0708 97.9196 23.4653C97.7381 23.8284 97.6401 24.2494 97.6258 24.7282H100.036V27.3565H97.6239V37.2665H94.5178V27.3565H92.5153V24.7282H94.5178ZM112.335 37.5395C111.068 37.5395 109.934 37.2626 108.933 36.709C107.939 36.1476 107.158 35.374 106.589 34.3878C106.028 33.3942 105.747 32.2678 105.747 31.0086C105.747 29.742 106.028 28.6117 106.589 27.6181C107.158 26.6168 107.939 25.8393 108.933 25.2856C109.934 24.7319 111.068 24.455 112.335 24.455C113.609 24.455 114.747 24.7319 115.748 25.2856C116.757 25.8393 117.542 26.613 118.103 27.6067C118.665 28.6003 118.949 29.7343 118.957 31.0086C118.949 32.2678 118.665 33.3942 118.103 34.3878C117.55 35.374 116.768 36.1476 115.759 36.709C114.751 37.2626 113.609 37.5395 112.335 37.5395ZM112.335 34.6837C113.002 34.6837 113.594 34.532 114.11 34.2286C114.626 33.9176 115.024 33.4852 115.304 32.9315C115.585 32.3702 115.725 31.7292 115.725 31.0086C115.725 30.2805 115.585 29.6357 115.304 29.0744C115.024 28.5131 114.626 28.0808 114.11 27.7774C113.594 27.4664 113.002 27.3109 112.335 27.3109C111.675 27.3109 111.087 27.4664 110.571 27.7774C110.063 28.0808 109.669 28.5131 109.388 29.0744C109.107 29.6357 108.971 30.2805 108.978 31.0086C108.978 31.7292 109.119 32.3702 109.399 32.9315C109.688 33.4852 110.082 33.9176 110.583 34.2286C111.091 34.532 111.675 34.6837 112.335 34.6837ZM122.313 24.7282H118.854L122.598 37.2665H125.624L128.086 29.2583L130.744 37.2665H133.725L137.48 24.7282H134.351L132.221 32.5325L129.867 24.7282H126.841L124.499 32.7044L122.313 24.7282Z" fill="black"/>
<path d="M38.5702 17.25L27.0607 39.75H16.25L21.0667 30.425H20.8506C16.8769 35.5835 10.9479 38.9794 2.5 39.75V30.5541C2.5 30.5541 7.90431 30.2349 11.0814 26.8947H2.5V17.2502H12.1445V25.1826L12.361 25.1818L16.3021 17.2502H23.596V25.1323L23.8124 25.132L27.9014 17.25H38.5702ZM101.333 37.2665H104.439V19.4375H101.333V37.2665ZM84.2092 37.0844C84.8842 37.3651 85.5707 37.5054 86.2686 37.5054C87.4214 37.5054 88.4531 37.2248 89.3633 36.6634C90.2734 36.1022 90.9789 35.3286 91.4796 34.3424C91.9802 33.3488 92.2304 32.2223 92.2304 30.9632C92.2304 29.7041 91.9726 28.5777 91.4568 27.584C90.9409 26.5904 90.2242 25.8205 89.3063 25.2744C88.3886 24.7206 87.3456 24.4476 86.1774 24.4552C85.4342 24.4552 84.7212 24.5993 84.0384 24.8875C83.3558 25.1758 82.7869 25.5854 82.3318 26.1163C82.2967 26.1567 82.2626 26.1976 82.2294 26.2388V19.4489H79.1119V37.2666H82.2067L82.2004 35.6021C82.2804 35.7002 82.3661 35.7961 82.4569 35.8898C82.9499 36.3981 83.5341 36.7962 84.2092 37.0844ZM87.3949 34.2059C86.8867 34.5169 86.3064 34.6724 85.6541 34.6724C85.0093 34.6724 84.4177 34.5131 83.8792 34.1946C83.3406 33.8683 82.9121 33.4247 82.5934 32.8633C82.2824 32.3021 82.1269 31.6648 82.1269 30.9518C82.1194 30.2388 82.2711 29.6017 82.5821 29.0404C82.9007 28.4715 83.3292 28.0316 83.8678 27.7206C84.4063 27.402 85.0018 27.2465 85.6541 27.2541C86.3064 27.2465 86.8867 27.3982 87.3949 27.7092C87.9107 28.0126 88.3051 28.4488 88.5782 29.0176C88.8588 29.5789 88.9992 30.2237 88.9992 30.9518C88.9992 31.6801 88.8588 32.3248 88.5782 32.8861C88.3051 33.4474 87.9107 33.8873 87.3949 34.2059ZM43.0701 20.5184H46.6199L49.7954 32.1154L53.1736 20.5184H56.1318L59.7954 31.8827L62.8447 20.5184H66.0987L61.2973 37.2665H58.2367L54.5112 26.1645L51.0914 37.2665H47.9967L43.0701 20.5184ZM71.3413 37.5623C70.1048 37.5699 68.9898 37.2968 67.9962 36.7431C67.01 36.1818 66.2327 35.4043 65.6637 34.4106C65.1024 33.417 64.8218 32.283 64.8218 31.0086C64.8218 29.7723 65.11 28.6535 65.6865 27.6523C66.2629 26.651 67.0442 25.8697 68.0303 25.3084C69.0164 24.7471 70.1162 24.4665 71.3298 24.4665C72.6952 24.4665 73.8898 24.7699 74.9138 25.3767C75.9454 25.9835 76.7153 26.8444 77.2235 27.9595C77.7393 29.0669 77.9252 30.3374 77.781 31.771H68.0352C68.0624 32.3421 68.2049 32.8618 68.4627 33.3298C68.7509 33.8455 69.1529 34.2475 69.6686 34.5358C70.1845 34.824 70.7609 34.9681 71.3982 34.9681C71.8835 34.9605 72.3349 34.8771 72.752 34.7179C73.1693 34.551 73.5219 34.3273 73.8102 34.0465C74.106 33.7659 74.3147 33.4474 74.436 33.0909H77.69C77.4928 33.9631 77.0984 34.7406 76.5068 35.4233C75.915 36.0984 75.1718 36.6255 74.2766 37.0048C73.3817 37.384 72.4032 37.5699 71.3413 37.5623ZM68.474 28.6421C68.2923 28.9591 68.1663 29.3004 68.0962 29.6661H74.5565C74.5097 29.2041 74.367 28.7832 74.1288 28.4032C73.8557 27.9557 73.484 27.6105 73.0138 27.3678C72.5435 27.1175 72.0125 26.9924 71.4209 26.9924C70.7913 26.9924 70.2187 27.1365 69.7028 27.4247C69.187 27.7129 68.7774 28.1188 68.474 28.6421ZM94.5178 24.7282C94.5178 23.7118 94.749 22.8092 95.2118 22.0203C95.6744 21.2239 96.323 20.6057 97.1574 20.1657C97.9993 19.7182 98.9816 19.4868 100.104 19.4717V22.2365C99.5808 22.2441 99.1333 22.354 98.7616 22.5664C98.3975 22.7712 98.1169 23.0708 97.9196 23.4653C97.7381 23.8284 97.6401 24.2494 97.6258 24.7282H100.036V27.3565H97.6239V37.2665H94.5178V27.3565H92.5153V24.7282H94.5178ZM112.335 37.5395C111.068 37.5395 109.934 37.2626 108.933 36.709C107.939 36.1476 107.158 35.374 106.589 34.3878C106.028 33.3942 105.747 32.2678 105.747 31.0086C105.747 29.742 106.028 28.6117 106.589 27.6181C107.158 26.6168 107.939 25.8393 108.933 25.2856C109.934 24.7319 111.068 24.455 112.335 24.455C113.609 24.455 114.747 24.7319 115.748 25.2856C116.757 25.8393 117.542 26.613 118.103 27.6067C118.665 28.6003 118.949 29.7343 118.957 31.0086C118.949 32.2678 118.665 33.3942 118.103 34.3878C117.55 35.374 116.768 36.1476 115.759 36.709C114.751 37.2626 113.609 37.5395 112.335 37.5395ZM112.335 34.6837C113.002 34.6837 113.594 34.532 114.11 34.2286C114.626 33.9176 115.024 33.4852 115.304 32.9315C115.585 32.3702 115.725 31.7292 115.725 31.0086C115.725 30.2805 115.585 29.6357 115.304 29.0744C115.024 28.5131 114.626 28.0808 114.11 27.7774C113.594 27.4664 113.002 27.3109 112.335 27.3109C111.675 27.3109 111.087 27.4664 110.571 27.7774C110.063 28.0808 109.669 28.5131 109.388 29.0744C109.107 29.6357 108.971 30.2805 108.978 31.0086C108.978 31.7292 109.119 32.3702 109.399 32.9315C109.688 33.4852 110.082 33.9176 110.583 34.2286C111.091 34.532 111.675 34.6837 112.335 34.6837ZM122.313 24.7282H118.854L122.598 37.2665H125.624L128.086 29.2583L130.744 37.2665H133.725L137.48 24.7282H134.351L132.221 32.5325L129.867 24.7282H126.841L124.499 32.7044L122.313 24.7282Z" fill="black"/>
<path fill-rule="evenodd" clip-rule="evenodd" d="M38.5702 17.25L27.0607 39.75H16.25L21.0667 30.425H20.8506C16.8769 35.5835 10.9479 38.9794 2.5 39.75V30.5541C2.5 30.5541 7.90431 30.2349 11.0814 26.8947H2.5V17.2502H12.1445V25.1826L12.361 25.1818L16.3021 17.2502H23.596V25.1323L23.8124 25.132L27.9014 17.25H38.5702ZM101.333 37.2665H104.439V19.4375H101.333V37.2665ZM84.2092 37.0844C84.8842 37.3651 85.5707 37.5054 86.2686 37.5054C87.4214 37.5054 88.4531 37.2248 89.3633 36.6634C90.2734 36.1022 90.9789 35.3286 91.4796 34.3424C91.9802 33.3488 92.2304 32.2223 92.2304 30.9632C92.2304 29.7041 91.9726 28.5777 91.4568 27.584C90.9409 26.5904 90.2242 25.8205 89.3063 25.2744C88.3886 24.7206 87.3456 24.4476 86.1774 24.4552C85.4342 24.4552 84.7212 24.5993 84.0384 24.8875C83.3558 25.1758 82.7869 25.5854 82.3318 26.1163C82.2967 26.1567 82.2626 26.1976 82.2294 26.2388V19.4489H79.1119V37.2666H82.2067L82.2004 35.6021C82.2804 35.7002 82.3661 35.7961 82.4569 35.8898C82.9499 36.3981 83.5341 36.7962 84.2092 37.0844ZM87.3949 34.2059C86.8867 34.5169 86.3064 34.6724 85.6541 34.6724C85.0093 34.6724 84.4177 34.5131 83.8792 34.1946C83.3406 33.8683 82.9121 33.4247 82.5934 32.8633C82.2824 32.3021 82.1269 31.6648 82.1269 30.9518C82.1194 30.2388 82.2711 29.6017 82.5821 29.0404C82.9007 28.4715 83.3292 28.0316 83.8678 27.7206C84.4063 27.402 85.0018 27.2465 85.6541 27.2541C86.3064 27.2465 86.8867 27.3982 87.3949 27.7092C87.9107 28.0126 88.3051 28.4488 88.5782 29.0176C88.8588 29.5789 88.9992 30.2237 88.9992 30.9518C88.9992 31.6801 88.8588 32.3248 88.5782 32.8861C88.3051 33.4474 87.9107 33.8873 87.3949 34.2059ZM43.0701 20.5184H46.6199L49.7954 32.1154L53.1736 20.5184H56.1318L59.7954 31.8827L62.8447 20.5184H66.0987L61.2973 37.2665H58.2367L54.5112 26.1645L51.0914 37.2665H47.9967L43.0701 20.5184ZM71.3413 37.5623C70.1048 37.5699 68.9898 37.2968 67.9962 36.7431C67.01 36.1818 66.2327 35.4043 65.6637 34.4106C65.1024 33.417 64.8218 32.283 64.8218 31.0086C64.8218 29.7723 65.11 28.6535 65.6865 27.6523C66.2629 26.651 67.0442 25.8697 68.0303 25.3084C69.0164 24.7471 70.1162 24.4665 71.3298 24.4665C72.6952 24.4665 73.8898 24.7699 74.9138 25.3767C75.9454 25.9835 76.7153 26.8444 77.2235 27.9595C77.7393 29.0669 77.9252 30.3374 77.781 31.771H68.0352C68.0624 32.3421 68.2049 32.8618 68.4627 33.3298C68.7509 33.8455 69.1529 34.2475 69.6686 34.5358C70.1845 34.824 70.7609 34.9681 71.3982 34.9681C71.8835 34.9605 72.3349 34.8771 72.752 34.7179C73.1693 34.551 73.5219 34.3273 73.8102 34.0465C74.106 33.7659 74.3147 33.4474 74.436 33.0909H77.69C77.4928 33.9631 77.0984 34.7406 76.5068 35.4233C75.915 36.0984 75.1718 36.6255 74.2766 37.0048C73.3817 37.384 72.4032 37.5699 71.3413 37.5623ZM68.474 28.6421C68.2923 28.9591 68.1663 29.3004 68.0962 29.6661H74.5565C74.5097 29.2041 74.367 28.7832 74.1288 28.4032C73.8557 27.9557 73.484 27.6105 73.0138 27.3678C72.5435 27.1175 72.0125 26.9924 71.4209 26.9924C70.7913 26.9924 70.2187 27.1365 69.7028 27.4247C69.187 27.7129 68.7774 28.1188 68.474 28.6421ZM94.5178 24.7282C94.5178 23.7118 94.749 22.8092 95.2118 22.0203C95.6744 21.2239 96.323 20.6057 97.1574 20.1657C97.9993 19.7182 98.9816 19.4868 100.104 19.4717V22.2365C99.5808 22.2441 99.1333 22.354 98.7616 22.5664C98.3975 22.7712 98.1169 23.0708 97.9196 23.4653C97.7381 23.8284 97.6401 24.2494 97.6258 24.7282H100.036V27.3565H97.6239V37.2665H94.5178V27.3565H92.5153V24.7282H94.5178ZM112.335 37.5395C111.068 37.5395 109.934 37.2626 108.933 36.709C107.939 36.1476 107.158 35.374 106.589 34.3878C106.028 33.3942 105.747 32.2678 105.747 31.0086C105.747 29.742 106.028 28.6117 106.589 27.6181C107.158 26.6168 107.939 25.8393 108.933 25.2856C109.934 24.7319 111.068 24.455 112.335 24.455C113.609 24.455 114.747 24.7319 115.748 25.2856C116.757 25.8393 117.542 26.613 118.103 27.6067C118.665 28.6003 118.949 29.7343 118.957 31.0086C118.949 32.2678 118.665 33.3942 118.103 34.3878C117.55 35.374 116.768 36.1476 115.759 36.709C114.751 37.2626 113.609 37.5395 112.335 37.5395ZM112.335 34.6837C113.002 34.6837 113.594 34.532 114.11 34.2286C114.626 33.9176 115.024 33.4852 115.304 32.9315C115.585 32.3702 115.725 31.7292 115.725 31.0086C115.725 30.2805 115.585 29.6357 115.304 29.0744C115.024 28.5131 114.626 28.0808 114.11 27.7774C113.594 27.4664 113.002 27.3109 112.335 27.3109C111.675 27.3109 111.087 27.4664 110.571 27.7774C110.063 28.0808 109.669 28.5131 109.388 29.0744C109.107 29.6357 108.971 30.2805 108.978 31.0086C108.978 31.7292 109.119 32.3702 109.399 32.9315C109.688 33.4852 110.082 33.9176 110.583 34.2286C111.091 34.532 111.675 34.6837 112.335 34.6837ZM122.313 24.7282H118.854L122.598 37.2665H125.624L128.086 29.2583L130.744 37.2665H133.725L137.48 24.7282H134.351L132.221 32.5325L129.867 24.7282H126.841L124.499 32.7044L122.313 24.7282Z" fill="black"/>
<path d="M38.5702 17.25L27.0607 39.75H16.25L21.0667 30.425H20.8506C16.8769 35.5835 10.9479 38.9794 2.5 39.75V30.5541C2.5 30.5541 7.90431 30.2349 11.0814 26.8947H2.5V17.2502H12.1445V25.1826L12.361 25.1818L16.3021 17.2502H23.596V25.1323L23.8124 25.132L27.9014 17.25H38.5702ZM101.333 37.2665H104.439V19.4375H101.333V37.2665ZM84.2092 37.0844C84.8842 37.3651 85.5707 37.5054 86.2686 37.5054C87.4214 37.5054 88.4531 37.2248 89.3633 36.6634C90.2734 36.1022 90.9789 35.3286 91.4796 34.3424C91.9802 33.3488 92.2304 32.2223 92.2304 30.9632C92.2304 29.7041 91.9726 28.5777 91.4568 27.584C90.9409 26.5904 90.2242 25.8205 89.3063 25.2744C88.3886 24.7206 87.3456 24.4476 86.1774 24.4552C85.4342 24.4552 84.7212 24.5993 84.0384 24.8875C83.3558 25.1758 82.7869 25.5854 82.3318 26.1163C82.2967 26.1567 82.2626 26.1976 82.2294 26.2388V19.4489H79.1119V37.2666H82.2067L82.2004 35.6021C82.2804 35.7002 82.3661 35.7961 82.4569 35.8898C82.9499 36.3981 83.5341 36.7962 84.2092 37.0844ZM87.3949 34.2059C86.8867 34.5169 86.3064 34.6724 85.6541 34.6724C85.0093 34.6724 84.4177 34.5131 83.8792 34.1946C83.3406 33.8683 82.9121 33.4247 82.5934 32.8633C82.2824 32.3021 82.1269 31.6648 82.1269 30.9518C82.1194 30.2388 82.2711 29.6017 82.5821 29.0404C82.9007 28.4715 83.3292 28.0316 83.8678 27.7206C84.4063 27.402 85.0018 27.2465 85.6541 27.2541C86.3064 27.2465 86.8867 27.3982 87.3949 27.7092C87.9107 28.0126 88.3051 28.4488 88.5782 29.0176C88.8588 29.5789 88.9992 30.2237 88.9992 30.9518C88.9992 31.6801 88.8588 32.3248 88.5782 32.8861C88.3051 33.4474 87.9107 33.8873 87.3949 34.2059ZM43.0701 20.5184H46.6199L49.7954 32.1154L53.1736 20.5184H56.1318L59.7954 31.8827L62.8447 20.5184H66.0987L61.2973 37.2665H58.2367L54.5112 26.1645L51.0914 37.2665H47.9967L43.0701 20.5184ZM71.3413 37.5623C70.1048 37.5699 68.9898 37.2968 67.9962 36.7431C67.01 36.1818 66.2327 35.4043 65.6637 34.4106C65.1024 33.417 64.8218 32.283 64.8218 31.0086C64.8218 29.7723 65.11 28.6535 65.6865 27.6523C66.2629 26.651 67.0442 25.8697 68.0303 25.3084C69.0164 24.7471 70.1162 24.4665 71.3298 24.4665C72.6952 24.4665 73.8898 24.7699 74.9138 25.3767C75.9454 25.9835 76.7153 26.8444 77.2235 27.9595C77.7393 29.0669 77.9252 30.3374 77.781 31.771H68.0352C68.0624 32.3421 68.2049 32.8618 68.4627 33.3298C68.7509 33.8455 69.1529 34.2475 69.6686 34.5358C70.1845 34.824 70.7609 34.9681 71.3982 34.9681C71.8835 34.9605 72.3349 34.8771 72.752 34.7179C73.1693 34.551 73.5219 34.3273 73.8102 34.0465C74.106 33.7659 74.3147 33.4474 74.436 33.0909H77.69C77.4928 33.9631 77.0984 34.7406 76.5068 35.4233C75.915 36.0984 75.1718 36.6255 74.2766 37.0048C73.3817 37.384 72.4032 37.5699 71.3413 37.5623ZM68.474 28.6421C68.2923 28.9591 68.1663 29.3004 68.0962 29.6661H74.5565C74.5097 29.2041 74.367 28.7832 74.1288 28.4032C73.8557 27.9557 73.484 27.6105 73.0138 27.3678C72.5435 27.1175 72.0125 26.9924 71.4209 26.9924C70.7913 26.9924 70.2187 27.1365 69.7028 27.4247C69.187 27.7129 68.7774 28.1188 68.474 28.6421ZM94.5178 24.7282C94.5178 23.7118 94.749 22.8092 95.2118 22.0203C95.6744 21.2239 96.323 20.6057 97.1574 20.1657C97.9993 19.7182 98.9816 19.4868 100.104 19.4717V22.2365C99.5808 22.2441 99.1333 22.354 98.7616 22.5664C98.3975 22.7712 98.1169 23.0708 97.9196 23.4653C97.7381 23.8284 97.6401 24.2494 97.6258 24.7282H100.036V27.3565H97.6239V37.2665H94.5178V27.3565H92.5153V24.7282H94.5178ZM112.335 37.5395C111.068 37.5395 109.934 37.2626 108.933 36.709C107.939 36.1476 107.158 35.374 106.589 34.3878C106.028 33.3942 105.747 32.2678 105.747 31.0086C105.747 29.742 106.028 28.6117 106.589 27.6181C107.158 26.6168 107.939 25.8393 108.933 25.2856C109.934 24.7319 111.068 24.455 112.335 24.455C113.609 24.455 114.747 24.7319 115.748 25.2856C116.757 25.8393 117.542 26.613 118.103 27.6067C118.665 28.6003 118.949 29.7343 118.957 31.0086C118.949 32.2678 118.665 33.3942 118.103 34.3878C117.55 35.374 116.768 36.1476 115.759 36.709C114.751 37.2626 113.609 37.5395 112.335 37.5395ZM112.335 34.6837C113.002 34.6837 113.594 34.532 114.11 34.2286C114.626 33.9176 115.024 33.4852 115.304 32.9315C115.585 32.3702 115.725 31.7292 115.725 31.0086C115.725 30.2805 115.585 29.6357 115.304 29.0744C115.024 28.5131 114.626 28.0808 114.11 27.7774C113.594 27.4664 113.002 27.3109 112.335 27.3109C111.675 27.3109 111.087 27.4664 110.571 27.7774C110.063 28.0808 109.669 28.5131 109.388 29.0744C109.107 29.6357 108.971 30.2805 108.978 31.0086C108.978 31.7292 109.119 32.3702 109.399 32.9315C109.688 33.4852 110.082 33.9176 110.583 34.2286C111.091 34.532 111.675 34.6837 112.335 34.6837ZM122.313 24.7282H118.854L122.598 37.2665H125.624L128.086 29.2583L130.744 37.2665H133.725L137.48 24.7282H134.351L132.221 32.5325L129.867 24.7282H126.841L124.499 32.7044L122.313 24.7282Z" fill="black"/>
</svg>
