<svg width="141" height="57" viewBox="0 0 141 57" fill="none" xmlns="http://www.w3.org/2000/svg">
<path fill-rule="evenodd" clip-rule="evenodd" d="M36.0544 19.7345L36.3055 20.183C36.6218 20.7279 36.7888 21.3466 36.7899 21.9766V35.8781C36.7847 36.5076 36.6179 37.1253 36.3055 37.6719L36.0365 38.1203C35.7293 38.6693 35.276 39.1224 34.7271 39.4297L22.6911 46.3894C22.1461 46.7055 21.5275 46.8725 20.8974 46.8737H20.3951C19.7642 46.8796 19.1437 46.7121 18.6014 46.3894L6.54754 39.4477C6.01029 39.1252 5.56061 38.6755 5.23812 38.1382L4.987 37.6898C4.67084 37.1448 4.50381 36.5261 4.50269 35.8961V21.9946C4.50381 21.3646 4.67084 20.7459 4.987 20.2009L5.23812 19.7525C5.55248 19.2089 6.00399 18.7573 6.54754 18.443L18.5835 11.4833C19.1285 11.1672 19.7471 11.0002 20.3772 10.999H20.8974C21.5275 11.0002 22.1461 11.1672 22.6911 11.4833L34.7271 18.4251C35.2737 18.7415 35.7306 19.1922 36.0544 19.7345ZM20.8974 14.5864H20.3772L9.88391 20.6493L20.6463 26.8555L31.4087 20.6493L20.8974 14.5864ZM32.9333 36.3267L22.44 42.3895V29.9768L33.2024 23.7526V35.8782L32.9333 36.3267ZM83.566 37.5465H79.8464V17.9159H83.566V37.5465ZM50.0027 37.9673H54.1613V30.8383H55.9694L60.3863 37.9673H64.829L59.9472 30.1151C62.1169 29.4693 63.7441 27.997 63.7441 25.2074V25.1041C63.7441 21.2813 60.9804 19.499 56.6151 19.499H50.0027V37.9673ZM54.1613 27.997V22.7019H56.5118C58.5265 22.7019 59.6631 23.3477 59.6631 25.2332V25.3366C59.6631 27.1188 58.6041 27.997 56.5118 27.997H54.1613ZM71.5833 37.8299C75.2769 37.8299 77.6016 36.2027 78.0406 33.2839H74.502C74.2695 34.4204 73.4172 35.1695 71.6866 35.1695C69.646 35.1695 68.4321 33.878 68.3287 31.6309H78.0665V30.5977C78.0665 25.7674 74.967 23.7269 71.4799 23.7269C67.5538 23.7269 64.5317 26.4907 64.5317 30.7526V30.9592C64.5317 35.2728 67.5021 37.8299 71.5833 37.8299ZM68.3803 29.332C68.6645 27.4205 69.801 26.3099 71.4799 26.3099C73.2622 26.3099 74.2954 27.2914 74.4246 29.332H68.3803ZM90.7012 37.831C92.9228 37.831 94.2913 36.7978 94.9886 35.4289V37.5469H98.7082V24.038H94.9886V31.9677C94.9886 33.9567 93.7488 34.9381 92.1738 34.9381C90.5725 34.9381 89.8227 34.0599 89.8227 32.226V24.038H86.1036V32.7426C86.1036 36.2813 88.0665 37.831 90.7012 37.831ZM104.993 37.5458H101.247V24.0369H104.993V26.1032C105.664 24.8376 107.111 23.7269 109.126 23.7269C110.908 23.7269 112.251 24.476 112.897 26.0774C113.982 24.4501 115.738 23.7269 117.443 23.7269C119.949 23.7269 121.886 25.3025 121.886 28.8929V37.5458H118.166V29.3062C118.166 27.5755 117.391 26.8006 116.048 26.8006C114.602 26.8006 113.44 27.7306 113.44 29.5645V37.5458H109.72V29.3062C109.72 27.5755 108.919 26.8006 107.602 26.8006C106.155 26.8006 104.993 27.7306 104.993 29.5645V37.5458ZM130.534 37.8299C134.228 37.8299 136.553 36.2027 136.992 33.2839H133.453C133.22 34.4204 132.368 35.1695 130.637 35.1695C128.597 35.1695 127.383 33.878 127.28 31.6309H137.018V30.5977C137.018 25.7674 133.918 23.7269 130.431 23.7269C126.505 23.7269 123.483 26.4907 123.483 30.7526V30.9592C123.483 35.2728 126.453 37.8299 130.534 37.8299ZM127.332 29.332C127.616 27.4205 128.753 26.3099 130.431 26.3099C132.213 26.3099 133.247 27.2914 133.376 29.332H127.332Z" fill="black"/>
</svg>
