<svg width="33" height="33" viewBox="0 0 33 33" fill="none" xmlns="http://www.w3.org/2000/svg">
<path d="M25.8336 16.1656V16.8322C25.8336 17.2004 25.5352 17.4989 25.167 17.4989H17.5003V25.1656C17.5003 25.5337 17.2018 25.8322 16.8336 25.8322H16.167C15.7988 25.8322 15.5003 25.5337 15.5003 25.1656V17.4989H7.83366C7.46547 17.4989 7.16699 17.2004 7.16699 16.8322V16.1656C7.16699 15.7974 7.46547 15.4989 7.83366 15.4989H15.5003V7.83219C15.5003 7.464 15.7988 7.16553 16.167 7.16553H16.8336C17.2018 7.16553 17.5003 7.464 17.5003 7.83219V15.4989H25.167C25.5352 15.4989 25.8336 15.7974 25.8336 16.1656Z" fill="black"/>
</svg>
