<svg width="32" height="33" viewBox="0 0 32 33" fill="none" xmlns="http://www.w3.org/2000/svg">
<path d="M25.3336 16.1656V16.8322C25.3336 17.2004 25.0352 17.4989 24.667 17.4989H17.0003V25.1656C17.0003 25.5337 16.7018 25.8322 16.3336 25.8322H15.667C15.2988 25.8322 15.0003 25.5337 15.0003 25.1656V17.4989H7.33366C6.96547 17.4989 6.66699 17.2004 6.66699 16.8322V16.1656C6.66699 15.7974 6.96547 15.4989 7.33366 15.4989H15.0003V7.83219C15.0003 7.464 15.2988 7.16553 15.667 7.16553H16.3336C16.7018 7.16553 17.0003 7.464 17.0003 7.83219V15.4989H24.667C25.0352 15.4989 25.3336 15.7974 25.3336 16.1656Z" fill="black"/>
</svg>
